<svg width="719" height="994" viewBox="0 0 719 994" fill="none" xmlns="http://www.w3.org/2000/svg">
<path d="M643.205 945.984C643.205 972.331 533.738 993.704 398.711 993.704C263.671 993.704 154.205 972.331 154.205 945.984C154.205 919.624 263.671 898.251 398.711 898.251C533.738 898.251 643.205 919.624 643.205 945.984Z" fill="#473025"/>
<path d="M173.952 605.197C136.712 605.197 105.952 590.371 104.365 589.597C96.4716 585.731 93.205 576.184 97.085 568.29C100.952 560.397 110.472 557.144 118.352 560.984C118.992 561.291 157.445 579.517 194.605 571.157C234.271 562.237 278.925 529.877 279.378 529.544C286.472 524.357 296.445 525.917 301.632 533.011C306.818 540.104 305.272 550.064 298.178 555.251C296.138 556.744 247.791 591.837 201.591 602.237C192.218 604.344 182.898 605.197 173.952 605.197Z" fill="#473025"/>
<path d="M144.245 563.678C145.365 575.784 141.418 605.984 125.805 606.704C122.711 606.477 118.845 603.984 117.711 600.878C118.685 600.184 119.618 599.411 120.485 598.557C120.552 598.651 120.618 598.744 120.658 598.851C121.671 601.211 124.098 603.424 126.818 603.131C139.992 599.624 144.392 564.491 137.885 554.171C135.938 549.837 128.898 543.104 125.658 549.784C125.471 550.091 125.205 550.451 124.885 550.744C124.325 549.531 123.738 548.318 123.138 547.118C123.285 546.891 123.445 546.677 123.591 546.491C125.845 542.677 130.805 542.731 134.245 544.878C140.511 548.784 143.631 556.558 144.245 563.678Z" fill="#473025"/>
<path d="M89.9782 577.797C90.3382 576.437 89.3783 575.424 88.0316 575.984C84.925 577.918 83.5383 581.984 81.6983 585.064C81.0583 586.824 78.685 589.851 81.2183 591.051C81.4583 591.131 81.6715 591.157 81.8715 591.157C83.2448 591.157 83.6982 589.424 84.1249 588.251C84.8982 586.491 85.8183 584.757 86.8183 583.077C87.725 581.237 89.4182 579.771 89.9782 577.797ZM106.552 581.637C107.565 579.824 105.405 578.917 104.178 578.104C102.805 577.131 101.485 576.077 100.192 574.957C91.5915 567.637 85.925 556.851 84.7517 545.584C84.9117 543.478 82.6981 541.304 81.4715 543.971C80.6048 548.531 82.6583 553.264 84.0316 557.571C87.565 567.851 94.9515 576.531 104.125 582.264C104.392 582.437 104.698 582.518 104.992 582.518C105.618 582.518 106.232 582.184 106.552 581.637ZM137.885 554.171C144.392 564.491 139.992 599.624 126.818 603.131C124.098 603.424 121.672 601.211 120.658 598.851C120.618 598.744 120.552 598.651 120.485 598.557C122.485 596.611 124.191 594.278 125.538 591.451C126.751 589.504 123.672 587.637 122.512 589.597C121.325 591.677 120.205 593.838 118.538 595.584C112.751 601.224 104.378 603.464 96.485 603.784C90.1517 604.251 83.7515 604.198 77.3249 603.851C75.1649 603.771 72.9917 603.744 70.8183 603.784C72.3783 602.864 73.8183 601.771 75.0983 600.451C78.5116 597.291 79.565 590.811 75.085 588.118C74.3917 587.784 73.6048 587.344 72.8048 586.984C75.2581 585.264 77.3917 583.211 79.0183 580.837C82.3783 575.424 78.0583 570.891 73.8183 569.304C82.6583 562.971 83.6981 551.797 68.3381 549.757C60.9248 548.917 52.805 548.531 45.485 550.584C44.645 550.064 43.2716 549.797 42.0449 550.037C31.0049 550.597 13.0182 548.117 4.77825 540.304C-0.461752 533.451 13.3517 532.291 17.6184 532.157C24.285 531.651 30.765 532.331 37.4183 532.931C37.3917 532.984 37.3649 533.051 37.3249 533.104C38.4849 533.131 39.6448 533.171 40.8048 533.211C40.8181 533.211 40.8316 533.211 40.8449 533.211C40.9116 533.224 40.965 533.224 41.0183 533.211C41.9783 533.251 42.925 533.277 43.885 533.304C44.9517 533.277 47.3516 533.424 50.365 533.571C53.1916 533.704 56.565 533.837 59.8983 533.837C65.9516 533.837 71.8183 533.398 73.9517 531.651C74.0317 531.784 74.0982 531.904 74.1782 532.024C74.2449 531.984 74.3249 531.931 74.3915 531.877C75.5249 534.117 76.7782 536.251 78.1116 538.264C78.8049 539.611 81.0183 539.291 81.3517 537.837C81.485 537.357 81.3916 536.904 81.1782 536.464C79.6316 533.651 77.7782 530.984 76.3782 528.077C73.9782 522.957 72.605 517.371 72.085 511.731C71.8183 507.037 71.9516 502.384 73.4983 497.757C74.8183 493.144 79.8182 485.251 84.2449 491.784C86.2449 495.118 86.365 499.184 87.4983 502.837C88.8316 507.691 90.6716 512.451 93.365 516.718C97.6716 523.971 105.418 528.077 110.738 534.464C114.858 539.344 118.298 544.984 121.005 550.837C121.631 552.184 122.232 553.558 122.778 554.918C124.098 557.638 123.832 561.371 125.992 563.544C126.378 563.691 126.698 563.757 126.978 563.757C130.192 563.757 126.165 554.077 125.538 552.171C125.325 551.704 125.098 551.224 124.885 550.757V550.744C125.205 550.451 125.472 550.091 125.658 549.784C128.898 543.104 135.938 549.837 137.885 554.171Z" fill="#EDE7CB"/>
<path d="M125.538 552.171C126.165 554.078 130.192 563.758 126.978 563.758C126.698 563.758 126.378 563.691 125.992 563.545C123.832 561.371 124.098 557.638 122.778 554.918C122.232 553.558 121.632 552.184 121.005 550.838L122.192 550.398C122.298 550.745 122.498 551.065 122.818 551.345C123.552 551.691 124.298 551.304 124.885 550.758C125.098 551.224 125.325 551.704 125.538 552.171Z" fill="#473025"/>
<path d="M122.512 589.598C123.672 587.638 126.752 589.504 125.538 591.451C124.192 594.278 122.485 596.611 120.485 598.558C119.725 597.491 117.818 597.704 117.392 599.038C117.378 599.664 117.498 600.291 117.712 600.878C109.725 606.638 98.565 607.691 88.1783 607.691C85.245 607.691 82.3918 607.598 79.6851 607.518C76.6051 607.384 73.525 607.264 70.445 607.318C69.7517 607.224 68.7383 607.331 67.6583 607.438C65.7383 607.638 63.5784 607.824 62.5518 606.891C65.4851 606.264 68.2984 605.264 70.8184 603.784C72.9918 603.744 75.1649 603.771 77.3249 603.851C83.7516 604.198 90.1518 604.251 96.4851 603.784C104.378 603.464 112.752 601.224 118.538 595.584C120.205 593.838 121.325 591.678 122.512 589.598Z" fill="#473025"/>
<path d="M124.885 550.744V550.758C124.298 551.304 123.552 551.691 122.818 551.344C122.498 551.064 122.298 550.744 122.192 550.398C121.858 549.344 122.458 548.091 123.138 547.118C123.738 548.318 124.325 549.531 124.885 550.744Z" fill="#473025"/>
<path d="M122.192 550.398L121.005 550.837C118.298 544.984 114.858 539.344 110.738 534.464C105.418 528.078 97.672 523.971 93.3653 516.718C90.672 512.451 88.832 507.691 87.4986 502.837C86.3653 499.184 86.2452 495.118 84.2452 491.784C79.8186 485.251 74.8186 493.144 73.4986 497.757C71.952 502.384 71.8187 507.038 72.0853 511.731C72.6053 517.371 73.9786 522.958 76.3786 528.078C77.7786 530.984 79.6319 533.651 81.1786 536.464C81.3919 536.904 81.4853 537.357 81.352 537.837C81.0187 539.291 78.8052 539.611 78.1119 538.264C76.7786 536.251 75.5252 534.118 74.3918 531.878C75.4585 531.104 75.9385 530.091 75.4585 528.784C74.8052 528.251 73.8986 528.371 72.8986 528.731C67.352 516.051 65.8585 500.958 73.9385 489.331C79.5518 481.704 88.3918 487.518 89.3918 495.398C90.8852 502.691 92.9918 510.024 97.2718 516.224C101.392 522.024 107.739 525.664 112.379 530.984C116.752 535.771 120.218 541.318 123.138 547.118C122.458 548.091 121.859 549.344 122.192 550.398Z" fill="#473025"/>
<path d="M117.392 599.038C117.818 597.704 119.725 597.491 120.485 598.558C119.618 599.411 118.685 600.185 117.712 600.878C117.498 600.291 117.378 599.664 117.392 599.038Z" fill="#473025"/>
<path d="M104.178 578.104C105.405 578.917 107.565 579.824 106.552 581.637C106.232 582.184 105.618 582.518 104.991 582.518C104.698 582.518 104.391 582.438 104.125 582.264C94.9514 576.531 87.5648 567.851 84.0315 557.571C82.6581 553.264 80.6047 548.531 81.4713 543.971C82.698 541.304 84.9115 543.478 84.7515 545.584C85.9249 556.851 91.5914 567.637 100.191 574.957C101.485 576.077 102.805 577.131 104.178 578.104Z" fill="#473025"/>
<path d="M88.0317 575.984C89.3784 575.424 90.3383 576.437 89.9783 577.797C89.4183 579.771 87.7251 581.237 86.8184 583.077C85.8184 584.757 84.8983 586.491 84.1249 588.251C83.6983 589.424 83.2449 591.157 81.8715 591.157C81.6715 591.157 81.4584 591.131 81.2184 591.051C78.6851 589.851 81.0584 586.824 81.6984 585.064C83.5384 581.984 84.925 577.917 88.0317 575.984Z" fill="#473025"/>
<path d="M73.8184 569.304C78.0584 570.891 82.3784 575.424 79.0184 580.838C77.3917 583.211 75.2582 585.264 72.8048 586.984C71.5515 586.438 70.2448 586.104 69.0715 586.771L67.4316 586.064C72.8583 583.371 81.5383 576.464 72.9783 572.838C71.8983 572.304 70.205 572.411 69.0316 571.904C70.805 571.198 72.405 570.318 73.8184 569.304Z" fill="#473025"/>
<path d="M75.4583 528.785C75.9383 530.091 75.4583 531.105 74.3917 531.878C74.3117 531.745 74.2451 531.598 74.1784 531.465C74.6584 530.998 74.885 530.438 74.7917 529.785C74.2983 529.118 73.6718 528.878 72.9651 528.878C72.9384 528.825 72.9251 528.771 72.8984 528.731C73.8984 528.371 74.805 528.251 75.4583 528.785Z" fill="#473025"/>
<path d="M75.0851 588.117C79.5651 590.811 78.5117 597.291 75.0984 600.451C73.8184 601.771 72.3784 602.864 70.8184 603.784C69.4584 603.811 68.0983 603.851 66.7249 603.917C65.8716 603.957 64.8316 603.931 63.9249 604.157L63.5518 602.917C65.5251 602.357 67.4449 601.611 69.2583 600.691C73.4049 598.344 77.8849 591.877 70.8583 590.091C70.3516 589.971 69.6715 589.637 69.1382 589.197C70.4182 588.531 71.6449 587.797 72.8049 586.984C73.6049 587.344 74.3918 587.784 75.0851 588.117Z" fill="#473025"/>
<path d="M74.7919 529.784C74.8852 530.438 74.6586 530.998 74.1786 531.464C73.7519 530.611 73.352 529.744 72.9653 528.878C73.672 528.878 74.2986 529.118 74.7919 529.784Z" fill="#473025"/>
<path d="M74.3915 531.878C74.3248 531.931 74.2449 531.984 74.1782 532.024C74.0982 531.904 74.0317 531.785 73.9517 531.651C74.0317 531.598 74.1116 531.531 74.1782 531.465C74.2449 531.598 74.3115 531.744 74.3915 531.878Z" fill="#473025"/>
<path d="M68.338 549.758C83.698 551.798 82.6582 562.971 73.8182 569.304C72.1115 568.664 70.4314 568.491 69.258 568.931L68.8047 567.998C69.6047 567.611 70.3781 567.211 71.1648 566.771C76.6181 563.584 79.818 556.638 71.9247 554.171C67.7514 553.224 62.8181 552.544 57.8448 552.544C53.3248 552.544 48.7647 553.118 44.7247 554.558L44.3247 553.464C46.8047 552.491 46.6315 551.304 45.4849 550.584C52.8049 548.531 60.9247 548.918 68.338 549.758Z" fill="#473025"/>
<path d="M74.1784 531.465C74.1117 531.531 74.0318 531.598 73.9518 531.651C73.5785 531.025 73.2316 530.411 72.8716 529.771C72.7116 529.478 72.5651 529.198 72.4185 528.918C72.6051 528.891 72.7917 528.878 72.9651 528.878C73.3517 529.745 73.7517 530.611 74.1784 531.465Z" fill="#473025"/>
<path d="M72.8713 529.771C73.2313 530.411 73.5781 531.024 73.9515 531.651C71.8181 533.398 65.9514 533.837 59.8981 533.837C56.5647 533.837 53.1914 533.704 50.3647 533.571C47.3514 533.424 44.9515 533.277 43.8848 533.304C42.9248 533.277 41.9781 533.251 41.0181 533.211C43.1515 533.158 43.2713 529.784 41.058 529.678C40.4846 529.651 39.9247 529.624 39.3647 529.584C46.0981 529.811 52.8179 530.224 59.5379 530.371C62.7113 530.237 65.898 530.051 69.0447 529.637C70.0714 529.571 71.2981 529.051 72.4181 528.918C72.5648 529.198 72.7113 529.477 72.8713 529.771Z" fill="#473025"/>
<path d="M72.9783 572.838C81.5383 576.464 72.8583 583.371 67.4317 586.064C66.8983 586.331 66.3782 586.558 65.9382 586.744C59.4315 589.478 52.3649 591.384 45.2582 590.664C36.7782 590.824 32.3916 580.958 39.045 575.304C39.485 575.078 39.7649 574.771 39.9249 574.424C40.5916 574.691 41.2983 574.918 42.0317 575.104C44.525 575.691 47.045 575.958 49.5783 575.958C55.485 575.958 61.4184 574.544 66.9517 572.624C67.6717 572.424 68.365 572.171 69.0317 571.904C70.205 572.411 71.8983 572.304 72.9783 572.838Z" fill="#EDE7CB"/>
<path d="M72.9651 528.878C72.7917 528.878 72.6051 528.891 72.4185 528.918V528.904C72.5785 528.838 72.7384 528.785 72.8984 528.731C72.9251 528.771 72.9384 528.825 72.9651 528.878Z" fill="#473025"/>
<path d="M49.4449 572.411C42.9782 573.037 32.1515 568.637 35.6581 560.677C38.0315 557.811 41.1781 555.837 44.7248 554.557C48.7648 553.117 53.3249 552.544 57.8449 552.544C62.8182 552.544 67.7515 553.224 71.9248 554.171C79.8181 556.637 76.6182 563.584 71.1649 566.771C70.3782 567.211 69.6047 567.611 68.8047 567.997C62.8047 570.851 56.0981 572.211 49.4714 572.411C49.4581 572.411 49.4582 572.411 49.4449 572.411Z" fill="#EDE7CB"/>
<path d="M70.8583 590.091C77.885 591.877 73.405 598.344 69.2583 600.691C67.445 601.611 65.5252 602.358 63.5518 602.918C59.4585 604.078 55.1117 604.491 50.925 604.237C46.2317 603.997 38.765 600.158 41.725 594.598C41.9117 594.371 42.0318 594.131 42.0852 593.891C43.2852 594.171 44.565 594.318 45.9383 594.278C46.4983 594.304 47.0717 594.318 47.6583 594.318C54.525 594.304 62.5516 592.664 69.1383 589.198C69.6716 589.638 70.3517 589.971 70.8583 590.091Z" fill="#EDE7CB"/>
<path d="M69.2583 568.931C70.4316 568.491 72.1118 568.664 73.8184 569.304C72.4051 570.318 70.805 571.198 69.0317 571.904C68.4317 571.651 67.965 571.238 67.7783 570.504C67.9917 569.718 68.5249 569.211 69.2583 568.931Z" fill="#473025"/>
<path d="M69.0719 586.77C70.2453 586.104 71.5519 586.437 72.8053 586.984C71.6453 587.797 70.4186 588.531 69.1386 589.197C68.3386 588.557 67.8853 587.65 68.8719 586.89C68.9386 586.837 69.0053 586.81 69.0719 586.77Z" fill="#473025"/>
<path d="M68.805 567.998L69.2584 568.931C68.525 569.211 67.9917 569.717 67.7784 570.504C67.9651 571.237 68.4318 571.651 69.0318 571.904C68.3651 572.171 67.6718 572.424 66.9518 572.624C61.4185 574.544 55.4851 575.958 49.5784 575.958C47.0451 575.958 44.5251 575.691 42.0318 575.104C41.2985 574.917 40.5917 574.691 39.925 574.424C40.565 573.011 39.0318 571.078 37.2852 572.198C37.0852 572.358 36.8718 572.531 36.6852 572.691C31.1785 568.824 29.4584 561.984 34.2451 556.784C34.2851 556.758 34.3252 556.731 34.3518 556.704C35.2852 556.784 36.2183 556.851 37.1383 556.931C37.1783 556.931 37.2184 556.931 37.2451 556.931C38.1651 556.931 38.9517 556.118 38.9784 555.224C38.9384 554.558 38.6716 554.118 38.2716 553.811C38.3383 553.758 38.3917 553.704 38.4584 553.664C40.4184 553.651 42.3784 553.624 44.325 553.464L44.725 554.558C41.1784 555.838 38.0317 557.811 35.6584 560.678C32.1517 568.638 42.9784 573.038 49.4451 572.411C49.4584 572.411 49.4583 572.411 49.4716 572.411C56.0983 572.211 62.805 570.851 68.805 567.998Z" fill="#473025"/>
<path d="M69.0715 586.771C69.0048 586.811 68.9381 586.837 68.8715 586.891C67.8848 587.651 68.3381 588.557 69.1381 589.197C62.5515 592.664 54.5248 594.304 47.6582 594.317C47.0715 594.317 46.4981 594.304 45.9381 594.277C44.5648 594.317 43.285 594.171 42.085 593.891C42.4717 592.317 40.2316 590.824 38.9649 592.371C38.8983 592.451 38.8183 592.544 38.7649 592.624C31.6449 588.744 29.4717 578.944 36.685 572.691C37.645 573.371 38.7248 573.957 39.9248 574.424C39.7648 574.771 39.4849 575.077 39.0449 575.304C32.3916 580.957 36.7782 590.824 45.2582 590.664C52.3648 591.384 59.4315 589.477 65.9381 586.744C66.3781 586.557 66.8983 586.331 67.4316 586.064L69.0715 586.771Z" fill="#473025"/>
<path d="M66.7246 603.917C68.0979 603.851 69.4581 603.811 70.8181 603.784C68.2981 605.264 65.4847 606.264 62.5514 606.891C62.2847 606.637 62.0981 606.317 62.0181 605.891C62.2714 604.837 63.0179 604.371 63.9246 604.157C64.8312 603.931 65.8712 603.957 66.7246 603.917Z" fill="#473025"/>
<path d="M63.5519 602.917L63.925 604.157C63.0184 604.37 62.2719 604.837 62.0185 605.89C62.0985 606.317 62.2852 606.637 62.5519 606.89C59.4319 607.557 56.1784 607.811 53.0584 607.811C52.2717 607.811 51.485 607.797 50.725 607.77C47.0184 607.317 43.0985 606.224 40.4185 603.531C37.6719 600.824 36.3251 595.917 38.7651 592.624C39.7651 593.17 40.8852 593.61 42.0852 593.89C42.0319 594.13 41.9117 594.371 41.725 594.597C38.765 600.157 46.2317 603.997 50.925 604.237C55.1117 604.49 59.4585 604.077 63.5519 602.917Z" fill="#473025"/>
<path d="M45.4853 550.584C46.632 551.304 46.8052 552.491 44.3252 553.464C42.3785 553.624 40.4185 553.651 38.4585 553.664C38.6718 553.517 38.8718 553.357 39.0718 553.197C41.0984 552.064 43.2587 551.211 45.4853 550.584Z" fill="#473025"/>
<path d="M42.045 550.038C43.2717 549.798 44.6451 550.064 45.4851 550.584C43.2584 551.211 41.0982 552.064 39.0716 553.198C38.8716 553.358 38.6716 553.518 38.4583 553.664C37.6983 553.678 36.9516 553.678 36.2049 553.691C25.3916 553.024 9.43157 550.491 1.8049 542.291C-0.928429 539.424 -0.488377 534.811 2.65829 532.424C9.85829 527.584 19.2717 528.638 27.5651 528.531C31.5117 528.638 35.4049 529.291 39.3382 529.584C38.8449 529.558 38.3516 529.544 37.8583 529.531C38.005 529.998 38.0717 530.491 38.0317 530.998C37.9784 531.638 37.8051 532.211 37.4984 532.784C37.4717 532.838 37.4451 532.878 37.4184 532.931C30.7651 532.331 24.2851 531.651 17.6184 532.158C13.3518 532.291 -0.461658 533.451 4.77834 540.304C13.0183 548.118 31.005 550.598 42.045 550.038Z" fill="#473025"/>
<path d="M38.9651 592.371C40.2318 590.824 42.4719 592.317 42.0852 593.891C40.8852 593.611 39.7651 593.171 38.7651 592.624C38.8185 592.544 38.8985 592.451 38.9651 592.371Z" fill="#473025"/>
<path d="M41.0583 529.678C43.2716 529.784 43.1518 533.158 41.0185 533.211C40.9651 533.211 40.8984 533.211 40.845 533.211C40.8317 533.211 40.8182 533.211 40.8049 533.211C39.6716 533.118 38.5385 533.024 37.4185 532.931C37.4451 532.878 37.4717 532.838 37.4984 532.784C37.8051 532.211 37.9784 531.638 38.0317 530.998C38.0717 530.491 38.005 529.998 37.8583 529.531C38.3516 529.544 38.8449 529.558 39.3382 529.584C39.3516 529.571 39.3517 529.571 39.3651 529.584C39.9251 529.624 40.485 529.651 41.0583 529.678Z" fill="#473025"/>
<path d="M41.0187 533.211C40.9653 533.224 40.9119 533.224 40.8452 533.211C40.8985 533.211 40.9653 533.211 41.0187 533.211Z" fill="#473025"/>
<path d="M40.8047 533.211C39.6447 533.171 38.4847 533.131 37.3247 533.104C37.3647 533.051 37.3915 532.984 37.4182 532.931C38.5382 533.024 39.6713 533.118 40.8047 533.211Z" fill="#473025"/>
<path d="M37.2851 572.197C39.0317 571.077 40.5649 573.01 39.9249 574.424C38.7249 573.957 37.6451 573.37 36.6851 572.69C36.8717 572.53 37.0851 572.357 37.2851 572.197Z" fill="#473025"/>
<path d="M38.9786 555.224C38.9519 556.117 38.1653 556.931 37.2453 556.931C37.2186 556.931 37.1785 556.931 37.1385 556.931C36.2185 556.851 35.2854 556.784 34.3521 556.704C34.4587 556.624 34.5654 556.544 34.6854 556.451C35.0987 556.557 35.5254 556.637 35.9521 556.717C36.0721 556.744 36.1787 556.757 36.2854 556.757C37.6854 556.757 38.3118 555.197 37.8052 554.157C37.9652 554.037 38.1118 553.917 38.2718 553.811C38.6718 554.117 38.9386 554.557 38.9786 555.224Z" fill="#473025"/>
<path d="M37.8049 554.158C38.3115 555.198 37.6851 556.758 36.2851 556.758C36.1784 556.758 36.0717 556.745 35.9517 556.718C35.5251 556.638 35.0984 556.558 34.6851 556.451C35.3651 555.958 36.0449 555.451 36.7249 554.958C37.0849 554.691 37.4449 554.424 37.8049 554.158Z" fill="#473025"/>
<path d="M37.8051 554.158C37.4451 554.424 37.0852 554.691 36.7252 554.958C36.0452 555.451 35.3653 555.958 34.6853 556.451C34.6053 556.438 34.5385 556.424 34.4585 556.411C34.6852 556.224 34.9118 556.038 35.1252 555.838C35.2452 555.731 35.3786 555.611 35.4986 555.504C36.2186 554.958 36.9253 554.411 37.6187 553.838C37.6987 553.931 37.7651 554.038 37.8051 554.158Z" fill="#473025"/>
<path d="M563.099 917.105C564.445 918.531 566.018 919.905 565.672 922.145C561.152 948.545 526.165 952.345 504.392 954.918C486.085 955.665 443.338 952.158 440.805 928.878C440.658 925.718 442.392 922.718 444.699 920.638C444.765 921.385 444.979 922.091 445.432 922.745C444.219 926.265 452.032 930.625 454.605 932.411C467.005 939.971 481.872 941.825 496.072 943.171C512.192 942.758 528.405 939.665 543.512 933.998C550.552 931.198 558.458 927.051 561.405 919.638C561.632 918.705 561.712 917.745 561.712 916.771C562.098 916.958 562.512 917.078 562.925 917.105C562.978 917.105 563.032 917.105 563.085 917.105C563.085 917.105 563.085 917.105 563.099 917.105Z" fill="#EDE7CB"/>
<path d="M565.671 922.145C566.018 919.905 564.445 918.531 563.098 917.104C565.858 917.198 565.098 914.905 563.538 913.691C563.911 913.625 564.298 913.691 564.658 913.918C575.551 921.971 564.471 936.491 557.005 942.931C545.911 951.185 532.298 954.731 518.791 956.558C511.565 957.705 504.298 958.838 496.951 958.491C479.751 958.225 452.045 954.465 441.218 939.798C437.898 934.585 435.511 927.598 439.138 921.931C440.565 919.745 442.471 916.971 445.218 916.491C445.231 916.491 445.258 916.491 445.271 916.491C444.925 917.891 444.565 919.318 444.698 920.638C442.391 922.718 440.658 925.718 440.805 928.878C443.338 952.158 486.085 955.665 504.391 954.918C526.165 952.345 561.151 948.545 565.671 922.145Z" fill="#473025"/>
<path d="M563.538 913.691C565.098 914.904 565.859 917.198 563.099 917.104C563.085 917.104 563.085 917.104 563.085 917.104C562.725 916.718 562.365 916.331 562.072 915.904C561.738 914.878 562.565 913.864 563.538 913.691Z" fill="#473025"/>
<path d="M563.085 917.104C563.032 917.104 562.978 917.104 562.925 917.104C562.512 917.078 562.098 916.958 561.712 916.771C561.712 915.518 561.565 914.251 561.378 912.998C562.112 912.891 562.885 913.198 563.538 913.691C562.565 913.865 561.738 914.878 562.072 915.904C562.365 916.331 562.725 916.718 563.085 917.104Z" fill="#473025"/>
<path d="M561.712 916.771C561.712 917.744 561.631 918.704 561.405 919.638C558.458 927.051 550.552 931.198 543.512 933.998C528.405 939.664 512.191 942.758 496.071 943.171C481.871 941.824 467.005 939.971 454.605 932.411C452.031 930.624 444.218 926.264 445.432 922.744C444.978 922.091 444.765 921.384 444.698 920.638C444.712 920.624 444.738 920.611 444.752 920.584C445.605 920.131 446.578 918.998 446.818 918.038L448.378 918.331C448.138 919.598 447.938 920.864 447.765 922.131C456.752 932.638 471.125 936.438 484.352 938.131C490.405 939.398 496.551 940.038 502.725 939.411H502.778C519.818 937.198 542.858 934.491 555.712 922.331C557.538 920.531 558.218 917.798 558.125 914.638L559.912 914.598C559.912 915.451 560.712 916.331 561.712 916.771Z" fill="#473025"/>
<path d="M561.378 912.997C561.565 914.251 561.712 915.517 561.712 916.771C560.712 916.331 559.912 915.451 559.912 914.597C559.912 914.011 560.285 913.437 561.232 913.037C561.285 913.024 561.325 913.011 561.378 912.997Z" fill="#473025"/>
<path d="M561.378 912.998C561.325 913.011 561.285 913.024 561.232 913.038C560.285 913.438 559.912 914.011 559.912 914.598L558.125 914.638C557.912 905.984 552.018 894.091 548.632 889.198C546.792 886.451 544.698 883.944 542.392 881.704L543.178 880.904C543.618 881.358 544.272 881.571 544.898 881.398C545.405 881.251 545.712 880.891 545.858 880.358C553.658 888.478 559.058 898.905 560.952 909.998C561.072 910.985 561.245 911.998 561.378 912.998Z" fill="#473025"/>
<path d="M558.125 914.638C558.218 917.798 557.538 920.531 555.712 922.331C542.858 934.491 519.818 937.198 502.778 939.411H502.725C496.552 940.038 490.405 939.398 484.352 938.131C471.125 936.438 456.752 932.638 447.765 922.131C447.938 920.864 448.138 919.598 448.378 918.331C449.712 911.038 451.952 903.758 455.232 897.051C460.152 887.011 467.432 878.278 477.525 872.771C498.125 862.224 525.778 865.504 542.392 881.704C544.698 883.944 546.792 886.451 548.632 889.198C552.018 894.091 557.912 905.984 558.125 914.638Z" fill="#EDE7CB"/>
<path d="M538.085 860.704C539.445 863.171 547.045 876.411 545.858 880.357C544.525 878.944 543.098 877.611 541.605 876.344C537.992 865.477 531.072 856.078 524.125 847.064C525.192 846.531 526.205 845.931 527.152 845.318C530.912 850.358 534.992 855.197 538.085 860.704Z" fill="#473025"/>
<path d="M545.858 880.357C545.712 880.891 545.405 881.251 544.898 881.397C544.272 881.571 543.618 881.357 543.178 880.904C542.978 880.704 542.832 880.451 542.738 880.171C542.418 878.864 542.032 877.597 541.605 876.344C543.098 877.611 544.525 878.944 545.858 880.357Z" fill="#473025"/>
<path d="M543.178 880.904L542.392 881.704C525.778 865.504 498.125 862.224 477.525 872.771C467.432 878.277 460.152 887.011 455.232 897.051L454.392 896.637C454.885 895.264 454.832 892.837 454.712 890.424C455.898 888.464 457.205 886.571 458.645 884.757C474.165 863.011 504.778 858.237 528.538 868.104C533.285 870.197 537.672 872.997 541.605 876.344C542.032 877.597 542.418 878.864 542.738 880.171C542.832 880.451 542.978 880.704 543.178 880.904Z" fill="#473025"/>
<path d="M524.125 847.064C531.072 856.077 537.992 865.477 541.605 876.344C537.672 872.997 533.285 870.197 528.538 868.104C504.778 858.237 474.165 863.01 458.645 884.757C457.205 886.57 455.898 888.464 454.712 890.424C454.578 887.85 454.392 885.304 454.725 884.104C455.978 872.664 459.565 861.33 465.832 851.637C465.845 851.624 465.858 851.624 465.858 851.611C467.978 852.264 470.258 852.597 472.685 852.517C475.538 852.597 486.352 852.771 487.018 849.531C485.845 846.184 479.778 849.357 477.072 849.051C473.218 849.091 469.072 849.077 465.418 847.704C464.405 847.33 463.432 846.85 462.512 846.237C454.725 840.904 452.125 829.037 459.192 822.037C468.952 811.957 486.618 809.904 500.085 808.611C511.912 807.477 525.992 810.637 532.712 821.251C536.992 830.011 531.885 839.264 523.752 843.357C523.525 843.464 523.285 843.584 523.058 843.69C518.098 846.09 512.645 847.357 507.165 847.744C505.792 847.784 503.725 847.691 503.712 849.584C503.712 850.517 504.512 851.371 505.472 851.344C512.725 851.264 519.032 849.651 524.125 847.064Z" fill="#EDE7CB"/>
<path d="M523.752 843.357C531.885 839.264 536.992 830.011 532.712 821.251C525.992 810.638 511.912 807.477 500.085 808.611C486.618 809.904 468.952 811.957 459.192 822.037C452.125 829.037 454.725 840.904 462.512 846.237C463.432 846.851 464.405 847.331 465.418 847.704L465.018 848.677C464.418 848.477 463.725 848.597 463.192 849.277C462.992 849.597 462.778 849.917 462.565 850.237C451.205 844.291 446.845 828.091 458.018 818.144C470.525 807.011 499.845 802.864 516.005 806.051C543.165 814.371 542.898 835.024 527.152 845.318C527.058 845.198 526.965 845.064 526.872 844.944C525.885 843.824 524.805 843.664 524.152 844.118L523.752 843.357Z" fill="#473025"/>
<path d="M526.871 844.944C526.965 845.064 527.058 845.198 527.152 845.318C526.205 845.931 525.192 846.531 524.125 847.064C524.072 847.011 524.032 846.944 523.992 846.891C523.312 845.598 523.525 844.558 524.152 844.118C524.805 843.665 525.885 843.824 526.871 844.944Z" fill="#473025"/>
<path d="M523.752 843.357L524.152 844.118C523.525 844.558 523.311 845.597 523.991 846.891C524.031 846.944 524.071 847.011 524.125 847.064C519.031 849.651 512.725 851.264 505.471 851.344C504.511 851.371 503.711 850.518 503.711 849.584C503.725 847.691 505.791 847.784 507.165 847.744C512.645 847.357 518.098 846.091 523.058 843.691C523.285 843.584 523.525 843.464 523.752 843.357Z" fill="#473025"/>
<path d="M477.071 849.051C479.778 849.358 485.845 846.185 487.018 849.531C486.351 852.771 475.538 852.598 472.685 852.518C470.258 852.598 467.978 852.265 465.858 851.611C466.911 850.465 466.125 849.038 465.018 848.678L465.418 847.704C469.071 849.078 473.218 849.091 477.071 849.051Z" fill="#473025"/>
<path d="M465.018 848.678C466.125 849.038 466.912 850.464 465.858 851.611C464.712 851.251 463.605 850.784 462.565 850.237C462.778 849.917 462.992 849.598 463.192 849.278C463.725 848.598 464.418 848.478 465.018 848.678Z" fill="#473025"/>
<path d="M465.858 851.611C465.858 851.625 465.845 851.624 465.832 851.638C459.565 861.331 455.978 872.664 454.725 884.104C454.392 885.304 454.578 887.851 454.712 890.425C453.565 892.318 452.525 894.265 451.578 896.265C450.552 893.958 451.392 889.785 451.058 887.718C451.472 874.571 455.552 861.371 462.565 850.238C463.605 850.784 464.712 851.251 465.858 851.611Z" fill="#473025"/>
<path d="M454.392 896.638L455.232 897.051C451.952 903.758 449.712 911.038 448.378 918.331L446.818 918.038C447.005 917.211 446.671 916.518 445.271 916.491C445.458 915.638 445.658 914.798 445.725 914.011C447.032 907.931 448.925 901.904 451.578 896.264C451.912 896.998 452.418 897.531 453.232 897.758C453.792 897.704 454.152 897.291 454.392 896.638Z" fill="#473025"/>
<path d="M454.712 890.424C454.832 892.838 454.885 895.264 454.392 896.638C454.152 897.291 453.792 897.704 453.232 897.758C452.419 897.531 451.912 896.998 451.579 896.265C452.525 894.265 453.565 892.318 454.712 890.424Z" fill="#473025"/>
<path d="M445.272 916.491C446.672 916.518 447.005 917.211 446.818 918.038C446.578 918.998 445.605 920.131 444.752 920.585C444.738 920.611 444.712 920.624 444.698 920.638C444.565 919.318 444.925 917.891 445.272 916.491Z" fill="#473025"/>
<path d="M493.432 838.651C486.005 838.651 479.365 833.425 477.845 825.865C474.552 809.505 472.205 775.371 470.858 724.425C470.352 704.825 470.098 686.545 469.965 674.651C469.898 668.131 469.858 662.798 469.845 659.091C469.832 657.545 469.832 656.291 469.818 655.331C469.818 655.211 469.818 655.091 469.818 654.958V653.318H469.845C469.952 650.091 470.725 644.718 476.032 640.638C480.832 636.931 487.325 636.291 492.778 638.971C494.832 639.984 501.472 643.971 501.658 653.265H501.671C501.671 653.358 501.671 653.438 501.671 653.518C501.671 653.558 501.671 653.611 501.671 653.651V654.931C501.711 690.145 503.125 790.105 509.058 819.585C510.792 828.211 505.218 836.598 496.592 838.331C495.538 838.545 494.472 838.651 493.432 838.651Z" fill="#473025"/>
<path d="M399.471 891.038C405.578 896.731 399.991 904.678 396.085 909.904C392.605 914.971 388.485 920.051 384.005 924.118C372.645 936.704 357.805 945.038 341.965 950.638C324.631 956.958 306.285 961.131 287.738 959.571C270.218 959.264 253.325 954.224 236.765 948.931C227.378 944.944 209.605 935.584 209.925 924.011C210.245 919.398 213.885 914.264 218.805 914.104C219.071 914.078 219.378 914.104 219.671 914.198C219.365 915.438 219.138 916.611 219.005 917.638C218.898 917.638 218.791 917.624 218.685 917.624C215.831 918.011 213.938 921.078 213.485 923.731C212.685 934.304 234.565 945.118 243.418 947.398C258.951 952.104 274.525 956.211 290.858 956.184C313.151 957.384 335.231 950.598 355.191 941.144C363.738 937.251 371.365 931.824 377.818 925.291C385.018 918.611 391.391 911.331 396.551 902.971C399.818 898.584 399.405 892.051 392.738 891.998C392.645 891.998 392.565 891.998 392.485 891.984C392.458 890.878 392.338 889.678 392.205 888.558C394.311 887.798 398.218 889.704 399.471 891.038Z" fill="#473025"/>
<path d="M392.738 891.997C399.405 892.051 399.818 898.584 396.551 902.971C391.391 911.331 385.018 918.611 377.818 925.291C371.365 931.824 363.738 937.251 355.191 941.144C335.231 950.597 313.151 957.384 290.858 956.184C274.525 956.211 258.951 952.104 243.418 947.397C234.565 945.117 212.685 934.304 213.485 923.731C213.938 921.077 215.831 918.011 218.685 917.624C218.791 917.624 218.898 917.637 219.005 917.637C218.725 920.051 219.045 921.771 220.338 922.157C220.351 922.157 220.378 922.157 220.391 922.157C228.418 934.797 242.805 942.304 257.298 944.824C268.005 946.984 278.858 948.557 289.805 948.624C326.618 949.931 368.378 934.117 388.498 902.037C389.351 900.531 390.085 898.957 390.858 897.411C390.858 897.397 390.858 897.384 390.858 897.384C392.018 896.758 392.858 895.051 392.405 893.904C392.485 893.317 392.498 892.664 392.485 891.984C392.565 891.998 392.645 891.997 392.738 891.997Z" fill="#EDE7CB"/>
<path d="M392.485 891.985C392.498 892.665 392.485 893.318 392.405 893.904C392.258 893.504 391.965 893.184 391.485 892.971C390.165 892.451 389.165 893.491 388.805 894.758C388.551 893.331 389.138 891.358 388.791 890.131C388.485 886.011 387.871 881.918 387.071 877.904C385.205 867.878 380.151 858.878 374.818 850.318C374.578 850.038 374.378 849.638 374.245 849.185C375.378 848.558 376.351 847.958 377.045 847.504C378.911 849.304 379.911 852.504 381.458 854.504C386.951 863.691 390.618 873.878 391.738 884.545C391.751 885.331 391.991 886.851 392.205 888.558C391.498 888.811 390.991 889.371 390.858 890.358C390.925 891.238 391.631 891.905 392.485 891.985Z" fill="#473025"/>
<path d="M392.405 893.904C392.858 895.051 392.018 896.758 390.858 897.384C391.018 897.011 391.058 896.677 390.991 896.371C391.845 896.117 392.245 895.171 392.405 893.904Z" fill="#473025"/>
<path d="M392.205 888.558C392.338 889.678 392.458 890.878 392.485 891.984C391.631 891.904 390.925 891.238 390.858 890.358C390.991 889.371 391.498 888.811 392.205 888.558Z" fill="#473025"/>
<path d="M391.485 892.971C391.965 893.184 392.259 893.504 392.405 893.904C392.245 895.171 391.845 896.118 390.992 896.371C390.792 895.464 389.765 894.891 388.859 895.024C388.832 894.931 388.819 894.851 388.805 894.771C388.805 894.758 388.805 894.758 388.805 894.758C389.165 893.491 390.165 892.451 391.485 892.971Z" fill="#473025"/>
<path d="M390.992 896.371C391.058 896.677 391.018 897.011 390.858 897.384C390.365 897.651 389.818 897.731 389.285 897.491C388.698 896.931 388.552 895.957 388.725 895.037C388.778 895.037 388.818 895.024 388.858 895.024C389.032 895.691 389.445 896.211 390.298 896.424C390.552 896.451 390.778 896.437 390.992 896.371Z" fill="#473025"/>
<path d="M390.858 897.385C390.858 897.385 390.858 897.398 390.858 897.411C390.085 898.958 389.352 900.531 388.498 902.038C368.378 934.118 326.618 949.931 289.805 948.624C278.858 948.558 268.005 946.984 257.298 944.824C242.805 942.304 228.418 934.798 220.392 922.158C221.978 922.131 222.392 920.918 222.552 919.504C222.938 919.784 223.298 920.211 223.592 920.758C230.992 931.571 243.138 938.425 255.832 940.918C289.085 948.598 325.618 946.584 355.365 928.731C365.445 923.144 373.672 915.025 381.392 906.585C384.005 903.438 385.805 899.691 387.605 896.038C387.845 895.464 388.258 895.158 388.725 895.038C388.552 895.958 388.698 896.931 389.285 897.491C389.818 897.731 390.365 897.651 390.858 897.385Z" fill="#473025"/>
<path d="M390.991 896.37C390.778 896.437 390.551 896.45 390.298 896.424C389.445 896.21 389.031 895.69 388.858 895.024C389.765 894.89 390.791 895.464 390.991 896.37Z" fill="#473025"/>
<path d="M388.858 895.024C388.818 895.024 388.778 895.037 388.725 895.037C388.752 894.957 388.778 894.864 388.805 894.77C388.818 894.85 388.832 894.93 388.858 895.024Z" fill="#473025"/>
<path d="M388.792 890.131C389.138 891.358 388.552 893.331 388.805 894.758C388.805 894.758 388.805 894.758 388.805 894.771C388.778 894.864 388.752 894.958 388.725 895.038C388.258 895.158 387.845 895.464 387.605 896.038C385.805 899.691 384.005 903.438 381.392 906.584C373.672 915.024 365.445 923.144 355.365 928.731C325.618 946.584 289.085 948.598 255.832 940.918C243.138 938.424 230.992 931.571 223.592 920.758C223.298 920.211 222.938 919.784 222.552 919.504C222.712 918.238 222.672 916.824 223.098 915.891C224.885 907.144 228.978 898.891 233.965 891.491C246.832 872.251 272.978 857.024 295.312 865.998C297.965 867.051 300.552 868.464 303.058 870.238C307.232 873.184 311.472 876.184 314.858 880.051C316.952 881.691 317.765 885.691 320.685 885.798C324.978 881.811 309.698 870.678 306.432 868.291C303.725 866.251 300.938 864.611 298.085 863.331C298.392 862.438 298.538 861.398 298.832 860.664C300.925 855.038 303.738 849.598 307.685 844.971C307.885 844.824 308.045 844.651 308.165 844.464C309.685 845.411 311.498 846.131 313.645 846.558C315.525 846.851 323.205 850.678 322.432 846.558C320.578 843.718 313.792 843.651 310.672 841.811C302.712 837.811 305.405 827.118 310.232 821.624C314.232 817.318 319.672 814.611 325.018 812.358C343.152 805.051 373.912 803.958 382.352 825.598C386.832 836.918 376.352 845.571 366.672 848.944C364.805 850.078 360.485 849.064 360.565 851.998C361.658 855.504 369.378 851.958 374.245 849.184C374.378 849.638 374.578 850.038 374.818 850.318C380.152 858.878 385.205 867.878 387.072 877.904C387.872 881.918 388.485 886.011 388.792 890.131Z" fill="#EDE7CB"/>
<path d="M366.672 848.945C376.352 845.571 386.832 836.918 382.352 825.598C373.912 803.958 343.152 805.051 325.018 812.358C319.672 814.611 314.232 817.318 310.232 821.625C305.405 827.118 302.712 837.811 310.672 841.811C313.792 843.651 320.578 843.718 322.432 846.558C323.205 850.678 315.525 846.851 313.645 846.558C311.498 846.131 309.685 845.411 308.165 844.465C309.272 842.851 307.245 840.571 305.498 842.145C305.472 842.171 305.458 842.185 305.432 842.211C300.338 836.625 301.378 827.278 306.752 820.331C316.125 809.745 333.338 804.318 347.218 804.331C357.792 804.011 369.272 805.518 377.445 812.798C388.725 821.891 390.818 838.438 377.818 846.985C377.618 847.131 377.365 847.304 377.045 847.504C376.658 847.118 376.218 846.798 375.725 846.558C374.098 846.171 373.858 847.865 374.245 849.185C369.378 851.958 361.658 855.505 360.565 851.998C360.485 849.065 364.805 850.078 366.672 848.945Z" fill="#473025"/>
<path d="M375.725 846.558C376.218 846.798 376.658 847.118 377.045 847.504C376.351 847.958 375.378 848.558 374.245 849.185C373.858 847.865 374.098 846.171 375.725 846.558Z" fill="#473025"/>
<path d="M306.432 868.291C309.698 870.678 324.978 881.811 320.685 885.798C317.765 885.691 316.951 881.691 314.858 880.051C311.471 876.185 307.231 873.184 303.058 870.238C300.551 868.464 297.965 867.051 295.312 865.998L295.698 865.078C295.778 865.144 295.885 865.198 295.991 865.251C297.191 865.211 297.738 864.358 298.085 863.331C300.938 864.611 303.725 866.251 306.432 868.291Z" fill="#473025"/>
<path d="M305.498 842.144C307.245 840.571 309.272 842.851 308.165 844.464C307.112 843.824 306.192 843.064 305.432 842.211C305.458 842.184 305.472 842.171 305.498 842.144Z" fill="#473025"/>
<path d="M308.165 844.464C308.045 844.651 307.885 844.824 307.685 844.971C303.739 849.598 300.925 855.038 298.832 860.664C298.539 861.398 298.392 862.438 298.085 863.331C297.005 862.851 295.925 862.424 294.845 862.038C295.472 856.131 303.085 844.584 305.432 842.211C306.192 843.064 307.112 843.824 308.165 844.464Z" fill="#473025"/>
<path d="M298.085 863.331C297.739 864.358 297.192 865.211 295.992 865.251C295.885 865.198 295.779 865.144 295.699 865.078C294.925 864.491 294.699 863.424 294.845 862.037C295.925 862.424 297.005 862.851 298.085 863.331Z" fill="#473025"/>
<path d="M295.698 865.077L295.312 865.997C272.978 857.024 246.832 872.251 233.965 891.491C228.978 898.891 224.885 907.144 223.098 915.891C222.672 916.824 222.712 918.237 222.552 919.504C221.098 918.424 219.325 919.184 220.152 921.784C220.232 921.904 220.312 922.037 220.392 922.157C220.378 922.157 220.352 922.157 220.338 922.157C219.045 921.771 218.725 920.051 219.005 917.637C219.818 917.664 220.685 917.504 221.325 917.024C222.192 915.837 220.925 914.571 219.672 914.197C221.498 906.997 226.072 897.237 227.525 895.171C240.098 872.037 269.352 853.224 294.845 862.037C294.698 863.424 294.925 864.491 295.698 865.077Z" fill="#473025"/>
<path d="M222.552 919.504C222.392 920.917 221.978 922.131 220.392 922.157C220.312 922.037 220.232 921.904 220.152 921.784C219.325 919.184 221.098 918.424 222.552 919.504Z" fill="#473025"/>
<path d="M219.672 914.198C220.925 914.571 222.192 915.838 221.325 917.025C220.685 917.505 219.818 917.664 219.005 917.638C219.138 916.611 219.365 915.438 219.672 914.198Z" fill="#473025"/>
<path d="M344.778 840.104C338.085 840.104 331.845 835.838 329.645 829.131C310.072 769.305 321.845 654.905 322.365 650.065C323.285 641.318 331.125 634.971 339.872 635.905C348.618 636.825 354.952 644.665 354.032 653.411C353.899 654.651 342.458 765.891 359.912 819.225C362.658 827.585 358.098 836.571 349.738 839.318C348.098 839.851 346.418 840.104 344.778 840.104Z" fill="#473025"/>
<path d="M654.031 242.004C655.645 231.684 663.151 221.924 672.445 217.231C676.991 215.324 681.658 214.124 685.778 214.351C691.565 214.671 696.311 217.83 698.231 225.857C700.645 239.55 714.792 232.75 714.285 255.444C715.312 272.884 707.591 281.817 690.258 283.377C682.498 286.417 678.472 296.377 669.085 296.11C650.938 295.377 637.685 271.644 641.271 255.11C644.285 247.257 655.965 246.364 654.031 242.004Z" fill="#EDE7CB"/>
<path d="M627.938 94.3638C624.725 79.9638 612.672 71.6438 599.218 69.5105C599.418 66.6438 597.698 62.6438 597.218 60.4972C593.325 49.6705 584.565 41.0839 573.565 37.6039C564.152 34.3373 553.405 32.4438 543.871 36.1638C542.965 31.1772 540.805 26.3773 537.925 22.2706C537.831 22.1773 537.751 22.0973 537.671 22.004C539.898 21.0573 542.191 19.7905 543.645 19.5638C548.818 17.6438 554.111 16.0438 559.525 14.9771C591.511 10.4171 624.685 -2.03615 656.832 7.83051C677.125 15.0838 693.845 32.2171 701.698 52.1771C705.538 63.2971 704.485 75.2705 704.632 86.8305C704.712 95.9105 704.698 104.977 704.538 114.044C704.098 133.257 704.218 152.671 699.805 171.484C697.725 180.271 695.778 189.084 693.658 197.857C692.498 202.137 691.138 206.337 689.725 210.537C682.525 208.764 673.885 211.551 667.538 215.097C667.391 213.351 666.671 211.604 666.458 209.871C665.498 207.711 665.671 200.564 663.511 199.217C663.911 197.591 664.231 196.111 664.458 194.831C666.031 186.977 663.898 179.817 659.752 173.737C660.965 171.897 661.285 168.524 661.818 165.964C661.818 165.951 661.832 165.951 661.832 165.937C661.992 165.364 662.152 164.777 662.298 164.19C662.392 163.95 662.485 163.737 662.578 163.551C662.698 163.231 662.725 162.924 662.698 162.657C663.285 160.417 663.805 158.404 664.365 157.417C670.645 137.084 674.858 116.017 676.738 94.8172C676.831 93.6706 675.885 92.6438 674.738 92.5771C671.031 92.4305 672.538 101.244 671.591 103.99C669.618 118.617 666.711 133.217 662.911 147.497C662.631 150.817 657.058 163.071 656.632 169.084C656.592 169.271 656.551 169.431 656.511 169.617C655.298 168.257 653.978 166.951 652.578 165.737C655.818 161.871 657.338 149.457 656.965 146.577C655.138 130.19 643.285 117.31 628.632 110.577C631.032 107.244 628.725 97.3505 627.938 94.3638Z" fill="#DE4F36"/>
<path d="M619.365 324.604C620.725 323.177 621.685 323.324 622.325 324.684C622.045 326.39 620.885 328.257 619.285 330.017C619.325 328.217 619.352 326.404 619.365 324.604Z" fill="#473025"/>
<path d="M614.979 254.564C614.779 256.59 614.592 258.617 614.419 260.644C613.072 261.164 611.832 261.831 610.619 262.617C610.659 262.111 610.698 261.604 610.725 261.097C610.845 259.55 610.952 257.99 611.072 256.444C611.178 254.884 611.299 253.337 611.432 251.79C611.485 251.07 611.565 250.364 611.605 249.644C611.618 249.217 611.645 248.804 611.645 248.377C611.645 248.244 611.645 248.124 611.632 247.99C612.725 246.177 614.645 246.444 615.219 248.99C615.152 250.844 615.072 252.71 614.979 254.564Z" fill="#473025"/>
<path d="M610.232 301.204C609.312 301.657 608.392 302.084 607.472 302.537C606.978 302.777 606.498 303.004 605.992 303.204C606.805 293.684 608.205 284.231 609.325 274.751C609.432 273.951 609.525 273.137 609.605 272.324C609.645 272.257 609.685 272.164 609.698 272.071C610.098 269.977 610.218 267.844 610.365 265.724C610.472 264.177 610.618 262.644 610.725 261.097C610.698 261.604 610.659 262.111 610.619 262.617C611.832 261.831 613.072 261.164 614.419 260.644C614.592 258.617 614.778 256.591 614.978 254.564C614.338 267.377 613.138 280.231 611.298 292.911C610.765 297.577 610.285 302.231 609.965 306.911C609.952 307.204 609.885 307.457 609.778 307.684C609.858 306.284 609.952 304.884 610.045 303.484C610.112 302.724 610.165 301.964 610.232 301.204Z" fill="#473025"/>
<path d="M610.232 301.204C610.165 301.964 610.112 302.724 610.045 303.484C609.952 304.884 609.858 306.284 609.778 307.684C609.405 308.524 608.552 308.91 607.712 308.857C606.672 308.804 605.658 308.057 605.725 306.671C605.805 305.511 605.898 304.364 605.991 303.204C606.498 303.004 606.978 302.777 607.471 302.537C608.391 302.084 609.312 301.657 610.232 301.204Z" fill="#473025"/>
<path d="M605.952 303.23C605.965 303.217 605.978 303.217 605.992 303.204C605.898 304.364 605.805 305.51 605.725 306.67C605.805 305.524 605.885 304.377 605.952 303.23Z" fill="#473025"/>
<path d="M590.872 551.758C590.352 552.824 589.725 553.478 588.952 553.438C588.832 553.424 588.712 553.398 588.579 553.371C587.419 553.358 587.032 552.251 587.085 550.624C587.099 550.611 587.112 550.598 587.125 550.585C588.379 549.025 590.605 550.198 590.872 551.758Z" fill="#473025"/>
<path d="M538.472 159.204C527.152 166.284 512.965 167.524 500.738 162.017C488.698 157.11 478.272 145.377 478.005 131.95C477.938 130.337 478.405 127.964 477.552 126.484C487.138 124.11 496.952 120.497 495.445 117.99C493.618 115.564 488.085 118.324 480.725 120.977C471.472 124.31 459.338 127.47 448.018 120.017C433.725 112.484 431.472 93.9105 437.645 80.2039C438.458 75.8439 447.112 66.3638 444.405 63.2838C440.392 62.3371 439.032 69.1504 437.018 71.6971C436.018 73.3371 435.138 74.9905 434.365 76.6838C433.298 76.2971 432.125 76.0438 431.325 75.2171C411.258 53.2572 424.605 14.6704 456.485 15.5104C462.338 14.937 467.818 17.9504 471.658 19.7638C471.365 19.9638 471.085 20.1504 470.805 20.3638C469.325 21.4038 467.418 22.4705 467.272 24.4705C466.978 25.7772 468.245 26.5372 469.392 26.2172C472.098 25.2305 474.152 22.8437 476.792 21.577C492.192 11.177 518.632 9.43054 532.032 22.4039C532.085 22.4572 532.138 22.5104 532.205 22.5638C532.205 22.5771 532.218 22.577 532.232 22.5903C536.058 26.377 538.805 31.4037 539.858 37.7903C540.352 40.9637 540.018 44.1639 539.338 47.2705C539.112 48.3905 539.898 49.5372 541.018 49.7505C544.912 49.9105 543.925 43.457 544.338 40.7903C544.352 40.697 544.352 40.6305 544.338 40.5372C545.458 40.2305 546.672 39.5238 547.712 39.3638C562.392 36.0971 581.658 41.9639 589.818 55.1372C592.285 59.1239 594.098 63.4837 594.792 68.1237C594.818 68.417 594.858 68.7237 594.885 69.0437C586.698 68.5637 578.285 70.3104 571.258 74.3104C569.485 75.2837 566.138 76.9905 568.005 79.3505C570.538 81.5238 573.085 77.3105 575.738 76.8838C591.498 69.3771 614.365 73.057 622.032 90.177C623.858 94.7637 625.232 99.6439 625.312 104.604C625.405 105.817 625.098 107.39 625.192 108.777C625.072 108.83 624.938 108.897 624.818 108.977C619.792 107.084 614.525 105.897 609.298 105.51C608.152 105.39 607.125 106.404 607.058 107.51C606.858 111.017 615.685 109.991 618.378 111.404C635.338 115.604 651.512 129.884 652.778 148.044C652.818 152.617 651.578 157.044 650.045 161.324C649.845 161.884 649.592 162.524 649.392 163.164C646.685 161.15 643.805 159.39 640.885 157.924C638.272 157.23 633.645 153.404 631.792 156.804C631.018 159.991 635.378 159.844 637.298 160.977C650.138 166.817 663.378 178.95 660.258 194.377C657.632 205.177 654.632 218.79 644.192 224.577C643.778 224.697 643.205 224.857 642.618 225.071C644.218 221.977 644.952 218.844 642.392 217.777C638.805 217.577 639.885 222.817 637.885 224.83C631.018 235.137 616.325 243.244 603.778 241.817C586.938 238.857 573.032 230.724 575.405 211.537C575.632 210.604 575.418 209.47 574.952 208.63C580.378 207.07 585.592 204.617 590.418 201.51C591.432 200.99 591.872 199.67 591.338 198.657C590.992 197.99 590.258 197.537 589.512 197.497C589.165 197.47 588.792 197.551 588.485 197.737C585.005 199.777 581.418 201.604 577.738 203.244C573.992 204.804 570.018 205.79 565.965 206.164C552.298 206.977 537.338 202.124 530.672 189.324C525.925 183.004 526.858 176.724 527.312 169.444C527.218 169.097 527.112 168.791 526.992 168.537C530.538 167.631 533.978 166.324 537.258 164.71C539.445 163.057 545.498 161.79 543.858 158.19C542.272 156.044 540.098 158.297 538.472 159.204Z" fill="#EDE7CB"/>
<path d="M587.085 550.624C587.178 546.664 589.778 539.611 589.725 537.651C592.498 523.505 595.005 509.305 597.191 495.051C601.845 461.705 609.138 428.691 612.632 395.198C615.738 373.585 618.738 351.745 619.285 329.998C620.885 328.238 622.045 326.371 622.325 324.665C627.218 335.025 613.685 415.878 613.512 421.624C608.752 450.678 603.685 479.691 599.285 508.798C597.672 518.265 596.005 527.731 594.152 537.158C593.205 539.518 592.658 548.091 590.871 551.758C590.605 550.198 588.378 549.025 587.125 550.585C587.111 550.598 587.098 550.611 587.085 550.624Z" fill="#473025"/>
<path d="M577.005 562.971C577.592 560.811 578.338 559.251 579.245 558.624C579.685 558.304 580.178 558.224 580.712 558.384C581.192 558.878 581.458 559.504 581.578 560.237C580.072 561.171 578.538 562.091 577.005 562.971Z" fill="#473025"/>
<path d="M573.218 595.811C574.312 591.918 574.431 572.131 577.005 562.971C578.538 562.091 580.071 561.171 581.578 560.237C582.125 563.517 579.631 568.758 579.858 571.851C578.271 589.198 576.378 606.491 573.391 623.651C572.538 629.184 571.818 634.744 571.071 640.291C571.031 640.637 570.871 640.971 570.645 641.224C570.525 640.691 570.231 640.184 569.738 639.718C568.671 639.184 567.805 639.638 567.152 640.384C566.352 636.984 568.805 629.171 568.645 626.798C570.125 616.478 571.965 606.144 573.218 595.811Z" fill="#473025"/>
<path d="M590.339 553.357C588.792 555.117 586.952 556.624 585.072 558.011C583.925 558.757 582.752 559.504 581.579 560.237C581.459 559.504 581.192 558.878 580.712 558.384C580.179 558.224 579.685 558.304 579.245 558.624L578.192 557.464C581.379 555.477 584.392 553.264 587.085 550.624C587.032 552.251 587.419 553.357 588.579 553.371C588.712 553.397 588.832 553.424 588.952 553.437C589.725 553.477 590.352 552.824 590.872 551.757C590.952 552.277 590.819 552.837 590.339 553.357Z" fill="#473025"/>
<path d="M570.645 641.224C570.218 641.744 569.525 642.037 568.845 641.997C568.765 641.997 568.685 641.984 568.592 641.971C567.805 641.877 567.365 641.291 567.152 640.384C567.805 639.637 568.672 639.184 569.738 639.717C570.232 640.184 570.525 640.691 570.645 641.224Z" fill="#473025"/>
<path d="M570.645 641.224C572.325 648.544 541.618 661.584 536.952 663.944C520.272 672.131 501.898 675.278 483.765 678.558C456.818 683.571 429.338 685.104 402.005 683.584C395.218 683.198 388.458 682.638 381.712 681.891C362.965 679.691 344.672 674.611 326.498 669.731C320.858 667.424 278.312 654.091 278.085 646.104C278.898 645.798 279.538 645.038 279.391 643.998C282.205 644.291 283.711 647.811 286.191 648.851C304.845 657.771 324.285 665.611 344.525 670.038C383.725 680.891 425.685 682.304 465.832 677.051C487.885 673.504 510.485 670.771 531.178 661.918C541.352 656.904 552.325 652.784 561.565 646.211C563.258 644.811 564.951 643.358 566.325 641.638C566.538 641.211 566.818 640.758 567.152 640.384C567.365 641.291 567.805 641.878 568.591 641.971C568.685 641.984 568.765 641.998 568.845 641.998C569.525 642.038 570.218 641.744 570.645 641.224Z" fill="#473025"/>
<path d="M518.085 582.264C538.939 580.611 558.965 573.411 577.005 562.971C574.432 572.131 574.312 591.917 573.219 595.811C571.965 606.144 570.125 616.478 568.645 626.798C568.805 629.171 566.352 636.984 567.152 640.384C566.819 640.758 566.538 641.211 566.325 641.637C564.952 643.357 563.259 644.811 561.565 646.211C552.325 652.784 541.352 656.904 531.178 661.918C510.485 670.771 487.885 673.504 465.832 677.051C425.685 682.304 383.725 680.891 344.525 670.037C324.285 665.611 304.845 657.771 286.192 648.851C283.712 647.811 282.205 644.291 279.392 643.998C279.378 643.918 279.365 643.837 279.352 643.771C278.019 636.731 276.525 629.704 275.405 622.637C272.538 599.037 269.472 575.477 266.112 551.957C289.378 566.051 319.845 570.864 345.792 575.584C370.912 579.051 396.019 582.904 421.299 584.998C453.565 586.784 486.045 587.011 518.085 582.264Z" fill="#B3653D"/>
<path d="M577.005 562.971C558.965 573.411 538.938 580.611 518.085 582.265C486.045 587.011 453.565 586.785 421.298 584.998C396.018 582.905 370.911 579.051 345.791 575.585C319.845 570.865 289.378 566.051 266.111 551.958C266.005 551.118 265.885 550.291 265.765 549.465C265.898 548.251 265.165 546.758 264.245 546.078L264.271 546.038C272.911 551.918 282.511 555.438 292.351 558.785C317.258 567.731 343.791 571.011 369.885 574.638C392.191 577.691 414.538 580.998 437.085 581.478C463.311 582.318 489.511 582.251 515.485 578.291C530.578 577.038 545.125 573.558 558.938 567.398C565.311 564.185 572.071 561.265 578.191 557.465L579.245 558.625C578.338 559.251 577.591 560.811 577.005 562.971Z" fill="#473025"/>
<path d="M445.965 360.304C481.098 362.264 516.352 362.771 551.152 356.917C566.525 354.211 582.858 352.651 596.498 344.691C600.325 344.091 607.325 339.384 612.778 335.104C615.112 333.811 617.485 331.971 619.285 329.997C618.738 351.744 615.738 373.584 612.632 395.197C609.138 428.691 601.845 461.704 597.192 495.051C595.005 509.304 592.498 523.504 589.725 537.651C589.778 539.611 587.178 546.664 587.085 550.624C584.392 553.264 581.378 555.477 578.192 557.464C572.072 561.264 565.311 564.184 558.938 567.397C545.125 573.557 530.578 577.037 515.485 578.291C489.512 582.251 463.312 582.317 437.085 581.477C414.538 580.997 392.192 577.691 369.885 574.637C343.792 571.011 317.258 567.731 292.352 558.784C282.512 555.437 272.912 551.917 264.272 546.037C263.605 545.584 262.952 545.131 262.298 544.637C259.858 543.437 258.712 539.944 256.312 538.971C256.245 535.464 254.485 530.064 254.592 527.891C252.472 514.824 250.698 501.571 249.192 488.291C245.165 457.024 243.458 425.504 240.578 394.117C238.165 369.224 234.458 343.837 238.538 318.971C241.458 321.797 246.112 324.131 249.632 325.211C249.792 325.331 249.965 325.424 250.138 325.491C263.258 331.304 276.618 336.464 290.778 339.197C330.965 349.344 372.218 354.691 413.471 358.224C424.285 358.957 435.112 359.704 445.965 360.304Z" fill="#E68A55"/>
<path d="M542.685 353.831C497.005 360.457 450.592 356.697 404.792 353.177C377.512 350.95 350.418 347.07 323.525 342.057C302.152 337.684 280.192 333.964 260.165 325.044C257.618 324.19 255.138 322.697 252.538 321.91C252.258 321.75 251.952 321.604 251.645 321.457C251.392 321.244 251.098 321.097 250.765 321.017C250.765 321.004 250.765 321.004 250.765 320.99C250.445 311.644 250.192 302.284 250.058 292.937C250.205 292.644 250.272 292.297 250.245 291.897C250.178 290.911 250.125 289.937 250.072 288.964C250.085 287.644 250.085 286.337 250.085 285.017C250.005 285.071 249.938 285.124 249.858 285.164C249.525 279.857 249.112 274.551 248.418 269.271C247.378 255.791 247.378 242.244 246.258 228.764C245.925 223.657 245.552 218.537 245.138 213.444C246.245 213.99 247.085 214.457 247.538 214.804C263.445 222.471 280.792 226.217 297.952 229.857C332.738 238.124 368.392 241.497 403.898 245.084C432.645 246.751 461.458 247.457 490.245 247.737C511.805 247.697 533.392 247.551 554.645 243.417C562.832 242.217 571.951 241.471 579.338 237.204C579.698 237.031 579.951 236.817 580.138 236.564C586.178 241.524 594.392 244.244 601.778 245.817C605.165 246.417 608.552 246.391 611.885 245.884C611.792 246.577 611.712 247.27 611.632 247.977C611.632 247.977 611.632 247.977 611.632 247.99C611.645 248.124 611.645 248.244 611.645 248.377C611.645 248.804 611.618 249.217 611.605 249.644C611.565 250.364 611.485 251.07 611.432 251.79C611.298 253.337 611.178 254.884 611.071 256.444C610.951 257.99 610.845 259.551 610.725 261.097C610.618 262.644 610.472 264.177 610.365 265.724C610.218 267.844 610.098 269.977 609.698 272.071C609.685 272.164 609.645 272.257 609.605 272.324C609.525 273.137 609.432 273.951 609.325 274.751C608.205 284.231 606.805 293.684 605.992 303.204C605.978 303.217 605.965 303.217 605.952 303.231C605.885 304.377 605.805 305.524 605.725 306.671C605.138 315.404 604.578 324.124 604.005 332.844C603.978 333.15 604.018 333.417 604.098 333.657C602.978 334.524 601.978 336.03 600.805 336.644C597.338 339.337 593.085 341.95 588.952 343.79C574.285 350.017 558.298 351.271 542.685 353.831Z" fill="#B3653D"/>
<path d="M485.605 205.937C491.565 204.924 526.098 205.043 533.058 199.51C537.911 204.243 544.058 207.657 550.698 208.937C557.685 210.91 564.778 210.924 571.605 209.47C570.205 215.684 571.205 222.764 573.671 228.604C574.591 230.457 575.738 232.124 577.071 233.617C572.311 236.284 566.871 237.35 561.525 238.163C534.165 243.31 506.231 243.87 478.418 243.484C452.538 242.564 426.605 242.55 400.765 240.577C358.671 236.617 316.751 231.004 275.738 220.484C259.898 217.044 245.978 208.523 231.525 202.043C231.605 201.79 231.631 201.51 231.605 201.204C231.178 196.244 230.831 191.27 230.765 186.284C230.405 179.564 231.445 172.83 232.458 166.15C233.671 168.11 235.365 170.044 237.618 171.884C264.685 192.657 349.858 203.59 385.618 206.23C418.911 208.643 452.311 207.324 485.605 205.937Z" fill="#E68A55"/>
<path d="M474.192 136.457C473.579 133.31 473.152 129.631 474.152 127.284C467.859 128.671 462.299 129.377 460.925 128.684C434.872 125.751 425.099 102.31 432.752 80.657C432.619 80.617 432.499 80.5906 432.379 80.5372C427.445 78.5239 424.272 74.5105 422.139 69.8172C420.832 70.0839 419.205 70.0305 418.259 69.7505C416.192 69.5239 414.139 69.3637 412.085 69.2437C387.912 67.8971 363.925 73.4172 340.019 76.2039C327.739 77.9772 275.192 89.5505 270.512 106.364C270.592 107.31 270.432 108.337 270.192 109.377C270.285 110.67 270.672 111.99 271.379 113.324C280.872 125.377 297.659 128.324 311.859 131.204C349.365 138.151 387.845 141.43 425.979 140.657C438.672 140.47 451.792 139.804 464.299 138.151C466.445 138.271 470.992 136.577 474.192 136.457ZM510.925 169.31C510.725 169.284 510.539 169.244 510.339 169.204C494.699 166.777 480.179 156.15 475.139 140.844C475.125 140.777 475.112 140.697 475.099 140.604C468.472 142.697 451.792 143.497 449.445 143.897C431.459 144.95 413.379 145.764 395.379 144.71C358.125 141.684 319.285 141.03 284.005 127.724C278.245 125.484 272.512 121.724 269.059 117.11C268.499 122.444 268.072 127.791 268.085 133.151C267.525 135.591 269.472 141.644 268.672 144.524C270.778 144.95 273.725 146.777 274.965 147.19C304.845 158.257 336.312 165.91 367.939 169.697C399.179 172.484 430.699 173.524 462.059 172.724C478.325 171.617 494.859 172.084 510.925 169.31ZM245.138 213.444C245.552 218.537 245.925 223.657 246.259 228.764C246.139 227.43 246.019 226.097 245.885 224.764C246.099 222.91 244.365 219.15 242.352 221.444C241.885 222.044 241.672 222.697 241.579 223.404C241.392 219.511 241.245 215.617 241.165 211.737C241.179 211.657 241.205 211.59 241.219 211.524C235.939 208.95 229.432 205.67 229.419 203.444C228.432 203.417 227.472 202.817 227.379 201.551C226.165 198.537 226.285 159.817 230.859 152.444C234.192 142.47 246.165 133.857 257.285 131.777C258.432 131.377 261.792 130.297 264.005 130.351C264.045 122.844 264.539 114.137 265.792 108.764C265.632 105.044 267.192 101.11 271.205 97.1771C285.045 85.8704 303.019 80.737 319.979 75.9904C333.179 72.3237 347.285 71.0037 360.712 69.1904C371.859 67.5104 383.005 65.6705 394.259 64.9505C402.885 65.1772 412.152 64.1106 420.619 65.9372C419.365 62.2039 418.579 58.2704 417.912 54.7104C414.859 30.2171 434.499 9.01722 459.339 11.3372C461.859 11.3639 472.152 13.9372 475.819 17.1372C493.685 6.85722 518.232 4.91051 534.205 18.6172C536.739 17.1772 540.632 16.5505 542.605 15.4305C555.485 10.3371 569.392 9.35035 582.845 6.52368C602.739 1.89702 623.205 -1.39632 643.659 0.59035C673.299 3.80368 699.699 28.0839 707.339 56.6172C709.952 69.9639 708.485 83.6972 708.925 97.2172C708.805 115.524 708.725 133.871 707.245 152.137C706.019 165.844 702.245 179.11 699.312 192.51C697.872 199.164 695.872 205.657 693.672 212.097C694.792 212.71 695.845 213.511 696.819 214.471C700.512 218.311 702.059 223.537 703.312 228.577C715.112 237.31 718.979 241.764 718.539 257.271C719.365 275.471 709.112 286.03 691.245 287.497C687.725 288.924 685.579 292.43 682.685 294.777C678.525 298.537 672.965 300.577 667.459 300.271C665.299 300.151 663.139 299.67 661.085 298.777C650.192 294.964 642.752 285.19 639.205 274.51C633.565 260.79 635.299 247.977 650.179 242.004C650.072 232.591 657.085 223.63 664.219 217.524C664.152 217.417 664.072 217.324 664.005 217.217C662.845 215.111 662.832 212.564 662.192 210.271C662.179 209.391 661.805 208.031 661.405 206.537C657.619 217.911 650.752 230.657 640.472 228.857C640.432 228.83 640.392 228.79 640.352 228.764C639.405 230.097 638.512 231.23 637.939 231.857C631.845 237.737 624.005 242.884 615.605 245.097C615.832 245.777 615.872 246.564 615.645 247.284C615.419 249.71 615.205 252.137 614.979 254.564C615.072 252.71 615.152 250.844 615.219 248.99C614.645 246.444 612.725 246.177 611.632 247.99C611.632 247.977 611.632 247.977 611.632 247.977C611.712 247.27 611.792 246.577 611.885 245.884C608.552 246.39 605.165 246.417 601.779 245.817C594.392 244.244 586.179 241.524 580.139 236.564C579.952 236.817 579.699 237.031 579.339 237.204C571.952 241.471 562.832 242.217 554.645 243.417C533.392 247.55 511.805 247.697 490.245 247.737C461.459 247.457 432.645 246.75 403.899 245.084C368.392 241.497 332.739 238.124 297.952 229.857C280.792 226.217 263.445 222.471 247.538 214.804C247.085 214.457 246.245 213.99 245.138 213.444ZM516.925 199.23C520.739 198.63 524.579 198.164 528.299 197.124C528.925 197.004 529.579 196.71 530.245 196.43C524.312 189.164 521.192 179.71 523.085 170.297C523.059 170.284 523.032 170.27 523.019 170.257C520.845 172.884 511.592 172.884 509.019 173.871C495.805 176.311 482.339 175.644 468.992 176.577C441.952 178.364 414.859 176.497 387.819 175.604C366.179 174.631 344.805 171.324 323.859 165.897C308.432 162.67 293.192 158.631 278.445 153.004C274.445 151.151 268.912 150.484 266.338 146.697C266.312 146.444 266.299 146.217 266.312 146.017C265.552 145.817 264.899 145.217 264.752 144.417C264.379 143.164 264.099 139.084 264.019 133.951C256.952 137.097 248.592 137.951 242.499 143.217C214.499 168.991 265.032 180.657 283.485 185.71C319.872 194.817 357.219 200.471 394.672 202.551C435.392 204.217 476.352 203.044 516.925 199.23ZM500.739 162.017C512.965 167.524 527.152 166.284 538.472 159.204C540.099 158.297 542.272 156.044 543.859 158.19C545.499 161.79 539.445 163.057 537.259 164.71C533.979 166.324 530.539 167.631 526.992 168.537C527.112 168.791 527.219 169.097 527.312 169.444C526.859 176.724 525.925 183.004 530.672 189.324C537.339 202.124 552.299 206.977 565.965 206.164C570.019 205.79 573.992 204.804 577.739 203.244C581.419 201.604 585.005 199.777 588.485 197.737C588.792 197.551 589.165 197.47 589.512 197.497C590.259 197.537 590.992 197.99 591.339 198.657C591.872 199.67 591.432 200.99 590.419 201.51C585.592 204.617 580.379 207.07 574.952 208.63C575.419 209.47 575.632 210.604 575.405 211.537C573.032 230.724 586.939 238.857 603.779 241.817C616.325 243.244 631.019 235.137 637.885 224.83C639.885 222.817 638.805 217.577 642.392 217.777C644.952 218.844 644.219 221.977 642.619 225.071C643.205 224.857 643.779 224.697 644.192 224.577C654.632 218.79 657.632 205.177 660.259 194.377C663.379 178.95 650.139 166.817 637.299 160.977C635.379 159.844 631.019 159.991 631.792 156.804C633.645 153.404 638.272 157.23 640.885 157.924C643.805 159.39 646.685 161.15 649.392 163.164C649.592 162.524 649.845 161.884 650.045 161.324C651.579 157.044 652.819 152.617 652.779 148.044C651.512 129.884 635.339 115.604 618.379 111.404C615.685 109.991 606.859 111.017 607.059 107.51C607.125 106.404 608.152 105.39 609.299 105.51C614.525 105.897 619.792 107.084 624.819 108.977C624.939 108.897 625.072 108.83 625.192 108.777C625.099 107.39 625.405 105.817 625.312 104.604C625.232 99.6439 623.859 94.7637 622.032 90.1771C614.365 73.0571 591.499 69.3772 575.739 76.8839C573.085 77.3105 570.539 81.5239 568.005 79.3505C566.139 76.9905 569.485 75.2837 571.259 74.3104C578.285 70.3104 586.699 68.5637 594.885 69.0437C594.859 68.7237 594.819 68.417 594.792 68.1237C594.099 63.4837 592.285 59.1239 589.819 55.1372C581.659 41.9639 562.392 36.0971 547.712 39.3638C546.672 39.5238 545.459 40.2306 544.339 40.5372C544.352 40.6306 544.352 40.697 544.339 40.7904C543.925 43.457 544.912 49.9105 541.019 49.7505C539.899 49.5372 539.112 48.3906 539.339 47.2706C540.019 44.1639 540.352 40.9637 539.859 37.7904C538.805 31.4037 536.059 26.377 532.232 22.5903C532.219 22.577 532.205 22.5771 532.205 22.5638C532.139 22.5105 532.085 22.4572 532.032 22.4039C518.632 9.43056 492.192 11.1771 476.792 21.5771C474.152 22.8437 472.099 25.2305 469.392 26.2172C468.245 26.5372 466.979 25.7772 467.272 24.4706C467.419 22.4706 469.325 21.4038 470.805 20.3638C471.085 20.1505 471.365 19.9638 471.659 19.7638C467.819 17.9505 462.339 14.9371 456.485 15.5104C424.605 14.6704 411.259 53.2572 431.325 75.2172C432.125 76.0439 433.299 76.2972 434.365 76.6839C435.139 74.9905 436.019 73.3371 437.019 71.6971C439.032 69.1505 440.392 62.3372 444.405 63.2839C447.112 66.3639 438.459 75.8439 437.645 80.2039C431.472 93.9106 433.725 112.484 448.019 120.017C459.339 127.471 471.472 124.31 480.725 120.977C488.085 118.324 493.619 115.564 495.445 117.99C496.952 120.497 487.139 124.111 477.552 126.484C478.405 127.964 477.939 130.337 478.005 131.951C478.272 145.377 488.699 157.111 500.739 162.017ZM533.059 199.51C526.099 205.044 491.565 204.924 485.605 205.937C452.312 207.324 418.912 208.644 385.619 206.23C349.859 203.59 264.685 192.657 237.619 171.884C235.365 170.044 233.672 168.111 232.459 166.151C231.445 172.831 230.405 179.564 230.765 186.284C230.832 191.271 231.178 196.244 231.605 201.204C231.632 201.511 231.605 201.79 231.525 202.044C245.979 208.524 259.898 217.044 275.738 220.484C316.752 231.004 358.672 236.617 400.765 240.577C426.605 242.55 452.539 242.564 478.419 243.484C506.232 243.87 534.165 243.31 561.525 238.164C566.872 237.35 572.312 236.284 577.072 233.617C575.739 232.124 574.592 230.457 573.672 228.604C571.205 222.764 570.205 215.684 571.605 209.471C564.779 210.924 557.685 210.911 550.699 208.937C544.059 207.657 537.912 204.244 533.059 199.51ZM599.219 69.5104C612.672 71.6437 624.725 79.9638 627.939 94.3638C628.725 97.3505 631.032 107.244 628.632 110.577C643.285 117.31 655.139 130.19 656.965 146.577C657.339 149.457 655.819 161.871 652.579 165.737C653.979 166.951 655.299 168.257 656.512 169.617C656.552 169.431 656.592 169.271 656.632 169.084C657.059 163.071 662.632 150.817 662.912 147.497C666.712 133.217 669.619 118.617 671.592 103.99C672.539 101.244 671.032 92.4304 674.739 92.5771C675.885 92.6437 676.832 93.6705 676.739 94.8172C674.859 116.017 670.645 137.084 664.365 157.417C663.805 158.404 663.285 160.417 662.699 162.657C662.725 162.924 662.699 163.231 662.579 163.551C662.485 163.737 662.392 163.95 662.299 164.19C662.152 164.777 661.992 165.364 661.832 165.937C661.832 165.951 661.819 165.95 661.819 165.964C661.285 168.524 660.965 171.897 659.752 173.737C663.899 179.817 666.032 186.977 664.459 194.83C664.232 196.11 663.912 197.591 663.512 199.217C665.672 200.564 665.499 207.711 666.459 209.871C666.672 211.604 667.392 213.35 667.539 215.097C673.885 211.55 682.525 208.764 689.725 210.537C691.139 206.337 692.499 202.137 693.659 197.857C695.779 189.084 697.725 180.271 699.805 171.484C704.219 152.671 704.099 133.257 704.539 114.044C704.699 104.977 704.712 95.9105 704.632 86.8305C704.485 75.2705 705.539 63.2971 701.699 52.1771C693.845 32.2171 677.125 15.0838 656.832 7.83045C624.685 -2.03621 591.512 10.4171 559.525 14.9771C554.112 16.0437 548.819 17.6438 543.645 19.5638C542.192 19.7905 539.899 21.0572 537.672 22.0039C537.752 22.0972 537.832 22.1772 537.925 22.2706C540.805 26.3772 542.965 31.1771 543.872 36.1638C553.405 32.4438 564.152 34.3372 573.565 37.6039C584.565 41.0839 593.325 49.6705 597.219 60.4971C597.699 62.6438 599.419 66.6437 599.219 69.5104ZM672.445 217.23C663.152 221.924 655.645 231.684 654.032 242.004C655.965 246.364 644.285 247.257 641.272 255.11C637.685 271.644 650.939 295.377 669.085 296.11C678.472 296.377 682.499 286.417 690.259 283.377C707.592 281.817 715.312 272.884 714.285 255.444C714.792 232.75 700.645 239.55 698.232 225.857C696.312 217.83 691.565 214.671 685.779 214.351C681.659 214.124 676.992 215.324 672.445 217.23Z" fill="#473025"/>
<path d="M516.925 199.231C476.352 203.044 435.392 204.218 394.672 202.551C357.219 200.471 319.872 194.817 283.485 185.711C265.032 180.657 214.499 168.991 242.499 143.218C248.592 137.951 256.952 137.098 264.019 133.951C264.099 139.084 264.379 143.164 264.752 144.418C264.899 145.218 265.552 145.818 266.312 146.018C266.299 146.218 266.312 146.444 266.339 146.697C268.912 150.484 274.445 151.151 278.445 153.004C293.192 158.631 308.432 162.671 323.859 165.897C344.805 171.324 366.179 174.631 387.819 175.604C414.859 176.498 441.952 178.364 468.992 176.577C482.339 175.644 495.805 176.311 509.019 173.871C511.592 172.884 520.845 172.884 523.019 170.257C523.032 170.271 523.059 170.284 523.085 170.297C521.192 179.711 524.312 189.164 530.245 196.431C529.579 196.711 528.925 197.004 528.299 197.124C524.579 198.164 520.739 198.631 516.925 199.231Z" fill="#F5AC7F"/>
<path d="M510.338 169.204C510.538 169.244 510.725 169.284 510.925 169.311C494.858 172.084 478.325 171.617 462.058 172.724C430.698 173.524 399.178 172.484 367.938 169.697C336.311 165.911 304.845 158.257 274.965 147.191C273.725 146.777 270.778 144.951 268.671 144.524C269.471 141.644 267.525 135.591 268.085 133.151C268.071 127.791 268.498 122.444 269.058 117.111C272.511 121.724 278.245 125.484 284.005 127.724C319.285 141.031 358.125 141.684 395.378 144.711C413.378 145.764 431.458 144.951 449.445 143.897C451.791 143.497 468.471 142.698 475.098 140.604C475.111 140.698 475.125 140.777 475.138 140.844C480.178 156.151 494.698 166.778 510.338 169.204Z" fill="#E68A55"/>
<path d="M386.939 98.1501C388.912 84.8567 365.259 86.0567 356.632 86.5633C348.752 87.3633 317.232 90.4432 315.525 98.5899C316.352 108.177 329.112 109.323 336.672 110.363C350.712 110.31 378.419 110.777 386.939 98.1501ZM474.152 127.283C473.152 129.63 473.579 133.31 474.192 136.457C470.992 136.577 466.445 138.27 464.299 138.15C451.792 139.803 438.672 140.47 425.979 140.657C387.845 141.43 349.365 138.15 311.859 131.203C297.659 128.323 280.872 125.377 271.379 113.323C270.672 111.99 270.285 110.67 270.192 109.377C270.432 108.337 270.592 107.31 270.512 106.363C275.192 89.55 327.739 77.9768 340.019 76.2035C363.925 73.4168 387.912 67.8966 412.085 69.2433C414.139 69.3633 416.192 69.5234 418.259 69.7501C419.205 70.0301 420.832 70.0834 422.139 69.8167C424.272 74.5101 427.445 78.5235 432.379 80.5368C432.499 80.5901 432.619 80.6166 432.752 80.6566C425.099 102.31 434.872 125.75 460.925 128.683C462.299 129.377 467.859 128.67 474.152 127.283Z" fill="#F5AC7F"/>
<path d="M356.632 86.5643C365.258 86.0576 388.912 84.8576 386.938 98.151C378.418 110.778 350.712 110.311 336.672 110.364C329.112 109.324 316.352 108.177 315.525 98.5908C317.232 90.4442 348.752 87.3643 356.632 86.5643Z" fill="#473025"/>
<path d="M279.391 643.998C279.538 645.038 278.898 645.798 278.085 646.104C278.058 645.344 278.431 644.625 279.245 643.985C279.298 643.985 279.351 643.985 279.391 643.998Z" fill="#473025"/>
<path d="M279.352 643.771C279.365 643.837 279.378 643.917 279.392 643.997C279.352 643.984 279.298 643.984 279.245 643.984C278.432 644.624 278.058 645.344 278.085 646.104C277.765 646.237 277.405 646.304 277.058 646.277C276.232 646.237 275.445 645.731 275.205 644.664C271.285 627.451 269.698 609.891 267.365 592.424C265.858 578.051 262.645 563.491 261.818 549.184C263.232 550.144 264.658 551.064 266.112 551.957C269.472 575.477 272.538 599.037 275.405 622.637C276.525 629.704 278.018 636.731 279.352 643.771Z" fill="#473025"/>
<path d="M265.765 549.464C265.885 550.291 266.005 551.118 266.111 551.958C264.658 551.064 263.232 550.144 261.818 549.184C261.778 548.464 261.738 547.757 261.711 547.037C262.391 545.491 263.391 545.451 264.245 546.078C265.165 546.758 265.898 548.251 265.765 549.464Z" fill="#473025"/>
<path d="M262.299 544.638C262.952 545.131 263.605 545.584 264.272 546.038L264.245 546.078C263.392 545.451 262.392 545.491 261.712 547.038C261.738 547.758 261.779 548.465 261.819 549.185C260.085 547.985 258.392 546.731 256.752 545.411C255.912 544.638 254.885 543.438 254.338 542.198C254.472 542.211 254.619 542.198 254.765 542.158C255.952 541.944 256.338 540.678 256.312 538.971C258.712 539.944 259.859 543.438 262.299 544.638Z" fill="#473025"/>
<path d="M254.338 542.198C253.765 540.931 253.751 539.611 255.071 538.718C255.511 538.731 255.925 538.811 256.311 538.971C256.338 540.677 255.951 541.944 254.765 542.158C254.618 542.198 254.471 542.211 254.338 542.198Z" fill="#473025"/>
<path d="M250.245 291.897C250.271 292.297 250.205 292.644 250.058 292.937C250.071 292.897 250.058 292.87 250.058 292.83C250.071 291.537 250.071 290.244 250.071 288.964C250.125 289.937 250.178 290.91 250.245 291.897Z" fill="#473025"/>
<path d="M250.058 292.831C250.058 292.871 250.072 292.897 250.058 292.937C249.698 293.764 248.818 294.177 247.952 294.124C247.018 294.084 246.125 293.471 246.005 292.231C245.951 291.217 245.898 290.217 245.832 289.204C245.832 288.604 245.818 288.017 245.818 287.417C246.152 287.111 246.445 286.764 246.685 286.364C246.698 286.324 246.725 286.284 246.738 286.244C247.325 286.257 247.898 286.151 248.418 285.911C248.912 285.697 249.392 285.457 249.858 285.164C249.925 286.431 250.005 287.697 250.071 288.964C250.071 290.244 250.072 291.537 250.058 292.831Z" fill="#473025"/>
<path d="M250.085 285.017C250.085 286.337 250.085 287.644 250.071 288.964C250.005 287.697 249.925 286.431 249.858 285.164C249.938 285.124 250.005 285.071 250.085 285.017Z" fill="#473025"/>
<path d="M246.085 306.297C245.965 300.604 245.898 294.897 245.832 289.204C245.898 290.217 245.952 291.217 246.005 292.23C246.125 293.47 247.018 294.084 247.952 294.124C248.818 294.177 249.698 293.764 250.058 292.937C250.192 302.284 250.445 311.644 250.765 320.99C250.765 321.004 250.765 321.004 250.765 321.017C251.098 321.097 251.392 321.244 251.645 321.457C251.952 321.604 252.258 321.75 252.538 321.91C255.138 322.697 257.618 324.19 260.165 325.044C280.192 333.964 302.152 337.684 323.525 342.057C350.418 347.07 377.512 350.95 404.792 353.177C450.592 356.697 497.005 360.457 542.685 353.83C558.298 351.27 574.285 350.017 588.952 343.79C593.085 341.95 597.338 339.337 600.805 336.644C601.978 336.03 602.978 334.524 604.098 333.657C604.018 333.417 603.978 333.15 604.005 332.844C604.578 324.124 605.138 315.404 605.725 306.67C605.658 308.057 606.672 308.804 607.712 308.857C608.552 308.91 609.405 308.524 609.778 307.684C609.552 311.284 609.352 314.87 609.152 318.47C609.992 318.444 610.858 318.55 611.725 318.657C612.618 318.764 613.512 318.87 614.352 318.844C620.845 319.404 622.832 321.804 622.325 324.684C621.685 323.324 620.725 323.177 619.365 324.604C619.352 326.404 619.325 328.217 619.285 330.017C617.485 331.99 615.112 333.83 612.778 335.124C607.325 339.404 600.325 344.11 596.498 344.71C582.858 352.67 566.525 354.23 551.152 356.937C516.352 362.79 481.098 362.284 445.965 360.324C435.112 359.724 424.285 358.977 413.472 358.244C372.218 354.71 330.965 349.364 290.778 339.217C276.618 336.484 263.258 331.324 250.138 325.51C249.965 325.444 249.792 325.35 249.632 325.23C246.112 324.15 241.458 321.817 238.538 318.99C238.738 317.737 238.965 316.497 239.218 315.244C239.272 313.55 241.338 312.617 240.765 310.884C240.205 309.63 239.165 309.35 238.165 309.657C238.672 309.257 239.258 308.857 239.938 308.47C241.512 307.87 244.152 306.204 246.085 306.297Z" fill="#473025"/>
<path d="M246.885 239.177C246.685 235.697 246.485 232.231 246.258 228.764C247.378 242.244 247.378 255.791 248.418 269.271C249.112 274.551 249.525 279.857 249.858 285.164C249.392 285.457 248.912 285.697 248.418 285.911C247.898 286.151 247.325 286.257 246.738 286.244C246.725 286.284 246.698 286.324 246.685 286.364C246.445 286.764 246.152 287.111 245.818 287.417C245.818 288.017 245.832 288.604 245.832 289.204C245.498 283.271 245.192 277.324 244.378 271.444C243.578 263.764 243.405 256.044 243.125 248.337C243.192 248.177 243.272 248.017 243.338 247.857C243.938 246.444 244.645 245.111 245.525 243.884C245.605 243.591 245.685 243.297 245.765 243.004C246.125 241.724 246.458 240.431 246.885 239.177Z" fill="#473025"/>
<path d="M246.885 239.177C246.459 240.431 246.125 241.724 245.765 243.004C245.685 243.297 245.605 243.591 245.525 243.884C244.645 245.111 243.939 246.444 243.339 247.857C243.272 248.017 243.192 248.177 243.125 248.337C243.045 245.897 242.952 243.444 242.819 241.004C242.672 236.817 242.219 232.657 241.925 228.457C241.952 227.671 241.832 226.817 241.712 225.964C241.672 225.124 241.619 224.271 241.579 223.417C241.579 223.404 241.579 223.404 241.579 223.404C241.672 222.697 241.885 222.044 242.352 221.444C244.365 219.151 246.099 222.911 245.885 224.764C246.019 226.097 246.139 227.431 246.259 228.764C246.485 232.231 246.685 235.697 246.885 239.177Z" fill="#473025"/>
<path d="M240.765 310.884C241.338 312.617 239.272 313.55 239.219 315.244C238.965 316.497 238.738 317.737 238.538 318.99C235.552 316.11 234.392 312.71 238.165 309.657C239.165 309.35 240.205 309.63 240.765 310.884Z" fill="#473025"/>
<path d="M243.125 248.337C243.111 248.377 243.098 248.431 243.071 248.471C242.605 240.964 242.098 233.457 241.711 225.964C241.831 226.817 241.951 227.67 241.925 228.457C242.218 232.657 242.672 236.817 242.818 241.004C242.952 243.444 243.045 245.897 243.125 248.337Z" fill="#473025"/>
<path d="M241.579 223.417C241.619 224.271 241.672 225.124 241.712 225.964C241.592 225.097 241.485 224.231 241.579 223.417Z" fill="#473025"/>
<path d="M238.165 309.637C234.392 312.691 235.551 316.091 238.538 318.971C234.458 343.837 238.165 369.224 240.578 394.118C243.458 425.504 245.165 457.024 249.191 488.291C250.698 501.571 252.471 514.824 254.591 527.891C254.485 530.064 256.245 535.464 256.312 538.971C255.925 538.811 255.511 538.731 255.071 538.718C253.751 539.611 253.765 540.931 254.338 542.198C254.298 542.211 254.272 542.211 254.232 542.198C253.298 542.158 252.405 541.491 252.245 540.544C244.192 493.131 240.431 445.198 236.591 397.318C234.218 369.158 228.978 340.064 235.752 312.184C236.018 311.011 237.058 309.971 238.165 309.637Z" fill="#473025"/>
<path d="M574.312 675.944C566.192 675.944 560.779 675.371 560.432 675.331C551.685 674.384 545.379 666.518 546.325 657.771C547.272 649.038 555.139 642.704 563.885 643.678C575.339 644.878 608.739 644.784 625.045 630.104C631.699 624.104 634.925 615.998 634.925 605.304C634.925 584.011 615.899 555.198 525.299 538.864C523.512 538.544 522.032 538.278 520.925 538.064C512.285 536.371 506.659 528.011 508.352 519.371C510.045 510.744 518.405 505.118 527.045 506.811C528.032 506.998 529.352 507.238 530.952 507.531C544.619 509.984 576.619 515.758 605.845 529.024C656.192 551.864 666.765 583.104 666.779 605.291C666.779 625.011 659.685 641.798 646.259 653.851C633.179 665.584 614.579 672.744 590.979 675.118C584.805 675.744 579.099 675.944 574.312 675.944Z" fill="#473025"/>
<path d="M440.925 650.277C435.405 657.797 440.685 665.064 449.405 664.917C456.232 665.277 463.072 665.224 469.898 665.171C471.272 665.157 472.645 665.157 474.005 665.144C474.445 664.717 474.965 664.317 475.538 663.957C476.018 663.464 476.912 663.224 477.752 663.224L477.765 661.477C474.245 661.477 470.578 661.517 467.058 661.571C457.618 661.717 449.125 661.851 446.592 660.971C440.405 660.104 441.792 653.371 445.538 650.344C450.245 646.637 456.338 645.331 462.045 643.984C467.498 642.211 497.538 641.677 511.112 637.944L511.072 637.757C509.632 638.251 508.165 636.464 507.018 635.317C490.098 638.331 472.592 637.717 455.885 641.811C450.405 643.464 444.312 645.357 440.925 650.277Z" fill="#473025"/>
<path d="M513.498 701.238C513.511 698.718 509.085 699.011 508.818 701.198C509.045 702.331 510.338 703.011 511.498 703.011C512.538 703.024 513.471 702.478 513.498 701.238ZM509.631 665.264C511.485 664.944 515.538 664.811 514.671 662.011C513.871 660.491 512.258 660.971 510.658 661.451C509.791 661.705 508.938 661.958 508.218 661.904C505.231 662.878 506.831 665.304 509.098 665.304C509.271 665.304 509.445 665.291 509.631 665.264ZM509.151 689.264C511.418 688.971 510.938 685.411 508.671 685.744C507.391 685.851 505.351 686.118 505.231 687.718C505.538 688.971 506.791 689.385 507.978 689.385C508.391 689.385 508.791 689.344 509.151 689.264ZM462.045 643.985C467.498 642.211 497.538 641.678 511.111 637.944C515.711 636.691 518.431 635.064 517.644 632.891C516.284 631.584 514.525 632.891 513.231 633.611C512.645 633.904 511.965 634.158 511.298 634.358C509.965 632.838 507.578 631.358 506.871 630.011C499.178 620.998 492.178 609.984 491.685 597.904C493.805 581.944 501.484 590.798 508.111 598.011C515.844 605.491 525.058 611.238 534.844 615.638C542.658 619.224 551.204 621.544 557.991 626.824C560.858 629.464 562.698 633.011 563.978 636.638C564.564 638.064 564.564 639.638 565.191 641.038C565.538 641.798 566.111 642.171 566.685 642.171C567.365 642.171 568.018 641.638 568.231 640.638C568.018 636.531 566.938 633.131 565.218 630.238C565.551 629.958 565.818 629.638 565.965 629.371C570.658 623.318 579.858 626.758 582.965 632.704C593.205 647.744 594.978 692.718 570.898 694.904C568.218 695.118 565.311 694.011 564.218 691.385C564.085 691.145 563.884 690.931 563.644 690.798C565.671 686.971 567.911 681.424 564.871 680.478C563.004 680.251 562.804 682.211 562.604 683.571C561.991 686.598 560.578 689.398 558.898 691.958C553.485 700.758 533.951 704.651 524.165 707.344C517.098 708.824 509.844 709.024 502.671 708.478C494.831 708.158 487.404 706.358 485.458 698.144C489.444 700.544 495.031 703.504 497.818 703.504C498.631 703.504 499.205 703.238 499.418 702.638C500.751 699.704 492.671 698.624 490.885 697.131C486.111 694.451 478.671 691.304 479.938 684.638C479.938 684.598 479.938 684.558 479.938 684.504C483.151 686.344 486.845 687.384 490.378 688.371C491.804 688.491 494.045 689.585 495.751 689.585C496.751 689.585 497.564 689.224 497.938 688.064C498.164 686.091 495.978 685.971 494.565 685.731C491.125 684.971 487.684 684.038 484.404 682.731C477.178 680.424 470.098 669.998 479.511 665.638C479.631 665.464 479.738 665.291 479.818 665.144C482.685 665.158 485.538 665.224 488.404 665.344C490.884 665.491 493.405 665.758 495.751 666.224C496.205 666.358 496.711 666.478 497.218 666.478C498.018 666.478 498.751 666.171 499.018 665.224C499.858 662.078 489.538 661.491 477.765 661.478C474.245 661.478 470.578 661.518 467.058 661.571C457.618 661.718 449.124 661.851 446.591 660.971C440.404 660.104 441.791 653.371 445.538 650.344C450.244 646.638 456.338 645.331 462.045 643.985Z" fill="#EDE7CB"/>
<path d="M474.005 665.144C469.191 669.797 471.791 678.117 476.631 682.157C476.898 682.397 477.178 682.637 477.458 682.851C477.858 682.531 478.365 682.371 478.965 682.464C479.698 682.797 479.911 683.757 479.938 684.504C483.151 686.344 486.845 687.384 490.378 688.37C491.805 688.49 494.045 689.584 495.752 689.584C496.752 689.584 497.565 689.224 497.938 688.064C498.165 686.091 495.978 685.971 494.565 685.731C491.125 684.971 487.685 684.037 484.405 682.731C477.178 680.424 470.098 669.997 479.511 665.637C479.631 665.464 479.738 665.291 479.818 665.144C477.872 665.131 475.938 665.131 474.005 665.144Z" fill="#473025"/>
<path d="M474.005 665.145C475.938 665.131 477.872 665.131 479.818 665.145C480.405 663.865 479.125 663.224 477.752 663.224C476.912 663.224 476.018 663.464 475.538 663.958C474.965 664.318 474.445 664.718 474.005 665.145Z" fill="#473025"/>
<path d="M477.458 682.851C476.551 683.557 476.151 685.051 476.271 686.157C476.111 689.864 478.338 693.157 481.205 695.344C481.551 695.611 482.218 696.077 483.085 696.651C483.725 696.077 484.738 696.144 485.245 697.077C485.298 697.437 485.378 697.797 485.458 698.144C489.445 700.544 495.031 703.504 497.818 703.504C498.631 703.504 499.205 703.237 499.418 702.637C500.751 699.704 492.671 698.624 490.885 697.131C486.111 694.451 478.671 691.304 479.938 684.637C479.938 684.597 479.938 684.557 479.938 684.504C479.071 684.024 478.245 683.477 477.458 682.851Z" fill="#473025"/>
<path d="M477.765 661.478L477.751 663.224C479.125 663.224 480.405 663.864 479.818 665.144C482.685 665.158 485.538 665.224 488.405 665.344C490.885 665.491 493.405 665.757 495.751 666.224C496.205 666.357 496.711 666.478 497.218 666.478C498.018 666.478 498.751 666.171 499.018 665.224C499.858 662.077 489.538 661.491 477.765 661.478Z" fill="#473025"/>
<path d="M478.965 682.464C478.365 682.371 477.858 682.531 477.458 682.851C478.245 683.477 479.072 684.024 479.938 684.504C479.912 683.757 479.699 682.797 478.965 682.464Z" fill="#473025"/>
<path d="M482.578 697.424C481.698 711.904 500.645 712.357 511.098 712.317C511.218 712.317 511.338 712.317 511.445 712.317C523.471 712.317 555.751 704.651 561.698 694.171C560.965 693.037 560.405 691.584 561.791 690.757C562.351 690.424 563.098 690.451 563.645 690.797C565.671 686.971 567.911 681.424 564.871 680.477C563.005 680.251 562.805 682.211 562.605 683.571C561.991 686.597 560.578 689.397 558.898 691.957C553.485 700.757 533.951 704.651 524.165 707.344C517.098 708.824 509.845 709.024 502.671 708.477C494.831 708.157 487.405 706.357 485.458 698.144C484.578 697.611 483.765 697.091 483.085 696.651C482.858 696.837 482.685 697.091 482.578 697.424Z" fill="#473025"/>
<path d="M485.245 697.078C484.738 696.145 483.725 696.078 483.085 696.651C483.765 697.091 484.578 697.611 485.458 698.145C485.378 697.798 485.298 697.438 485.245 697.078Z" fill="#473025"/>
<path d="M488.152 597.624C488.525 611.798 497.098 624.758 506.512 634.851C506.672 634.984 506.832 635.144 507.019 635.318C507.472 635.238 507.925 635.158 508.378 635.064C509.245 634.891 510.285 634.664 511.298 634.358C509.965 632.838 507.578 631.358 506.872 630.011C499.178 620.998 492.179 609.984 491.685 597.904C493.805 581.944 501.485 590.798 508.112 598.011C515.845 605.491 525.058 611.238 534.845 615.638C542.658 619.224 551.205 621.544 557.992 626.824C560.858 629.464 562.698 633.011 563.978 636.638C564.565 638.064 564.565 639.638 565.192 641.038C565.538 641.798 566.112 642.171 566.685 642.171C567.365 642.171 568.018 641.638 568.232 640.638C568.018 636.531 566.939 633.131 565.219 630.238C564.725 630.664 564.112 631.011 563.512 630.944C562.018 630.331 562.312 628.504 563.085 627.278C554.552 617.251 537.352 614.344 526.312 607.291C518.498 602.718 511.672 597.091 505.685 590.411C497.912 580.638 488.472 586.411 488.152 597.624Z" fill="#473025"/>
<path d="M505.232 687.718C505.539 688.971 506.792 689.384 507.979 689.384C508.392 689.384 508.792 689.344 509.152 689.264C511.419 688.971 510.938 685.411 508.672 685.744C507.392 685.851 505.352 686.118 505.232 687.718Z" fill="#473025"/>
<path d="M508.378 635.064C507.925 635.158 507.471 635.238 507.018 635.318C508.165 636.464 509.631 638.251 511.071 637.758C511.351 637.651 511.631 637.464 511.911 637.171C512.525 636.224 512.111 635.278 511.298 634.358C510.285 634.664 509.245 634.891 508.378 635.064Z" fill="#473025"/>
<path d="M508.219 661.904C505.232 662.878 506.832 665.304 509.098 665.304C509.272 665.304 509.445 665.291 509.632 665.264C511.485 664.944 515.538 664.811 514.672 662.011C513.872 660.491 512.258 660.971 510.658 661.451C509.792 661.704 508.939 661.958 508.219 661.904Z" fill="#473025"/>
<path d="M508.818 701.198C509.045 702.331 510.338 703.011 511.498 703.011C512.538 703.024 513.472 702.478 513.498 701.238C513.512 698.718 509.085 699.011 508.818 701.198Z" fill="#473025"/>
<path d="M511.072 637.758L511.112 637.944C515.712 636.691 518.432 635.064 517.645 632.891C516.285 631.584 514.525 632.891 513.232 633.611C512.645 633.904 511.965 634.158 511.299 634.358C512.112 635.278 512.525 636.224 511.912 637.171C511.632 637.464 511.352 637.651 511.072 637.758Z" fill="#473025"/>
<path d="M561.791 690.758C560.405 691.584 560.965 693.038 561.698 694.171C561.738 694.091 561.792 694.024 561.832 693.944C562.245 693.318 562.938 692.171 563.645 690.798C563.098 690.451 562.351 690.424 561.791 690.758Z" fill="#473025"/>
<path d="M561.832 693.944C561.792 694.024 561.738 694.091 561.698 694.171C561.872 694.424 562.058 694.677 562.232 694.891C564.138 697.424 567.285 698.478 570.391 698.478C571.271 698.478 572.151 698.384 572.991 698.224C600.058 694.637 599.085 635.677 579.112 624.237C574.258 621.504 567.338 622.264 563.658 626.571C563.445 626.771 563.258 627.011 563.085 627.278C563.872 628.198 564.592 629.197 565.218 630.237C565.552 629.957 565.818 629.637 565.965 629.371C570.658 623.317 579.858 626.757 582.965 632.704C593.205 647.744 594.978 692.717 570.898 694.904C568.218 695.117 565.312 694.011 564.218 691.384C564.085 691.144 563.885 690.931 563.645 690.798C562.938 692.171 562.245 693.318 561.832 693.944Z" fill="#473025"/>
<path d="M563.085 627.278C562.312 628.504 562.018 630.331 563.512 630.944C564.112 631.011 564.725 630.664 565.219 630.238C564.592 629.198 563.872 628.198 563.085 627.278Z" fill="#473025"/>
<path d="M369.325 522.865C368.552 523.558 367.778 524.278 366.965 524.918C355.352 535.545 347.178 549.798 343.192 564.985C338.045 580.625 338.858 599.198 326.738 611.745C323.058 615.065 318.071 619.145 312.805 617.718C305.858 613.611 304.165 604.225 302.685 596.851C298.658 570.105 314.405 544.318 334.138 527.425C336.485 525.611 338.912 523.918 341.512 522.478C341.792 522.331 342.018 522.105 342.178 521.838C343.538 522.038 344.832 522.185 346.045 522.251C347.418 522.465 348.818 522.638 350.205 522.785C341.378 531.918 332.218 541.091 325.925 552.238C320.392 562.598 316.005 574.358 316.152 586.238C316.178 587.665 318.192 588.291 319.058 587.185C319.978 585.025 319.178 582.358 319.698 580.038C320.338 575.625 321.538 571.558 323.005 567.278C327.805 550.611 340.232 537.891 351.952 525.651C352.938 524.905 353.365 523.865 353.285 523.065C354.018 523.131 354.765 523.171 355.512 523.225C360.112 523.465 364.765 523.385 369.325 522.865Z" fill="#DE4F36"/>
<path d="M322.938 399.564C324.578 399.644 326.205 400.111 327.752 401.017C321.885 403.124 315.858 410.551 317.672 416.724C318.898 418.897 320.992 420.457 322.205 422.657C321.432 422.644 320.605 422.551 319.778 422.444C317.352 422.177 314.805 421.897 312.952 423.537C311.405 426.564 310.072 430.804 311.005 434.244C306.285 434.044 301.539 434.644 297.152 435.911C297.619 429.204 299.205 422.604 302.272 416.564C305.805 408.231 314.618 399.111 322.938 399.564Z" fill="#EDE7CB"/>
<path d="M408.618 404.164C410.258 404.257 411.885 404.71 413.445 405.63C407.578 407.737 401.538 415.164 403.365 421.337C404.578 423.51 406.672 425.07 407.885 427.257C407.125 427.244 406.298 427.15 405.458 427.057C403.045 426.79 400.485 426.51 398.645 428.137C397.098 431.177 395.765 435.417 396.685 438.844C391.978 438.657 387.232 439.257 382.832 440.51C383.298 433.817 384.885 427.217 387.952 421.177C389.725 417.004 392.805 412.644 396.485 409.377C400.178 406.11 404.458 403.937 408.618 404.164Z" fill="#EDE7CB"/>
<path d="M349.685 505.931C370.112 507.024 391.285 502.717 408.752 491.971C393.978 518.931 371.512 523.171 341.485 518.277C325.858 515.184 309.285 506.704 301.565 492.264C314.138 499.917 329.338 503.117 343.845 505.464C345.778 505.664 347.725 505.824 349.685 505.931Z" fill="#EDE7CB"/>
<path d="M366.965 524.918C367.778 524.278 368.552 523.558 369.325 522.864C364.765 523.384 360.112 523.464 355.512 523.224C354.765 523.171 354.018 523.131 353.285 523.064C353.365 523.864 352.938 524.904 351.952 525.651C340.232 537.891 327.805 550.611 323.005 567.278C321.538 571.558 320.338 575.624 319.698 580.038C319.178 582.358 319.978 585.024 319.058 587.184C318.192 588.291 316.178 587.664 316.152 586.238C316.005 574.358 320.392 562.598 325.925 552.238C332.218 541.091 341.378 531.918 350.205 522.784C348.818 522.638 347.418 522.464 346.045 522.251C344.832 522.184 343.538 522.038 342.178 521.838C342.018 522.104 341.792 522.331 341.512 522.478C338.912 523.918 336.485 525.611 334.138 527.424C314.405 544.318 298.658 570.104 302.685 596.851C304.165 604.224 305.858 613.611 312.805 617.718C318.071 619.144 323.058 615.064 326.738 611.744C338.858 599.198 338.045 580.624 343.192 564.984C347.178 549.798 355.352 535.544 366.965 524.918ZM408.752 491.971C391.285 502.718 370.112 507.024 349.685 505.931C347.725 505.824 345.778 505.664 343.845 505.464C329.338 503.118 314.138 499.918 301.565 492.264C309.285 506.704 325.858 515.184 341.485 518.278C371.512 523.171 393.978 518.931 408.752 491.971ZM423.925 493.464C424.738 494.504 423.818 496.171 422.552 496.091C422.472 496.091 422.392 496.078 422.298 496.064C419.365 495.424 416.525 494.358 413.992 492.798C413.885 493.371 413.818 493.904 413.858 494.358C411.592 512.384 404.365 531.038 389.632 542.424C379.392 550.718 366.765 557.824 353.325 557.104C352.192 557.051 351.045 556.931 349.885 556.758C349.738 556.691 349.592 556.598 349.445 556.504C348.538 558.811 347.751 561.158 347.071 563.531C341.525 579.571 342.325 598.064 331.205 611.704C327.071 616.491 320.965 621.651 314.325 621.304C313.725 621.264 313.112 621.184 312.512 621.064C303.472 617.704 301.178 606.091 299.445 597.624C296.472 578.358 303.218 559.344 314.578 543.664C314.392 543.611 314.205 543.531 314.018 543.411C301.392 532.824 297.765 514.798 296.912 499.051C297.258 496.224 295.485 491.824 297.658 489.691C297.658 489.691 297.645 489.691 297.645 489.678C297.085 490.144 296.512 490.584 295.912 490.998C294.032 492.038 291.592 494.331 289.445 492.864C287.578 490.771 291.792 489.824 293.058 488.904C295.245 487.531 297.192 485.771 298.818 483.744C300.218 481.904 301.338 479.891 302.245 477.758C303.152 475.824 306.165 477.278 305.232 479.211C303.978 482.198 302.245 484.971 300.071 487.358C301.378 488.358 302.738 489.318 304.138 490.198C311.818 494.531 320.498 496.878 328.912 499.198C355.498 506.398 385.391 502.838 408.671 488.104C406.858 485.958 403.992 482.518 405.258 479.851C406.258 478.664 407.272 479.584 407.952 480.718C408.605 481.131 409.218 481.891 409.392 482.584C411.272 486.051 414.578 488.758 417.965 490.624C419.125 491.211 420.325 491.691 421.352 492.064C421.965 492.318 422.698 492.438 423.152 492.944C423.432 493.078 423.685 493.251 423.925 493.464Z" fill="#473025"/>
<path d="M413.445 405.631C411.885 404.711 410.259 404.257 408.619 404.164C404.459 403.937 400.179 406.11 396.485 409.377C392.805 412.644 389.725 417.004 387.952 421.177C384.885 427.217 383.299 433.817 382.832 440.51C387.232 439.257 391.979 438.657 396.685 438.844C395.765 435.417 397.099 431.177 398.645 428.137C400.485 426.511 403.045 426.79 405.459 427.057C406.299 427.15 407.125 427.244 407.885 427.257C406.672 425.07 404.579 423.511 403.365 421.337C401.539 415.164 407.579 407.737 413.445 405.631ZM418.459 451.964C418.352 451.897 418.245 451.804 418.152 451.697C409.979 441.924 396.472 441.044 384.805 443.23C384.245 443.457 383.445 443.55 382.699 443.51C382.632 447.044 382.859 450.59 383.325 454.097C384.539 456.457 384.685 459.537 386.592 461.697C389.539 464.99 394.245 466.724 398.592 466.857C408.059 466.537 414.592 460.364 418.459 451.964ZM425.952 426.697C427.632 444.47 418.392 471.191 397.912 470.084C396.485 470.004 394.992 469.79 393.445 469.444C383.712 467.217 379.365 457.884 379.485 448.604C378.805 437.964 380.779 427.124 386.005 417.764C399.299 391.724 425.579 396.991 425.952 426.697Z" fill="#473025"/>
<path d="M420.512 392.177C421.418 393.47 420.192 394.844 418.978 394.777C418.538 394.75 418.112 394.537 417.778 394.07C414.258 389.604 409.925 385.337 404.272 383.897C402.512 383.257 400.405 383.617 398.845 382.524C397.378 381.51 398.885 379.977 400.192 379.924C406.432 380.084 412.272 383.204 416.512 387.67C417.978 389.097 419.298 390.577 420.512 392.177Z" fill="#473025"/>
<path d="M350.098 463.884C350.378 465.137 349.872 467.777 348.498 467.711C348.232 467.684 347.938 467.577 347.605 467.337C347.392 467.164 347.218 466.977 347.098 466.777C346.338 461.604 347.485 457.244 350.058 460.111C350.045 461.204 350.058 462.231 350.112 463.204C350.098 463.431 350.098 463.657 350.098 463.884Z" fill="#473025"/>
<path d="M350.111 463.204C351.018 481.178 362.725 477.204 365.978 460.191C370.125 455.844 369.725 462.431 366.725 468.884C364.418 473.844 360.578 478.724 356.098 478.484C356.005 478.471 355.912 478.471 355.818 478.457C351.178 478.257 348.498 473.364 347.418 468.564C347.285 467.964 347.178 467.364 347.098 466.777C347.218 466.977 347.391 467.164 347.605 467.338C347.938 467.578 348.231 467.684 348.498 467.711C349.871 467.777 350.378 465.138 350.098 463.884C350.098 463.658 350.098 463.431 350.111 463.204Z" fill="#473025"/>
<path d="M350.058 460.11C347.485 457.244 346.339 461.604 347.099 466.777C346.579 466.004 346.525 464.964 346.525 464.044C346.352 459.164 349.405 454.337 353.965 452.523C355.325 446.763 354.125 440.697 354.632 434.83C354.819 431.417 355.218 428.004 355.738 424.644C355.885 423.67 356.899 423.044 357.832 423.217C360.285 423.87 358.818 426.83 358.805 428.59C357.818 435.11 358.218 441.71 358.138 448.284C357.925 450.71 358.139 453.83 356.019 455.47C355.112 456.004 354.072 456.337 353.258 457.044C351.418 458.564 350.258 460.817 350.112 463.204C350.058 462.23 350.045 461.204 350.058 460.11Z" fill="#473025"/>
<path d="M327.752 401.017C326.205 400.111 324.578 399.644 322.938 399.564C314.618 399.111 305.805 408.231 302.271 416.564C299.205 422.604 297.618 429.204 297.152 435.911C301.538 434.644 306.285 434.044 311.005 434.244C310.071 430.804 311.405 426.564 312.952 423.537C314.805 421.897 317.352 422.177 319.778 422.444C320.605 422.551 321.431 422.644 322.205 422.657C320.991 420.457 318.898 418.897 317.671 416.724C315.858 410.551 321.885 403.124 327.752 401.017ZM332.778 447.364C332.672 447.284 332.565 447.191 332.471 447.084C324.298 437.324 310.792 436.444 299.125 438.617C298.552 438.844 297.752 438.951 297.018 438.897C296.938 442.444 297.165 445.991 297.632 449.484C298.858 451.844 299.005 454.924 300.912 457.084C303.858 460.391 308.552 462.111 312.898 462.244C322.365 461.937 328.898 455.764 332.778 447.364ZM340.258 422.097C341.951 439.857 332.712 466.577 312.218 465.484C310.792 465.404 309.312 465.191 307.765 464.831C298.018 462.617 293.671 453.284 293.805 443.991C293.125 433.351 295.098 422.511 300.312 413.151C313.618 387.124 339.885 392.377 340.258 422.097Z" fill="#473025"/>
<path d="M334.485 378.097C334.445 379.017 333.645 379.684 332.751 379.671C325.911 379.257 319.098 381.964 313.658 385.977C312.324 386.831 311.031 388.937 309.351 388.857C309.085 388.844 308.818 388.777 308.538 388.644C306.151 384.217 320.298 378.324 323.671 377.377C325.858 376.844 334.405 374.617 334.485 378.097Z" fill="#473025"/>
<path d="M473.045 346.737C473.045 347.657 487.392 351.884 492.232 359.19C498.445 368.59 499.472 391.604 501.912 391.604C504.352 391.604 505.351 368.671 511.538 359.297C516.378 351.937 530.792 349.164 530.792 346.737C530.792 344.297 516.045 341.631 511.165 334.377C505.218 325.564 503.778 303.724 501.912 303.724C500.058 303.724 498.898 324.524 493.432 333.217C488.485 341.071 473.045 345.804 473.045 346.737Z" fill="#EDE7CB"/>
<path d="M476.231 346.723C476.445 346.817 476.671 346.924 476.871 347.017C481.738 349.19 489.885 352.83 493.525 358.337C497.271 363.99 499.191 374.19 500.591 381.644C501.005 383.83 501.471 386.35 501.911 388.137C502.351 386.35 502.818 383.83 503.231 381.644C504.618 374.23 506.511 364.084 510.231 358.444C513.365 353.684 519.885 350.804 524.658 348.71C526.125 348.07 527.858 347.297 528.778 346.737C527.845 346.19 526.045 345.43 524.525 344.79C519.671 342.75 513.031 339.937 509.871 335.257C506.125 329.683 504.151 319.59 502.725 312.217C502.458 310.884 502.191 309.47 501.925 308.244C501.671 309.47 501.418 310.884 501.165 312.217C499.885 319.15 498.138 328.657 494.752 334.044C490.992 340.03 481.845 344.177 476.938 346.404C476.698 346.51 476.471 346.617 476.231 346.723ZM501.911 393.164C499.591 393.164 499.031 390.177 497.525 382.217C496.178 375.03 494.338 365.19 490.925 360.057C487.791 355.31 479.858 351.763 475.605 349.857C472.365 348.403 471.485 348.017 471.485 346.737C471.485 345.457 472.365 345.057 475.645 343.577C480.258 341.47 488.845 337.577 492.111 332.39C495.178 327.51 496.871 318.337 498.111 311.644C499.418 304.55 499.858 302.164 501.911 302.164C503.938 302.164 504.365 304.35 505.778 311.63C507.165 318.737 509.058 328.47 512.458 333.51C515.098 337.43 521.245 340.03 525.738 341.923C529.991 343.723 532.338 344.71 532.338 346.737C532.338 348.737 530.058 349.737 525.911 351.564C521.498 353.51 515.458 356.164 512.831 360.15C509.458 365.27 507.631 375.07 506.298 382.217C504.805 390.177 504.245 393.164 501.911 393.164Z" fill="#473025"/>
<path d="M125.085 297.51C125.085 298.017 132.925 300.324 135.565 304.31C138.965 309.444 139.525 322.004 140.858 322.004C142.191 322.004 142.738 309.484 146.112 304.364C148.752 300.35 156.618 298.83 156.618 297.51C156.618 296.177 148.565 294.724 145.898 290.764C142.658 285.95 141.871 274.017 140.858 274.017C139.845 274.017 139.205 285.377 136.218 290.124C133.525 294.417 125.085 297.004 125.085 297.51Z" fill="#EDE7CB"/>
<path d="M128.538 297.497C131.272 298.751 135.018 300.657 136.858 303.457C138.992 306.657 140.005 312.084 140.832 316.444C140.832 316.484 140.845 316.537 140.858 316.577C140.858 316.537 140.872 316.484 140.885 316.444C141.685 312.111 142.698 306.711 144.805 303.511C146.632 300.737 150.298 299.124 152.978 297.937C153.272 297.817 153.605 297.671 153.925 297.524C153.592 297.377 153.232 297.231 152.925 297.097C150.192 295.951 146.458 294.364 144.618 291.631C142.725 288.831 141.645 284.097 140.872 280.204C140.192 283.844 139.232 288.257 137.538 290.951C135.618 294.004 131.392 296.177 128.538 297.497ZM140.858 323.564C138.992 323.564 138.632 321.644 137.765 317.017C137.045 313.151 136.045 307.857 134.272 305.177C132.658 302.751 128.458 300.871 126.205 299.857C124.365 299.044 123.525 298.671 123.525 297.511C123.525 296.351 124.312 296.004 126.218 295.137C128.672 294.031 133.232 291.951 134.898 289.297C136.498 286.751 137.418 281.817 138.085 278.217C138.858 274.031 139.138 272.457 140.858 272.457C142.538 272.457 142.818 273.911 143.658 278.204C144.365 281.804 145.418 287.257 147.192 289.897C148.512 291.857 151.765 293.231 154.138 294.231C156.658 295.297 158.178 295.937 158.178 297.511C158.178 299.057 156.698 299.711 154.245 300.791C151.912 301.817 148.725 303.217 147.405 305.217C145.645 307.897 144.658 313.164 143.938 317.017C143.072 321.644 142.712 323.564 140.858 323.564Z" fill="#473025"/>
</svg>
