<svg width="663" height="954" viewBox="0 0 663 954" fill="none" xmlns="http://www.w3.org/2000/svg">
<path d="M558.12 905.389C558.12 931.749 433.187 953.123 279.067 953.123C124.947 953.123 0 931.749 0 905.389C0 879.029 124.947 857.669 279.067 857.669C433.187 857.669 558.12 879.029 558.12 905.389Z" fill="#473025"/>
<path d="M60.8804 686.589C52.8937 686.589 46.0137 680.616 45.0804 672.482C44.8404 670.389 39.4402 620.536 58.4002 573.256C78.4402 523.322 139.747 499.029 142.333 498.016C150.533 494.829 159.76 498.896 162.947 507.096C166.134 515.296 162.067 524.522 153.867 527.696C153.387 527.896 102.814 548.109 87.9603 585.109C72.067 624.736 76.6802 668.469 76.7335 668.896C77.6935 677.629 71.4137 685.509 62.6804 686.496C62.0804 686.562 61.4804 686.589 60.8804 686.589Z" fill="#473025"/>
<path d="M65.9738 767.282C65.4671 771.442 58.8138 771.509 55.5738 770.389C53.0538 769.562 50.6137 768.082 48.4537 766.216C49.067 764.842 48.6404 763.482 46.7738 763.936C46.6271 764.016 46.4939 764.096 46.3472 764.162C44.0005 761.616 42.1605 758.629 41.2139 755.629C41.4672 754.136 43.6671 753.696 44.4271 755.029C46.0671 757.856 47.7337 760.376 49.867 762.709C53.0137 765.736 59.187 769.736 63.1204 766.096C63.307 765.882 63.5605 765.696 63.8271 765.549C64.5071 766.176 65.2271 766.749 65.9738 767.282Z" fill="#473025"/>
<path d="M44.5603 768.616C36.0803 768.789 32.3201 759.603 28.9335 753.256C25.8935 746.816 24.9468 739.683 23.4001 732.789C21.4535 722.656 19.2803 712.349 21.0803 702.029C21.547 694.509 24.5735 687.029 29.6001 681.523C29.6268 681.549 29.6537 681.563 29.6803 681.589C31.3737 682.816 33.2401 680.469 32.1335 679.069C35.3335 676.322 39.147 674.309 43.4803 673.376C44.307 673.162 45.1203 672.922 45.9603 672.749C48.2136 672.336 48.8936 675.802 46.6402 676.229C39.4802 677.442 32.9603 681.696 29.0936 687.856C22.5203 699.496 23.3201 713.923 25.8668 726.589C27.4535 734.389 28.5335 742.389 31.3202 749.869C34.0135 755.109 38.8937 768.216 46.347 764.162C47.0137 764.896 47.7069 765.576 48.4535 766.216C47.9069 767.442 46.5203 768.669 44.5603 768.616Z" fill="#473025"/>
<path d="M87.0269 763.336C87.3602 769.616 80.4402 772.576 74.9735 771.269C71.7335 770.589 68.6535 769.216 65.9735 767.282C66.0002 766.976 66.0135 766.656 65.9735 766.309C65.7202 765.096 64.6802 765.082 63.8269 765.549C61.7736 763.682 60.0401 761.456 58.7868 758.976C58.1335 756.922 54.6136 753.616 57.2269 751.923C58.1069 751.496 59.1601 751.896 59.5868 752.762C61.3335 756.216 62.7335 759.456 65.3868 762.162C69.3468 766.749 83.6135 772.589 83.5068 762.323C83.5868 761.789 83.7469 761.376 83.9469 761.056C84.8803 761.909 85.9336 762.682 87.0269 763.336Z" fill="#473025"/>
<path d="M46.7732 763.936C48.6399 763.483 49.0665 764.842 48.4532 766.216C47.7065 765.576 47.0133 764.896 46.3467 764.162C46.4933 764.096 46.6266 764.016 46.7732 763.936Z" fill="#473025"/>
<path d="M65.9738 767.282C65.2271 766.749 64.5071 766.176 63.8271 765.549C64.6805 765.082 65.7204 765.096 65.9738 766.309C66.0138 766.656 66.0004 766.976 65.9738 767.282Z" fill="#473025"/>
<path d="M73.8669 736.682C74.2269 738.096 74.8405 740.229 76.6805 740.136C79.0672 738.789 77.0404 735.656 76.6938 733.669C76.2938 732.203 74.0671 732.056 73.4404 733.416C72.9204 734.469 73.6536 735.616 73.8669 736.682ZM51.9737 737.629C49.0671 738.322 51.147 743.669 53.7203 742.923C55.2803 741.723 54.3337 737.162 51.9737 737.629ZM39.1737 739.162C36.7337 740.069 38.4671 744.563 40.7071 744.469C42.8937 743.509 41.8271 738.349 39.1737 739.162ZM63.1203 766.096C59.187 769.736 53.0136 765.736 49.867 762.709C47.7336 760.376 46.0671 757.856 44.4271 755.029C43.6671 753.696 41.4672 754.136 41.2138 755.629C42.1605 758.629 44.0005 761.616 46.3472 764.162C38.8938 768.216 34.0137 755.109 31.3203 749.869C28.5337 742.389 27.4536 734.389 25.867 726.589C23.3203 713.923 22.5204 699.496 29.0938 687.856C32.9604 681.696 39.4804 677.442 46.6404 676.229C48.8937 675.802 48.2138 672.336 45.9604 672.749C45.1204 672.922 44.3072 673.162 43.4805 673.376C39.1472 674.309 35.3336 676.323 32.1336 679.069C32.027 678.923 31.8937 678.802 31.7203 678.682C25.2403 673.696 27.8403 663.842 33.267 659.042C37.8003 654.789 43.9738 652.829 49.8805 651.269C61.1072 648.683 74.4537 647.616 84.387 654.576C91.0803 659.896 89.7338 664.256 86.4805 670.456C82.4805 668.256 78.6004 666.682 77.5737 668.509C77.1471 671.469 83.6271 672.483 85.6404 674.123C91.3071 677.389 97.0405 680.709 102.28 684.762C107.734 689.576 112.694 695.363 115.894 701.936C119.134 711.176 118.414 723.189 109.094 728.589C108.12 729.096 107.08 729.456 106.027 729.762C106 726.709 105.947 723.669 105.56 720.696C105.134 719.522 103.614 718.696 102.854 720.029C101.787 721.669 102.48 723.722 102.36 725.562C102.32 727.656 102.36 729.736 102.467 731.829C102.76 738.189 103.467 744.576 102.814 750.909C101.974 755.056 100.52 761.256 95.6003 761.962C91.4003 762.216 87.0937 760.162 84.7737 756.629C83.5204 755.042 82.387 752.829 81.587 750.882C81.2003 749.989 80.0672 749.642 79.2138 750.042C77.0005 751.322 79.2003 753.909 79.8537 755.549C80.7203 757.549 82.1605 759.456 83.9472 761.056C83.7472 761.376 83.5871 761.789 83.5071 762.323C83.6137 772.589 69.347 766.749 65.387 762.162C62.7337 759.456 61.3337 756.216 59.587 752.762C59.1603 751.896 58.1071 751.496 57.2271 751.923C54.6138 753.616 58.1337 756.922 58.787 758.976C60.0403 761.456 61.7738 763.682 63.8271 765.549C63.5604 765.696 63.307 765.882 63.1203 766.096Z" fill="#EDE7CB"/>
<path d="M102.627 761.296C98.8533 766.869 92.28 766.429 87.0267 763.336C87.0267 763.202 87.0132 763.082 86.9998 762.962C86.9998 760.642 84.9467 759.456 83.9467 761.056C82.16 759.456 80.7199 757.549 79.8532 755.549C79.1999 753.909 77 751.322 79.2134 750.042C80.0667 749.642 81.1999 749.989 81.5866 750.882C82.3866 752.829 83.5199 755.042 84.7733 756.629C87.0933 760.162 91.3998 762.216 95.5998 761.962C100.52 761.256 101.973 755.056 102.813 750.909C103.467 744.576 102.76 738.189 102.467 731.829L103.28 731.789C103.267 732.816 104.04 733.869 105.347 733.616C105.587 733.562 105.827 733.496 106.08 733.429C106.12 735.256 106.187 737.096 106.36 738.909C106.907 746.482 107.187 754.776 102.627 761.296Z" fill="#473025"/>
<path d="M87.0004 762.962C87.0137 763.082 87.0272 763.202 87.0272 763.336C85.9339 762.682 84.8806 761.909 83.9473 761.056C84.9473 759.456 87.0004 760.642 87.0004 762.962Z" fill="#473025"/>
<path d="M40.7069 744.469C38.4669 744.563 36.7336 740.069 39.1736 739.162C41.8269 738.349 42.8936 743.509 40.7069 744.469Z" fill="#473025"/>
<path d="M53.7205 742.923C51.1471 743.669 49.0672 738.322 51.9738 737.629C54.3338 737.162 55.2805 741.723 53.7205 742.923Z" fill="#473025"/>
<path d="M76.6802 740.136C74.8402 740.229 74.2266 738.096 73.8666 736.682C73.6533 735.616 72.9201 734.469 73.4401 733.416C74.0667 732.056 76.2935 732.202 76.6935 733.669C77.0401 735.656 79.0668 738.789 76.6802 740.136Z" fill="#473025"/>
<path d="M105.347 733.616C104.04 733.869 103.267 732.816 103.28 731.789C103.294 731.043 103.72 730.323 104.667 730.136C105.12 730.016 105.574 729.883 106.027 729.763C106.04 730.976 106.054 732.203 106.08 733.429C105.827 733.496 105.587 733.563 105.347 733.616Z" fill="#473025"/>
<path d="M103.28 731.789L102.467 731.829C102.36 729.736 102.32 727.656 102.36 725.562C102.48 723.722 101.787 721.669 102.853 720.029C103.613 718.696 105.133 719.522 105.56 720.696C105.947 723.669 106 726.709 106.027 729.762C105.573 729.882 105.12 730.016 104.667 730.136C103.72 730.323 103.293 731.043 103.28 731.789Z" fill="#473025"/>
<path d="M110.161 732.016C108.854 732.629 107.467 733.056 106.081 733.429C106.054 732.202 106.041 730.976 106.027 729.762C107.081 729.456 108.121 729.096 109.094 728.589C118.414 723.189 119.134 711.176 115.894 701.936C112.694 695.362 107.734 689.576 102.281 684.762C97.0406 680.709 91.3072 677.389 85.6405 674.122C83.6272 672.482 77.1472 671.469 77.5738 668.509C78.6005 666.682 82.4806 668.256 86.4806 670.456C86.2806 670.842 86.0939 671.216 85.8806 671.602C85.7073 672.389 86.2937 672.989 87.0671 673.016C87.9071 672.922 88.6271 672.576 89.2538 672.069C92.2404 673.869 94.9204 675.669 96.0671 676.216C105.88 681.896 114.267 690.429 119.2 700.669C123.2 711.802 121.641 726.082 110.161 732.016Z" fill="#473025"/>
<path d="M32.1334 679.069C33.2401 680.469 31.3736 682.816 29.6803 681.589C29.6536 681.562 29.6268 681.549 29.6001 681.522C30.4001 680.656 31.2401 679.829 32.1334 679.069Z" fill="#473025"/>
<path d="M32.1336 679.069C31.2402 679.829 30.4002 680.656 29.6002 681.522C24.9069 678.216 23.5071 671.602 24.8271 666.229C29.5204 643.549 89.0938 636.282 92.7471 662.176C92.6804 665.029 91.787 669.989 89.2536 672.069C88.347 671.522 87.4138 670.976 86.4804 670.456C89.7338 664.256 91.0803 659.896 84.387 654.576C74.4536 647.616 61.1071 648.682 49.8804 651.269C43.9738 652.829 37.8002 654.789 33.2669 659.042C27.8402 663.842 25.2403 673.696 31.7203 678.682C31.8936 678.802 32.0269 678.922 32.1336 679.069Z" fill="#473025"/>
<path d="M87.0666 673.016C86.2933 672.989 85.7068 672.389 85.8802 671.602C86.0935 671.216 86.2802 670.842 86.4802 670.456C87.4135 670.976 88.3467 671.522 89.2534 672.069C88.6267 672.576 87.9066 672.922 87.0666 673.016Z" fill="#473025"/>
<path d="M236.907 893.923C240.72 896.789 240.654 902.216 238.294 906.002C227.04 921.682 202.573 926.162 185.187 931.976C166.427 936.629 146.187 938.283 127.28 933.656C122.28 932.176 117.56 929.882 112.76 927.869C104.854 924.376 96.4803 921.536 89.4803 916.336C82.707 910.922 76.3202 904.882 72.2535 897.109C67.1202 889.429 63.1068 873.349 75.6668 871.002C78.2268 870.736 80.6669 871.949 82.4269 873.762C81.7069 874.736 81.0134 875.749 80.3334 876.762C80.2801 876.696 80.2401 876.602 80.2001 876.509C77.6668 873.029 72.3736 874.603 71.2936 878.523C69.9469 883.203 71.4801 888.082 73.6668 892.229C79.1334 903.642 88.7603 913.109 100.16 918.536C110.054 922.762 119.76 927.696 130.08 930.762C157.707 936.642 186.08 929.522 211.907 919.616C218.814 917.509 246.24 903.442 232.947 895.802C232.4 895.736 231.56 895.442 230.933 895.016C231.267 894.029 231.547 893.029 231.814 892.202C233.534 891.856 235.52 893.003 236.907 893.923Z" fill="#473025"/>
<path d="M232.947 895.803C246.24 903.443 218.814 917.509 211.907 919.616C186.08 929.522 157.707 936.642 130.08 930.762C119.76 927.696 110.054 922.763 100.16 918.536C88.7602 913.109 79.1334 903.642 73.6668 892.229C71.4801 888.082 69.9469 883.203 71.2936 878.523C72.3736 874.603 77.6668 873.029 80.2001 876.509C80.2401 876.602 80.2801 876.696 80.3334 876.762C80.0134 877.256 79.6935 877.736 79.3868 878.229C79.0668 878.736 79.0801 879.349 79.3201 879.856C79.2135 880.123 79.1601 880.416 79.1334 880.736C80.9734 895.429 93.4135 906.336 105.12 914.096C118.707 923.029 136.68 925.882 152.733 925.896C176.013 926.642 198.36 918.802 218.294 907.242C219.907 905.989 231.534 899.656 230.08 897.189C230.4 896.536 230.68 895.776 230.933 895.016C231.56 895.442 232.4 895.736 232.947 895.803Z" fill="#EDE7CB"/>
<path d="M230.08 897.189C231.534 899.656 219.907 905.989 218.293 907.242C198.36 918.802 176.013 926.642 152.733 925.896C136.68 925.882 118.707 923.029 105.12 914.096C93.4134 906.336 80.9733 895.429 79.1333 880.736C79.16 880.416 79.2134 880.123 79.32 879.856C79.4667 880.176 79.7201 880.469 80.0401 880.642C80.9067 881.122 81.7202 880.709 82.4802 879.882C82.4935 879.909 82.4934 879.936 82.5067 879.976C85.0534 896.869 102.267 909.869 117 916.442C146.707 926.722 180.214 923.709 207.814 908.829C211.827 906.776 215.88 904.762 219.627 902.242C221.973 900.736 224.187 899.029 226.387 897.309C226.293 898.149 226.373 898.843 226.773 899.323C228.253 899.936 229.294 898.829 230.08 897.189Z" fill="#473025"/>
<path d="M230.08 897.189C229.294 898.829 228.254 899.936 226.774 899.322C226.374 898.842 226.293 898.149 226.387 897.309C226.72 897.056 227.04 896.802 227.36 896.562C228.134 895.989 229.24 896.136 229.827 896.896C229.934 896.989 230.027 897.082 230.08 897.189Z" fill="#473025"/>
<path d="M230.08 897.189C230.027 897.083 229.933 896.989 229.826 896.896C229.24 896.136 228.133 895.989 227.36 896.562C227.04 896.802 226.72 897.056 226.386 897.309C226.76 894.296 229.64 889.483 229.733 886.949C230.733 880.203 230.173 873.216 229.386 866.483C228.346 861.603 226.067 857.136 224.413 852.469C224.373 852.389 224.346 852.309 224.333 852.229C225.466 851.962 226.6 851.629 227.706 851.242C229.866 857.242 232.986 863.082 233.306 869.562C233.6 876.602 234.64 883.936 232.36 890.762C232.186 891.109 232 891.616 231.813 892.203C231.347 892.296 230.906 892.482 230.493 892.829C229.64 893.669 230.12 894.456 230.933 895.016C230.68 895.776 230.4 896.536 230.08 897.189Z" fill="#473025"/>
<path d="M231.813 892.202C231.547 893.029 231.266 894.029 230.933 895.016C230.12 894.456 229.64 893.669 230.493 892.829C230.907 892.482 231.347 892.296 231.813 892.202Z" fill="#473025"/>
<path d="M229.734 886.949C229.64 889.482 226.76 894.296 226.387 897.309C224.187 899.029 221.974 900.736 219.627 902.242C215.88 904.762 211.827 906.776 207.814 908.829C180.214 923.709 146.707 926.722 117 916.442C102.267 909.869 85.0537 896.869 82.507 879.976C82.4937 879.936 82.4938 879.909 82.4805 879.882C83.9738 878.296 85.2804 875.189 86.4937 874.162C90.9871 868.456 96.0803 863.082 101.587 858.229C111.614 850.642 123.934 845.549 136.374 843.736C140.734 843.456 145.107 843.709 149.387 844.509C163.734 847.162 176.827 855.816 183.134 869.442C186.107 875.989 188.787 882.642 189.84 889.856C190.04 891.536 189.267 893.722 190.934 894.842C197.547 894.509 189.267 875.096 187.854 871.309C181.88 855.829 168.4 845.362 152.934 841.642C153.16 841.376 153.36 841.136 153.547 840.922C157.36 836.749 162.48 833.576 167.507 830.949C169.08 830.202 170.654 829.402 172.32 828.856C173.627 829.856 175.12 830.696 176.827 831.362C179.587 832.429 182.64 835.282 185.694 834.136C186.587 833.736 186.52 832.642 185.894 832.029C182.547 829.776 178.28 828.536 174.84 826.202C174.614 825.549 174.04 825.002 173.267 825.002C172.534 824.362 171.854 823.656 171.267 822.829C161.574 805.069 187.587 796.202 201.334 797.442C214.427 798.402 227.707 803.976 237.04 813.282C242.654 819.842 244.16 829.962 240.04 837.669C237.027 843.189 230.974 847.029 224.6 848.576C221.76 849.269 218.854 849.496 216.134 849.216C213.774 849.242 209.32 845.762 207.96 848.429C207.174 851.349 211.574 851.349 213.414 852.162C217.014 853.269 220.72 853.082 224.334 852.229C224.347 852.309 224.374 852.389 224.414 852.469C226.067 857.136 228.347 861.602 229.387 866.482C230.174 873.216 230.734 880.202 229.734 886.949Z" fill="#EDE7CB"/>
<path d="M224.6 848.576C230.974 847.029 237.027 843.189 240.04 837.669C244.16 829.962 242.654 819.842 237.04 813.282C227.707 803.976 214.427 798.402 201.334 797.442C187.587 796.202 161.574 805.069 171.267 822.829C171.854 823.656 172.534 824.362 173.267 825.002C173.107 825.002 172.934 825.029 172.76 825.082C172.014 825.202 170.867 825.589 169.467 826.176C163.174 818.642 164.881 806.776 174.347 800.629C187.014 792.922 203 792.056 216.84 796.962C226.067 800.722 235.867 805.242 241.747 813.616C249.761 826.029 245.92 843.922 231.667 849.669C230.387 850.242 229.067 850.776 227.707 851.242C227.694 851.202 227.68 851.162 227.667 851.122C227.24 850.056 226.227 849.869 225.4 850.202L224.6 848.576Z" fill="#473025"/>
<path d="M227.667 851.122C227.68 851.162 227.694 851.202 227.707 851.242C226.6 851.629 225.467 851.962 224.334 852.229C224.067 851.296 224.654 850.522 225.4 850.202C226.227 849.869 227.24 850.056 227.667 851.122Z" fill="#473025"/>
<path d="M224.6 848.576L225.4 850.202C224.654 850.522 224.067 851.296 224.334 852.229C220.72 853.082 217.014 853.269 213.414 852.162C211.574 851.349 207.174 851.349 207.96 848.429C209.32 845.762 213.774 849.242 216.134 849.216C218.854 849.496 221.76 849.269 224.6 848.576Z" fill="#473025"/>
<path d="M187.853 871.309C189.267 875.096 197.547 894.509 190.933 894.842C189.267 893.722 190.04 891.536 189.84 889.856C188.787 882.642 186.107 875.989 183.133 869.442C176.827 855.816 163.733 847.162 149.387 844.509L149.573 843.389C150.893 843.869 152.04 842.696 152.933 841.642C168.4 845.362 181.88 855.829 187.853 871.309Z" fill="#473025"/>
<path d="M185.894 832.029C186.52 832.642 186.587 833.736 185.694 834.136C182.64 835.283 179.587 832.429 176.827 831.362C175.12 830.696 173.627 829.856 172.32 828.856C172.76 828.709 173.227 828.576 173.694 828.469C174.854 828.176 175.147 827.096 174.84 826.203C178.28 828.536 182.547 829.776 185.894 832.029Z" fill="#473025"/>
<path d="M174.84 826.203C175.147 827.096 174.854 828.176 173.694 828.469C173.227 828.576 172.76 828.709 172.32 828.856C171.24 828.056 170.28 827.149 169.467 826.176C170.867 825.589 172.014 825.203 172.76 825.083C172.934 825.029 173.107 825.003 173.267 825.003C173.76 825.443 174.294 825.843 174.84 826.203Z" fill="#473025"/>
<path d="M173.267 825.002C174.04 825.002 174.613 825.549 174.84 826.202C174.293 825.842 173.76 825.442 173.267 825.002Z" fill="#473025"/>
<path d="M172.32 828.856C170.653 829.403 169.08 830.202 167.507 830.949C162.48 833.576 157.36 836.749 153.547 840.923C153.36 841.136 153.16 841.376 152.933 841.642C151.733 841.336 150.507 841.096 149.28 840.882C151.227 836.002 163 828.922 169.467 826.176C170.28 827.149 171.24 828.056 172.32 828.856Z" fill="#473025"/>
<path d="M152.934 841.642C152.04 842.696 150.894 843.869 149.574 843.389C149.467 843.349 149.36 843.296 149.254 843.242C148.907 842.549 148.934 841.749 149.281 840.882C150.507 841.096 151.734 841.336 152.934 841.642Z" fill="#473025"/>
<path d="M149.574 843.389L149.387 844.509C145.107 843.709 140.734 843.456 136.374 843.736C123.934 845.549 111.614 850.642 101.587 858.229C96.0802 863.082 90.987 868.456 86.4936 874.162C85.2803 875.189 83.9737 878.296 82.4804 879.882C81.7604 877.576 79.9069 878.149 79.3202 879.856C79.0802 879.349 79.0669 878.736 79.3869 878.229C79.6935 877.736 80.0135 877.256 80.3335 876.762C81.5735 878.656 84.8003 876.842 83.2936 874.762C83.027 874.416 82.747 874.069 82.427 873.762C87.307 867.056 93.1336 861.056 99.2936 855.562C109.4 847.762 121.84 842.696 134.374 840.429C139.374 839.896 144.4 840.056 149.28 840.882C148.934 841.749 148.907 842.549 149.254 843.242C149.36 843.296 149.467 843.349 149.574 843.389Z" fill="#473025"/>
<path d="M79.3203 879.856C79.907 878.149 81.7605 877.576 82.4805 879.882C81.7205 880.709 80.907 881.122 80.0404 880.642C79.7204 880.469 79.467 880.176 79.3203 879.856Z" fill="#473025"/>
<path d="M83.2932 874.762C84.7998 876.842 81.573 878.655 80.333 876.762C81.013 875.749 81.7065 874.735 82.4265 873.762C82.7465 874.069 83.0265 874.415 83.2932 874.762Z" fill="#473025"/>
<path d="M448.107 783.442C460.587 795.722 447.68 822.016 444.48 836.789C440.467 849.229 435.867 861.536 430.12 873.296C426.387 881.416 422.72 889.696 417.187 896.789C405.8 911.269 383.813 920.469 366.4 925.442C356.826 928.096 326.653 932.856 323.933 919.722C323.266 917.749 324.333 911.096 326.787 909.669C327.2 911.029 327.667 912.376 328.173 913.709C325.413 919.522 329.12 924.029 335.88 924.189C356.147 927.189 376.373 919.922 394 910.482C407.453 904.389 417.453 893.109 423.28 879.669C435.413 854.856 444.933 828.482 449.813 801.242C450.2 797.402 450.027 793.402 448.413 789.829C447.293 786.829 443.173 782.882 440.947 786.975C440.24 786.149 439.293 785.336 438.2 784.562C440.2 781.602 445.4 780.495 448.107 783.442Z" fill="#473025"/>
<path d="M448.414 789.829C450.027 793.402 450.2 797.402 449.814 801.242C444.934 828.482 435.414 854.856 423.28 879.669C417.454 893.109 407.454 904.389 394 910.482C376.374 919.922 356.147 927.189 335.88 924.189C329.12 924.029 325.414 919.522 328.174 913.709C328.56 914.722 328.987 915.736 329.454 916.722C329.867 917.576 331 917.869 331.814 917.429C331.894 917.496 331.987 917.562 332.08 917.616C346.76 919.936 361.387 913.376 375.227 909.122C385.414 905.842 394.814 899.882 402.254 892.229C407.747 885.096 411.64 876.869 416.014 869.029C425.427 852.162 433.627 834.509 437.36 815.456C438.96 807.376 440.4 799.229 441.587 791.082C441.6 790.762 441.547 790.482 441.44 790.256C441.507 789.962 441.534 789.642 441.507 789.296C441.734 788.976 441.854 788.589 441.787 788.176C441.574 787.776 441.294 787.362 440.947 786.976C443.174 782.882 447.294 786.829 448.414 789.829Z" fill="#EDE7CB"/>
<path d="M440.947 786.976C441.294 787.362 441.574 787.776 441.787 788.176C441.854 788.589 441.734 788.976 441.507 789.296C441.454 788.656 441.254 787.936 440.84 787.176C440.867 787.096 440.907 787.029 440.947 786.976Z" fill="#473025"/>
<path d="M440.947 786.976C440.907 787.029 440.867 787.096 440.84 787.176C441.254 787.936 441.454 788.656 441.507 789.296C441.387 789.469 441.24 789.616 441.067 789.736C440.467 789.216 439.467 789.176 438.8 789.603C438.414 789.296 438.04 788.989 437.654 788.696C437.654 788.669 437.64 788.669 437.64 788.656C437.12 787.096 437.414 785.696 438.2 784.562C439.294 785.336 440.24 786.149 440.947 786.976Z" fill="#473025"/>
<path d="M441.507 789.296C441.534 789.642 441.507 789.963 441.44 790.256C441.347 790.043 441.227 789.882 441.067 789.736C441.24 789.616 441.387 789.469 441.507 789.296Z" fill="#473025"/>
<path d="M441.44 790.256C441.547 790.483 441.6 790.763 441.587 791.083C440.4 799.229 438.96 807.376 437.36 815.456C433.627 834.509 425.427 852.162 416.013 869.029C411.64 876.869 407.747 885.096 402.253 892.229C394.813 899.882 385.413 905.843 375.227 909.123C361.387 913.376 346.76 919.936 332.08 917.616C331.987 917.563 331.893 917.496 331.813 917.429C331.827 917.429 331.84 917.429 331.84 917.429C332.773 916.922 332.973 915.763 332.467 914.883C332.453 914.843 332.44 914.829 332.427 914.803C332.44 914.789 332.44 914.789 332.453 914.789C341.733 914.723 351 913.456 359.853 910.442C368.933 907.309 378.667 905.162 386.853 899.962C391.16 897.096 395.56 894.149 399.16 890.416C404.8 883.283 408.68 874.896 413.107 867.003C423.373 848.843 431.813 829.402 435.107 808.709C435.933 802.762 437.307 796.896 438.067 790.949C438.067 790.669 438.12 790.442 438.227 790.242C439.373 792.456 441.093 791.963 441.44 790.256Z" fill="#473025"/>
<path d="M441.067 789.736C441.227 789.883 441.347 790.043 441.44 790.256C441.094 791.963 439.374 792.456 438.227 790.242C438.347 789.962 438.56 789.749 438.8 789.603C438.84 789.643 438.894 789.669 438.934 789.709C439.56 790.269 440.44 790.176 441.067 789.736Z" fill="#473025"/>
<path d="M441.066 789.736C440.44 790.176 439.56 790.269 438.933 789.709C438.893 789.669 438.84 789.642 438.8 789.602C439.466 789.176 440.466 789.216 441.066 789.736Z" fill="#473025"/>
<path d="M437.653 788.696C438.04 788.989 438.413 789.296 438.8 789.602C438.56 789.749 438.347 789.962 438.227 790.242C438.013 789.829 437.813 789.309 437.653 788.696Z" fill="#473025"/>
<path d="M412.947 777.603C408.534 776.669 404.32 776.096 399.894 776.083C399.04 776.269 397.88 776.176 396.934 775.869C397.2 774.829 397.414 773.763 397.587 772.683C399.774 772.363 402.08 772.643 404.294 772.749C411.107 773.336 417.827 774.829 424.174 777.362C427.587 778.896 433.987 781.549 438.2 784.562C437.414 785.696 437.12 787.096 437.64 788.656C437.64 788.669 437.654 788.669 437.654 788.696C430.494 783.189 421.774 779.736 413.067 777.629C413.054 777.629 413.027 777.629 413.014 777.616C413 777.616 413 777.603 412.987 777.616C412.987 777.616 412.974 777.616 412.96 777.603C412.96 777.603 412.96 777.603 412.947 777.603Z" fill="#473025"/>
<path d="M437.653 788.696C437.813 789.309 438.013 789.829 438.227 790.242C438.12 790.442 438.067 790.669 438.067 790.949C437.307 796.896 435.933 802.762 435.107 808.709C431.813 829.402 423.373 848.842 413.107 867.002C408.68 874.896 404.8 883.282 399.16 890.416C395.56 894.149 391.16 897.096 386.853 899.962C378.667 905.162 368.933 907.309 359.853 910.442C351 913.456 341.733 914.723 332.453 914.789C332.44 914.789 332.44 914.789 332.427 914.802C331.547 912.816 330.84 910.749 330.2 908.682C328.773 903.949 327.814 899.056 327.747 894.109C327.414 879.256 331.04 863.202 341.973 852.482C346.4 847.576 352.133 844.349 358.387 842.523C364.24 840.776 370.56 840.256 376.627 840.709C380.827 841.109 385.24 841.002 389.08 842.962C390.92 843.722 392.68 846.256 394.84 845.109C396.573 842.149 390.72 839.869 388.6 838.923C385.613 837.829 382.413 837.616 379.253 837.402C372.627 836.682 365.653 837.002 359.093 838.682C358.973 837.442 358.44 836.056 358.373 834.976C358.013 832.589 357.8 830.203 357.72 827.789C357.413 826.363 358.32 824.176 357.693 822.869C365.36 819.309 372.093 813.576 377.36 807.029C378.427 805.829 380 804.189 379.014 802.509C377.28 801.189 375.667 803.602 374.667 804.776C372.347 807.536 370.013 810.296 367.2 812.562C363.347 815.416 359.387 818.483 354.933 820.323C353.453 820.923 351.92 821.402 350.333 821.682C334.227 823.562 330.573 807.349 334.827 794.842C340.04 779.749 348.934 765.016 362.414 755.976C378.494 745.789 397.027 748.069 394.307 770.936C394 774.389 392.707 777.642 391.44 780.842C390.507 782.922 393.733 784.376 394.653 782.282C395.587 780.349 396.36 778.162 396.933 775.869C397.88 776.176 399.04 776.269 399.893 776.082C404.32 776.096 408.534 776.669 412.947 777.602C412.96 777.602 412.96 777.602 412.96 777.602C412.973 777.616 412.987 777.616 412.987 777.616C413 777.602 413 777.616 413.014 777.616C413.027 777.629 413.053 777.629 413.067 777.629C421.773 779.736 430.493 783.189 437.653 788.696Z" fill="#EDE7CB"/>
<path d="M384.494 747.082C396.414 749.522 399.347 761.776 397.587 772.682C397.32 772.709 397.053 772.762 396.8 772.816C394.333 774.176 395.293 775.336 396.933 775.869C396.36 778.163 395.587 780.349 394.653 782.282C393.733 784.376 390.507 782.922 391.44 780.842C392.707 777.642 394 774.389 394.307 770.936C397.027 748.069 378.494 745.789 362.414 755.976C348.934 765.016 340.04 779.749 334.827 794.842C330.574 807.349 334.227 823.562 350.333 821.682C351.92 821.402 353.453 820.923 354.933 820.323L355.614 822.029C354.84 822.322 354.44 823.189 354.254 824.309C354.134 824.349 354.014 824.389 353.894 824.442C337.174 829.216 326.96 814.909 330.187 799.282C335.08 775.909 357.454 743.162 384.494 747.082Z" fill="#473025"/>
<path d="M396.8 772.816C397.053 772.762 397.32 772.709 397.587 772.682C397.414 773.762 397.2 774.829 396.933 775.869C395.293 775.336 394.333 774.176 396.8 772.816Z" fill="#473025"/>
<path d="M379.014 802.509C380 804.189 378.427 805.829 377.36 807.029C372.094 813.576 365.36 819.309 357.694 822.869C357.494 822.429 357.107 822.096 356.454 821.923C356.147 821.896 355.867 821.936 355.614 822.029L354.934 820.323C359.387 818.483 363.347 815.416 367.2 812.562C370.014 810.296 372.347 807.536 374.667 804.776C375.667 803.602 377.28 801.189 379.014 802.509Z" fill="#473025"/>
<path d="M388.6 838.922C390.72 839.869 396.573 842.149 394.84 845.109C392.68 846.255 390.92 843.722 389.08 842.962C385.24 841.002 380.827 841.109 376.627 840.709C370.56 840.255 364.24 840.776 358.387 842.522L358 841.189C358.973 840.602 359.173 839.682 359.093 838.682C365.653 837.002 372.627 836.682 379.253 837.402C382.413 837.616 385.613 837.829 388.6 838.922Z" fill="#473025"/>
<path d="M357.693 822.869C358.32 824.176 357.413 826.363 357.72 827.789C357.8 830.203 358.013 832.589 358.373 834.976C358.44 836.056 358.973 837.442 359.093 838.682C357.987 838.962 356.907 839.282 355.827 839.642C354.8 837.602 354.907 834.069 354.493 832.362C354.533 830.856 353.813 826.896 354.253 824.309C355.413 823.882 356.573 823.402 357.693 822.869Z" fill="#473025"/>
<path d="M356.453 821.923C357.107 822.096 357.494 822.429 357.694 822.869C356.574 823.403 355.413 823.882 354.253 824.309C354.44 823.189 354.84 822.322 355.614 822.029C355.867 821.936 356.147 821.896 356.453 821.923Z" fill="#473025"/>
<path d="M359.094 838.682C359.174 839.682 358.974 840.603 358 841.189C356.96 841.149 356.28 840.536 355.827 839.642C356.907 839.282 357.987 838.962 359.094 838.682Z" fill="#473025"/>
<path d="M358 841.189L358.387 842.522C352.133 844.349 346.4 847.576 341.973 852.482C331.04 863.202 327.413 879.255 327.747 894.109C327.813 899.055 328.773 903.949 330.2 908.682C330.84 910.749 331.547 912.816 332.427 914.802C330.96 915.282 330.72 916.576 331.813 917.429C331 917.869 329.867 917.576 329.453 916.722C328.987 915.736 328.56 914.722 328.173 913.709C328.373 913.282 328.613 912.842 328.893 912.402C329.667 911.682 329.64 910.362 328.8 909.709C328.053 909.295 327.373 909.322 326.787 909.669C322.36 895.082 323.84 878.962 329.36 864.802C332.413 857.482 337.8 851.136 343.76 845.989C347.387 843.176 351.48 841.082 355.827 839.642C356.28 840.535 356.96 841.149 358 841.189Z" fill="#473025"/>
<path d="M332.467 914.882C332.974 915.762 332.774 916.922 331.84 917.429C331.84 917.429 331.827 917.429 331.814 917.429C330.72 916.576 330.96 915.282 332.427 914.802C332.44 914.829 332.454 914.842 332.467 914.882Z" fill="#473025"/>
<path d="M328.8 909.709C329.64 910.362 329.667 911.682 328.894 912.402C328.614 912.842 328.374 913.282 328.174 913.709C327.667 912.376 327.2 911.029 326.787 909.669C327.374 909.322 328.054 909.296 328.8 909.709Z" fill="#473025"/>
<path d="M209.867 832.309C205.867 832.309 201.853 830.816 198.76 827.803C192.453 821.669 192.32 811.589 198.44 805.296C218.16 785.016 359.107 616.976 360.533 615.283C366.173 608.536 376.227 607.656 382.96 613.309C389.707 618.962 390.587 629.003 384.933 635.736C379.093 642.696 241.8 806.389 221.28 827.483C218.16 830.696 214.013 832.309 209.867 832.309Z" fill="#473025"/>
<path d="M357.867 799.149C357.12 799.149 356.36 799.096 355.6 798.989C354.347 798.816 353.054 798.629 351.707 798.456C338.707 796.682 320.907 794.256 301.533 784.722C278.88 773.576 259.28 754.962 243.28 729.362C204.534 667.416 227.707 603.349 228.72 600.656C231.787 592.416 240.96 588.229 249.2 591.296C257.44 594.376 261.627 603.535 258.56 611.775C258.534 611.855 253.733 625.215 252.92 644.442C251.867 669.482 257.707 692.376 270.28 712.482C299.48 759.189 332.16 763.642 356.014 766.896C357.427 767.096 358.8 767.269 360.107 767.456C368.813 768.709 374.867 776.776 373.614 785.482C372.48 793.429 365.667 799.149 357.867 799.149Z" fill="#473025"/>
<path d="M642.653 355.309C662.733 379.909 661.973 415.869 650.4 444.096C640.72 465.496 623 482.136 604.533 496.109C583.32 512.309 560.333 525.696 537.84 540.136C533.907 542.469 514.293 556.429 507.427 565.016C509.36 551.269 510.773 538.949 512.187 533.629C513.467 526.429 514.733 519.229 516.013 512.029C517.333 511.709 518.32 509.842 519.333 508.869C528.507 499.362 539.907 492.362 550.733 484.909C569.493 471.789 591.2 461.989 605.747 443.722C611 436.829 616 429.322 617.96 420.762C621.827 406.616 616.787 385.042 598.467 387.149C578.787 388.829 562.293 401.309 547.707 413.656C545.4 416.442 534.187 423.016 530.133 427.282C530.653 423.896 531.173 420.509 531.693 417.122C533.947 403.576 536.067 389.709 538.933 376.029C539.56 375.829 540.187 375.389 540.707 374.696C545.68 369.656 551.44 365.509 556.947 361.096C579.533 341.589 620.6 328.709 642.653 355.309Z" fill="#568279"/>
<path d="M650.4 444.096C661.973 415.869 662.733 379.909 642.653 355.309C620.6 328.709 579.534 341.589 556.947 361.096C551.44 365.509 545.68 369.656 540.707 374.696C540.187 375.389 539.56 375.829 538.933 376.029C539.387 373.909 539.84 371.776 540.347 369.656C551.52 359.376 563.72 349.536 577.547 343.256C602.174 332.096 635.2 332.643 650.027 358.589C674.574 396.896 661.614 451.043 628.894 480.549C598.16 511.429 557.454 529.389 523.28 555.709C519.054 559.282 515.013 563.043 511.253 567.096C509.747 568.363 508.507 571.403 506.507 571.216C506.827 569.136 507.134 567.056 507.427 565.016C514.294 556.429 533.907 542.469 537.84 540.136C560.333 525.696 583.32 512.309 604.533 496.109C623 482.136 640.72 465.496 650.4 444.096Z" fill="#473025"/>
<path d="M598.467 387.149C616.787 385.042 621.827 406.616 617.96 420.762C616 429.322 611 436.829 605.747 443.723C591.2 461.989 569.493 471.789 550.733 484.909C539.907 492.362 528.507 499.362 519.333 508.869C518.32 509.842 517.334 511.709 516.014 512.029C516.427 509.629 516.84 507.229 517.254 504.829C521.707 500.296 529.24 495.269 531.254 493.456C552.987 476.389 579.534 465.189 598.92 445.389C618.2 427.949 626.587 379.856 586.787 393.696C572.067 398.696 560.027 408.616 548.267 418.429C544.733 420.322 533.76 431.829 529.6 430.696C529.787 429.562 529.947 428.416 530.133 427.282C534.187 423.016 545.4 416.443 547.707 413.656C562.294 401.309 578.787 388.829 598.467 387.149Z" fill="#473025"/>
<path d="M600.907 157.733C599.48 178.853 581.827 193.6 567.814 207.493C562.427 213.373 552.12 225.426 561.987 231.693C570.107 235.666 584.974 234.693 586.014 246.4C585.414 254.933 577.854 267.76 571.094 274.12C571.014 274.027 570.92 273.933 570.84 273.84C573.28 271.24 575.613 268.546 577.133 265.426C577.613 263.013 575.84 262.626 574.387 263.426C579.6 255.413 587.453 243.773 575.32 239.96C569.413 237.773 562.493 237.666 557.453 233.533C548.333 223.986 558.467 211.32 565.573 203.92C572.653 196.4 581.134 190.16 586.894 181.466C592.774 172.586 604.56 154.12 589.453 148.413C576.227 143.773 561.76 146.386 548.814 150.613C524.294 157.173 502.093 169.386 480.72 182.826C477.427 184.946 474.16 187.12 470.96 189.373C468.587 190.413 463.467 196.12 460.347 196.293C459.787 195.4 459.134 194.573 458.414 193.813C458.667 193.133 459.28 192.56 459.987 192.24C468.28 186.4 476.427 180.333 485.227 175.253C496.24 169.027 507.027 162.24 518.587 157.066C530.453 151.68 543.08 148.093 555.56 144.44C569.187 140.88 599.573 138.013 600.907 157.733Z" fill="#473025"/>
<path d="M567.974 276.867C567.254 275.92 566.534 274.853 567.24 273.813C567.334 273.68 567.44 273.533 567.587 273.4C568.867 272.427 569.947 272.893 570.84 273.84C569.88 274.853 568.907 275.867 567.974 276.867Z" fill="#473025"/>
<path d="M558.08 311.453C567.107 303.347 575.893 289 568.533 277.613C568.373 277.373 568.173 277.133 567.987 276.88C568.467 276.32 568.987 275.827 569.587 275.44C570.08 275.04 570.587 274.6 571.093 274.12C572.027 275.24 572.76 276.827 573.36 277.747C579.013 289.627 571.88 303.347 563.16 312.227C563.88 309.573 561.093 309.747 558.76 312.053L558.08 311.453Z" fill="#473025"/>
<path d="M558.76 312.053C561.093 309.746 563.88 309.573 563.16 312.226C562.333 313.053 561.507 313.853 560.667 314.6C558.76 316.08 556.747 317.386 554.667 318.546C555.347 317.36 556.04 316.173 556.747 315C557.267 313.8 558 312.813 558.76 312.053Z" fill="#473025"/>
<path d="M567.974 276.867C568.907 275.867 569.88 274.853 570.84 273.84C570.92 273.933 571.014 274.027 571.094 274.12C570.587 274.6 570.08 275.04 569.587 275.44C568.987 275.826 568.467 276.32 567.987 276.88C567.974 276.88 567.974 276.867 567.974 276.867Z" fill="#473025"/>
<path d="M567.973 276.867C567.973 276.867 567.973 276.88 567.987 276.88C567.013 278 566.2 279.347 565.214 280.36C565.16 280.28 565.094 280.2 565.027 280.12C565.254 279.867 565.493 279.613 565.733 279.36C566.453 278.52 567.2 277.693 567.973 276.867Z" fill="#473025"/>
<path d="M567.587 273.4C567.44 273.533 567.334 273.68 567.24 273.813L565.987 273.253C568.547 270.973 571.36 268.787 572.147 267.027C572.76 265.96 573.533 264.747 574.387 263.427C575.84 262.627 577.613 263.013 577.133 265.427C575.613 268.547 573.28 271.24 570.84 273.84C569.947 272.893 568.867 272.427 567.587 273.4Z" fill="#473025"/>
<path d="M567.24 273.813C566.533 274.853 567.253 275.92 567.973 276.866C567.2 277.693 566.453 278.52 565.733 279.36C565.493 279.613 565.253 279.867 565.027 280.12C563.813 278.587 561.88 278.347 561.347 279.653C561.36 278.893 561.68 278.106 562.2 277.306C563.133 276.24 564.066 275.2 565 274.16C565.32 273.853 565.653 273.547 565.987 273.253L567.24 273.813Z" fill="#473025"/>
<path d="M565.027 280.12C565.093 280.2 565.16 280.28 565.213 280.36C564.787 280.827 564.32 281.2 563.8 281.48C564.2 281.027 564.6 280.56 565.027 280.12Z" fill="#473025"/>
<path d="M572.147 267.026C571.36 268.786 568.547 270.973 565.987 273.253C565.653 273.546 565.32 273.853 565 274.16C567.787 271.053 570.574 267.96 573.08 264.706C573.4 264.146 573.88 263.72 574.387 263.426C573.533 264.746 572.76 265.96 572.147 267.026Z" fill="#473025"/>
<path d="M565.027 280.12C564.6 280.56 564.2 281.026 563.8 281.48C563.347 281.72 562.88 281.88 562.347 281.92C561.614 281.213 561.32 280.44 561.347 279.653C561.88 278.347 563.813 278.587 565.027 280.12Z" fill="#473025"/>
<path d="M562.2 277.306C562.867 276.266 563.88 275.2 565 274.16C564.067 275.2 563.134 276.24 562.2 277.306Z" fill="#473025"/>
<path d="M563.8 281.48C563.133 282.253 562.493 283.026 561.867 283.826C561.893 283.56 561.907 283.293 561.92 283.013C561.147 281.44 561.054 280.333 561.347 279.653C561.32 280.44 561.614 281.213 562.347 281.92C562.88 281.88 563.347 281.72 563.8 281.48Z" fill="#473025"/>
<path d="M550.96 301.84C551.36 300.693 551.787 299.6 552.347 298.907C555.267 293.627 558.186 288.52 561.866 283.827C561.213 291.307 557.213 297.2 550.96 301.84Z" fill="#568279"/>
<path d="M550.96 301.84C557.213 297.2 561.213 291.306 561.867 283.826C562.493 283.026 563.133 282.253 563.8 281.48C564.32 281.2 564.787 280.826 565.213 280.36C565.653 280.986 565.973 281.786 566.067 282.76C565.573 293.8 559.253 301.84 549.52 307.667L547.92 306.826C549.48 306.413 550.2 304.013 550.96 301.84Z" fill="#473025"/>
<path d="M550.96 301.84C550.2 304.013 549.48 306.413 547.92 306.826C547.68 306.88 547.413 306.893 547.12 306.853C547.053 306.84 547 306.84 546.96 306.826C546.133 306.573 545.747 306 545.68 305.187C547.574 304.147 549.347 303.04 550.96 301.84Z" fill="#473025"/>
<path d="M540.347 369.653C539.84 371.773 539.387 373.906 538.934 376.026C537.44 376.546 536.027 375.706 536.507 373.893C536.6 373.546 536.76 373.173 537.014 372.76C538.107 371.72 539.214 370.68 540.347 369.653Z" fill="#473025"/>
<path d="M530.133 427.28C529.947 428.413 529.787 429.56 529.6 430.693C529.267 430.613 528.987 430.453 528.76 430.2C528.413 429.493 528.987 428.48 530.133 427.28Z" fill="#473025"/>
<path d="M550.96 301.84C549.347 303.04 547.573 304.147 545.68 305.187C545.333 301.787 550.453 294.467 551.36 292.387C554.173 286.813 558.093 281.986 562.2 277.306C561.68 278.106 561.36 278.893 561.347 279.653C561.053 280.333 561.146 281.44 561.92 283.013C561.906 283.293 561.893 283.56 561.866 283.826C558.186 288.52 555.267 293.626 552.347 298.906C551.787 299.6 551.36 300.693 550.96 301.84Z" fill="#473025"/>
<path d="M517.254 504.829C516.84 507.229 516.427 509.629 516.014 512.029C515.8 512.069 515.587 512.082 515.374 512.056C515.067 512.002 514.734 511.869 514.374 511.616C513.96 511.109 513.827 510.522 513.934 509.869C514.147 508.442 515.454 506.682 517.254 504.829Z" fill="#473025"/>
<path d="M561.027 315.96C550.76 332.426 544.68 350.773 540.347 369.653C539.213 370.68 538.107 371.72 537.013 372.76C536.76 373.173 536.6 373.546 536.507 373.893L535.347 373.64C539.493 354.48 545.066 335.546 554.666 318.546C556.746 317.386 558.76 316.08 560.666 314.6C561.506 313.853 562.333 313.053 563.16 312.226C562.907 313.12 562.253 314.36 561.027 315.96Z" fill="#473025"/>
<path d="M530.48 398.96C531.973 390.56 533.52 382.08 535.347 373.64L536.507 373.893C536.027 375.706 537.44 376.546 538.933 376.026C536.066 389.706 533.947 403.573 531.693 417.12C531.173 420.507 530.653 423.893 530.133 427.28C528.986 428.48 528.413 429.493 528.76 430.2C528.987 430.453 529.266 430.613 529.6 430.693C525.733 455.44 521.56 480.146 517.253 504.826C515.453 506.68 514.146 508.44 513.933 509.866L512.347 509.587C518.72 472.773 524.747 435.893 530.48 398.96Z" fill="#473025"/>
<path d="M506.507 571.216C506.48 571.216 506.427 571.216 506.387 571.203C506.08 571.163 505.76 571.042 505.413 570.816C504.44 569.656 505.36 567.576 507.427 565.016C507.133 567.056 506.827 569.136 506.507 571.216Z" fill="#473025"/>
<path d="M506.507 571.216C503 594.496 497.747 619.349 488.227 620.309C489.374 619.429 490.494 618.496 491.574 617.509C493.12 614.989 491.787 614.056 490.16 614.283C492.08 611.883 493.72 609.256 494.72 606.309C503.454 576.882 504.84 545.856 511.254 515.883C511.614 513.789 511.974 511.696 512.347 509.589L513.934 509.869C513.827 510.523 513.96 511.109 514.374 511.616C514.734 511.869 515.067 512.003 515.374 512.056C515.587 512.083 515.8 512.069 516.014 512.029C514.734 519.229 513.467 526.429 512.187 533.629C510.774 538.949 509.36 551.269 507.427 565.016C505.36 567.576 504.44 569.656 505.414 570.816C505.76 571.043 506.08 571.163 506.387 571.203C506.427 571.216 506.48 571.216 506.507 571.216Z" fill="#473025"/>
<path d="M491.573 617.509C490.493 618.496 489.373 619.429 488.227 620.309C487.933 620.336 487.64 620.349 487.333 620.323C486.44 619.403 486.693 617.989 487.627 617.203C488.507 616.269 489.36 615.296 490.16 614.283C491.787 614.056 493.12 614.989 491.573 617.509Z" fill="#473025"/>
<path d="M472.907 624.536C478.04 622.096 483.16 619.469 487.533 615.802C488.147 614.949 489.2 614.402 490.16 614.282C489.36 615.296 488.507 616.269 487.627 617.202C486.693 617.989 486.44 619.402 487.333 620.322C487.64 620.349 487.933 620.336 488.227 620.309C474.613 630.829 456.88 634.589 440.587 639.269C423.427 643.896 405.96 647.882 388.28 649.776C360.187 651.696 331.84 649.989 304.013 645.762C303 645.616 301.973 645.456 300.96 645.296C279.96 641.722 259.2 636.976 238.64 631.389C218.56 624.802 199.013 616.362 180.28 606.589C166.64 599.469 152.213 592.642 140.88 582.082C140.787 581.962 140.72 581.856 140.653 581.736C140.907 581.976 141.213 582.096 141.52 582.149C142.867 582.349 144.387 580.936 143.933 579.376C143.947 579.389 143.973 579.416 143.973 579.429C145.867 581.576 147.987 583.082 150.32 584.602C163.24 593.802 177.573 600.642 191.653 607.829C207.973 615.576 224.96 622.962 242.24 628.189C281.133 638.616 320.987 646.189 361.347 646.442C384.787 647.456 407.96 643.416 430.6 637.709C444.813 633.722 459.427 630.696 472.907 624.536Z" fill="#473025"/>
<path d="M500.947 283.96C501.707 287.493 493.987 287.373 491.667 288.333C489.973 288.72 488.293 289.013 486.613 289.213L486.4 287.426C487.427 287.133 488.347 286.013 489.147 284.667C489.333 284.64 489.533 284.6 489.72 284.56C492.68 284 495.573 283.253 498.48 282.493C499.547 282.2 500.68 282.893 500.947 283.96Z" fill="#473025"/>
<path d="M483.933 285.346C485.68 285.24 487.413 285.013 489.147 284.666C488.347 286.013 487.427 287.133 486.4 287.426C486.133 287.506 485.853 287.533 485.573 287.48C485.267 287.44 484.973 287.32 484.653 287.12C484.027 286.653 483.853 286 483.933 285.346Z" fill="#473025"/>
<path d="M413.52 328.309C442.16 332.029 471.053 332.642 499.827 329.882C517.587 327.802 538.613 327.509 554.667 318.549C545.067 335.549 539.493 354.482 535.347 373.642C533.52 382.082 531.973 390.562 530.48 398.962C524.747 435.896 518.72 472.776 512.347 509.589C511.973 511.696 511.613 513.789 511.253 515.882C504.84 545.856 503.453 576.882 494.72 606.309C493.72 609.255 492.08 611.882 490.16 614.282C489.2 614.402 488.147 614.949 487.533 615.802C483.16 619.469 478.04 622.096 472.907 624.536C459.427 630.696 444.813 633.722 430.6 637.709C407.96 643.415 384.787 647.455 361.347 646.442C320.987 646.189 281.133 638.616 242.24 628.189C224.96 622.962 207.973 615.576 191.653 607.829C177.573 600.642 163.24 593.802 150.32 584.602C147.987 583.082 145.867 581.576 143.973 579.429C143.973 579.416 143.947 579.389 143.933 579.375C143.88 579.162 143.773 578.949 143.627 578.736C141.44 572.096 139.653 564.869 139.027 557.802C136.107 532.696 140.587 507.282 142.027 482.175C144.787 440.429 153.987 399.429 157.253 357.709C160.027 329.909 166.147 301.842 163 273.842C162.667 272.616 162.453 271.229 162.2 269.816C183.48 284.842 210.813 289.029 235.333 296.762C253.893 301.282 272.427 305.896 291.08 310.002C311.507 314.296 332.293 317.029 352.787 321.069C356.027 321.642 359.24 322.162 362.48 322.656C379.413 325.229 396.467 326.829 413.52 328.309Z" fill="#568279"/>
<path d="M463.574 156.667C472.28 153.68 485.947 146.573 483.547 135.626H483.574C483.067 135.08 482.494 134.8 481.88 134.706C479.867 134.4 477.453 136.106 475.8 137.013C468.92 141.253 465.827 149.28 463.574 156.667ZM485.04 131.533C495.227 141.467 478.707 155.44 469.333 158.853C467.133 159.333 464.267 161.573 461.974 161.226C461.454 161.146 460.96 160.933 460.52 160.546C457.054 157.84 461.427 151.52 462.28 148.12C465.654 139.627 474.787 127.853 485.04 131.533Z" fill="#473025"/>
<path d="M483.547 135.626C485.947 146.573 472.28 153.68 463.573 156.667C465.827 149.28 468.92 141.253 475.8 137.013C477.453 136.106 479.867 134.4 481.88 134.706C482.493 134.8 483.067 135.08 483.573 135.626H483.547Z" fill="#633620"/>
<path d="M486.934 222.666C478.974 220.266 470.04 219.72 461.64 221.32L461.454 220.373C462.387 220.2 462.92 218.853 463.2 217C466.654 216.506 470.12 216.346 473.52 216.466C502.974 216.613 509.6 236.76 499.907 261.68C497.84 267.613 495.12 273.293 492.227 278.866C491.4 279.986 490.387 282.613 489.147 284.666C487.414 285.013 485.68 285.24 483.934 285.346C484.027 284.706 484.387 284.053 484.827 283.613C487.92 278.893 490.054 274.2 492.454 269.24C499.227 254.72 507.427 229.546 486.934 222.666Z" fill="#473025"/>
<path d="M463.2 217C462.92 218.853 462.387 220.2 461.454 220.373C461.307 220.413 461.147 220.4 460.96 220.373C459.907 220.36 458.867 219.413 458.96 218.307C458.974 218.12 458.987 217.933 459 217.747C460.387 217.44 461.787 217.187 463.2 217Z" fill="#473025"/>
<path d="M427.24 325.626C455.12 329.333 535.534 328.52 556.894 312.48C557.28 312.146 557.68 311.8 558.08 311.453L558.76 312.053C558 312.813 557.267 313.8 556.747 315C556.04 316.173 555.347 317.36 554.667 318.546C538.613 327.506 517.587 327.8 499.827 329.88C471.054 332.64 442.16 332.026 413.52 328.306C396.467 326.826 379.414 325.227 362.48 322.653C359.24 322.16 356.027 321.64 352.787 321.066C332.293 317.026 311.507 314.293 291.08 310C272.427 305.893 253.893 301.28 235.333 296.76C210.813 289.026 183.48 284.84 162.2 269.813C161.747 267.36 161.134 264.893 159.414 263.333L159.827 262.866C168.36 270.586 182.333 277.373 201.04 282.72C240.52 294.227 280.453 304.893 321.12 311.2C356.173 318.386 391.627 322.586 427.24 325.626Z" fill="#473025"/>
<path d="M556.893 312.48C535.533 328.52 455.12 329.333 427.24 325.627C391.627 322.587 356.173 318.387 321.12 311.2C280.453 304.893 240.52 294.227 201.04 282.72C182.333 277.373 168.36 270.587 159.827 262.867C141.2 246.013 148.613 224.733 189.8 204.32C207.76 196.853 227.133 193.067 246.24 189.787C277.587 185.12 309.8 184.413 341.36 187.533C355.4 189.147 369.293 192.04 383.027 195.333C384.333 195.48 386.907 196.16 389.733 196.88C392.04 197.467 394.493 198.067 396.6 198.427C395.267 199.653 394.027 201 392.867 202.467C392.853 202.493 392.827 202.52 392.813 202.547C392.107 200.92 389.373 200.533 386.88 200.187C385.56 200 384.32 199.827 383.48 199.493C368.16 196 352.427 194.827 336.8 193.627C292.747 191.053 248.693 193.427 206.213 206.16C185.013 211.44 143.853 230.267 166.667 256.36C178.493 268.253 195.24 273.227 210.6 278.933C244.6 291.467 279.907 299.853 315.707 305.28C317.733 305.6 319.787 305.893 321.813 306.187C358.667 311.893 395.613 317.227 432.827 319.92C456.987 322.253 519.507 325.587 549.52 307.667C559.253 301.84 565.573 293.8 566.067 282.76C565.973 281.787 565.653 280.987 565.213 280.36C566.2 279.347 567.013 278 567.987 276.88C568.173 277.133 568.373 277.373 568.533 277.613C575.893 289 567.107 303.347 558.08 311.453C557.68 311.8 557.28 312.147 556.893 312.48Z" fill="#568279"/>
<path d="M549.52 307.667C519.507 325.587 456.987 322.253 432.827 319.92C395.613 317.227 358.667 311.893 321.813 306.187C319.787 305.893 317.733 305.6 315.707 305.28C279.907 299.853 244.6 291.467 210.6 278.933C195.24 273.227 178.493 268.253 166.667 256.36C143.853 230.266 185.013 211.44 206.213 206.16C248.693 193.426 292.747 191.053 336.8 193.626C352.427 194.826 368.16 196 383.48 199.493C384.32 199.826 385.56 200 386.88 200.187C389.373 200.533 392.107 200.92 392.813 202.546C392.32 203.226 391.88 204.12 391.493 205.173C390.613 205.373 389.52 205.053 388.467 204.733C387.773 204.52 387.08 204.307 386.493 204.267C376.813 202.093 367.04 200.333 357.147 199.533C311.573 195.027 264.88 195.027 220.32 206.733C200.28 210.933 144.36 227.813 171.36 255.293C176.973 260.32 183.733 263.92 190.707 266.96C190.453 267.866 190.773 268.813 191.813 269.787C191.987 269.84 192.147 269.893 192.307 269.92C193.333 270.067 194.027 269.413 194.693 268.626C198.093 270 201.52 271.293 204.84 272.587C220.867 278.133 236.813 283.933 253.227 288.24C278.107 295.093 303.533 299.36 329.013 303.16C363.573 308.506 398.28 313.36 433.173 315.867C454.973 318.133 516.187 321.24 545.68 305.187C545.747 306 546.133 306.573 546.96 306.826C547 306.84 547.053 306.84 547.12 306.853C547.413 306.893 547.68 306.88 547.92 306.826L549.52 307.667Z" fill="#473025"/>
<path d="M545.68 305.187C516.187 321.24 454.973 318.133 433.173 315.867C398.28 313.36 363.573 308.506 329.013 303.16C303.533 299.36 278.107 295.093 253.227 288.24C236.813 283.933 220.867 278.133 204.84 272.587C201.52 271.293 198.093 270 194.693 268.626C195.467 267.68 196.2 266.547 197.373 266.267C214.613 260.267 233.253 259.173 250.413 252.933C252.093 252.027 254.907 251.28 256.973 250.053C258.173 256.667 259.987 263.213 261.68 269.36C256.88 268.52 252.267 267.12 247.587 265.626C246.307 265.466 244.64 266.28 245.347 267.76C247.76 271.76 258.24 272.467 262.773 273.667C263.133 273.72 263.493 273.773 263.853 273.813C276.427 275.533 289.4 274.373 301.6 270.933C311.84 268.413 320.24 261.56 330.147 258.2C332.347 257.52 334.6 257 336.867 256.56C338.587 256.226 338.92 253.693 337.427 252.853C333.867 252.187 330 254.2 326.533 255.16C324.24 256.04 322.027 257.12 319.853 258.24C320.827 254.84 320.613 249.826 321.173 246.84C321.507 243.306 321.813 239.053 321.8 234.6C322.653 234.493 323.56 233.973 324.32 233.573C328.453 231.533 333 230.666 337.493 229.826C349.707 227.466 362.507 228.067 374.413 224C379.2 222.187 384.827 220.853 389.307 218.053C388.6 228.133 389.12 240.106 389.827 246.28C386.8 244.36 384.453 241.653 383.173 237.787C382.613 236.133 380.067 236.12 379.427 237.706C379.973 246.56 389.707 252.307 397.8 253.587C406.613 254.92 415.56 255.44 424.453 255.893C424.987 256 425.547 255.973 426.093 255.84C425.28 259.08 424.693 262.36 424.48 265.706C424.533 267.72 423.733 270.173 424.12 272.226C420.733 272.306 417.333 272.533 413.947 272.667C412.293 272.453 409.067 274.267 410.907 276C412.2 277.173 413.973 276.693 415.547 276.64C419.12 276.546 422.72 276.253 426.307 276.253C427.507 276.253 428.707 276.293 429.907 276.387C437.493 276.8 444.427 279.666 451.387 282.546C457.64 285.133 463.933 287.72 470.733 288.52C471.627 288.693 472.52 288.867 473.413 289C477.813 289.667 482.2 289.746 486.613 289.213C488.293 289.013 489.973 288.72 491.667 288.333C493.987 287.373 501.707 287.493 500.947 283.96C500.68 282.893 499.547 282.2 498.48 282.493C495.573 283.253 492.68 284 489.72 284.56C489.533 284.6 489.333 284.64 489.147 284.667C490.387 282.613 491.4 279.987 492.227 278.867C495.12 273.293 497.84 267.613 499.907 261.68C509.6 236.76 502.973 216.613 473.52 216.467C470.12 216.347 466.653 216.507 463.2 217C463.84 212.733 463.133 205.747 462.933 204.12C462.667 201.093 461.76 198.493 460.347 196.293C463.467 196.12 468.587 190.413 470.96 189.373C474.16 187.12 477.427 184.946 480.72 182.826C502.093 169.386 524.293 157.173 548.813 150.613C561.76 146.386 576.227 143.773 589.453 148.413C604.56 154.12 592.773 172.587 586.893 181.467C581.133 190.16 572.653 196.4 565.573 203.92C558.467 211.32 548.333 223.987 557.453 233.533C562.493 237.667 569.413 237.773 575.32 239.96C587.453 243.773 579.6 255.413 574.387 263.426C573.88 263.72 573.4 264.146 573.08 264.706C570.573 267.96 567.787 271.053 565 274.16C563.88 275.2 562.867 276.266 562.2 277.306C558.093 281.986 554.173 286.813 551.36 292.387C550.453 294.467 545.333 301.787 545.68 305.187Z" fill="#633620"/>
<path d="M459 217.747C450.866 219.533 443.173 223.2 437.493 229.24C433.573 234.48 430.68 240.587 428.706 246.813C428.133 248.613 427.573 250.426 427.053 252.24C427 252.2 426.933 252.173 426.866 252.147C423.293 251.533 418.96 251.373 414.426 251.187C407.253 250.893 399.56 250.52 393.466 248.106C394.36 245.32 393.08 242.12 393.32 239.187C392.893 228.947 393.066 218.6 394.56 208.453C396.226 204.28 399.093 201.026 402.626 198.493C409.866 193.32 419.92 191.173 428.306 190.4C441.693 189.933 459.533 190.6 459.28 208.067C459.413 211.293 459.226 214.52 459 217.747Z" fill="#EDE7CB"/>
<path d="M460.347 196.293C459.627 196.333 459.014 196.08 458.56 195.4C458.254 194.853 458.254 194.307 458.414 193.813C459.134 194.573 459.787 195.4 460.347 196.293Z" fill="#473025"/>
<path d="M441.187 231.186C446.88 225.986 454.054 222.773 461.64 221.32C470.04 219.72 478.973 220.266 486.933 222.666C507.427 229.546 499.227 254.72 492.454 269.24C490.054 274.2 487.92 278.893 484.827 283.613C484.387 284.053 484.027 284.706 483.933 285.346C471.147 286.226 458.467 281.506 446.907 276.306C440.987 273.68 434.547 272.506 428.107 272.213C428.347 270.8 428.134 269.213 428.374 267.826C428.654 264.613 429.013 261.36 429.667 258.146C432.187 248.72 434.974 238.92 441.187 231.186Z" fill="#EDE7CB"/>
<path d="M461.64 221.32C454.053 222.773 446.88 225.987 441.187 231.187C434.973 238.92 432.187 248.72 429.667 258.147C429.013 261.36 428.653 264.613 428.373 267.827C428.133 269.213 428.347 270.8 428.107 272.213C428.04 272.213 427.96 272.2 427.894 272.2C426.64 272.187 425.373 272.2 424.12 272.227C423.733 270.173 424.534 267.72 424.48 265.707C424.694 262.36 425.28 259.08 426.094 255.84C428.08 255.36 429.587 253.533 427.053 252.24C427.573 250.427 428.133 248.613 428.707 246.813C430.68 240.587 433.574 234.48 437.494 229.24C443.174 223.2 450.867 219.533 459 217.747C458.987 217.933 458.974 218.12 458.96 218.307C458.867 219.413 459.907 220.36 460.96 220.373C461.147 220.4 461.307 220.413 461.453 220.373L461.64 221.32Z" fill="#473025"/>
<path d="M427.894 272.2C427.96 272.2 428.04 272.213 428.107 272.213C427.96 273.026 427.667 273.786 427.027 274.426C426.84 274.64 426.574 274.733 426.294 274.746C425.92 274.773 425.494 274.626 425.214 274.36C424.6 273.746 424.28 273.013 424.12 272.226C425.373 272.2 426.64 272.186 427.894 272.2Z" fill="#473025"/>
<path d="M428.107 272.213C434.547 272.506 440.987 273.68 446.907 276.306C458.467 281.506 471.147 286.226 483.933 285.346C483.853 286 484.027 286.653 484.653 287.12C484.973 287.32 485.267 287.44 485.573 287.48C485.853 287.533 486.133 287.506 486.4 287.426L486.614 289.213C482.2 289.746 477.814 289.667 473.414 289C472.52 288.867 471.627 288.693 470.733 288.52C463.933 287.72 457.64 285.133 451.387 282.546C444.427 279.666 437.493 276.8 429.907 276.387C428.707 276.293 427.507 276.253 426.307 276.253L426.293 274.746C426.573 274.733 426.84 274.64 427.027 274.426C427.667 273.786 427.96 273.026 428.107 272.213Z" fill="#473025"/>
<path d="M426.307 276.253C422.72 276.253 419.12 276.547 415.547 276.64C413.974 276.693 412.2 277.173 410.907 276C409.067 274.267 412.294 272.453 413.947 272.667C417.334 272.533 420.733 272.307 424.12 272.227C424.28 273.013 424.6 273.747 425.214 274.36C425.494 274.627 425.92 274.773 426.294 274.747L426.307 276.253Z" fill="#473025"/>
<path d="M427.054 252.24C429.587 253.533 428.08 255.36 426.094 255.84C426.387 254.64 426.707 253.44 427.054 252.24Z" fill="#473025"/>
<path d="M426.867 252.147C426.933 252.173 427 252.2 427.053 252.24C426.707 253.44 426.387 254.64 426.093 255.84C425.547 255.973 424.987 256 424.453 255.893C415.56 255.44 406.613 254.92 397.8 253.587C389.707 252.307 379.973 246.56 379.427 237.706C380.067 236.12 382.613 236.133 383.173 237.787C384.453 241.653 386.8 244.36 389.827 246.28C389.88 246.773 389.933 247.227 389.987 247.653C390.227 248.48 391.093 249.307 391.907 249.427C392.44 249.507 392.947 249.293 393.28 248.613C393.36 248.44 393.427 248.28 393.467 248.106C399.56 250.52 407.253 250.893 414.427 251.187C418.96 251.373 423.293 251.533 426.867 252.147Z" fill="#473025"/>
<path d="M431.387 97.4006C434.987 89.5472 439.667 81.8673 440.72 73.1873C441.307 64.854 438.107 55.7873 431.187 50.7873C428.347 48.6273 423.747 47.1472 418.414 46.3339C404.827 44.2806 386.507 46.5605 380.227 53.0938C373.067 61.6405 371.467 73.3205 369.227 83.8938C367.187 93.9605 366.774 104.521 370.08 114.347C375.107 116.601 380.654 117.494 386.16 118.027C397.28 118.96 409.654 121.72 420.094 116.694C425.774 111.734 427.84 103.854 431.387 97.4006ZM444.84 72.5873C444.253 81.2673 439.867 89.0272 436.227 96.7339C431.8 104.667 429.44 114.814 421.853 120.387C408.387 126.614 392.68 122.467 378.507 121.134C375.133 120.094 370.027 120.147 368.094 116.84C365.8 116.147 365.587 113.307 365 111.334C361.36 96.0539 365.373 80.214 369.387 65.3873C371.72 58.1873 375.04 50.5472 381.88 46.6006C394.92 41.1206 410.227 40.2006 424.014 43.1873C437.32 46.054 445.667 59.374 444.84 72.5873Z" fill="#473025"/>
<path d="M440.72 73.1872C439.667 81.8672 434.987 89.5472 431.387 97.4005C427.84 103.854 425.773 111.734 420.093 116.694C409.653 121.72 397.28 118.96 386.16 118.027C380.653 117.494 375.107 116.6 370.08 114.347C366.773 104.52 367.187 93.9604 369.227 83.8937C371.467 73.3204 373.067 61.6404 380.227 53.0937C386.507 46.5604 404.827 44.2805 418.413 46.3338C423.747 47.1472 428.347 48.6272 431.187 50.7872C438.107 55.7872 441.307 64.8539 440.72 73.1872Z" fill="#EDE7CB"/>
<path d="M396.6 198.427C398.987 198.84 400.894 198.947 401.494 198.32L402.627 198.493C399.094 201.027 396.227 204.28 394.56 208.453C393.067 218.6 392.894 228.947 393.32 239.187C393.08 242.12 394.36 245.32 393.467 248.106C392.174 247.6 390.947 246.987 389.827 246.28C389.12 240.107 388.6 228.133 389.307 218.053C389.96 217.64 390.6 217.2 391.2 216.72C392.614 214.893 391.36 213.627 389.72 213.68C390.107 210.347 390.68 207.386 391.494 205.173C392.12 205.04 392.64 204.653 392.96 203.813C393.027 203.32 392.96 202.907 392.814 202.547C392.827 202.52 392.854 202.493 392.867 202.467C394.027 201 395.267 199.653 396.6 198.427Z" fill="#473025"/>
<path d="M400.227 195.413C401.814 196.253 402.454 197.24 401.374 198.4C401.374 198.387 401.387 198.387 401.4 198.387C401.44 198.36 401.467 198.333 401.494 198.32C400.894 198.947 398.987 198.84 396.6 198.426C397.747 197.346 398.96 196.346 400.227 195.413Z" fill="#473025"/>
<path d="M428.307 190.4C419.92 191.173 409.867 193.32 402.627 198.493L401.494 198.32C401.467 198.333 401.44 198.36 401.4 198.387C401.387 198.387 401.374 198.387 401.374 198.4C402.454 197.24 401.814 196.253 400.227 195.413C412.347 186.613 429.2 184.947 443.787 187.027C449.467 187.773 454.814 189.987 458.414 193.813C458.254 194.307 458.254 194.853 458.56 195.4C459.014 196.08 459.627 196.333 460.347 196.293C461.76 198.493 462.667 201.093 462.934 204.12C463.134 205.747 463.84 212.733 463.2 217C461.787 217.187 460.387 217.44 459 217.747C459.227 214.52 459.414 211.293 459.28 208.067C459.534 190.6 441.694 189.933 428.307 190.4Z" fill="#473025"/>
<path d="M391.907 249.426C391.094 249.306 390.227 248.48 389.987 247.653C389.934 247.227 389.88 246.773 389.827 246.28C390.947 246.986 392.174 247.6 393.467 248.106C393.427 248.28 393.361 248.44 393.281 248.613C392.947 249.293 392.44 249.506 391.907 249.426Z" fill="#473025"/>
<path d="M389.72 213.68C391.36 213.626 392.613 214.893 391.2 216.72C390.6 217.2 389.96 217.64 389.307 218.053C389.413 216.547 389.547 215.08 389.72 213.68Z" fill="#473025"/>
<path d="M392.813 202.547C392.96 202.907 393.026 203.32 392.96 203.813C392.64 204.653 392.12 205.04 391.493 205.173C391.88 204.12 392.32 203.227 392.813 202.547Z" fill="#473025"/>
<path d="M389.72 213.68C389.547 215.08 389.413 216.547 389.307 218.053C384.827 220.853 379.2 222.187 374.414 224C362.507 228.067 349.707 227.466 337.493 229.826C333 230.666 328.453 231.533 324.32 233.573C323.56 233.973 322.653 234.493 321.8 234.6C321.8 233.173 321.774 231.72 321.68 230.267C330.307 224.267 366.227 223.72 372.88 220.226C378.2 218.466 383.507 216.627 388.44 213.987C388.867 213.8 389.307 213.693 389.72 213.68Z" fill="#473025"/>
<path d="M391.493 205.173C390.68 207.386 390.107 210.346 389.72 213.68C389.307 213.693 388.867 213.8 388.44 213.987C383.507 216.627 378.2 218.466 372.88 220.226C366.227 223.72 330.307 224.266 321.68 230.266C321.147 219.906 318.56 209.333 310.693 204.533C295.387 196.426 275.08 200.413 263.027 212.48C255.573 222.173 254.68 233.813 256.253 245.52C254.973 246.16 253.693 247.253 252.52 247.626C248.253 249.573 243.653 251.04 239.08 252.2C234.187 254.186 192.827 259.453 190.707 266.96C183.733 263.92 176.973 260.32 171.36 255.293C144.36 227.813 200.28 210.933 220.32 206.733C264.88 195.026 311.573 195.026 357.147 199.533C367.04 200.333 376.813 202.093 386.493 204.266C387.08 204.306 387.773 204.52 388.466 204.733C389.52 205.053 390.613 205.373 391.493 205.173Z" fill="#568279"/>
<path d="M319.853 258.24C319.587 259.2 319.213 260.026 318.72 260.64C318.4 260.933 317.853 261.293 317.387 261.133C316.867 260.88 316.507 260.547 316.267 260.147C317.467 259.507 318.653 258.866 319.853 258.24Z" fill="#473025"/>
<path d="M321.8 234.6C321.587 234.627 321.387 234.627 321.2 234.6C320.693 234.52 320.24 234.227 319.88 233.6C319.627 232.333 320.307 231.227 321.68 230.267C321.774 231.72 321.8 233.173 321.8 234.6Z" fill="#473025"/>
<path d="M316.267 260.147C311.987 262.453 307.72 264.773 303.053 266.227C291.213 270.027 278.413 271.387 266.027 269.973C265.133 267.16 264.413 264.307 263.72 261.44C262.293 256.307 261.253 251.093 260.56 245.84C260.133 242.64 259.84 239.413 259.667 236.187C259.627 228.067 261.747 219.227 267.747 213.427C279.147 204.493 295.467 201.133 308.667 208.067C317.36 213.507 318.12 229.573 317.667 238.92C317.32 244.107 316.973 249.293 316.293 254.44C316.187 256.16 315.32 258.613 316.267 260.147Z" fill="#EDE7CB"/>
<path d="M326.466 75.614C337.36 71.5607 338.893 63.5474 338.293 52.9874C337.747 41.8808 335.306 30.974 331.866 20.414C328.96 9.69399 323.453 5.30722 316.44 4.24055C310.187 3.29389 302.747 4.97404 294.893 7.13404C275.293 13.814 264.133 32.3073 268.24 52.6939C269.6 60.7739 274.693 67.7074 276.973 75.334C281.72 81.814 281.773 84.3074 290.933 85.134C303.44 85.974 315.306 80.6273 326.466 75.614ZM342.36 58.7606C342.48 68.0673 337.76 75.6007 328.96 78.934C316.307 84.6674 302.4 91.0141 288.227 88.8541C287.787 88.7874 287.347 88.7206 286.907 88.6273C282.947 87.9206 279.106 86.054 276.933 82.534C275.973 80.6807 273.96 78.8406 274.066 76.6939C257.426 51.2539 259.053 19.8674 288.56 5.26738C296.533 1.64071 305.36 0.0938863 314.08 0.040553C323.44 -0.599447 331.32 6.42738 334.227 14.934C339.293 28.9207 342.8 43.8139 342.36 58.7606Z" fill="#473025"/>
<path d="M338.294 52.9873C338.894 63.5473 337.36 71.5605 326.467 75.6139C315.307 80.6272 303.44 85.9739 290.934 85.1339C281.774 84.3073 281.72 81.8139 276.974 75.3339C274.694 67.7073 269.6 60.7738 268.24 52.6938C264.134 32.3072 275.294 13.8139 294.894 7.13393C302.747 4.97393 310.187 3.29377 316.44 4.24044C323.454 5.30711 328.96 9.69388 331.867 20.4139C335.307 30.9739 337.747 41.8806 338.294 52.9873Z" fill="#EDE7CB"/>
<path d="M265 272.946C266.067 272.52 266.574 271.24 266.094 270.2C266.08 270.12 266.054 270.053 266.027 269.973C278.414 271.386 291.214 270.026 303.054 266.226C307.72 264.773 311.987 262.453 316.267 260.146C316.507 260.546 316.867 260.88 317.387 261.133C317.854 261.293 318.4 260.933 318.72 260.64C319.214 260.026 319.587 259.2 319.854 258.24C322.027 257.12 324.24 256.04 326.533 255.16C330 254.2 333.867 252.187 337.427 252.853C338.92 253.693 338.587 256.226 336.867 256.56C334.6 257 332.347 257.52 330.147 258.2C320.24 261.56 311.84 268.413 301.6 270.933C289.4 274.373 276.427 275.533 263.854 273.813L263.96 273.067C264.307 273.12 264.667 273.08 265 272.946Z" fill="#473025"/>
<path d="M263.453 269.64C264.307 269.773 265.16 269.88 266.027 269.973C266.053 270.053 266.08 270.12 266.093 270.2C266.573 271.24 266.067 272.52 265 272.946C264.667 273.08 264.307 273.12 263.96 273.067C263.267 272.96 262.627 272.507 262.347 271.8C262.134 271 261.907 270.186 261.68 269.36C262.267 269.466 262.853 269.56 263.453 269.64Z" fill="#473025"/>
<path d="M262.347 271.8C262.627 272.507 263.267 272.96 263.96 273.067L263.854 273.813C263.494 273.773 263.134 273.72 262.774 273.667C258.24 272.467 247.76 271.76 245.347 267.76C244.64 266.28 246.307 265.467 247.587 265.627C252.267 267.12 256.88 268.52 261.68 269.36C261.907 270.187 262.134 271 262.347 271.8Z" fill="#473025"/>
<path d="M260.56 245.84C261.254 251.093 262.294 256.306 263.72 261.44C264.414 264.306 265.134 267.16 266.027 269.973C265.16 269.88 264.307 269.773 263.454 269.64C262.854 269.56 262.267 269.467 261.68 269.36C259.987 263.213 258.174 256.667 256.974 250.053C258.587 249.093 259.734 247.826 259.547 245.973L260.56 245.84Z" fill="#473025"/>
<path d="M259.667 236.187C259.84 239.413 260.134 242.64 260.56 245.84L259.547 245.973C259.547 245.866 259.534 245.76 259.507 245.653C258.467 244.747 257.36 244.96 256.254 245.52C254.68 233.813 255.574 222.173 263.027 212.48C275.08 200.413 295.387 196.427 310.694 204.533C318.56 209.333 321.147 219.907 321.68 230.267C320.307 231.227 319.627 232.333 319.88 233.6C320.24 234.227 320.694 234.52 321.2 234.6C321.387 234.627 321.587 234.627 321.8 234.6C321.814 239.053 321.507 243.306 321.174 246.84C320.614 249.826 320.827 254.84 319.854 258.24C318.654 258.866 317.467 259.506 316.267 260.146C315.32 258.613 316.187 256.16 316.294 254.44C316.974 249.293 317.32 244.107 317.667 238.92C318.12 229.573 317.36 213.507 308.667 208.067C295.467 201.133 279.147 204.493 267.747 213.426C261.747 219.226 259.627 228.067 259.667 236.187Z" fill="#473025"/>
<path d="M259.547 245.973C259.734 247.826 258.587 249.093 256.973 250.053C256.693 248.547 256.453 247.027 256.253 245.52C257.36 244.96 258.467 244.747 259.507 245.653C259.533 245.76 259.547 245.866 259.547 245.973Z" fill="#473025"/>
<path d="M256.254 245.52C256.454 247.027 256.694 248.547 256.974 250.053C254.907 251.28 252.094 252.027 250.414 252.933C233.254 259.173 214.614 260.267 197.374 266.267C196.2 266.547 195.467 267.68 194.694 268.626C193.36 268.08 192.04 267.533 190.707 266.96C192.827 259.453 234.187 254.187 239.08 252.2C243.654 251.04 248.254 249.573 252.52 247.626C253.694 247.253 254.974 246.16 256.254 245.52Z" fill="#473025"/>
<path d="M194.693 268.627C194.026 269.413 193.333 270.067 192.306 269.92C192.146 269.894 191.987 269.84 191.813 269.787C190.773 268.814 190.453 267.867 190.706 266.96C192.04 267.533 193.36 268.08 194.693 268.627Z" fill="#473025"/>
<path d="M143.933 579.376C144.387 580.936 142.867 582.349 141.52 582.149C141.213 582.096 140.907 581.976 140.653 581.736C139.6 579.829 142.267 577.522 143.933 579.376Z" fill="#473025"/>
<path d="M143.933 579.376C142.267 577.522 139.6 579.829 140.653 581.736C140.413 581.536 140.213 581.256 140.053 580.882C128.76 548.376 136.267 513.603 138.107 480.189C141.907 433.936 150.893 388.736 155.12 341.749C157.493 319.216 161.853 296.122 158.84 273.562C158.48 270.829 157.307 268.256 156.72 265.589C158.493 267.083 160.32 268.496 162.2 269.816C162.453 271.229 162.667 272.616 163 273.842C166.147 301.842 160.027 329.909 157.253 357.709C153.987 399.429 144.787 440.429 142.027 482.176C140.587 507.282 136.107 532.696 139.027 557.803C139.653 564.869 141.44 572.096 143.627 578.736C143.773 578.949 143.88 579.162 143.933 579.376Z" fill="#473025"/>
<path d="M159.414 263.333C161.134 264.893 161.747 267.36 162.2 269.813C160.32 268.493 158.494 267.08 156.721 265.587C156.641 265.267 156.587 264.947 156.534 264.613C156.387 263.413 157.574 262.053 158.841 262.88C159.041 263.013 159.241 263.173 159.414 263.333Z" fill="#473025"/>
<path d="M158.84 262.88C157.574 262.053 156.387 263.413 156.533 264.613C156.587 264.947 156.64 265.267 156.72 265.587C156.374 265.293 156.04 265.013 155.707 264.706C129.68 240.84 161.214 213.48 183.774 202.813C200.414 194.253 219.24 190.987 237.4 187.12C284.613 179.173 333.774 179 380.414 190.52C382.84 191.693 395.587 192.973 400.227 195.413C398.96 196.347 397.747 197.347 396.6 198.427C394.493 198.067 392.04 197.467 389.733 196.88C386.907 196.16 384.334 195.48 383.027 195.333C369.294 192.04 355.4 189.147 341.36 187.533C309.8 184.413 277.587 185.12 246.24 189.787C227.134 193.067 207.76 196.853 189.8 204.32C148.613 224.733 141.2 246.013 159.827 262.867L159.414 263.333C159.24 263.173 159.04 263.013 158.84 262.88Z" fill="#473025"/>
<path d="M444.867 723.576C439.347 723.576 433.627 723.349 427.693 722.896C403.32 721.029 384.293 715.896 383.493 715.682C375.013 713.362 370.013 704.616 372.32 696.136C374.64 687.643 383.387 682.642 391.88 684.962C410.2 689.909 463.867 698.896 492.067 681.229C501.853 675.109 507.733 666.216 510.053 654.056C519.333 605.283 492.04 587.123 464.12 575.803C461.293 574.656 459.067 573.763 457.147 572.723C449.427 568.523 446.56 558.856 450.747 551.123C454.934 543.416 464.573 540.549 472.293 544.696C472.867 544.989 474.64 545.709 476.08 546.296C485.734 550.202 505.827 558.362 521.48 575.576C530.533 585.536 536.907 597.176 540.44 610.149C544.493 625.042 544.8 641.816 541.333 660.016C537.32 681.096 526.413 697.336 508.907 708.269C492.6 718.456 471.12 723.576 444.867 723.576Z" fill="#473025"/>
<path d="M308.44 684.762C307.507 689.376 309.48 693.829 312.174 697.562C313.64 697.229 314.014 698.469 313.76 699.602C313.84 699.682 313.907 699.762 313.974 699.842C315.2 701.056 317.56 704.176 319.614 704.322C320.187 704.362 320.747 704.162 321.24 703.616C322.614 701.242 319.094 700.509 318 699.016C313.414 694.482 308.44 685.989 314.867 680.882C314.907 680.842 314.947 680.802 314.987 680.749C314.227 679.949 313.534 679.096 312.92 678.176C310.48 679.282 309.12 682.309 308.44 684.762Z" fill="#473025"/>
<path d="M308.04 703.989C306.813 708.642 308 713.789 310.88 717.602C311.306 717.349 311.813 717.242 312.453 717.362C312.866 717.589 313.066 718.136 313.146 718.576C313.08 719.029 313.04 719.482 313.013 719.896C314.373 720.789 317.146 723.722 319.186 723.869C319.84 723.922 320.413 723.669 320.853 722.976C321.413 721.896 320.693 720.802 319.693 720.362C317.88 719.256 316.12 718.029 314.626 716.522C310.466 712.309 309.986 705.242 313.44 700.456C313.586 700.202 313.693 699.909 313.76 699.602C313.213 698.949 312.68 698.269 312.173 697.562C312.146 697.562 312.12 697.576 312.093 697.576C309.506 698.389 308.8 701.696 308.04 703.989Z" fill="#473025"/>
<path d="M327.013 656.469C317.947 656.882 306.787 663.469 310.773 673.922C311.293 675.442 312.027 676.856 312.92 678.176C313.173 678.069 313.44 677.976 313.733 677.896C315.827 677.629 316.133 679.429 314.987 680.749C316.147 682.002 317.453 683.109 318.853 684.082C319.88 684.696 321.213 686.056 322.453 686.136C322.987 686.176 323.507 685.976 323.96 685.389C324.493 684.629 324.32 683.442 323.493 682.922C321.533 681.696 319.587 680.389 317.96 678.736C312.253 673.242 311.56 664.829 320 661.762C325.84 659.229 332.4 660.002 338.573 659.749C339.747 659.709 340.947 659.816 342.133 659.896C344.36 660.082 346.587 660.256 348.707 659.602C349.893 659.149 350.867 657.202 349.227 656.656C347.733 656.322 346.173 656.362 344.613 656.402C343.693 656.429 342.773 656.442 341.853 656.389C341.867 657.909 339.64 659.002 338.587 657.416C338.36 657.029 338.147 656.629 337.92 656.229C334.293 656.229 330.653 656.296 327.013 656.469Z" fill="#473025"/>
<path d="M310.88 717.602C309.293 718.549 309.173 721.642 309.733 723.296C310.6 728.229 315.2 730.536 319.24 732.602C325.027 736.042 331.653 737.496 338.307 737.976C338.747 738.002 339.187 738.029 339.627 738.056C350.227 738.256 360.933 738.016 371.453 736.536C379.2 736.082 386.04 732.256 390.96 726.629C390.787 726.362 390.64 726.109 390.493 725.842C389.587 724.042 391.987 722.562 393.24 723.669C394.853 721.322 396.173 718.749 397.12 716.042C397.48 715.136 396.933 714.082 396.04 713.776C394.427 713.216 393.707 714.816 393.293 716.056C392.6 717.629 391.8 719.122 390.947 720.576C388.72 724.616 385.266 727.762 381.333 730.096C374.093 733.669 365.68 733.696 357.8 734.162C345.56 734.656 332.226 736.029 321.2 729.616C316.32 727.162 312.707 725.469 313.013 719.896C312.227 719.202 311.52 718.429 310.88 717.602Z" fill="#473025"/>
<path d="M313.733 677.896C313.44 677.976 313.173 678.069 312.92 678.176C313.533 679.096 314.227 679.949 314.987 680.749C316.133 679.429 315.827 677.629 313.733 677.896Z" fill="#473025"/>
<path d="M313.761 699.603C314.014 698.469 313.64 697.229 312.174 697.562C312.68 698.269 313.214 698.949 313.761 699.603Z" fill="#473025"/>
<path d="M312.453 717.362C311.813 717.242 311.307 717.349 310.88 717.603C311.52 718.429 312.227 719.202 313.013 719.896C313.04 719.482 313.08 719.029 313.147 718.576C313.067 718.136 312.866 717.589 312.453 717.362Z" fill="#473025"/>
<path d="M336.747 687.562C337.494 685.109 331.307 683.869 330.787 686.162C330.814 687.589 332.787 688.829 334.454 688.936C335.534 689.016 336.48 688.642 336.747 687.562ZM329.494 726.082C330.627 726.162 331.267 725.322 331.334 724.429C331.387 723.536 330.88 722.602 329.734 722.536C327.72 722.322 326.64 723.176 326.574 724.096C326.507 724.976 327.374 725.936 329.254 726.069C329.334 726.069 329.4 726.069 329.494 726.082ZM332.68 706.456C333.374 704.029 327.894 703.082 327.054 704.842C326.72 706.402 328.694 707.722 330.4 707.842C331.467 707.909 332.427 707.522 332.68 706.456ZM314.987 680.749C316.147 682.002 317.454 683.109 318.854 684.082C319.88 684.696 321.214 686.056 322.454 686.136C322.987 686.176 323.507 685.976 323.96 685.389C324.494 684.629 324.32 683.442 323.494 682.922C321.534 681.696 319.587 680.389 317.96 678.736C312.254 673.242 311.56 664.829 320 661.762C325.84 659.229 332.4 660.002 338.574 659.749C339.747 659.709 340.947 659.816 342.134 659.896C344.36 660.082 346.587 660.256 348.707 659.602C349.894 659.149 350.867 657.202 349.227 656.656C347.734 656.322 346.174 656.362 344.614 656.402C343.694 656.429 342.774 656.442 341.854 656.389C341.854 656.096 341.76 655.762 341.547 655.442C340.16 653.229 339.107 650.762 338.134 648.456C335.28 642.109 333.88 635.162 333.947 628.296C333.494 621.376 338.374 599.256 346.974 612.882C349.24 616.709 349.96 620.829 351.36 624.962C352.534 628.282 354.2 631.416 355.854 634.522C359.387 640.576 363.374 646.509 368.574 651.269C379.96 661.722 392.04 656.762 398.347 674.216C398.44 674.389 398.52 674.589 398.614 674.802C398.534 677.136 399.747 680.469 399.36 682.416C399.267 683.549 400.134 684.189 401.014 684.256C401.907 684.309 402.827 683.802 402.894 682.656C402.814 681.576 402.867 679.362 402.627 677.282C402.907 675.869 402.187 673.735 401.187 671.642C401.334 671.522 401.467 671.402 401.587 671.256C403.32 668.056 405.08 667.149 408.414 669.136C412.92 672.056 415.374 677.242 416.654 682.296C419.147 695.096 419.08 711.482 410.987 722.336C407.187 727.736 397.787 730.989 393.68 724.269C393.56 724.016 393.414 723.829 393.24 723.669C394.854 721.322 396.174 718.749 397.12 716.042C397.48 715.135 396.934 714.082 396.04 713.775C394.427 713.215 393.707 714.816 393.294 716.056C392.6 717.629 391.8 719.122 390.947 720.575C388.72 724.615 385.267 727.762 381.334 730.096C374.094 733.669 365.68 733.696 357.8 734.162C345.56 734.656 332.227 736.029 321.2 729.616C316.32 727.162 312.707 725.469 313.014 719.896C314.374 720.789 317.147 723.722 319.187 723.869C319.84 723.922 320.414 723.669 320.854 722.975C321.414 721.895 320.694 720.802 319.694 720.362C317.88 719.256 316.12 718.029 314.627 716.522C310.467 712.309 309.987 705.242 313.44 700.456C313.587 700.202 313.694 699.909 313.76 699.602C313.84 699.682 313.907 699.762 313.974 699.842C315.2 701.055 317.56 704.176 319.614 704.322C320.187 704.362 320.747 704.162 321.24 703.616C322.614 701.242 319.094 700.509 318 699.016C313.414 694.482 308.44 685.989 314.867 680.882C314.907 680.842 314.947 680.802 314.987 680.749Z" fill="#EDE7CB"/>
<path d="M327.053 704.842C326.72 706.402 328.693 707.722 330.4 707.842C331.467 707.909 332.427 707.523 332.68 706.456C333.373 704.029 327.893 703.082 327.053 704.842Z" fill="#473025"/>
<path d="M326.573 724.096C326.507 724.976 327.373 725.936 329.253 726.069C329.333 726.069 329.4 726.069 329.493 726.082C330.627 726.162 331.267 725.322 331.333 724.429C331.387 723.536 330.88 722.602 329.733 722.536C327.72 722.322 326.64 723.176 326.573 724.096Z" fill="#473025"/>
<path d="M335.214 608.829C326.934 623.349 330.053 642.082 337.92 656.229C338.747 656.229 339.573 656.242 340.387 656.242C340.88 656.322 341.373 656.376 341.853 656.389C341.853 656.096 341.76 655.762 341.547 655.442C340.16 653.229 339.107 650.763 338.133 648.456C335.28 642.109 333.88 635.162 333.947 628.296C333.494 621.376 338.373 599.256 346.973 612.882C349.24 616.709 349.96 620.829 351.36 624.962C352.533 628.282 354.2 631.416 355.853 634.523C359.387 640.576 363.373 646.509 368.573 651.269C379.96 661.723 392.04 656.762 398.347 674.216C398.44 674.389 398.52 674.589 398.614 674.803C398.64 673.803 398.907 672.989 399.627 672.536C401.587 672.349 402.333 674.709 402.627 677.282C402.907 675.869 402.187 673.736 401.187 671.642C400.347 672.336 399.133 672.536 398.76 671.162C398.413 670.109 398.76 669.082 399.333 668.162C398.653 666.962 398.027 665.963 397.707 665.389C392.307 656.043 380.334 656.362 372.614 650.029C367.094 645.682 363.16 639.682 359.493 633.776C358.013 631.082 356.6 628.349 355.373 625.549C353.56 621.002 352.84 616.029 350.4 611.736C347.507 605.163 339.934 602.242 335.214 608.829Z" fill="#473025"/>
<path d="M330.787 686.162C330.814 687.589 332.787 688.829 334.454 688.936C335.534 689.016 336.481 688.642 336.747 687.562C337.494 685.109 331.307 683.869 330.787 686.162Z" fill="#473025"/>
<path d="M340.387 656.242C339.573 656.242 338.747 656.229 337.92 656.229C338.147 656.629 338.36 657.029 338.587 657.416C339.64 659.002 341.867 657.909 341.853 656.389C341.373 656.376 340.88 656.322 340.387 656.242Z" fill="#473025"/>
<path d="M393.24 723.669C391.987 722.562 389.587 724.042 390.493 725.842C390.64 726.109 390.787 726.362 390.96 726.629C391.773 725.696 392.533 724.709 393.24 723.669Z" fill="#473025"/>
<path d="M393.24 723.669C392.533 724.709 391.773 725.696 390.96 726.629C392.84 729.562 396.307 731.336 399.773 731.589C400.347 731.629 400.92 731.629 401.48 731.589C416.693 729.802 421.387 711.376 421.493 698.376C421.92 686.722 420.48 672.069 409.373 665.616C406.76 664.309 403.293 663.909 401.04 666.069C400.48 666.682 399.826 667.389 399.333 668.162C399.946 669.216 400.613 670.429 401.187 671.642C401.333 671.522 401.467 671.402 401.587 671.256C403.32 668.056 405.08 667.149 408.413 669.136C412.92 672.056 415.373 677.242 416.653 682.296C419.147 695.096 419.08 711.482 410.987 722.336C407.187 727.736 397.787 730.989 393.68 724.269C393.56 724.016 393.413 723.829 393.24 723.669Z" fill="#473025"/>
<path d="M399.333 668.162C398.76 669.082 398.413 670.109 398.76 671.162C399.133 672.536 400.347 672.336 401.187 671.642C400.613 670.429 399.947 669.216 399.333 668.162Z" fill="#473025"/>
<path d="M399.627 672.536C398.907 672.989 398.64 673.803 398.614 674.803C399.214 676.389 399.494 678.576 401.427 678.736C402.12 678.469 402.494 677.962 402.627 677.282C402.334 674.709 401.587 672.349 399.627 672.536Z" fill="#473025"/>
<path d="M401.427 678.736C399.494 678.576 399.214 676.389 398.614 674.803C398.534 677.136 399.747 680.469 399.36 682.416C399.267 683.549 400.134 684.189 401.014 684.256C401.907 684.309 402.827 683.803 402.894 682.656C402.814 681.576 402.867 679.363 402.627 677.283C402.494 677.963 402.12 678.469 401.427 678.736Z" fill="#473025"/>
<path d="M310.067 565.789C309.293 566.162 308.507 566.509 307.707 566.829C291.28 573.349 273.174 568.429 256.427 565.416C253.294 564.802 250.107 564.136 247.027 563.176C248.24 562.376 249.387 560.856 250.507 560.322C256.76 555.949 263.52 552.656 270.414 554.269C272.134 554.682 273.867 555.389 275.6 556.469C273.16 557.789 271.4 559.336 272.453 560.656C274.107 563.362 279.24 558.229 281.76 557.789C290.84 554.909 301.16 559.029 308.427 564.522C308.774 564.949 309.4 565.469 310.067 565.789Z" fill="#DE4F36"/>
<path d="M358.867 438.72C362.373 454.28 357.587 470.133 351.227 484.306C347.293 493.093 342.44 499.853 334.214 501.653C336.294 497.64 338.053 491.92 338.36 490.52C341.773 479.267 336.72 478.773 329.133 472.493C332.173 472.186 335.24 472.293 338.307 472.267C340.28 472.4 342.84 472.573 343.76 470.4C347.2 463.627 349.427 455.973 350.907 448.506C351.933 442.32 353.56 436.067 353.214 429.76C353.24 429.453 353.213 429.093 353.133 428.733C355.893 430.68 357.987 433.92 358.867 438.72Z" fill="#EDE7CB"/>
<path d="M271.934 415.667C275.427 431.227 270.654 447.08 264.294 461.267C260.36 470.04 255.507 476.8 247.28 478.6C249.36 474.587 251.107 468.88 251.427 467.48C254.84 456.226 249.787 455.706 242.2 449.426C245.24 449.133 248.32 449.24 251.36 449.226C253.347 449.346 255.907 449.52 256.84 447.346C260.267 440.573 262.494 432.92 263.96 425.453C265 419.267 266.627 413.027 266.28 406.72C266.307 406.4 266.28 406.04 266.187 405.68C268.96 407.64 271.054 410.867 271.934 415.667Z" fill="#EDE7CB"/>
<path d="M351.227 484.309C357.587 470.136 362.373 454.283 358.867 438.723C357.987 433.923 355.893 430.682 353.133 428.736C353.213 429.096 353.24 429.456 353.214 429.762C353.56 436.069 351.934 442.322 350.907 448.509C349.427 455.976 347.2 463.629 343.76 470.402C342.84 472.576 340.28 472.402 338.307 472.269C335.24 472.296 332.173 472.189 329.133 472.496C336.72 478.776 341.774 479.269 338.36 490.523C338.054 491.923 336.294 497.643 334.214 501.656C342.44 499.856 347.294 493.096 351.227 484.309ZM374.08 435.256C374.867 435.829 375.134 437.096 374.48 437.896C372.36 440.722 367.574 445.096 363.614 444.829C363.84 448.282 363.747 451.749 363.614 455.029C362.44 467.029 358.267 478.629 352.894 489.376C349.307 497.162 343.854 502.669 336.814 504.856C338.36 506.229 338.454 509.563 339.52 511.256C340.547 513.469 337.08 515.042 336.094 512.816C335.52 510.896 333.4 507.482 334.347 505.469C331.734 505.962 328.907 506.042 325.907 505.629C325.934 505.896 325.92 506.189 325.88 506.509C325.267 508.842 324.44 511.096 323.88 513.442C323.574 514.629 322.52 515.029 321.614 514.802C320.707 514.589 319.934 513.776 320.214 512.576C320.774 510.429 321.414 508.296 322.094 506.162C322.254 505.642 322.494 505.203 322.774 504.856C320.747 504.043 318.854 502.882 317.094 501.536C317.067 501.669 317.054 501.789 317.014 501.909C316.774 502.936 315.987 503.696 315.36 504.509C313.76 505.869 311.147 510.549 308.827 508.589C306.72 506.096 311.213 504.123 312.333 502.256C313.107 501.349 313.76 500.162 314.867 499.696C313.387 498.349 312.027 496.909 310.76 495.442C306.067 489.829 306.493 482.123 307.6 475.323C307.093 472.083 308.6 468.709 308.947 465.442C310.414 457.469 312.494 449.562 316.547 442.482C317.8 439.962 319.467 437.442 321.467 435.082C319.093 433.922 317.094 432.083 315.494 429.989C314.04 427.923 310.614 422.376 314.36 421.096C316.614 421.629 316.387 424.496 317.48 426.109C318.934 428.669 321.12 430.949 323.894 432.042C324 432.082 324.094 432.136 324.174 432.189C327.054 429.389 330.374 426.949 333.894 425.229C332.32 422.882 331.374 420.162 331.08 417.336C330.854 414.989 329.88 409.029 333.587 409.296C334.974 410.176 334.734 412.029 334.574 413.429C334.574 417.069 335.227 420.789 337.454 423.749C339.88 422.936 342.36 422.469 344.827 422.469C344.4 420.696 345.52 418.296 345.68 416.576C346.227 414.029 346.787 411.469 347.414 408.949C347.667 407.949 348.68 407.309 349.694 407.536C350.68 407.776 351.334 408.816 351.094 409.816C350.467 412.322 349.907 414.856 349.36 417.389C348.827 418.856 348.92 421.229 348.147 422.749C351.254 423.309 354.28 424.669 357.08 427.069C357.227 427.229 357.36 427.376 357.507 427.536C358.6 426.069 360.734 425.016 361.64 423.469C362.934 421.896 364 420.176 364.987 418.389C365.48 417.496 366.627 417.149 367.547 417.642C368.427 418.136 368.787 419.309 368.294 420.202C367.24 422.189 362.987 428.963 359.587 430.323C361.627 433.629 362.72 437.429 363.267 441.376C363.507 441.256 363.734 441.176 363.947 441.136C365.907 440.522 367.747 439.509 369.254 438.123C370.694 436.989 371.867 433.843 374.08 435.256Z" fill="#473025"/>
<path d="M307.707 566.829C308.507 566.509 309.293 566.162 310.067 565.789C309.4 565.469 308.773 564.949 308.427 564.522C301.16 559.029 290.84 554.909 281.76 557.789C279.24 558.229 274.107 563.362 272.453 560.656C271.4 559.336 273.16 557.789 275.6 556.469C273.867 555.389 272.133 554.682 270.413 554.269C263.52 552.656 256.76 555.949 250.507 560.322C249.387 560.856 248.24 562.376 247.027 563.176C250.107 564.136 253.293 564.802 256.427 565.416C273.173 568.429 291.28 573.349 307.707 566.829ZM314.56 529.416C333.013 531.349 333.533 552.669 321.227 562.882C309.56 573.389 292.853 575.376 277.853 572.896C269.227 571.749 260.587 570.296 252.093 568.309C249.52 567.696 246.947 567.042 244.413 566.336C233.627 563.442 214.933 545.136 228.787 535.736C238.427 530.202 249.653 536.882 260 536.536C270.6 537.416 281.16 535.669 291.44 533.229C299 531.322 306.653 528.616 314.56 529.416Z" fill="#473025"/>
<path d="M290.96 581.949C291.747 587.336 265.08 583.402 257.44 581.616C256.72 581.442 256.173 581.296 255.827 581.176C254.333 580.536 253.507 578.136 255.64 577.789C257.08 577.589 258.533 577.962 259.96 578.336C260.96 578.602 261.973 578.869 262.987 578.949C271.173 580.122 279.52 581.282 287.8 580.522C289.067 580.242 290.707 580.402 290.96 581.949Z" fill="#473025"/>
<path d="M283.747 499.842C284.934 497.696 288.213 499.469 287.053 501.656C282.8 510.109 273.627 517.736 263.68 516.242C263.6 516.216 263.507 516.202 263.427 516.176C257.773 514.856 253.84 508.629 255.467 502.962C256.44 499.229 259.267 496.416 262.093 493.962C265.067 491.376 268.013 488.776 270.973 486.189C273.547 483.883 275.347 480.736 278 478.576C278.933 477.976 280.48 478.096 280.493 479.483C280.76 481.456 278.987 482.749 277.893 484.149C275.093 487.763 271.627 490.642 268.2 493.629C263.973 497.496 256.307 502.322 259.76 508.976C265.893 518.722 280.68 507.509 283.747 499.842Z" fill="#473025"/>
<path d="M264.293 461.266C270.653 447.08 275.427 431.226 271.933 415.666C271.053 410.866 268.96 407.64 266.187 405.68C266.28 406.04 266.307 406.4 266.28 406.72C266.627 413.027 265 419.267 263.96 425.453C262.493 432.92 260.267 440.573 256.84 447.346C255.907 449.52 253.347 449.346 251.36 449.226C248.32 449.24 245.24 449.133 242.2 449.426C249.787 455.706 254.84 456.226 251.427 467.48C251.107 468.88 249.36 474.586 247.28 478.6C255.507 476.8 260.36 470.04 264.293 461.266ZM287.147 412.2C287.933 412.786 288.2 414.04 287.547 414.84C285.427 417.666 280.64 422.04 276.68 421.76C276.907 425.226 276.827 428.706 276.68 431.973C275.507 443.973 271.333 455.573 265.96 466.32C262.36 474.107 256.92 479.613 249.88 481.8C251.427 483.173 251.52 486.52 252.587 488.2C253.6 490.426 250.147 492 249.16 489.76C248.587 487.84 246.467 484.426 247.427 482.413C244.787 482.92 241.973 482.987 238.973 482.587C238.987 482.84 238.987 483.133 238.947 483.453C238.333 485.787 237.493 488.04 236.947 490.387C236.64 491.573 235.587 491.96 234.68 491.746C233.773 491.533 233 490.733 233.267 489.52C233.84 487.373 234.467 485.24 235.16 483.12C235.32 482.587 235.547 482.146 235.84 481.8C233.813 480.986 231.92 479.826 230.16 478.493C230.133 478.613 230.107 478.747 230.08 478.853C229.827 479.88 229.04 480.64 228.427 481.453C226.827 482.813 224.213 487.493 221.907 485.533C219.8 483.053 224.28 481.066 225.4 479.2C226.187 478.293 226.813 477.106 227.933 476.626C226.453 475.293 225.08 473.853 223.827 472.387C219.133 466.773 219.56 459.08 220.667 452.28C220.16 449.026 221.653 445.653 222.013 442.387C223.48 434.413 225.56 426.506 229.627 419.426C230.867 416.906 232.533 414.386 234.533 412.04C232.147 410.88 230.147 409.026 228.56 406.933C227.107 404.866 223.68 399.32 227.427 398.04C229.68 398.573 229.44 401.44 230.547 403.053C232 405.613 234.187 407.893 236.96 408.987C237.067 409.027 237.16 409.08 237.24 409.133C240.12 406.32 243.44 403.893 246.96 402.173C245.387 399.826 244.453 397.106 244.16 394.293C243.907 391.933 242.947 385.973 246.653 386.24C248.04 387.12 247.8 388.973 247.64 390.373C247.64 394.013 248.307 397.733 250.52 400.706C252.947 399.88 255.427 399.413 257.893 399.413C257.48 397.64 258.6 395.227 258.747 393.52C259.293 390.973 259.853 388.426 260.493 385.893C260.733 384.893 261.747 384.253 262.747 384.493C263.747 384.72 264.413 385.76 264.147 386.76C263.533 389.266 262.973 391.8 262.427 394.333C261.893 395.8 261.987 398.186 261.2 399.693C264.32 400.253 267.347 401.626 270.147 404.026C270.293 404.173 270.427 404.32 270.56 404.48C271.667 403.013 273.8 401.96 274.72 400.413C275.987 398.84 277.067 397.12 278.04 395.346C278.547 394.453 279.693 394.093 280.6 394.587C281.493 395.08 281.853 396.253 281.36 397.146C280.307 399.133 276.053 405.906 272.653 407.266C274.693 410.573 275.787 414.387 276.333 418.32C276.56 418.213 276.8 418.133 277.013 418.093C278.973 417.466 280.813 416.453 282.333 415.066C283.773 413.933 284.933 410.786 287.147 412.2Z" fill="#473025"/>
<path d="M367.16 388.88C371.093 392.773 372.547 396.387 369.493 396.04C369.04 395.987 368.48 395.84 367.827 395.6C362.853 388.173 354.213 383.013 345.12 383.853C342.413 384.187 340.733 381.573 343.787 380.32C352.773 378.293 362.053 383.827 367.16 388.88Z" fill="#473025"/>
<path d="M273.64 362.053C276.347 362.56 289.374 364.24 287.28 368.32C286.734 369.213 285.573 369.466 284.693 368.946C278.467 366.16 271.453 364.92 264.693 366.213C261.707 366.133 255.68 370.08 253.067 368.933C252.787 368.813 252.547 368.64 252.36 368.386C252.107 363.093 269.533 361.506 273.64 362.053Z" fill="#473025"/>
<path d="M403.573 398.747C403.573 399.68 417.907 403.907 422.747 411.213C428.973 420.6 430 443.626 432.44 443.626C434.88 443.626 435.88 420.693 442.053 411.306C446.907 403.96 461.307 401.173 461.307 398.747C461.307 396.32 446.56 393.64 441.68 386.4C435.747 377.573 434.293 355.733 432.44 355.733C430.573 355.733 429.413 376.533 423.947 385.24C419.013 393.093 403.573 397.813 403.573 398.747Z" fill="#EDE7CB"/>
<path d="M406.76 398.747C406.974 398.84 407.187 398.933 407.4 399.026C412.267 401.213 420.4 404.853 424.054 410.347C427.8 416.013 429.72 426.213 431.12 433.653C431.52 435.853 432 438.373 432.44 440.147C432.88 438.373 433.347 435.853 433.76 433.667C435.147 426.253 437.04 416.093 440.76 410.453C443.894 405.693 450.414 402.827 455.174 400.733C456.64 400.08 458.387 399.32 459.294 398.76C458.36 398.2 456.56 397.453 455.054 396.813C450.2 394.76 443.547 391.96 440.387 387.267C436.64 381.707 434.68 371.613 433.24 364.24C432.987 362.906 432.707 361.493 432.454 360.253C432.2 361.493 431.934 362.893 431.694 364.226C430.414 371.173 428.653 380.68 425.267 386.067C421.507 392.04 412.374 396.186 407.454 398.426C407.227 398.533 406.987 398.64 406.76 398.747ZM432.44 445.173C430.107 445.173 429.547 442.2 428.054 434.24C426.707 427.053 424.854 417.2 421.454 412.067C418.307 407.32 410.387 403.773 406.133 401.88C402.88 400.427 402.014 400.04 402.014 398.747C402.014 397.48 402.894 397.08 406.174 395.587C410.787 393.493 419.374 389.6 422.627 384.4C425.694 379.52 427.387 370.36 428.627 363.667C429.934 356.56 430.387 354.173 432.44 354.173C434.467 354.173 434.894 356.373 436.307 363.64C437.68 370.746 439.574 380.493 442.974 385.533C445.614 389.44 451.773 392.04 456.267 393.933C460.52 395.733 462.867 396.72 462.867 398.747C462.867 400.747 460.574 401.76 456.427 403.587C452.027 405.52 445.987 408.173 443.36 412.16C439.987 417.293 438.16 427.08 436.814 434.24C435.334 442.2 434.774 445.173 432.44 445.173Z" fill="#473025"/>
<path d="M15.2666 350.56C15.2666 351.066 23.1068 353.373 25.7468 357.373C29.1468 362.493 29.7067 375.066 31.04 375.066C32.3734 375.066 32.9201 362.546 36.2934 357.426C38.9334 353.4 46.7999 351.893 46.7999 350.56C46.7999 349.24 38.7468 347.773 36.0801 343.826C32.8401 339 32.0534 327.08 31.04 327.08C30.0267 327.08 29.3866 338.44 26.3999 343.186C23.7066 347.48 15.2666 350.053 15.2666 350.56Z" fill="#EDE7CB"/>
<path d="M18.7197 350.56C21.4531 351.8 25.1998 353.72 27.0398 356.506C29.1731 359.72 30.1865 365.133 31.0132 369.493C31.0132 369.546 31.0264 369.586 31.0398 369.64C31.0398 369.586 31.053 369.546 31.0663 369.493C31.8663 365.16 32.8797 359.773 34.9864 356.56C36.8131 353.786 40.4798 352.173 43.1598 351C43.4532 350.867 43.7864 350.72 44.1064 350.587C43.7731 350.427 43.4131 350.293 43.1064 350.16C40.3731 349 36.6397 347.426 34.7997 344.693C32.9063 341.88 31.8264 337.147 31.0531 333.267C30.3731 336.907 29.4131 341.32 27.7197 344.013C25.7997 347.067 21.5731 349.226 18.7197 350.56ZM31.0398 376.626C29.1731 376.626 28.8132 374.707 27.9465 370.067C27.2265 366.2 26.2264 360.906 24.4531 358.226C22.8397 355.8 18.6397 353.92 16.3864 352.92C14.5464 352.093 13.7197 351.72 13.7197 350.56C13.7197 349.413 14.5063 349.053 16.3997 348.187C18.853 347.08 23.4132 345.013 25.0799 342.36C26.6799 339.8 27.5997 334.88 28.2663 331.28C29.0397 327.08 29.3198 325.52 31.0398 325.52C32.7198 325.52 32.9998 326.96 33.8398 331.253C34.5464 334.867 35.5998 340.32 37.3731 342.947C38.7064 344.92 41.9464 346.28 44.3197 347.28C46.8397 348.347 48.3598 348.986 48.3598 350.56C48.3598 352.12 46.8798 352.773 44.4265 353.853C42.0932 354.867 38.9064 356.28 37.5864 358.28C35.8264 360.96 34.8397 366.227 34.1197 370.067C33.2531 374.707 32.8931 376.626 31.0398 376.626Z" fill="#473025"/>
<path d="M457.707 467.973C457.707 468.48 465.534 470.786 468.174 474.773C471.574 479.906 472.134 492.467 473.467 492.467C474.8 492.467 475.347 479.96 478.72 474.826C481.36 470.813 489.227 469.293 489.227 467.973C489.227 466.64 481.187 465.186 478.52 461.226C475.267 456.413 474.48 444.48 473.467 444.48C472.454 444.48 471.814 455.84 468.827 460.587C466.134 464.88 457.707 467.466 457.707 467.973Z" fill="#EDE7CB"/>
<path d="M461.147 467.96C463.88 469.213 467.627 471.12 469.48 473.92C471.6 477.12 472.614 482.546 473.44 486.906C473.44 486.946 473.453 487 473.467 487.04C473.467 487 473.48 486.946 473.494 486.906C474.307 482.573 475.307 477.173 477.414 473.973C479.24 471.2 482.92 469.586 485.6 468.4C485.893 468.28 486.213 468.133 486.533 467.987C486.2 467.84 485.853 467.693 485.533 467.56C482.813 466.413 479.067 464.826 477.227 462.093C475.334 459.293 474.267 454.56 473.494 450.666C472.8 454.306 471.84 458.72 470.147 461.413C468.227 464.466 464 466.64 461.147 467.96ZM473.467 494.026C471.6 494.026 471.24 492.106 470.374 487.48C469.654 483.613 468.654 478.32 466.88 475.64C465.28 473.213 461.067 471.333 458.814 470.32C456.974 469.507 456.147 469.133 456.147 467.973C456.147 466.813 456.934 466.466 458.827 465.6C461.28 464.493 465.84 462.413 467.507 459.76C469.12 457.213 470.027 452.28 470.694 448.68C471.467 444.493 471.76 442.92 473.467 442.92C475.16 442.92 475.44 444.373 476.267 448.666C476.973 452.266 478.027 457.72 479.8 460.36C481.133 462.32 484.374 463.693 486.747 464.693C489.267 465.76 490.787 466.4 490.787 467.973C490.787 469.52 489.307 470.173 486.853 471.253C484.52 472.28 481.334 473.68 480.014 475.68C478.254 478.36 477.267 483.626 476.547 487.48C475.68 492.106 475.333 494.026 473.467 494.026Z" fill="#473025"/>
</svg>
