<svg width="601" height="894" viewBox="0 0 601 894" fill="none" xmlns="http://www.w3.org/2000/svg">
<path d="M588.222 845.89C588.222 872.237 463.275 893.61 309.155 893.61C155.035 893.61 30.1016 872.237 30.1016 845.89C30.1016 819.53 155.035 798.157 309.155 798.157C463.275 798.157 588.222 819.53 588.222 845.89Z" fill="#473025"/>
<path d="M522.008 739.57C521.954 739.57 521.901 739.57 521.848 739.557C520.795 739.477 520.021 738.557 520.101 737.503C520.114 737.317 521.234 721.757 510.594 712.637C499.901 703.49 490.128 704.623 490.034 704.637C488.981 704.77 488.035 704.037 487.888 702.997C487.755 701.957 488.475 700.997 489.515 700.85C489.981 700.783 501.008 699.41 513.074 709.743C525.234 720.143 523.968 737.103 523.915 737.823C523.835 738.81 522.994 739.57 522.008 739.57Z" fill="#473025"/>
<path d="M529.701 715.45C528.874 715.45 528.101 714.89 527.875 714.05C523.155 697.197 512.208 696.197 511.741 696.157C510.688 696.077 509.901 695.17 509.968 694.13C510.034 693.077 510.941 692.29 511.981 692.343C512.555 692.383 526.061 693.423 531.555 713.023C531.835 714.037 531.235 715.09 530.221 715.37C530.048 715.423 529.874 715.45 529.701 715.45Z" fill="#473025"/>
<path d="M61.2348 601.197C60.1281 598.81 34.5948 542.05 77.9681 474.757C95.7548 447.17 115.795 427.65 137.555 416.717C154.755 408.077 166.982 408.023 169.248 408.103L168.155 439.93C168.155 439.93 168.288 439.943 168.542 439.943C168.475 439.943 160.955 440.143 149.608 446.357C138.728 452.303 122.128 465.05 104.742 492.023C90.6749 513.85 83.9284 536.543 84.6884 559.463C85.2751 576.73 90.1151 587.783 90.1551 587.89L90.115 587.783L61.2348 601.197Z" fill="#473025"/>
<path d="M120.249 654.517C118.702 662.77 108.329 664.37 101.342 661.73C100.702 661.477 100.076 661.197 99.4889 660.877C93.4222 657.783 89.6488 651.89 86.9821 645.823C86.5154 644.49 84.6752 641.077 83.5686 637.97C84.0352 636.45 85.1154 634.957 84.4488 633.357C84.1554 632.597 83.5818 632.423 82.9951 632.597C83.1818 632.303 83.4351 632.077 83.7951 631.943C84.6751 631.663 85.782 632.183 86.0087 633.117C88.3287 641.037 91.4622 649.583 97.6222 655.303C102.302 660.263 115.969 661.943 116.689 653.05C115.982 649.637 113.102 647.197 111.502 644.21C109.515 641.197 108.302 637.81 107.595 634.29C104.155 622.09 103.502 608.997 97.9154 597.517C96.7688 594.703 94.7819 593.157 92.4352 592.21L92.7686 591.357C93.3152 591.61 93.9684 591.61 94.5951 591.13C95.0351 590.743 95.4488 590.357 95.8488 589.943C106.729 597.503 107.355 622.717 111.195 634.077C111.875 641.97 120.369 646.823 120.249 654.517Z" fill="#473025"/>
<path d="M31.6344 628.103C33.8478 628.623 35.9546 624.317 33.4746 623.357C31.0079 622.503 29.7544 626.877 31.6344 628.103ZM42.6746 633.343C44.8746 633.89 47.2743 629.117 44.7277 628.17C42.2077 627.317 40.7012 632.077 42.6746 633.343ZM58.648 636.863C59.608 637.223 60.4479 636.05 60.7412 634.663C61.0879 633.103 60.7681 631.29 59.2214 631.183C56.9148 631.063 56.8077 634.357 57.5943 635.877C57.9543 636.423 58.3013 636.73 58.648 636.863ZM116.688 653.05C115.968 661.943 102.301 660.263 97.6214 655.303C91.4614 649.583 88.3279 641.037 86.0079 633.117C85.7812 632.183 84.6743 631.663 83.7943 631.943C83.4343 632.077 83.181 632.303 82.9943 632.597C82.2077 632.81 81.3948 633.61 81.1548 634.317C72.7814 652.543 81.2743 679.277 67.061 693.637C64.141 696.943 57.8212 698.757 55.0746 694.25C53.7812 690.997 55.2079 687.423 55.7412 684.13C57.4079 674.637 59.4212 665.157 59.7412 655.49C59.4212 653.263 61.0211 644.237 57.8344 644.597C56.8478 644.637 56.1143 645.463 56.1277 646.437C56.181 647.77 56.2081 649.09 56.2214 650.423C54.8348 651.597 54.7411 653.677 53.9678 655.25C51.3011 662.143 47.9948 668.797 44.0881 675.063C39.8614 680.81 33.8077 691.383 25.661 690.623C21.5143 689.237 22.3143 683.903 22.661 680.45C23.5143 675.25 26.8614 671.29 29.5548 666.85C33.5548 660.583 36.8745 653.89 40.0345 647.17C40.5278 645.063 43.6078 641.597 40.9011 640.09C40.0078 639.757 38.9414 640.21 38.6214 641.117C36.8881 646.103 34.3943 650.77 31.9943 655.45C28.661 662.863 21.6612 670.543 19.4079 678.677C19.1412 678.57 18.8613 678.49 18.5147 678.423C10.0213 679.317 9.28799 671.49 12.1147 665.383C15.6213 658.73 21.381 653.65 25.861 647.69C28.061 644.77 29.9146 641.597 31.8746 638.517C32.1946 638.063 32.688 637.317 32.5147 636.677C32.328 635.183 30.1543 634.65 29.3277 635.917C25.2743 643.463 19.3145 649.703 14.0345 656.397C13.3411 656.023 12.3547 656.05 11.648 656.197C2.83466 658.223 1.80778 650.81 5.70112 644.73C9.54112 639.117 15.5814 635.477 19.5548 629.93C28.5814 618.863 31.2347 603.983 39.3147 592.45C39.328 592.437 39.3545 592.41 39.3678 592.397C41.0211 590.237 43.1677 587.757 47.1943 587.73C51.7677 588.09 51.128 583.09 46.7813 584.21C44.9813 584.317 43.2477 584.81 41.661 585.623C39.3943 582.237 38.2479 579.077 39.4079 574.797C45.8346 563.81 64.8877 562.077 76.3943 563.637C88.1543 565.557 101.834 571.983 94.461 585.983C93.901 586.837 93.2613 587.65 92.448 588.29C92.1013 588.183 91.7411 588.09 91.3678 588.01C89.0211 587.53 86.421 586.823 84.061 587.543C82.741 587.983 82.2212 589.81 83.7412 590.37C86.6212 590.85 89.7678 591.13 92.4344 592.21C94.7811 593.157 96.768 594.703 97.9147 597.517C103.501 608.997 104.154 622.09 107.594 634.29C108.301 637.81 109.514 641.197 111.501 644.21C113.101 647.197 115.981 649.637 116.688 653.05Z" fill="#EDE7CB"/>
<path d="M80.0217 659.263C79.475 672.517 79.2215 688.57 67.9415 697.57C64.9415 700.037 60.6481 701.396 56.9014 699.983C56.7681 699.93 56.6483 699.877 56.5149 699.823C49.4083 697.343 50.7817 689.117 52.2884 683.343C53.2617 678.343 54.0881 673.05 54.9014 668.17C55.3814 665.49 55.7149 662.77 55.9149 660.063L55.928 660.05C58.3813 654.53 60.2084 648.877 56.4217 650.263C56.355 650.317 56.2884 650.37 56.2217 650.423C56.2084 649.09 56.1813 647.77 56.128 646.437C56.1146 645.463 56.8481 644.637 57.8347 644.597C61.0214 644.237 59.4215 653.263 59.7415 655.49C59.4215 665.157 57.4082 674.637 55.7415 684.13C55.2082 687.423 53.7815 690.996 55.0748 694.25C57.8215 698.756 64.1413 696.943 67.0613 693.637C81.2746 679.277 72.7817 652.543 81.155 634.316C81.395 633.61 82.208 632.81 82.9946 632.597C82.328 633.677 82.7681 635.757 83.5681 637.97C83.5147 638.117 83.4747 638.263 83.4347 638.41C81.4214 645.383 80.315 652.13 80.0217 659.263Z" fill="#473025"/>
<path d="M84.4481 633.357C85.1148 634.957 84.0346 636.45 83.5679 637.97C82.7679 635.757 82.3278 633.677 82.9945 632.597C83.5811 632.423 84.1548 632.597 84.4481 633.357Z" fill="#473025"/>
<path d="M89.6483 564.05C100.208 567.89 103.368 582.023 95.8483 589.943C94.8083 589.223 93.6883 588.663 92.4483 588.29C93.2616 587.65 93.9013 586.837 94.4613 585.983C101.835 571.983 88.1546 565.557 76.3946 563.637C64.888 562.077 45.8349 563.81 39.4082 574.797C38.2482 579.077 39.3947 582.237 41.6613 585.623C40.7013 586.117 39.7951 586.717 38.9551 587.423C38.3951 587.01 37.9281 586.423 37.5681 585.85C29.3548 571.25 44.9815 562.957 57.3415 560.65C68.1015 558.477 79.6483 559.37 89.6483 564.05Z" fill="#473025"/>
<path d="M95.8487 589.943C95.4487 590.357 95.0351 590.743 94.5951 591.13C93.9684 591.61 93.3152 591.61 92.7685 591.357C91.7418 590.837 91.1822 589.303 92.3555 588.37C92.3955 588.343 92.422 588.317 92.4487 588.29C93.6887 588.663 94.8087 589.223 95.8487 589.943Z" fill="#473025"/>
<path d="M92.7679 591.357L92.4346 592.21C89.7679 591.13 86.6214 590.85 83.7414 590.37C82.2214 589.81 82.7412 587.983 84.0612 587.543C86.4212 586.823 89.0213 587.53 91.3679 588.01C91.7413 588.09 92.1015 588.183 92.4481 588.29C92.4215 588.317 92.3949 588.343 92.3549 588.37C91.1816 589.303 91.7413 590.837 92.7679 591.357Z" fill="#473025"/>
<path d="M56.422 650.263C60.2086 648.877 58.3816 654.53 55.9282 660.05C56.1682 656.85 56.262 653.637 56.222 650.423C56.2886 650.37 56.3553 650.317 56.422 650.263Z" fill="#473025"/>
<path d="M55.9278 660.05L55.9148 660.063C54.0614 664.263 51.848 668.383 51.4747 669.277C47.1413 677.29 35.3146 697.903 24.3679 693.77C23.1412 693.303 21.9412 692.543 20.7679 691.41C18.9412 688.103 18.448 684.876 18.808 681.716C19.1813 681.623 19.528 681.476 19.808 681.316C21.168 680.583 21.3147 679.37 19.408 678.677C21.6613 670.543 28.6611 662.863 31.9945 655.45C34.3945 650.77 36.8882 646.103 38.6216 641.116C38.9416 640.21 40.0079 639.757 40.9012 640.09C43.6079 641.597 40.5279 645.063 40.0346 647.17C36.8746 653.89 33.5549 660.583 29.5549 666.85C26.8616 671.29 23.5145 675.25 22.6611 680.45C22.3145 683.903 21.5145 689.237 25.6611 690.623C33.8078 691.383 39.8616 680.81 44.0882 675.063C47.9949 668.797 51.3012 662.143 53.9679 655.25C54.7412 653.676 54.8349 651.597 56.2216 650.423C56.2616 653.637 56.1678 656.85 55.9278 660.05Z" fill="#473025"/>
<path d="M60.7413 634.663C60.4479 636.05 59.608 637.223 58.648 636.863C58.3014 636.73 57.9544 636.423 57.5944 635.877C56.8077 634.357 56.9148 631.063 59.2215 631.183C60.7681 631.29 61.0879 633.103 60.7413 634.663Z" fill="#473025"/>
<path d="M44.7279 628.17C47.2746 629.117 44.8748 633.89 42.6748 633.343C40.7014 632.077 42.2079 627.317 44.7279 628.17Z" fill="#473025"/>
<path d="M19.4081 678.677C21.3148 679.37 21.1681 680.583 19.8081 681.317C19.5281 681.477 19.1814 681.623 18.8081 681.717C18.9148 680.69 19.1281 679.677 19.4081 678.677Z" fill="#473025"/>
<path d="M19.4081 678.677C19.1281 679.677 18.9147 680.69 18.8081 681.717C17.3814 682.13 15.3416 682.13 13.0883 681.277C12.6349 681.117 12.1812 680.903 11.7279 680.663C4.94119 677.143 6.66119 667.583 9.86119 662.063C10.3412 661.343 10.8347 660.65 11.3414 659.957C13.1147 659.69 14.5282 658.917 14.7148 657.197C14.5815 656.823 14.3413 656.57 14.0346 656.397C19.3146 649.703 25.2745 643.463 29.3279 635.917C30.1545 634.65 32.3282 635.183 32.5148 636.677C32.6882 637.317 32.1947 638.063 31.8747 638.517C29.9147 641.597 28.0612 644.77 25.8612 647.69C21.3812 653.65 15.6215 658.73 12.1148 665.383C9.28816 671.49 10.0215 679.317 18.5148 678.423C18.8615 678.49 19.1414 678.57 19.4081 678.677Z" fill="#473025"/>
<path d="M46.7818 584.21C51.1285 583.09 51.7682 588.09 47.1948 587.73C43.1682 587.757 41.0216 590.237 39.3683 592.397C39.9949 591.49 40.6618 590.61 41.3818 589.743C40.5685 589.743 39.7548 589.703 38.9282 589.663C38.3548 589.637 37.7952 589.53 37.2219 589.41C37.2086 589.41 37.1816 589.41 37.1683 589.41C36.3016 590.53 35.5017 591.69 34.7417 592.877C35.2084 591.703 36.2617 590.557 36.875 589.61C37.5017 588.81 38.1952 588.077 38.9552 587.423C39.1819 587.597 39.4217 587.73 39.675 587.823C39.7817 587.863 39.8882 587.903 39.9948 587.93C41.1148 588.29 42.675 587.57 42.075 586.223C41.9284 586.023 41.7948 585.823 41.6615 585.623C43.2482 584.81 44.9818 584.317 46.7818 584.21Z" fill="#473025"/>
<path d="M33.4748 623.357C35.9548 624.317 33.848 628.623 31.6347 628.103C29.7547 626.877 31.0081 622.503 33.4748 623.357Z" fill="#473025"/>
<path d="M42.0749 586.223C42.6749 587.57 41.1147 588.29 39.9947 587.93C39.888 587.903 39.7815 587.863 39.6749 587.823C39.4215 587.73 39.1817 587.597 38.9551 587.423C39.7951 586.717 40.7013 586.117 41.6613 585.623C41.7947 585.823 41.9282 586.023 42.0749 586.223Z" fill="#473025"/>
<path d="M41.3821 589.743C40.6621 590.61 39.9952 591.49 39.3685 592.397C39.3552 592.41 39.3287 592.436 39.3154 592.45C37.8621 594.37 36.7953 595.996 35.142 595.37C35.0886 595.356 35.0219 595.33 34.9685 595.303C34.3952 594.503 34.4353 593.69 34.742 592.876C35.502 591.69 36.3019 590.53 37.1685 589.41C37.1819 589.41 37.2088 589.41 37.2222 589.41C37.7955 589.53 38.3551 589.637 38.9284 589.663C39.7551 589.703 40.5687 589.743 41.3821 589.743Z" fill="#473025"/>
<path d="M14.7152 657.197C14.5286 658.917 13.1151 659.69 11.3418 659.957C12.2085 658.743 13.1017 657.57 14.035 656.397C14.3417 656.57 14.5819 656.823 14.7152 657.197Z" fill="#473025"/>
<path d="M11.6487 656.197C12.3553 656.05 13.3418 656.023 14.0351 656.397C13.1018 657.57 12.2086 658.743 11.3419 659.957C9.03524 660.277 6.16837 659.73 4.6617 659.223C4.64837 659.223 4.64868 659.223 4.64868 659.21C-0.577986 657.237 -0.778194 650.663 1.03514 646.183C4.90181 636.943 15.022 632.33 19.7153 623.583C25.942 613.983 28.6619 602.49 34.7419 592.877C34.4352 593.69 34.3951 594.503 34.9685 595.303C35.0218 595.33 35.0886 595.357 35.1419 595.37C36.7952 595.997 37.862 594.37 39.3153 592.45C31.2353 603.983 28.5821 618.863 19.5555 629.93C15.5821 635.477 9.54181 639.117 5.70181 644.73C1.80847 650.81 2.83535 658.223 11.6487 656.197Z" fill="#473025"/>
<path d="M499.822 726.81C511.356 741.41 494.222 767.423 488.889 782.583C482.996 795.17 476.488 807.543 468.862 819.17C463.848 827.236 458.876 835.477 452.089 842.223C438.142 855.97 413.729 862.743 394.702 865.663C384.262 867.183 351.795 868.17 350.675 853.957C350.249 851.797 352.262 844.916 355.035 843.743C355.275 845.236 355.596 846.717 355.956 848.197C352.262 853.957 355.582 859.21 362.689 860.263C383.649 866.143 405.969 861.183 425.809 853.57C440.822 848.93 452.862 838.37 460.809 824.983C476.902 800.423 490.475 773.876 499.249 745.81C500.169 741.81 500.515 737.57 499.302 733.583C498.515 730.263 494.688 725.556 491.795 729.57C491.168 728.61 490.276 727.623 489.222 726.663C491.729 723.81 497.369 723.343 499.822 726.81Z" fill="#473025"/>
<path d="M499.301 733.583C500.514 737.57 500.168 741.81 499.248 745.81C490.474 773.876 476.901 800.423 460.808 824.983C452.861 838.37 440.821 848.93 425.808 853.57C405.968 861.183 383.648 866.143 362.688 860.263C355.581 859.21 352.261 853.957 355.954 848.197C356.234 849.317 356.541 850.436 356.901 851.543C357.221 852.503 358.381 852.956 359.301 852.61C359.367 852.676 359.461 852.757 359.554 852.837C374.728 857.237 391.021 852.277 406.194 849.623C417.381 847.53 428.074 842.503 436.954 835.41C443.688 828.623 448.901 820.463 454.554 812.783C466.728 796.263 477.741 778.73 484.221 759.13C486.981 750.823 489.594 742.423 491.927 733.983C491.981 733.65 491.968 733.357 491.888 733.103C491.994 732.81 492.061 732.477 492.074 732.09C492.354 731.797 492.541 731.396 492.527 730.943C492.354 730.503 492.101 730.037 491.794 729.57C494.687 725.557 498.514 730.263 499.301 733.583Z" fill="#EDE7CB"/>
<path d="M491.794 729.57C492.101 730.037 492.354 730.503 492.528 730.943C492.541 731.397 492.355 731.797 492.075 732.09C492.115 731.423 491.994 730.637 491.661 729.77C491.701 729.703 491.754 729.637 491.794 729.57Z" fill="#473025"/>
<path d="M491.795 729.57C491.755 729.637 491.702 729.703 491.662 729.77C491.995 730.637 492.116 731.423 492.076 732.09C491.929 732.263 491.756 732.397 491.556 732.503C490.996 731.877 489.956 731.703 489.182 732.063C488.822 731.677 488.463 731.303 488.089 730.943C488.089 730.93 488.089 730.917 488.089 730.903C487.756 729.197 488.249 727.743 489.223 726.663C490.276 727.623 491.169 728.61 491.795 729.57Z" fill="#473025"/>
<path d="M492.075 732.09C492.062 732.477 491.996 732.81 491.889 733.103C491.822 732.863 491.702 732.677 491.556 732.503C491.756 732.397 491.929 732.263 492.075 732.09Z" fill="#473025"/>
<path d="M491.889 733.103C491.969 733.357 491.982 733.65 491.928 733.983C489.595 742.423 486.982 750.823 484.222 759.13C477.742 778.73 466.729 796.263 454.555 812.783C448.902 820.463 443.689 828.623 436.955 835.41C428.075 842.503 417.382 847.53 406.195 849.623C391.022 852.277 374.729 857.237 359.555 852.837C359.462 852.757 359.368 852.677 359.302 852.61C359.302 852.597 359.315 852.597 359.328 852.597C360.368 852.197 360.742 850.997 360.315 849.997C360.315 849.957 360.302 849.943 360.289 849.903C360.302 849.903 360.315 849.903 360.328 849.89C370.128 851.077 380.062 850.97 389.809 848.983C399.795 846.877 410.355 845.917 419.675 841.517C424.609 839.077 429.622 836.543 433.928 833.09C440.822 826.317 446.035 817.997 451.755 810.263C465.009 792.477 476.515 773.103 482.742 751.717C484.409 745.557 486.635 739.557 488.222 733.37C488.275 733.09 488.355 732.85 488.489 732.663C489.409 735.157 491.289 734.85 491.889 733.103Z" fill="#473025"/>
<path d="M491.555 732.503C491.702 732.677 491.822 732.863 491.888 733.103C491.288 734.85 489.408 735.157 488.488 732.663C488.662 732.383 488.902 732.183 489.182 732.063C489.235 732.103 489.275 732.143 489.315 732.183C489.888 732.863 490.835 732.89 491.555 732.503Z" fill="#473025"/>
<path d="M491.555 732.503C490.835 732.89 489.888 732.863 489.315 732.183C489.275 732.143 489.235 732.103 489.182 732.063C489.955 731.703 490.995 731.877 491.555 732.503Z" fill="#473025"/>
<path d="M488.089 730.943C488.462 731.303 488.822 731.677 489.182 732.063C488.902 732.183 488.662 732.383 488.489 732.663C488.329 732.183 488.182 731.623 488.089 730.943Z" fill="#473025"/>
<path d="M463.515 715.957C458.982 714.383 454.622 713.21 449.955 712.61C449.035 712.703 447.808 712.437 446.861 711.997C447.275 710.93 447.648 709.823 447.982 708.717C450.328 708.677 452.728 709.263 455.035 709.677C462.141 711.21 469.035 713.69 475.382 717.197C478.782 719.263 485.195 722.917 489.222 726.663C488.248 727.743 487.755 729.197 488.088 730.903C488.088 730.917 488.088 730.93 488.088 730.943C481.288 724.197 472.541 719.383 463.635 715.997C463.621 715.997 463.608 715.983 463.595 715.983C463.581 715.97 463.568 715.97 463.568 715.97C463.555 715.97 463.555 715.97 463.542 715.957H463.528H463.515Z" fill="#473025"/>
<path d="M488.089 730.943C488.182 731.623 488.329 732.183 488.489 732.663C488.355 732.85 488.275 733.09 488.222 733.37C486.635 739.557 484.408 745.557 482.742 751.717C476.515 773.103 465.009 792.477 451.755 810.263C446.035 817.997 440.821 826.317 433.928 833.09C429.621 836.543 424.608 839.077 419.675 841.517C410.355 845.917 399.795 846.877 389.808 848.983C380.062 850.97 370.128 851.077 360.328 849.89C360.315 849.903 360.302 849.903 360.289 849.903C359.622 847.703 359.168 845.423 358.768 843.157C357.888 837.97 357.528 832.69 358.115 827.463C359.755 811.757 365.715 795.317 378.689 785.463C383.995 780.877 390.475 778.237 397.315 777.143C403.728 776.077 410.448 776.37 416.795 777.663C421.168 778.65 425.848 779.117 429.635 781.703C431.462 782.757 432.995 785.663 435.408 784.73C437.648 781.85 431.768 778.663 429.661 777.37C426.661 775.823 423.302 775.17 420.008 774.53C413.115 772.877 405.715 772.29 398.568 773.183C398.622 771.863 398.235 770.33 398.315 769.183C398.248 766.623 398.342 764.063 398.582 761.517C398.448 759.97 399.688 757.783 399.208 756.33C407.768 753.583 415.635 748.437 422.061 742.25C423.341 741.117 425.222 739.597 424.408 737.69C422.755 736.063 420.742 738.397 419.515 739.503C416.715 742.117 413.875 744.703 410.608 746.73C406.168 749.21 401.582 751.93 396.635 753.263C394.995 753.717 393.315 754.01 391.595 754.09C374.368 753.917 372.675 736.33 378.835 723.717C386.342 708.49 397.688 694.143 413.102 686.397C431.435 677.81 450.675 682.677 444.755 706.437C443.969 710.037 442.168 713.29 440.408 716.503C439.142 718.57 442.341 720.543 443.595 718.45C444.835 716.53 445.941 714.343 446.861 711.997C447.808 712.437 449.035 712.703 449.955 712.61C454.622 713.21 458.982 714.383 463.515 715.957H463.528C463.528 715.957 463.528 715.957 463.542 715.957C463.555 715.97 463.555 715.97 463.568 715.97C463.568 715.97 463.581 715.97 463.595 715.983C463.608 715.983 463.622 715.997 463.635 715.997C472.542 719.383 481.289 724.197 488.089 730.943Z" fill="#EDE7CB"/>
<path d="M437.581 679.97C449.834 684.13 451.288 697.437 447.981 708.717C447.688 708.717 447.407 708.717 447.127 708.757C444.341 709.863 445.207 711.21 446.861 711.997C445.941 714.343 444.834 716.53 443.594 718.45C442.341 720.543 439.141 718.57 440.408 716.503C442.168 713.29 443.968 710.037 444.754 706.437C450.674 682.677 431.434 677.81 413.101 686.397C397.687 694.143 386.341 708.49 378.834 723.717C372.674 736.33 374.367 753.917 391.594 754.09C393.314 754.01 394.994 753.717 396.634 753.263L397.127 755.157C396.261 755.37 395.728 756.223 395.381 757.383C395.248 757.41 395.114 757.437 394.981 757.463C376.728 760.29 367.848 743.823 373.341 727.783C381.621 703.783 409.594 672.223 437.581 679.97Z" fill="#473025"/>
<path d="M447.128 708.757C447.408 708.717 447.688 708.717 447.982 708.717C447.648 709.823 447.275 710.93 446.861 711.997C445.208 711.21 444.341 709.863 447.128 708.757Z" fill="#473025"/>
<path d="M424.408 737.69C425.222 739.597 423.341 741.117 422.061 742.25C415.635 748.437 407.768 753.583 399.208 756.33C399.048 755.837 398.688 755.437 398.035 755.17C397.701 755.09 397.395 755.09 397.128 755.157L396.635 753.263C401.581 751.93 406.168 749.21 410.608 746.73C413.875 744.703 416.715 742.117 419.515 739.503C420.742 738.397 422.755 736.063 424.408 737.69Z" fill="#473025"/>
<path d="M429.662 777.37C431.768 778.663 437.649 781.85 435.409 784.73C432.995 785.663 431.462 782.757 429.635 781.703C425.849 779.117 421.168 778.65 416.795 777.663C410.448 776.37 403.729 776.077 397.315 777.143L397.089 775.677C398.196 775.197 398.529 774.263 398.569 773.183C405.715 772.29 413.115 772.877 420.009 774.53C423.302 775.17 426.662 775.823 429.662 777.37Z" fill="#473025"/>
<path d="M399.208 756.33C399.688 757.783 398.448 759.97 398.582 761.516C398.342 764.063 398.248 766.623 398.315 769.183C398.235 770.33 398.621 771.863 398.568 773.183C397.368 773.33 396.182 773.53 395.008 773.757C394.182 771.477 394.782 767.77 394.555 765.903C394.808 764.33 394.582 760.05 395.382 757.383C396.662 757.076 397.955 756.73 399.208 756.33Z" fill="#473025"/>
<path d="M398.035 755.17C398.688 755.437 399.048 755.837 399.208 756.33C397.955 756.73 396.662 757.077 395.382 757.383C395.729 756.223 396.262 755.37 397.128 755.157C397.395 755.09 397.702 755.09 398.035 755.17Z" fill="#473025"/>
<path d="M398.569 773.183C398.529 774.263 398.196 775.197 397.089 775.677C395.996 775.503 395.355 774.77 395.009 773.757C396.182 773.53 397.369 773.33 398.569 773.183Z" fill="#473025"/>
<path d="M397.089 775.677L397.315 777.143C390.475 778.237 383.995 780.877 378.689 785.463C365.715 795.317 359.755 811.757 358.115 827.463C357.528 832.69 357.888 837.97 358.768 843.157C359.168 845.423 359.622 847.703 360.289 849.903C358.675 850.223 358.248 851.557 359.302 852.61C358.382 852.957 357.222 852.503 356.902 851.543C356.542 850.437 356.235 849.317 355.955 848.197C356.222 847.77 356.542 847.33 356.889 846.903C357.809 846.25 357.942 844.85 357.155 844.05C356.422 843.517 355.702 843.463 355.035 843.743C352.302 827.77 356.021 810.957 363.728 796.77C367.928 789.45 374.462 783.477 381.422 778.85C385.635 776.357 390.235 774.703 395.008 773.757C395.355 774.77 395.995 775.503 397.089 775.677Z" fill="#473025"/>
<path d="M360.315 849.997C360.742 850.997 360.368 852.197 359.328 852.597C359.315 852.597 359.302 852.597 359.302 852.61C358.248 851.557 358.675 850.223 360.289 849.903C360.302 849.943 360.315 849.957 360.315 849.997Z" fill="#473025"/>
<path d="M357.154 844.05C357.941 844.85 357.808 846.25 356.888 846.903C356.541 847.33 356.221 847.77 355.954 848.197C355.594 846.717 355.274 845.236 355.034 843.743C355.701 843.463 356.421 843.516 357.154 844.05Z" fill="#473025"/>
<path d="M397.382 732.823C385.782 732.823 369.742 731.717 354.689 723.17C333.329 711.063 320.142 687.81 315.475 654.037C305.169 579.477 339.356 510.783 340.822 507.89C344.796 500.05 354.369 496.903 362.222 500.877C370.062 504.837 373.209 514.423 369.235 522.263C368.942 522.863 338.116 585.197 347.022 649.677C354.236 701.863 381.222 701.33 402.916 700.903C404.396 700.863 405.782 700.837 407.075 700.837C407.102 700.837 407.129 700.837 407.156 700.837C415.916 700.837 423.035 707.916 423.075 716.676C423.129 725.476 416.035 732.636 407.235 732.676C406.089 732.69 404.849 732.716 403.542 732.743C401.675 732.77 399.609 732.823 397.382 732.823Z" fill="#473025"/>
<path d="M278.942 802.13C285.048 807.81 279.449 815.757 275.555 820.983C272.075 826.05 267.955 831.13 263.462 835.197C252.115 847.783 237.275 856.117 221.422 861.717C204.102 868.037 185.742 872.21 167.208 870.65C149.688 870.343 132.795 865.303 116.235 860.01C106.848 856.023 89.0749 846.663 89.3949 835.09C89.7149 830.477 93.3551 825.343 98.2751 825.183C98.5418 825.157 98.8484 825.183 99.1418 825.277C98.8351 826.517 98.5951 827.69 98.4751 828.717C98.3684 828.717 98.262 828.703 98.1553 828.703C95.302 829.09 93.4086 832.157 92.9553 834.81C92.1553 845.383 114.022 856.197 122.875 858.477C138.422 863.183 153.995 867.29 170.328 867.263C192.608 868.463 214.702 861.677 234.662 852.223C243.208 848.33 250.835 842.903 257.289 836.37C264.489 829.69 270.862 822.41 276.008 814.05C279.288 809.663 278.862 803.13 272.208 803.077C272.115 803.077 272.035 803.077 271.955 803.063C271.929 801.957 271.808 800.757 271.675 799.637C273.782 798.877 277.688 800.783 278.942 802.13Z" fill="#473025"/>
<path d="M272.208 803.077C278.861 803.13 279.288 809.663 276.008 814.05C270.861 822.41 264.488 829.69 257.288 836.37C250.835 842.903 243.208 848.33 234.661 852.223C214.701 861.677 192.608 868.463 170.328 867.263C153.995 867.29 138.421 863.183 122.875 858.477C114.021 856.197 92.155 845.383 92.955 834.81C93.4083 832.157 95.3016 829.09 98.155 828.703C98.2616 828.703 98.3681 828.717 98.4748 828.717C98.1948 831.13 98.5148 832.85 99.8081 833.237C99.8214 833.237 99.8479 833.237 99.8612 833.237C107.888 845.877 122.275 853.383 136.768 855.903C147.475 858.063 158.328 859.637 169.275 859.703C206.088 861.01 247.848 845.197 267.968 813.13C268.821 811.61 269.555 810.037 270.315 808.49C270.328 808.477 270.328 808.463 270.328 808.463C271.488 807.837 272.315 806.13 271.875 804.983C271.955 804.397 271.968 803.743 271.955 803.063C272.035 803.077 272.115 803.077 272.208 803.077Z" fill="#EDE7CB"/>
<path d="M271.955 803.063C271.968 803.743 271.955 804.397 271.875 804.983C271.715 804.583 271.435 804.263 270.955 804.05C269.635 803.53 268.635 804.57 268.275 805.85C268.021 804.423 268.608 802.437 268.261 801.21C267.955 797.09 267.341 792.997 266.541 788.983C264.675 778.957 259.622 769.957 254.288 761.397C254.048 761.117 253.848 760.717 253.715 760.277C254.848 759.637 255.822 759.037 256.515 758.583C258.382 760.383 259.381 763.583 260.928 765.583C266.421 774.77 270.088 784.957 271.208 795.623C271.221 796.41 271.461 797.93 271.675 799.637C270.968 799.89 270.461 800.45 270.328 801.437C270.395 802.317 271.102 802.983 271.955 803.063Z" fill="#473025"/>
<path d="M271.875 804.983C272.315 806.13 271.488 807.837 270.328 808.463C270.488 808.09 270.528 807.757 270.448 807.45C271.302 807.197 271.715 806.25 271.875 804.983Z" fill="#473025"/>
<path d="M271.675 799.637C271.808 800.757 271.929 801.957 271.955 803.063C271.102 802.983 270.395 802.317 270.328 801.437C270.461 800.45 270.968 799.89 271.675 799.637Z" fill="#473025"/>
<path d="M270.955 804.05C271.435 804.263 271.714 804.583 271.874 804.983C271.714 806.25 271.301 807.197 270.448 807.45C270.261 806.543 269.234 805.97 268.328 806.103C268.301 806.01 268.288 805.93 268.274 805.85C268.634 804.57 269.635 803.53 270.955 804.05Z" fill="#473025"/>
<path d="M270.448 807.45C270.528 807.756 270.488 808.09 270.328 808.463C269.834 808.73 269.288 808.81 268.741 808.57C268.155 808.01 268.008 807.037 268.194 806.13C268.248 806.117 268.288 806.103 268.328 806.103C268.501 806.77 268.914 807.29 269.768 807.503C270.021 807.53 270.248 807.516 270.448 807.45Z" fill="#473025"/>
<path d="M270.328 808.463C270.328 808.463 270.328 808.477 270.315 808.49C269.555 810.037 268.821 811.61 267.968 813.13C247.848 845.197 206.088 861.01 169.275 859.703C158.328 859.637 147.475 858.063 136.768 855.903C122.275 853.383 107.888 845.877 99.8613 833.237C101.448 833.21 101.862 831.997 102.008 830.583C102.408 830.863 102.768 831.29 103.061 831.85C110.448 842.65 122.608 849.503 135.301 851.997C168.555 859.677 205.088 857.663 234.835 839.81C244.915 834.223 253.141 826.103 260.861 817.663C263.475 814.517 265.275 810.77 267.075 807.117C267.302 806.543 267.728 806.237 268.195 806.13C268.008 807.037 268.155 808.01 268.742 808.57C269.288 808.81 269.835 808.73 270.328 808.463Z" fill="#473025"/>
<path d="M270.448 807.45C270.248 807.517 270.022 807.53 269.768 807.503C268.915 807.29 268.501 806.77 268.328 806.103C269.235 805.97 270.262 806.543 270.448 807.45Z" fill="#473025"/>
<path d="M268.328 806.103C268.288 806.103 268.248 806.117 268.194 806.13C268.221 806.037 268.248 805.943 268.275 805.85C268.288 805.93 268.301 806.01 268.328 806.103Z" fill="#473025"/>
<path d="M268.262 801.21C268.609 802.437 268.022 804.423 268.275 805.85C268.249 805.943 268.222 806.037 268.195 806.13C267.729 806.237 267.302 806.543 267.075 807.117C265.275 810.77 263.475 814.517 260.862 817.663C253.142 826.103 244.915 834.223 234.835 839.81C205.089 857.663 168.555 859.677 135.302 851.997C122.609 849.503 110.449 842.65 103.062 831.85C102.769 831.29 102.409 830.863 102.009 830.583C102.169 829.317 102.142 827.903 102.569 826.97C104.355 818.223 108.436 809.97 113.422 802.557C126.289 783.33 152.449 768.103 174.782 777.077C177.422 778.13 180.022 779.543 182.529 781.317C186.702 784.277 190.942 787.277 194.329 791.13C196.422 792.77 197.235 796.77 200.142 796.877C204.449 792.89 189.155 781.757 185.902 779.37C183.195 777.33 180.409 775.69 177.556 774.41C177.862 773.517 178.009 772.477 178.289 771.743C180.396 766.117 183.209 760.677 187.142 756.05C187.355 755.903 187.515 755.73 187.635 755.557C189.142 756.49 190.969 757.21 193.116 757.637C194.996 757.93 202.675 761.757 201.902 757.637C200.035 754.797 193.262 754.73 190.142 752.89C182.169 748.89 184.875 738.197 189.702 732.703C193.702 728.397 199.142 725.69 204.489 723.437C222.609 716.13 253.382 715.037 261.822 736.677C266.302 747.997 255.822 756.65 246.142 760.023C244.275 761.157 239.956 760.143 240.022 763.077C241.129 766.583 248.849 763.037 253.716 760.277C253.849 760.717 254.049 761.117 254.289 761.397C259.622 769.957 264.675 778.957 266.542 788.983C267.342 792.997 267.955 797.09 268.262 801.21Z" fill="#EDE7CB"/>
<path d="M246.141 760.023C255.821 756.65 266.302 747.996 261.822 736.676C253.382 715.036 222.608 716.13 204.488 723.436C199.142 725.69 193.701 728.396 189.701 732.703C184.875 738.196 182.168 748.89 190.141 752.89C193.261 754.73 200.035 754.796 201.901 757.636C202.675 761.756 194.995 757.93 193.115 757.636C190.968 757.21 189.141 756.49 187.635 755.557C188.741 753.93 186.715 751.65 184.968 753.223C184.941 753.25 184.928 753.277 184.901 753.29C179.808 747.703 180.848 738.356 186.222 731.41C195.595 720.823 212.808 715.396 226.688 715.41C237.262 715.09 248.742 716.596 256.915 723.876C268.195 732.97 270.288 749.517 257.288 758.063C257.088 758.21 256.835 758.383 256.515 758.583C256.128 758.196 255.688 757.876 255.195 757.636C253.568 757.25 253.328 758.943 253.715 760.276C248.848 763.036 241.128 766.583 240.022 763.076C239.955 760.143 244.275 761.157 246.141 760.023Z" fill="#473025"/>
<path d="M255.195 757.637C255.688 757.877 256.128 758.197 256.515 758.583C255.822 759.037 254.848 759.637 253.715 760.277C253.328 758.943 253.568 757.25 255.195 757.637Z" fill="#473025"/>
<path d="M185.902 779.37C189.155 781.757 204.449 792.89 200.142 796.877C197.235 796.77 196.422 792.77 194.329 791.13C190.942 787.277 186.702 784.277 182.529 781.317C180.022 779.543 177.422 778.13 174.782 777.077L175.156 776.157C175.249 776.223 175.356 776.277 175.449 776.33C176.662 776.29 177.209 775.437 177.556 774.41C180.409 775.69 183.195 777.33 185.902 779.37Z" fill="#473025"/>
<path d="M184.968 753.223C186.715 751.65 188.741 753.93 187.635 755.557C186.581 754.903 185.661 754.143 184.901 753.29C184.928 753.277 184.941 753.25 184.968 753.223Z" fill="#473025"/>
<path d="M187.635 755.557C187.515 755.73 187.355 755.903 187.142 756.05C183.209 760.677 180.395 766.117 178.289 771.743C178.009 772.477 177.862 773.517 177.555 774.41C176.475 773.93 175.395 773.503 174.302 773.13C174.942 767.21 182.555 755.663 184.902 753.29C185.662 754.143 186.582 754.903 187.635 755.557Z" fill="#473025"/>
<path d="M177.555 774.41C177.209 775.437 176.662 776.29 175.448 776.33C175.355 776.277 175.249 776.223 175.155 776.157C174.395 775.57 174.155 774.503 174.302 773.13C175.395 773.503 176.475 773.93 177.555 774.41Z" fill="#473025"/>
<path d="M175.156 776.157L174.782 777.077C152.449 768.103 126.289 783.33 113.422 802.557C108.436 809.97 104.355 818.223 102.569 826.97C102.142 827.903 102.169 829.317 102.009 830.583C100.569 829.503 98.7958 830.277 99.6224 832.863C99.7024 832.997 99.782 833.117 99.862 833.237C99.8487 833.237 99.8222 833.237 99.8089 833.237C98.5155 832.85 98.1955 831.13 98.4755 828.717C99.2889 828.743 100.155 828.583 100.795 828.103C101.662 826.917 100.396 825.65 99.1422 825.277C100.969 818.077 105.542 808.317 106.995 806.25C119.569 783.117 148.822 764.303 174.302 773.13C174.155 774.503 174.396 775.57 175.156 776.157Z" fill="#473025"/>
<path d="M102.008 830.583C101.862 831.997 101.448 833.21 99.8616 833.237C99.7816 833.117 99.702 832.997 99.622 832.863C98.7953 830.277 100.568 829.503 102.008 830.583Z" fill="#473025"/>
<path d="M99.1423 825.277C100.396 825.65 101.662 826.917 100.795 828.103C100.155 828.583 99.2889 828.743 98.4756 828.717C98.5956 827.69 98.8356 826.517 99.1423 825.277Z" fill="#473025"/>
<path d="M223.008 748.383C215.515 748.383 208.848 743.077 207.382 735.45C205.675 726.503 201.128 702.73 207.595 666.69C215.048 625.223 234.648 579.25 265.861 530.037C270.568 522.61 280.408 520.41 287.835 525.117C295.262 529.823 297.462 539.663 292.755 547.09C247.395 618.61 229.195 679.97 238.661 729.463C240.315 738.09 234.648 746.437 226.022 748.09C225.008 748.29 223.995 748.383 223.008 748.383Z" fill="#473025"/>
<path d="M530.582 386.277C533.435 383.61 535.289 387.663 533.049 389.73C531.955 390.677 529.982 391.357 528.875 390.077L528.915 390.103C527.489 388.743 528.542 386.063 530.582 386.277Z" fill="#473025"/>
<path d="M496.809 126.81C513.889 119.21 527.782 104.703 537.529 89.0234C545.475 76.4501 549.489 61.97 556.369 48.9034C560.582 41.01 566.182 33.9967 571.316 26.7167C546.076 9.46333 514.022 4.61007 483.942 4.39674C460.756 3.41007 437.396 9.39666 417.689 21.7167C397.543 35.8633 382.329 60.3034 383.742 85.4634C384.262 92.3567 385.622 99.1833 388.116 105.65C388.342 106.517 388.889 107.437 389.395 108.37C388.569 109.61 387.756 110.877 386.982 112.143C382.449 107.21 380.796 95.1967 379.809 89.0634C376.342 58.6634 396.649 27.0234 423.449 13.57C443.329 3.13004 465.409 -0.950008 487.689 0.183325C508.023 0.529992 528.662 3.13007 547.782 10.2634C557.076 14.0634 567.129 17.3834 574.769 24.0767C578.449 27.4633 571.836 32.2767 570.276 35.3967C560.969 47.0634 555.156 60.8233 549.702 74.5833C541.196 95.1033 526.836 113.063 508.449 125.543C498.889 131.25 488.222 135.063 477.649 138.423C462.436 142.77 446.489 140.65 430.982 139.543C419.916 138.61 409.169 135.077 399.569 129.517C394.596 127.357 391.742 122.823 388.676 118.597C388.569 118.463 388.462 118.33 388.342 118.183C389.089 116.823 389.876 115.477 390.689 114.157C393.289 117.13 395.036 120.997 398.076 123.61C414.356 135.143 434.622 136.037 453.862 136.81C468.915 137.743 483.222 132.743 496.809 126.81Z" fill="#473025"/>
<path d="M535.128 239.17C506.035 211.41 468.235 193.29 429.008 185.21C414.048 182.783 399.288 178.063 384.115 177.53C382.315 177.157 379.582 178.183 377.489 178.09C377.849 176.597 378.182 175.103 378.502 173.597C385.515 172.943 392.582 173.703 399.502 174.957C429.848 180.623 460.368 186.877 488.075 201.063C512.008 213.823 535.275 229.49 551.461 251.637C575.608 283.49 593.235 321.21 598.182 361.09C604.542 401.383 597.061 443.623 580.995 480.85C559.475 521.557 527.861 558.57 486.395 579.743C443.675 599.583 395.169 599.023 349.155 596.063C324.689 592.463 299.782 591.077 275.715 585.303C234.302 574.583 194.088 558.37 160.635 531.237C129.515 505.263 109.795 457.477 107.022 417.543C102.515 376.663 109.849 335.797 125.489 297.943C144.809 246.583 183.035 196.21 239.182 184.143C258.822 180.29 278.422 175.637 298.275 173.143C312.355 172.263 326.542 171.183 340.662 171.597C341.395 171.57 342.048 171.663 342.608 171.823C342.315 173.117 342.008 174.49 341.675 175.93C341.475 175.93 341.262 175.917 341.049 175.89C314.849 175.117 288.702 177.637 263.208 183.783C226.542 188.703 195.115 201.69 170.875 230.397C149.115 253.197 135.049 282.357 124.982 311.943C112.489 343.53 108.102 377.663 110.808 411.423C112.315 449.157 127.075 486.29 150.595 515.703C163.382 530.41 180.595 540.53 196.968 550.743C210.942 559.29 226.342 564.69 241.649 570.17C266.915 580.45 293.782 585.25 320.742 588.25C376.275 595.41 441.049 599.37 491.822 572.13C532.915 547.437 569.555 505.063 584.635 459.33C611.248 383.197 589.928 297.423 535.128 239.17Z" fill="#473025"/>
<path d="M444.595 542.277C445.368 544.503 442.515 546.77 440.795 544.81C438.275 542.237 443.288 539.063 444.595 542.277Z" fill="#473025"/>
<path d="M533.048 389.73C535.288 387.663 533.434 383.61 530.581 386.277C528.541 386.063 527.488 388.743 528.914 390.103L528.874 390.077C529.981 391.357 531.954 390.677 533.048 389.73ZM152.608 419.05C155.328 420.01 157.088 415.09 154.328 414.13C151.634 413.117 149.688 418.277 152.608 419.05ZM154.688 499.703C156.288 502.237 159.768 499.063 158.274 496.957C158.261 496.93 158.221 496.89 158.208 496.863C156.461 494.517 153.021 497.397 154.688 499.703ZM187.208 388.73C189.581 394.09 195.221 385.637 189.341 385.343C187.621 384.93 186.781 387.383 187.208 388.73ZM200.474 283.583C204.034 285.357 205.288 280.21 202.621 278.41C199.955 277.717 198.194 282.063 200.474 283.583ZM199.048 523.09C200.461 525.437 204.728 523.797 203.448 521.09C202.968 519.663 201.234 519.05 200.034 519.997C198.501 519.943 198.355 522.117 199.048 523.09ZM208.808 509.29C211.821 510.877 213.141 505.29 209.834 505.09C209.461 505.037 209.128 505.077 208.834 505.183C208.741 505.183 208.648 505.197 208.541 505.21C207.554 505.37 207.194 506.343 207.368 507.197C207.328 508.063 207.768 508.943 208.808 509.29ZM238.315 443.103C239.608 445.077 242.874 443.357 242.408 441.197C241.341 437.61 236.541 440.023 238.315 443.103ZM266.434 251.023C268.968 253.143 271.954 248.61 269.341 246.877C266.954 245.25 264.448 249.29 266.434 251.023ZM264.914 271.89C266.768 274.117 270.621 270.437 268.314 268.45C266.061 266.61 263.888 269.69 264.914 271.89ZM271.408 537.983C274.181 539.69 275.861 535.29 274.341 533.383C271.474 530.557 268.794 536.103 271.408 537.983ZM322.128 562.703C322.688 566.09 327.888 564.037 326.021 561.143C324.808 559.17 321.234 560.237 322.128 562.703ZM337.074 547.77C339.421 548.49 341.008 545.583 339.955 543.65C338.928 541.277 335.141 542.37 335.741 544.97C335.341 546.063 335.928 547.41 337.074 547.77ZM440.794 544.81C442.514 546.77 445.368 544.503 444.594 542.277C443.288 539.063 438.274 542.237 440.794 544.81ZM341.048 175.89C341.261 175.917 341.474 175.93 341.674 175.93C339.128 186.93 335.488 201.21 335.381 208.29C333.261 206.77 331.861 204.597 331.888 201.49C331.621 199.997 329.994 199.903 329.034 200.823C325.488 206.237 331.101 211.29 336.541 213.677C337.981 214.317 339.408 214.757 340.661 214.97C349.288 216.583 358.434 215.637 366.434 211.997C367.728 211.41 368.981 210.757 370.208 210.023C373.061 208.343 376.154 206.423 377.514 203.263C378.288 201.557 378.741 198.557 376.194 198.303C375.021 198.223 374.048 199.13 373.928 200.277C373.208 202.717 371.128 204.757 368.381 206.397C369.514 202.863 370.781 199.37 372.008 195.863C373.474 191.703 374.888 187.53 376.114 183.277C376.608 181.557 377.061 179.823 377.488 178.09C379.581 178.183 382.315 177.157 384.115 177.53C399.288 178.063 414.048 182.783 429.008 185.21C468.234 193.29 506.034 211.41 535.128 239.17C589.928 297.423 611.248 383.197 584.634 459.33C569.554 505.063 532.915 547.437 491.821 572.13C441.048 599.37 376.274 595.41 320.741 588.25C293.781 585.25 266.915 580.45 241.648 570.17C226.341 564.69 210.941 559.29 196.968 550.743C180.594 540.53 163.381 530.41 150.594 515.703C127.074 486.29 112.314 449.157 110.808 411.423C108.101 377.663 112.488 343.53 124.981 311.943C135.048 282.357 149.114 253.197 170.874 230.397C195.114 201.69 226.541 188.703 263.208 183.783C288.701 177.637 314.848 175.117 341.048 175.89ZM301.874 496.903C305.754 492.97 297.381 491.45 299.434 496.397C299.954 497.197 301.101 497.557 301.874 496.903Z" fill="#E68A55"/>
<path d="M458.608 99.6633C459.355 101.437 457.182 102.09 455.822 101.717C446.528 97.5566 436.942 94.0233 426.875 92.61C420.928 91.7166 414.848 89.8099 408.808 90.7833C408.662 90.8099 408.501 90.8367 408.368 90.8234C409.728 89.3434 411.128 87.8767 412.555 86.4234C422.102 86.49 431.688 89.3433 440.942 91.3833C445.128 93.1033 456.782 95.9833 458.608 99.6633Z" fill="#473025"/>
<path d="M439.648 60.1701C439.715 59.6768 439.781 59.1967 439.861 58.7167C456.075 48.0634 473.809 39.7567 491.489 34.3434C495.502 33.3167 523.128 25.7301 522.675 31.0767C522.955 34.6501 515.222 33.2368 512.782 34.0901C503.248 35.3968 493.888 37.7834 484.808 40.9701C471.142 45.9701 457.862 52.3834 445.448 60.1701C443.742 60.1168 442.035 60.1168 440.328 60.1968C440.115 60.1834 439.875 60.1834 439.648 60.1701Z" fill="#473025"/>
<path d="M439.488 61.7966C439.408 63.29 438.074 63.8766 436.928 63.6499C436.674 63.3432 436.515 62.9433 436.488 62.5033C436.381 60.6099 438.101 60.1699 439.648 60.1699C439.581 60.7033 439.528 61.25 439.488 61.7966Z" fill="#473025"/>
<path d="M438.901 64.4633C441.061 62.9967 443.235 61.5566 445.448 60.17C455.248 60.53 464.955 63.1966 474.101 66.6099C477.901 67.3833 478.782 72.2233 473.888 71.0633C462.795 66.7833 450.875 63.7167 438.901 64.4633Z" fill="#473025"/>
<path d="M445.449 60.1701C443.236 61.5568 441.062 62.9968 438.902 64.4634C438.849 64.4768 438.796 64.4767 438.742 64.4767C438.022 64.5034 437.355 64.1834 436.929 63.65C438.075 63.8767 439.409 63.2901 439.489 61.7968C439.529 61.2501 439.582 60.7034 439.649 60.1701C439.876 60.1834 440.115 60.1834 440.329 60.1968C442.035 60.1168 443.742 60.1168 445.449 60.1701Z" fill="#473025"/>
<path d="M439.648 60.17C438.101 60.17 436.381 60.61 436.488 62.5033C436.514 62.9433 436.674 63.3432 436.927 63.6499C436.074 63.4899 435.314 62.8633 435.261 61.8366C436.781 60.77 438.314 59.7299 439.861 58.7166C439.781 59.1966 439.714 59.6766 439.648 60.17Z" fill="#473025"/>
<path d="M439.861 58.7166C438.314 59.73 436.781 60.77 435.261 61.8367C435.248 61.73 435.248 61.61 435.261 61.5033C435.754 55.1567 437.995 49.13 439.955 43.13C441.048 40.9834 443.661 27.4499 447.221 32.5166C447.915 34.1833 446.888 35.8234 446.408 37.3967C444.528 42.9567 442.381 48.9033 440.861 54.3833C440.448 55.8633 440.101 57.2766 439.861 58.7166Z" fill="#473025"/>
<path d="M435.262 61.8365C435.315 62.8632 436.075 63.4898 436.929 63.6498C437.355 64.1831 438.022 64.5032 438.742 64.4765C438.796 64.4765 438.849 64.4766 438.902 64.4632C429.435 70.9566 420.569 78.2766 412.556 86.4232C412.022 86.4232 411.502 86.4232 410.982 86.4365C411.116 85.2632 410.649 83.8098 410.476 82.4765C418.022 74.9432 426.382 68.0232 435.262 61.8365Z" fill="#473025"/>
<path d="M435.261 61.8366C426.381 68.0233 418.021 74.9433 410.475 82.4766C410.395 81.8899 410.381 81.3167 410.501 80.8233C410.955 71.3033 411.022 61.69 412.688 52.29C413.475 50.4234 412.008 46.5966 409.768 48.7832C407.061 53.2099 407.742 59.2099 407.088 64.2766C406.982 71.5699 405.461 79.0499 406.768 86.2766C401.701 91.6766 397.048 97.3566 392.901 103.303C391.701 104.957 390.528 106.663 389.395 108.37C388.888 107.437 388.342 106.517 388.115 105.65C385.622 99.1832 384.261 92.3567 383.741 85.4633C382.328 60.3033 397.542 35.8632 417.688 21.7166C437.395 9.39658 460.755 3.41 483.941 4.39666C514.021 4.61 546.075 9.46325 571.315 26.7166C566.181 33.9966 560.581 41.01 556.368 48.9033C549.488 61.97 545.475 76.45 537.528 89.0233C527.781 104.703 513.888 119.21 496.808 126.81C483.221 132.743 468.915 137.743 453.861 136.81C434.621 136.037 414.355 135.143 398.075 123.61C395.035 120.997 393.288 117.13 390.688 114.157C391.182 113.37 391.688 112.583 392.208 111.81C396.995 104.33 402.408 97.3433 408.368 90.8233C408.501 90.8367 408.661 90.8099 408.808 90.7832C414.848 89.8099 420.928 91.7166 426.875 92.6099C436.941 94.0233 446.528 97.5566 455.822 101.717C457.182 102.09 459.355 101.437 458.608 99.6633C456.781 95.9833 445.128 93.1032 440.941 91.3832C431.688 89.3432 422.102 86.49 412.555 86.4233C420.568 78.2767 429.435 70.9567 438.901 64.4633C450.875 63.7167 462.795 66.7833 473.888 71.0633C478.782 72.2233 477.901 67.3833 474.101 66.6099C464.955 63.1966 455.248 60.53 445.448 60.17C457.862 52.3833 471.141 45.97 484.808 40.97C493.888 37.7833 503.248 35.3967 512.782 34.09C515.222 33.2367 522.955 34.6499 522.675 31.0766C523.128 25.7299 495.502 33.3166 491.488 34.3433C473.808 39.7566 456.075 48.0632 439.861 58.7166C440.101 57.2766 440.448 55.8632 440.861 54.3832C442.381 48.9032 444.528 42.9567 446.408 37.3967C446.888 35.8233 447.915 34.1832 447.222 32.5166C443.662 27.4499 441.048 40.9833 439.955 43.13C437.995 49.13 435.755 55.1566 435.261 61.5033C435.248 61.61 435.248 61.73 435.261 61.8366Z" fill="#317048"/>
<path d="M410.982 86.4366C410.902 87.2499 410.542 87.9433 409.622 88.3699C408.582 88.7433 407.288 88.1832 406.941 87.1165C407.195 86.8765 407.541 86.7033 407.968 86.6233C408.968 86.53 409.968 86.4766 410.982 86.4366Z" fill="#473025"/>
<path d="M409.768 48.7833C412.008 46.5966 413.475 50.4234 412.689 52.29C411.022 61.69 410.955 71.3034 410.502 80.8234C410.382 81.3167 410.395 81.8899 410.475 82.4766C409.209 83.7299 407.982 84.9966 406.768 86.2766C405.462 79.0499 406.982 71.5699 407.089 64.2766C407.742 59.2099 407.062 53.2099 409.768 48.7833Z" fill="#473025"/>
<path d="M412.556 86.4235C411.129 87.8769 409.729 89.3435 408.369 90.8235C406.435 90.8502 405.675 88.2634 406.942 87.1168C407.289 88.1834 408.582 88.7435 409.622 88.3701C410.542 87.9435 410.902 87.2501 410.982 86.4368C411.502 86.4235 412.022 86.4235 412.556 86.4235Z" fill="#473025"/>
<path d="M406.928 87.0634C406.875 86.7968 406.822 86.5434 406.769 86.2767C407.982 84.9967 409.209 83.7301 410.475 82.4767C410.649 83.8101 411.115 85.2634 410.982 86.4368C409.969 86.4768 408.969 86.5301 407.969 86.6235C407.542 86.7035 407.195 86.8767 406.942 87.1167C406.929 87.1034 406.928 87.0768 406.928 87.0634Z" fill="#473025"/>
<path d="M406.941 87.1166C405.675 88.2633 406.435 90.8501 408.368 90.8234C402.408 97.3434 396.995 104.33 392.208 111.81C391.688 112.583 391.182 113.37 390.688 114.157C390.382 113.783 390.035 113.423 389.688 113.09C390.982 111.623 390.261 109.983 389.395 108.37C390.528 106.663 391.701 104.957 392.901 103.303C397.048 97.3567 401.701 91.6767 406.768 86.2767C406.821 86.5433 406.875 86.7967 406.928 87.0634C406.928 87.0767 406.928 87.1033 406.941 87.1166Z" fill="#473025"/>
<path d="M389.688 113.09C390.035 113.423 390.381 113.783 390.688 114.157C389.875 115.477 389.088 116.823 388.341 118.183C387.141 116.61 385.581 114.25 387.981 113.077L389.688 113.09Z" fill="#473025"/>
<path d="M389.394 108.37C390.261 109.983 390.982 111.623 389.688 113.09L387.981 113.077C387.635 112.797 387.301 112.49 386.981 112.143C387.755 110.877 388.568 109.61 389.394 108.37Z" fill="#473025"/>
<path d="M387.982 113.077C385.582 114.25 387.142 116.61 388.342 118.183C385.528 123.33 383.275 128.77 381.742 134.437C381.275 135.783 381.128 137.85 380.262 139.09C379.995 136.237 379.582 133.397 379.035 130.597C378.968 130.25 378.902 129.917 378.835 129.583C379.168 128.703 379.422 127.903 379.542 127.29C381.448 121.97 384.035 116.943 386.982 112.143C387.302 112.49 387.635 112.797 387.982 113.077Z" fill="#473025"/>
<path d="M380.542 157.343C380.422 159.49 380.236 161.637 380.022 163.783C379.796 166.037 379.502 168.29 379.102 170.53C378.915 171.557 378.715 172.583 378.502 173.597C377.795 173.663 377.102 173.743 376.409 173.837C375.515 173.97 374.875 174.757 374.742 175.623L373.782 175.397C374.436 172.517 374.996 169.623 375.422 166.717C376.129 161.277 376.449 155.797 376.475 150.303C376.475 146.17 376.315 142.05 375.875 137.93L376.809 137.823C376.915 138.837 377.316 139.65 378.182 140.143C379.169 140.157 379.822 139.743 380.262 139.09C380.422 140.65 380.529 142.197 380.582 143.757C380.769 148.277 380.782 152.823 380.542 157.343Z" fill="#473025"/>
<path d="M378.501 173.597C378.181 175.103 377.848 176.597 377.488 178.09C376.275 178.037 375.262 177.61 374.755 176.33C374.702 176.09 374.701 175.85 374.741 175.623C374.875 174.757 375.515 173.97 376.408 173.837C377.101 173.743 377.795 173.663 378.501 173.597Z" fill="#473025"/>
<path d="M379.035 130.597C379.581 133.397 379.995 136.237 380.261 139.09C379.821 139.743 379.168 140.157 378.182 140.143C377.315 139.65 376.915 138.837 376.808 137.823C376.568 135.477 377.928 132.13 378.835 129.583C378.901 129.917 378.968 130.25 379.035 130.597Z" fill="#473025"/>
<path d="M376.475 150.303C376.449 155.797 376.129 161.277 375.422 166.717C374.995 169.623 374.435 172.517 373.782 175.397C373.382 177.09 372.968 178.783 372.502 180.463C372.168 181.65 371.755 183.09 371.328 184.543C368.862 192.65 365.648 200.503 363.262 208.637C363.248 208.69 363.222 208.757 363.222 208.81C358.009 210.717 352.142 211.61 348.475 211.49C345.622 211.49 342.102 211.157 339.049 210.103C340.502 206.077 340.568 198.343 341.728 195.703C343.102 188.703 344.822 181.743 346.275 174.743C347.569 168.437 348.635 162.09 349.009 155.637C349.169 150.103 348.942 144.583 348.355 139.117C346.009 117.077 337.849 95.7033 325.649 77.21C317.142 63.69 304.488 53.9833 294.528 41.5833C306.102 40.9566 319.049 39.0233 328.609 32.05C329.915 31.0633 330.929 29.9034 331.675 28.6367C332.195 30.0634 332.755 31.4767 333.342 32.8634C334.182 34.8767 335.089 36.85 336.049 38.81C337.062 40.85 338.115 42.8501 339.128 44.8901C341.115 48.8367 342.902 52.8767 344.635 56.9433C346.448 61.1833 348.342 65.4101 350.262 69.6234C352.102 73.6501 353.902 77.7034 355.742 81.7301C357.635 85.8501 359.609 89.9166 361.609 93.9833C363.569 97.9833 365.475 102.01 367.209 106.13C368.302 108.783 369.342 111.463 370.302 114.183C371.208 116.73 371.995 119.317 372.728 121.93C373.968 126.663 374.982 131.45 375.675 136.303C375.755 136.837 375.809 137.383 375.875 137.93C376.315 142.05 376.475 146.17 376.475 150.303Z" fill="#633620"/>
<path d="M372.501 180.463C372.968 178.783 373.382 177.09 373.782 175.397L374.741 175.623C374.701 175.85 374.702 176.09 374.755 176.33C375.262 177.61 376.275 178.037 377.488 178.09C377.062 179.823 376.608 181.557 376.115 183.277C374.888 187.53 373.475 191.703 372.008 195.863C370.781 199.37 369.515 202.863 368.382 206.397C366.835 207.33 365.062 208.143 363.222 208.81C363.222 208.757 363.248 208.69 363.261 208.637C365.648 200.503 368.861 192.65 371.328 184.543C371.755 183.09 372.168 181.65 372.501 180.463Z" fill="#473025"/>
<path d="M368.381 206.397C368.274 206.743 368.167 207.077 368.061 207.41C367.781 208.29 367.514 209.17 367.261 210.037C367.087 210.623 366.647 211.05 366.101 211.277C365.794 211.41 365.434 211.477 365.088 211.45C364.901 211.437 364.728 211.397 364.554 211.343C363.488 210.97 362.994 209.877 363.221 208.81C365.061 208.143 366.834 207.33 368.381 206.397Z" fill="#473025"/>
<path d="M366.102 211.277C366.648 211.05 367.088 210.623 367.261 210.037C367.515 209.17 367.781 208.29 368.061 207.41C368.168 207.077 368.275 206.743 368.382 206.397C371.128 204.757 373.208 202.717 373.928 200.277C374.048 199.13 375.021 198.223 376.195 198.303C378.741 198.557 378.288 201.557 377.515 203.263C376.155 206.423 373.062 208.343 370.208 210.023C368.982 210.757 367.728 211.41 366.435 211.997L366.102 211.277Z" fill="#473025"/>
<path d="M365.089 211.45C365.436 211.477 365.795 211.41 366.102 211.277L366.435 211.997C358.435 215.637 349.288 216.583 340.662 214.97C339.408 214.757 337.982 214.317 336.542 213.677L336.995 212.61C337.902 212.437 338.555 211.49 339.049 210.103C342.102 211.157 345.622 211.49 348.475 211.49C352.142 211.61 358.009 210.717 363.222 208.81C362.996 209.877 363.489 210.97 364.556 211.343C364.729 211.397 364.902 211.437 365.089 211.45Z" fill="#473025"/>
<path d="M339.955 543.65C341.009 545.583 339.422 548.49 337.075 547.77C335.928 547.41 335.342 546.063 335.742 544.97C335.142 542.37 338.929 541.277 339.955 543.65Z" fill="#473025"/>
<path d="M326.022 561.143C327.888 564.036 322.688 566.09 322.128 562.703C321.235 560.237 324.808 559.17 326.022 561.143Z" fill="#473025"/>
<path d="M344.889 174.463L346.275 174.743C344.822 181.743 343.102 188.703 341.728 195.703C340.568 198.343 340.502 206.077 339.049 210.103C337.702 209.663 336.449 209.063 335.382 208.29C335.489 201.21 339.128 186.93 341.675 175.93C343.702 176.05 344.715 175.343 344.889 174.463Z" fill="#473025"/>
<path d="M348.355 139.116C348.942 144.583 349.168 150.103 349.008 155.637C348.635 162.09 347.568 168.436 346.275 174.743L344.889 174.463C345.089 173.477 344.248 172.317 342.608 171.823C343.555 167.477 344.195 164.023 344.128 162.316C344.928 155.09 344.968 147.903 344.342 140.823C345.595 141.157 347.075 140.703 346.902 139.263L348.355 139.116Z" fill="#473025"/>
<path d="M342.608 171.823C344.248 172.317 345.088 173.477 344.888 174.463C344.715 175.343 343.701 176.05 341.675 175.93C342.008 174.49 342.315 173.117 342.608 171.823Z" fill="#473025"/>
<path d="M346.901 139.263C347.075 140.703 345.595 141.157 344.341 140.823C344.168 138.85 343.941 136.89 343.661 134.93C345.048 136.117 346.208 137.397 346.835 138.89C346.875 139.023 346.888 139.143 346.901 139.263Z" fill="#473025"/>
<path d="M343.661 134.93C343.941 136.89 344.168 138.85 344.342 140.823C344.048 140.743 343.768 140.623 343.528 140.463C338.995 136.837 334.662 132.863 329.648 129.876C325.275 127.316 320.595 125.45 315.861 123.73C316.128 123.01 316.355 122.263 316.555 121.463C317.008 120.903 317.248 120.33 317.315 119.73C324.302 122.277 331.182 125.197 337.075 129.797C338.928 131.53 341.541 133.103 343.661 134.93Z" fill="#473025"/>
<path d="M339.048 210.103C338.555 211.49 337.901 212.437 336.995 212.61C336.941 212.623 336.875 212.623 336.822 212.637C335.755 212.423 335.342 210.823 335.382 208.29C336.448 209.063 337.702 209.663 339.048 210.103Z" fill="#473025"/>
<path d="M335.382 208.29C335.342 210.823 335.755 212.423 336.822 212.637C336.875 212.623 336.942 212.623 336.995 212.61L336.542 213.677C331.102 211.29 325.488 206.237 329.035 200.823C329.995 199.903 331.622 199.997 331.889 201.49C331.862 204.597 333.262 206.77 335.382 208.29Z" fill="#473025"/>
<path d="M299.435 496.397C297.382 491.45 305.755 492.97 301.875 496.903C301.102 497.557 299.955 497.197 299.435 496.397Z" fill="#473025"/>
<path d="M334.101 22.3299C334.941 25.2899 335.995 28.1833 337.155 31.0233C337.995 33.01 338.901 34.9833 339.861 36.9299C340.861 38.9566 341.915 40.9699 342.928 43.0099C344.901 46.9566 346.661 50.9965 348.435 55.0499C350.275 59.2899 352.141 63.5166 354.061 67.7299C355.901 71.7699 357.688 75.8232 359.555 79.8499C361.448 83.9565 363.408 88.0366 365.408 92.09C367.421 96.1833 369.355 100.29 371.115 104.49C372.875 108.703 374.448 112.983 375.808 117.343C377.061 121.37 378.021 125.463 378.835 129.583C377.928 132.13 376.568 135.477 376.808 137.823L375.875 137.93C375.808 137.383 375.755 136.837 375.675 136.303C374.981 131.45 373.968 126.663 372.728 121.93C371.995 119.317 371.208 116.73 370.301 114.183C369.341 111.463 368.301 108.783 367.208 106.13C365.475 102.01 363.568 97.9832 361.608 93.9832C359.608 89.9165 357.635 85.8499 355.741 81.7299C353.901 77.7033 352.101 73.65 350.261 69.6233C348.341 65.41 346.448 61.1832 344.635 56.9432C342.901 52.8766 341.115 48.8366 339.128 44.89C338.115 42.85 337.062 40.8499 336.048 38.8099C335.088 36.8499 334.181 34.8766 333.341 32.8633C332.755 31.4766 332.195 30.0632 331.675 28.6366C333.728 25.1966 333.795 20.9966 332.235 17.5566C332.741 18.01 333.115 18.6632 333.328 19.2366C333.528 19.7832 333.608 20.4099 333.741 20.9699C333.848 21.4232 333.968 21.8766 334.101 22.3299Z" fill="#473025"/>
<path d="M330.941 16.9833C331.421 16.9967 331.861 17.2368 332.234 17.5568C333.794 20.9968 333.728 25.1967 331.675 28.6367C331.208 27.3434 330.768 26.0234 330.368 24.7034C329.954 23.3034 329.595 21.89 329.275 20.4767C329.101 19.6767 329.221 18.7967 329.581 18.0634C329.835 17.5567 330.315 16.9433 330.941 16.9833Z" fill="#473025"/>
<path d="M325.128 29.41C334.261 22.6634 326.514 12.7568 316.834 15.3568C305.394 16.9568 294.461 25.6234 290.434 36.45C292.088 37.3034 294.061 37.2901 295.888 37.3968C305.795 36.3568 316.621 34.9167 325.128 29.41ZM346.834 138.89C346.208 137.397 345.048 136.117 343.661 134.93C339.074 102.33 320.581 72.1301 296.194 50.1701C292.994 45.8767 288.421 42.1834 286.274 37.3034C289.008 21.8234 307.261 9.67674 322.701 11.0367C327.328 11.3434 330.634 14.0501 332.234 17.5568C331.861 17.2368 331.421 16.9967 330.941 16.9834C330.314 16.9434 329.835 17.5568 329.581 18.0634C329.221 18.7968 329.101 19.6767 329.274 20.4767C329.594 21.89 329.954 23.3034 330.368 24.7034C330.768 26.0234 331.208 27.3434 331.674 28.6367C330.928 29.9034 329.914 31.0634 328.608 32.05C319.048 39.0234 306.101 40.9567 294.528 41.5834C304.488 53.9834 317.141 63.69 325.648 77.21C337.848 95.7034 346.008 117.077 348.355 139.117L346.901 139.263C346.888 139.143 346.874 139.023 346.834 138.89Z" fill="#473025"/>
<path d="M316.835 15.3568C326.515 12.7568 334.261 22.6633 325.128 29.41C316.621 34.9167 305.795 36.3567 295.888 37.3967C294.062 37.2901 292.088 37.3033 290.435 36.45C294.461 25.6233 305.395 16.9568 316.835 15.3568Z" fill="#633620"/>
<path d="M312.888 111.05C314.088 113.53 317.702 116.81 317.315 119.73C315.835 119.197 314.355 118.677 312.875 118.157C312.662 118.077 312.461 117.997 312.261 117.917C307.821 110.05 301.435 103.117 292.915 99.6901C283.075 95.5168 272.195 92.61 261.475 94.05C251.035 95.7034 240.035 100.183 234.475 109.69C232.528 112.29 239.448 116.583 241.155 118.41C252.995 128.437 268.275 132.583 283.515 132.85C291.195 132.57 298.475 131.73 305.648 129.237C308.782 128.05 310.461 125.197 311.728 122.25C313.115 122.743 314.488 123.223 315.861 123.73C312.315 133.277 303.021 135.183 293.395 136.303C287.141 137.263 280.782 137.317 274.515 136.397C263.102 135.25 251.915 131.703 242.701 124.783C238.035 121.37 232.862 117.797 229.942 112.703C228.942 107.21 234.155 102.997 237.675 99.5434C244.222 93.81 252.808 91.1434 261.261 89.81C279.515 88.0767 302.542 95.05 312.888 111.05Z" fill="#473025"/>
<path d="M317.315 119.73C317.248 120.33 317.008 120.903 316.555 121.463C316.355 122.263 316.128 123.01 315.861 123.73C314.488 123.223 313.114 122.743 311.728 122.25C312.168 121.223 312.568 120.183 312.955 119.197C312.728 118.77 312.501 118.343 312.261 117.917C312.461 117.997 312.661 118.077 312.874 118.157C314.354 118.677 315.835 119.197 317.315 119.73Z" fill="#473025"/>
<path d="M312.261 117.917C312.501 118.343 312.728 118.77 312.955 119.197C312.568 120.183 312.168 121.223 311.728 122.25C311.168 122.05 310.595 121.85 310.022 121.65C298.395 117.063 286.142 114.517 273.755 113.263C271.048 113.117 271.302 108.77 274.048 109.023C287.155 110.303 299.995 113.13 312.261 117.917Z" fill="#473025"/>
<path d="M310.022 121.65C310.595 121.85 311.168 122.05 311.728 122.25C310.461 125.197 308.782 128.05 305.648 129.237C298.475 131.73 291.195 132.57 283.515 132.85C268.275 132.583 252.995 128.437 241.155 118.41C239.448 116.583 232.528 112.29 234.475 109.69C240.035 100.183 251.035 95.7032 261.475 94.0499C272.195 92.6099 283.075 95.5166 292.915 99.69C301.435 103.117 307.821 110.05 312.261 117.917C299.995 113.13 287.155 110.303 274.048 109.023C271.302 108.77 271.048 113.117 273.755 113.263C286.142 114.517 298.395 117.063 310.022 121.65Z" fill="#317048"/>
<path d="M274.341 533.383C275.861 535.29 274.181 539.69 271.408 537.983C268.794 536.103 271.474 530.557 274.341 533.383Z" fill="#473025"/>
<path d="M268.315 268.45C270.622 270.436 266.768 274.117 264.915 271.89C263.888 269.69 266.062 266.61 268.315 268.45Z" fill="#473025"/>
<path d="M269.341 246.877C271.955 248.61 268.968 253.143 266.435 251.023C264.448 249.29 266.955 245.25 269.341 246.877Z" fill="#473025"/>
<path d="M242.408 441.197C242.875 443.357 239.608 445.077 238.315 443.103C236.542 440.023 241.342 437.61 242.408 441.197Z" fill="#473025"/>
<path d="M208.835 505.183C210.888 505.09 210.902 508.663 208.715 508.557C207.968 508.477 207.515 507.877 207.368 507.197C207.421 506.33 207.955 505.463 208.835 505.183Z" fill="#473025"/>
<path d="M209.835 505.09C213.142 505.29 211.822 510.877 208.809 509.29C207.769 508.943 207.329 508.063 207.369 507.197C207.515 507.877 207.969 508.477 208.716 508.557C210.902 508.663 210.889 505.09 208.835 505.183C209.129 505.077 209.462 505.037 209.835 505.09Z" fill="#473025"/>
<path d="M208.542 505.21C208.649 505.197 208.742 505.183 208.836 505.183C207.956 505.463 207.422 506.33 207.369 507.197C207.196 506.343 207.556 505.37 208.542 505.21Z" fill="#473025"/>
<path d="M203.448 521.09C204.728 523.797 200.462 525.437 199.048 523.09C198.355 522.117 198.501 519.943 200.035 519.996C201.235 519.05 202.968 519.663 203.448 521.09Z" fill="#473025"/>
<path d="M202.622 278.41C205.289 280.21 204.035 285.357 200.475 283.583C198.195 282.063 199.955 277.717 202.622 278.41Z" fill="#473025"/>
<path d="M189.342 385.343C195.222 385.637 189.582 394.09 187.208 388.73C186.782 387.383 187.622 384.93 189.342 385.343Z" fill="#473025"/>
<path d="M158.275 496.957C159.769 499.063 156.289 502.237 154.689 499.703C153.022 497.397 156.462 494.517 158.209 496.863C158.222 496.89 158.262 496.93 158.275 496.957Z" fill="#473025"/>
<path d="M154.328 414.13C157.088 415.09 155.329 420.01 152.609 419.05C149.689 418.277 151.635 413.117 154.328 414.13Z" fill="#473025"/>
<path d="M494.715 522.13C484.568 522.13 474.995 521.156 466.968 520.343C461.208 519.77 455.782 519.223 452.862 519.357C444.088 519.783 436.622 512.983 436.208 504.197C435.795 495.423 442.569 487.956 451.355 487.543C456.635 487.303 462.902 487.93 470.168 488.663C505.275 492.21 535.102 492.33 544.422 457.716C558.195 406.53 494.235 353.237 493.582 352.703C486.795 347.13 485.795 337.103 491.368 330.303C496.942 323.503 506.955 322.503 513.755 328.063C517.049 330.757 594.315 394.89 575.182 465.997C567.795 493.383 550.195 511.583 524.262 518.597C514.408 521.263 504.302 522.13 494.715 522.13Z" fill="#473025"/>
<path d="M540.394 269.37C546.088 277.93 547.821 288.65 550.435 298.463C552.728 308.57 553.648 320.41 549.101 330.01C547.861 329.623 546.754 329.783 546.194 331.103C545.888 332.223 546.515 332.797 547.341 333.21C547.115 333.557 546.875 333.903 546.635 334.25C544.515 336.423 541.541 341.397 538.675 341.943C534.155 340.85 542.168 334.69 543.208 332.903C546.635 328.783 548.128 323.53 548.381 318.263C549.341 310.837 548.168 303.477 546.301 296.29C543.861 287.957 542.448 278.69 537.488 271.437C534.128 267.89 528.008 267.743 524.261 270.77C521.648 273.81 521.848 278.183 521.568 281.97C521.768 287.943 521.275 295.503 524.675 300.703L523.888 301.25C523.715 301.077 523.488 300.903 523.194 300.77C522.288 300.437 521.675 300.837 521.155 301.597C519.142 297.73 518.208 292.583 518.115 288.343C518.115 283.277 517.501 277.29 519.341 272.397C520.368 272.743 521.461 272.437 521.328 270.943C521.234 270.437 521.075 269.957 520.835 269.503C521.221 268.943 521.661 268.41 522.141 267.903C527.421 263.717 535.954 264.183 540.394 269.37Z" fill="#473025"/>
<path d="M537.488 271.437C542.448 278.69 543.861 287.957 546.301 296.29C548.168 303.477 549.341 310.837 548.381 318.263C548.128 323.53 546.635 328.783 543.208 332.903C542.168 334.69 534.155 340.85 538.675 341.943C541.541 341.397 544.515 336.423 546.635 334.25C546.875 333.903 547.115 333.557 547.341 333.21C547.875 333.477 548.488 333.677 548.981 333.903C553.341 335.97 554.515 340.903 554.088 345.357C553.182 354.73 542.114 363.103 534.328 367.29C526.394 371.29 495.848 383.717 496.315 366.957C496.475 365.13 496.941 363.33 497.528 361.597C497.901 360.25 499.022 358.823 499.155 357.41C500.008 357.423 500.861 357.41 501.715 357.383C503.301 357.597 505.928 355.583 503.915 354.303C500.928 353.21 497.421 354.263 494.261 353.543C487.434 352.89 480.461 351.277 475.075 346.823C464.488 337.37 452.408 317.783 457.515 303.25C459.621 296.677 463.222 288.197 470.488 286.743C471.422 286.557 472.408 286.49 473.475 286.557C479.355 286.81 484.741 289.717 489.715 292.65C492.661 294.823 504.741 301.01 502.461 305.503C502.301 305.81 502.075 306.117 501.781 306.397C498.341 310.25 493.208 312.263 488.168 312.89C483.888 313.277 479.474 313.01 475.461 311.37C474.554 311.037 473.515 311.53 473.181 312.423C472.355 317.063 486.461 316.783 489.501 316.29C490.088 316.197 490.701 316.09 491.315 315.943C492.301 317.837 497.755 319.997 498.688 321.223C501.702 323.73 504.395 326.65 506.435 330.01C507.661 331.957 510.661 329.997 509.408 328.077C506.688 323.783 500.755 316.97 495.222 314.783C499.248 313.303 502.941 310.997 504.875 308.21C507.035 310.37 511.488 311.89 513.688 311.943C517.368 312.077 520.781 309.797 522.608 306.677C522.835 306.197 523.194 305.597 523.528 304.957C526.288 307.757 530.208 308.503 535.515 304.943C540.168 301.877 541.128 295.997 540.661 290.823C540.248 288.783 541.528 284.623 538.581 284.357C535.675 284.77 537.368 288.463 537.101 290.423C537.195 293.517 537.501 296.863 535.768 299.61C534.021 302.343 529.941 304.85 526.781 303.13C525.955 302.41 525.261 301.583 524.675 300.703C521.275 295.503 521.768 287.943 521.568 281.97C521.848 278.183 521.648 273.81 524.261 270.77C528.008 267.743 534.128 267.89 537.488 271.437Z" fill="#EDE7CB"/>
<path d="M554.502 333.837C558.875 338.89 558.462 347.05 555.542 352.73C547.302 366.33 531.955 373.81 516.942 377.437C507.822 380.41 491.635 380.077 492.768 366.837C492.888 365.197 493.808 360.077 495.502 357.303C496.688 357.383 497.915 357.41 499.155 357.41C499.022 358.823 497.902 360.25 497.528 361.597C496.942 363.33 496.475 365.13 496.315 366.957C495.849 383.717 526.395 371.29 534.328 367.29C542.115 363.103 553.182 354.73 554.089 345.357C554.515 340.903 553.342 335.97 548.982 333.903C548.489 333.677 547.875 333.477 547.342 333.21C548.009 332.183 548.595 331.117 549.102 330.01C551.155 330.65 553.555 332.81 554.502 333.837Z" fill="#473025"/>
<path d="M538.582 284.357C541.529 284.623 540.248 288.783 540.662 290.823C541.128 295.997 540.169 301.877 535.515 304.943C530.209 308.503 526.288 307.757 523.528 304.957C524.182 303.65 524.742 302.197 523.889 301.25L524.675 300.703C525.262 301.583 525.955 302.41 526.782 303.13C529.942 304.85 534.022 302.343 535.768 299.61C537.502 296.863 537.195 293.517 537.102 290.423C537.368 288.463 535.675 284.77 538.582 284.357Z" fill="#473025"/>
<path d="M546.195 331.103C546.755 329.783 547.862 329.623 549.102 330.01C548.595 331.117 548.009 332.183 547.342 333.21C546.516 332.797 545.889 332.223 546.195 331.103Z" fill="#473025"/>
<path d="M520.835 269.503C521.075 269.957 521.235 270.436 521.328 270.943C521.462 272.436 520.368 272.743 519.342 272.397C519.728 271.383 520.222 270.41 520.835 269.503Z" fill="#473025"/>
<path d="M520.835 269.503C520.222 270.41 519.729 271.383 519.342 272.397C518.915 272.263 518.502 272.01 518.195 271.69C507.462 258.037 499.542 269.277 499.902 282.277C499.769 286.583 500.195 290.557 501.129 294.69C501.222 295.157 501.089 295.623 500.822 295.997C500.676 295.89 500.529 295.783 500.369 295.677C499.315 294.903 498.222 294.117 497.129 293.33C496.915 292.183 496.822 290.917 496.729 289.85C497.422 290.077 498.062 289.57 498.195 288.877C498.635 287.343 497.529 286.023 497.075 284.637C496.782 283.877 496.502 283.117 496.235 282.37C496.329 279.21 496.782 275.877 497.649 272.837C497.956 272.93 498.262 272.957 498.556 272.917C499.782 272.77 499.569 271.13 499.156 270.357C499.009 270.17 498.862 269.983 498.716 269.797C501.622 262.89 507.222 258.797 516.222 264.743C517.902 266.01 519.889 267.543 520.835 269.503Z" fill="#473025"/>
<path d="M518.195 271.69C518.502 272.01 518.915 272.263 519.342 272.397C517.502 277.29 518.115 283.277 518.115 288.343C518.209 292.583 519.142 297.73 521.155 301.597C519.542 303.93 518.702 309.637 511.969 308.117C509.809 307.543 508.169 305.903 506.222 304.97C506.635 302.183 505.182 299.103 500.822 295.997C501.089 295.623 501.222 295.157 501.128 294.69C500.195 290.557 499.769 286.583 499.902 282.277C499.542 269.277 507.462 258.037 518.195 271.69Z" fill="#EDE7CB"/>
<path d="M523.889 301.25C524.742 302.197 524.182 303.65 523.528 304.957C522.608 304.023 521.822 302.877 521.155 301.597C521.675 300.837 522.288 300.437 523.195 300.77C523.488 300.903 523.715 301.077 523.889 301.25Z" fill="#473025"/>
<path d="M523.528 304.957C523.195 305.597 522.835 306.197 522.608 306.677C520.782 309.797 517.369 312.077 513.689 311.943C511.489 311.89 507.035 310.37 504.875 308.21C505.595 307.183 506.062 306.103 506.222 304.97C508.169 305.903 509.808 307.543 511.968 308.117C518.702 309.637 519.542 303.93 521.155 301.597C521.822 302.877 522.608 304.023 523.528 304.957Z" fill="#473025"/>
<path d="M499.155 270.357C499.569 271.13 499.782 272.77 498.555 272.917C498.262 272.957 497.955 272.93 497.648 272.837C497.955 271.783 498.315 270.757 498.715 269.797C498.862 269.983 499.009 270.17 499.155 270.357Z" fill="#473025"/>
<path d="M493.701 264.317C495.221 266.277 497.168 267.89 498.715 269.797C498.315 270.757 497.955 271.783 497.648 272.837C495.995 272.37 494.102 270.317 492.422 268.29C491.968 266.117 491.555 263.943 491.168 261.783C492.155 262.223 492.968 263.57 493.701 264.317Z" fill="#473025"/>
<path d="M482.649 223.917C487.422 233.303 487.688 244.25 489.942 254.397C490.342 256.85 490.742 259.317 491.168 261.783C490.648 261.543 490.062 261.557 489.422 262.063C488.929 262.477 488.729 263.103 488.822 263.703L487.968 263.85C486.075 253.863 484.675 243.77 482.502 233.837C481.688 230.477 480.702 227.063 478.649 224.237C476.022 220.463 471.235 219.437 469.489 224.557C467.222 230.343 467.582 236.743 468.075 242.97L467.089 243.05C466.942 241.677 465.648 240.143 464.275 238.757C464.195 236.423 464.195 234.103 464.289 231.783C464.809 226.73 465.902 220.263 470.968 217.85C475.768 216.143 480.462 219.837 482.649 223.917Z" fill="#473025"/>
<path d="M500.822 295.997C505.182 299.103 506.636 302.183 506.222 304.97C505.942 304.823 505.649 304.703 505.342 304.597C504.702 304.397 504.049 304.637 503.782 305.17L502.462 305.503C504.742 301.01 492.662 294.823 489.715 292.65C484.742 289.717 479.355 286.81 473.475 286.557C472.409 286.49 471.422 286.557 470.489 286.743L470.315 285.917C471.169 285.77 471.875 284.983 471.809 284.103C471.782 283.77 471.769 283.45 471.742 283.13C480.995 282.57 489.608 287.97 497.128 293.33C497.475 295.33 498.155 296.983 499.675 296.73C500.129 296.663 500.542 296.37 500.822 295.997Z" fill="#473025"/>
<path d="M505.341 304.597C505.648 304.703 505.942 304.823 506.222 304.97C506.062 306.103 505.595 307.183 504.875 308.21C504.141 307.463 503.674 306.637 503.661 305.77C503.661 305.543 503.701 305.343 503.781 305.17C504.048 304.637 504.701 304.397 505.341 304.597Z" fill="#473025"/>
<path d="M478.648 224.237C480.701 227.063 481.688 230.477 482.501 233.837C484.674 243.77 486.074 253.863 487.968 263.85C488.408 266.21 488.874 268.57 489.394 270.917C490.474 274.81 493.021 288.57 496.634 289.823C496.661 289.837 496.701 289.85 496.728 289.85C496.821 290.917 496.914 292.183 497.128 293.33C489.608 287.97 480.995 282.57 471.741 283.13C471.595 280.917 471.501 278.703 471.381 276.477C470.901 267.663 469.715 258.703 468.541 249.89C468.461 247.637 468.248 245.317 468.075 242.97C467.581 236.743 467.221 230.343 469.488 224.557C471.235 219.437 476.021 220.463 478.648 224.237Z" fill="#EDE7CB"/>
<path d="M492.422 268.29C494.102 270.317 495.995 272.37 497.648 272.837C496.782 275.877 496.328 279.21 496.235 282.37C494.622 277.77 493.409 273.05 492.422 268.29Z" fill="#EDE7CB"/>
<path d="M491.168 261.783C491.555 263.943 491.969 266.117 492.422 268.29C491.182 266.797 490.062 265.343 489.222 264.557C489.009 264.303 488.875 264.01 488.822 263.703C488.729 263.103 488.929 262.477 489.422 262.063C490.062 261.557 490.648 261.543 491.168 261.783Z" fill="#473025"/>
<path d="M502.462 305.503L503.782 305.17C503.702 305.343 503.662 305.543 503.662 305.77C503.675 306.637 504.142 307.463 504.876 308.21C502.942 310.997 499.249 313.303 495.222 314.783C495.222 314.797 495.222 314.797 495.222 314.783C494.196 314.397 493.182 314.143 492.209 314.117C491.129 314.663 490.956 315.277 491.316 315.943C490.702 316.09 490.089 316.197 489.502 316.29C486.462 316.783 472.356 317.063 473.182 312.423C473.516 311.53 474.555 311.037 475.462 311.37C479.475 313.01 483.889 313.277 488.169 312.89C493.209 312.263 498.342 310.25 501.782 306.397C502.076 306.117 502.302 305.81 502.462 305.503Z" fill="#473025"/>
<path d="M500.368 295.677C500.528 295.783 500.675 295.89 500.822 295.997C500.542 296.37 500.128 296.663 499.675 296.73C498.155 296.983 497.475 295.33 497.128 293.33C498.221 294.117 499.315 294.903 500.368 295.677Z" fill="#473025"/>
<path d="M497.076 284.637C497.529 286.023 498.635 287.343 498.195 288.877C498.062 289.57 497.422 290.077 496.729 289.85C496.662 288.983 496.596 288.25 496.476 287.783C496.276 286.117 496.196 284.263 496.236 282.37C496.502 283.117 496.782 283.877 497.076 284.637Z" fill="#473025"/>
<path d="M492.421 268.29C493.408 273.05 494.621 277.77 496.234 282.37C496.194 284.263 496.275 286.117 496.475 287.783C496.595 288.25 496.661 288.983 496.728 289.85C496.701 289.85 496.661 289.837 496.634 289.823C493.021 288.57 490.474 274.81 489.394 270.917C488.874 268.57 488.408 266.21 487.968 263.85L488.821 263.703C488.875 264.01 489.008 264.303 489.221 264.557C490.061 265.343 491.181 266.797 492.421 268.29Z" fill="#473025"/>
<path d="M509.409 328.077C510.662 329.997 507.662 331.957 506.435 330.01C504.395 326.65 501.702 323.73 498.689 321.223C497.756 319.997 492.302 317.837 491.315 315.943C492.622 315.65 493.942 315.263 495.222 314.783C495.222 314.797 495.222 314.797 495.222 314.783C500.756 316.97 506.689 323.783 509.409 328.077Z" fill="#473025"/>
<path d="M495.222 314.783C493.942 315.263 492.622 315.65 491.315 315.943C490.955 315.277 491.129 314.663 492.209 314.117C493.182 314.143 494.196 314.397 495.222 314.783Z" fill="#473025"/>
<path d="M503.915 354.303C505.928 355.583 503.301 357.596 501.715 357.383C500.861 357.41 500.008 357.423 499.155 357.41C499.221 356.836 499.114 356.263 498.728 355.703C497.448 355.077 496.368 355.877 495.501 357.303C480.528 356.397 469.328 349.916 461.368 335.743C456.568 327.436 451.581 318.263 452.888 308.357C454.395 299.05 458.421 286.93 468.181 283.757C468.408 285.023 468.941 285.956 470.088 285.943C470.168 285.943 470.248 285.93 470.315 285.916L470.488 286.743C463.221 288.196 459.621 296.676 457.515 303.25C452.408 317.783 464.488 337.37 475.075 346.823C480.461 351.277 487.434 352.89 494.261 353.543C497.421 354.263 500.928 353.21 503.915 354.303Z" fill="#473025"/>
<path d="M467.089 243.05L468.075 242.97C468.249 245.317 468.462 247.637 468.542 249.89C469.715 258.703 470.902 267.663 471.382 276.477C471.502 278.703 471.595 280.917 471.742 283.13C471.009 283.17 470.289 283.263 469.542 283.37C469.075 283.477 468.622 283.61 468.182 283.757C468.169 283.677 468.155 283.596 468.142 283.516C469.022 283.65 470.035 283.13 470.209 282.17C470.329 281.69 470.209 281.237 469.969 280.823C469.302 279.583 468.595 278.357 467.862 277.157C467.609 272.53 467.115 267.797 466.729 263.21C465.862 256.93 465.009 250.61 464.556 244.277C465.236 244.73 465.929 244.903 466.609 244.637C467.022 244.143 467.142 243.61 467.089 243.05Z" fill="#473025"/>
<path d="M464.274 238.757C465.648 240.143 466.941 241.677 467.088 243.05C467.141 243.61 467.021 244.143 466.608 244.637C465.928 244.903 465.235 244.73 464.555 244.277C464.421 242.437 464.328 240.597 464.274 238.757Z" fill="#473025"/>
<path d="M464.275 238.757C464.328 240.597 464.422 242.437 464.555 244.277C462.555 243.023 460.608 239.557 459.061 238.437C455.088 234.663 446.061 225.557 441.741 233.197C439.048 242.183 446.128 250.25 451.248 256.863C455.555 261.61 459.768 266.423 463.848 271.383C465.302 273.223 466.635 275.157 467.861 277.157C467.861 277.21 467.875 277.277 467.875 277.33C468.181 278.597 467.821 281.45 468.141 283.517C467.675 283.45 467.248 283.21 466.995 282.743C459.968 268.983 446.328 259.903 439.661 245.957C435.568 237.983 437.088 224.423 448.901 227.09C453.888 228.343 457.568 232.277 461.261 235.623C461.848 236.423 463.088 237.53 464.275 238.757Z" fill="#473025"/>
<path d="M464.555 244.277C465.008 250.61 465.861 256.93 466.728 263.21C467.114 267.797 467.608 272.53 467.861 277.157C466.634 275.157 465.301 273.223 463.848 271.383C459.768 266.423 455.555 261.61 451.248 256.863C446.128 250.25 439.048 242.183 441.741 233.197C446.061 225.557 455.088 234.663 459.061 238.437C460.608 239.557 462.555 243.023 464.555 244.277Z" fill="#EDE7CB"/>
<path d="M498.728 355.703C499.114 356.263 499.221 356.837 499.155 357.41C497.915 357.41 496.688 357.383 495.501 357.303C496.368 355.877 497.448 355.077 498.728 355.703Z" fill="#473025"/>
<path d="M471.742 283.13C471.768 283.45 471.782 283.77 471.808 284.103C471.875 284.983 471.168 285.77 470.315 285.917C470.248 285.93 470.168 285.943 470.088 285.943C468.942 285.957 468.408 285.023 468.182 283.757C468.622 283.61 469.075 283.477 469.542 283.37C470.288 283.263 471.008 283.17 471.742 283.13Z" fill="#473025"/>
<path d="M469.968 280.823C470.208 281.237 470.328 281.69 470.208 282.17C470.035 283.13 469.022 283.65 468.142 283.517C467.822 281.45 468.182 278.597 467.875 277.33C467.875 277.277 467.861 277.21 467.861 277.157C468.595 278.357 469.301 279.583 469.968 280.823Z" fill="#473025"/>
<path d="M355.742 456.183C364.529 451.383 374.462 445.103 374.556 434.103C370.849 411.263 337.755 429.57 324.195 432.103C312.928 434.637 301.262 434.29 290.395 430.223C285.262 428.623 280.395 426.103 275.542 423.597C267.702 419.543 259.875 415.503 250.942 415.237C245.542 415.37 239.729 418.903 239.649 424.81C236.809 428.957 243.035 434.117 245.849 436.757C248.715 439.263 251.822 441.397 255.089 443.29C262.155 447.383 269.942 450.33 277.475 453.357C278.382 453.73 279.289 454.077 280.209 454.41C280.769 454.623 281.329 454.823 281.902 455.023C289.889 457.877 298.115 459.903 306.515 460.93C309.342 461.29 312.195 461.517 315.062 461.637C318.942 461.983 322.889 462.25 326.835 462.303C336.075 462.437 345.302 461.397 353.689 457.303C354.356 456.943 355.049 456.57 355.742 456.183ZM382.889 416.183C388.422 422.917 386.595 432.863 384.395 440.61C380.742 452.85 370.849 461.437 359.942 467.343C357.609 467.317 353.942 470.49 351.956 470.863C347.609 472.343 343.155 473.477 338.595 474.09C304.742 478.29 269.142 471.623 240.369 452.89C235.422 449.357 230.275 445.997 226.809 440.877C226.289 440.25 225.982 439.477 225.675 438.69C225.662 438.65 225.635 438.61 225.622 438.557C225.382 437.903 225.128 437.237 224.795 436.663C218.622 420.743 227.875 401.01 245.955 399.703C259.182 398.583 269.662 407.97 280.982 413.223C292.089 418.837 304.448 421.21 316.795 419.223C322.675 418.397 328.542 417.29 334.262 415.717C341.155 413.863 347.675 410.53 354.849 409.877C363.609 409.543 376.422 409.45 382.889 416.183Z" fill="#DE4F36"/>
<path d="M358.221 426.57C370.008 425.597 374.568 434.223 367.115 443.37C363.995 446.517 360.448 449.263 356.608 451.49C355.568 448.877 352.981 445.65 352.528 444.037C349.848 440.05 349.261 432.263 346.288 429.21C350.181 428.063 354.141 427.103 358.221 426.57Z" fill="#EDE7CB"/>
<path d="M334.982 432.983C337.875 431.97 340.782 430.943 343.715 430.01C343.662 430.237 343.648 430.463 343.662 430.69C344.302 433.623 345.609 436.45 346.435 439.357C348.022 444.33 350.875 448.703 353.195 453.33C349.915 454.93 346.449 456.183 342.875 457.01C338.235 458.13 333.582 458.543 328.889 458.557C328.889 458.543 328.889 458.543 328.889 458.53C328.036 452.517 327.595 446.557 326.982 440.477C326.702 438.983 327.169 436.957 326.315 435.543C329.235 434.863 332.129 434.01 334.982 432.983Z" fill="#EDE7CB"/>
<path d="M325.061 458.477C323.688 458.437 322.315 458.357 320.928 458.263C316.088 458.01 311.275 457.663 306.488 457.063C306.782 456.197 306.821 455.09 306.995 454.277C307.115 452.61 310.035 440.943 308.822 437.41C313.622 437.503 318.448 437.09 323.195 436.183C322.741 437.583 323.168 439.25 323.195 440.703C323.795 446.597 324.261 452.57 325.061 458.477Z" fill="#EDE7CB"/>
<path d="M302.835 456.357C302.835 456.423 302.822 456.49 302.822 456.557C296.236 455.53 289.769 453.97 283.462 451.49C283.849 450.583 284.169 449.583 284.556 448.943C285.476 446.303 290.595 438.397 290.329 434.33C295.462 435.997 300.729 436.97 306.062 437.303C304.995 438.917 305.409 441.117 305.022 442.983C304.542 447.477 303.502 451.89 302.835 456.357Z" fill="#EDE7CB"/>
<path d="M287.395 433.277C285.808 435.357 285.129 440.143 283.809 441.823C283.382 443.41 280.769 447.21 279.835 450.077C272.902 447.397 265.475 444.743 258.769 441.117C260.235 439.783 261.288 436.903 262.395 435.757C263.448 433.517 268.249 427.903 268.715 424.397C270.489 425.25 272.222 426.13 273.889 426.983C278.289 429.223 282.182 431.303 284.769 432.183C285.635 432.57 286.515 432.93 287.395 433.277Z" fill="#EDE7CB"/>
<path d="M265.822 423.05C263.662 425.33 261.582 430.917 260.022 432.503C258.729 434.463 257.235 436.823 255.742 438.837C255.648 438.957 255.582 439.09 255.515 439.237C250.555 436.183 246.155 432.45 242.875 427.597C243.608 420.317 247.902 418.41 253.568 419.103C255.715 419.37 258.062 420.01 260.489 420.877C262.235 421.503 264.035 422.25 265.822 423.05Z" fill="#EDE7CB"/>
<path d="M359.835 350.93C361.675 353.49 364.635 355.023 366.542 357.53C362.582 357.343 355.448 355.97 355.061 361.623C354.915 364.463 353.661 369.543 354.528 372.73C352.061 372.503 349.568 372.557 347.142 372.877C347.448 371.37 347.088 369.717 347.301 368.183C347.768 358.797 349.728 348.983 355.888 341.583C360.022 337.117 364.075 335.09 367.755 334.863C362.648 338.263 358.168 344.797 359.835 350.93Z" fill="#EDE7CB"/>
<path d="M391.381 331.743C392.928 333.717 397.475 347.223 393.581 347.517C393.408 347.53 393.248 347.53 393.088 347.517C392.275 347.41 391.528 346.77 391.421 345.917C391.181 334.077 381.981 322.05 369.621 321.757C367.248 322.21 364.861 320.157 367.634 318.437C377.128 316.277 386.661 324.023 391.381 331.743Z" fill="#473025"/>
<path d="M366.541 357.53C364.635 355.023 361.675 353.49 359.835 350.93C358.168 344.797 362.648 338.263 367.755 334.863C364.075 335.09 360.022 337.117 355.888 341.583C349.728 348.983 347.768 358.797 347.301 368.183C347.088 369.717 347.448 371.37 347.141 372.877C349.568 372.557 352.061 372.503 354.528 372.73C353.661 369.543 354.914 364.464 355.061 361.624C355.448 355.97 362.581 357.343 366.541 357.53ZM386.141 347.97C388.128 357.583 386.461 367.757 383.501 376.983C382.621 378.783 381.088 384.89 378.941 387.437C380.915 390.09 383.301 393.57 380.848 394.877C380.528 395.01 380.208 395.05 379.888 395.01C379.248 394.93 378.662 394.517 378.355 393.877C372.408 380.263 356.768 373.21 342.648 377.757C340.661 378.277 338.901 379.877 336.794 379.69C334.928 379.61 335.235 377.423 336.355 376.543C338.662 375.183 341.168 374.183 343.755 373.53C343.728 373.463 343.701 373.383 343.675 373.303C342.781 358.73 346.688 340.45 360.661 333.063C372.568 326.917 383.875 335.997 386.141 347.97Z" fill="#473025"/>
<path d="M385.662 447.543C380.209 459.49 368.876 467.33 357.356 472.877C357.316 472.77 357.276 472.663 357.222 472.57C357.542 472.41 357.875 472.25 358.195 472.103C359.649 471.263 362.435 470.61 361.582 468.383C361.195 467.65 360.635 467.357 359.942 467.343C370.849 461.437 380.742 452.85 384.395 440.61C386.595 432.863 388.422 422.917 382.889 416.183C376.422 409.45 363.609 409.543 354.849 409.877C347.675 410.53 341.155 413.863 334.262 415.717C328.542 417.29 322.675 418.397 316.795 419.223C304.449 421.21 292.089 418.837 280.982 413.223C269.662 407.97 259.182 398.583 245.956 399.703C227.876 401.01 218.622 420.743 224.795 436.663C224.435 436.023 223.955 435.477 223.235 435.143C222.622 434.877 221.849 434.997 221.569 435.663C221.435 437.25 221.716 438.85 222.356 440.423C222.182 440.17 222.022 439.877 221.889 439.53C214.902 424.01 221.382 403.65 237.956 397.597C251.502 392.543 263.209 399.063 274.929 405.583C281.089 408.997 287.235 412.423 293.662 414.17C308.702 418.583 324.929 414.637 339.502 410.09C350.649 405.317 362.969 404.797 374.702 407.637C393.769 410.877 392.502 433.97 385.662 447.543Z" fill="#473025"/>
<path d="M358.195 472.103C357.875 472.25 357.542 472.41 357.222 472.57C357.168 472.423 357.128 472.277 357.061 472.13C356.715 471.223 356.341 470.29 355.901 469.397C356.168 469.277 356.435 469.143 356.715 469.01C357.795 468.49 358.861 467.93 359.941 467.343C360.635 467.357 361.195 467.65 361.582 468.383C362.435 470.61 359.648 471.263 358.195 472.103Z" fill="#473025"/>
<path d="M355.901 469.397C356.341 470.29 356.714 471.223 357.061 472.13C357.127 472.277 357.168 472.423 357.221 472.57C355.208 473.543 353.234 474.583 351.048 475.143C336.221 479.53 317.367 480.077 299.527 477.877C288.287 476.49 277.447 474.023 268.261 470.743C268.047 470.677 267.834 470.597 267.621 470.517C256.821 466.397 227.621 453.69 222.354 440.423C222.794 441.117 223.314 441.53 223.821 441.717C225.234 442.21 226.541 440.93 225.674 438.69C225.981 439.477 226.288 440.25 226.808 440.877C230.274 445.997 235.421 449.357 240.368 452.89C269.141 471.623 304.741 478.29 338.594 474.09C343.154 473.477 347.608 472.343 351.954 470.863C353.941 470.49 357.608 467.317 359.941 467.343C358.861 467.93 357.794 468.49 356.714 469.01C356.434 469.143 356.168 469.277 355.901 469.397Z" fill="#473025"/>
<path d="M374.555 434.103C374.461 445.103 364.528 451.383 355.741 456.183L355.075 455.197C355.395 455.237 355.728 455.197 356.048 455.05C357.315 454.41 357.248 453.063 356.608 451.49C360.448 449.263 363.995 446.517 367.115 443.37C374.568 434.223 370.008 425.597 358.221 426.57C354.141 427.103 350.181 428.063 346.288 429.21C346.168 429.103 346.048 428.983 345.928 428.89C344.848 428.13 343.941 428.983 343.715 430.01C340.781 430.943 337.875 431.97 334.981 432.983C332.128 434.01 329.235 434.863 326.315 435.543C326.261 435.437 326.195 435.343 326.115 435.25C325.595 434.397 324.488 434.21 323.848 435.063C323.528 435.41 323.328 435.783 323.194 436.183C318.448 437.09 313.621 437.503 308.821 437.41C308.448 436.317 307.675 435.997 306.315 436.957C306.221 437.063 306.141 437.183 306.061 437.303C300.728 436.97 295.461 435.997 290.328 434.33C290.261 433.423 289.941 432.717 289.248 432.29C288.501 432.197 287.888 432.597 287.394 433.277C286.514 432.93 285.634 432.57 284.768 432.183C282.181 431.303 278.288 429.223 273.888 426.983C272.221 426.13 270.488 425.25 268.715 424.397C268.835 423.49 268.661 422.73 268.075 422.183C267.328 421.863 266.568 422.25 265.821 423.05C264.035 422.25 262.235 421.503 260.488 420.877C258.061 420.01 255.714 419.37 253.568 419.103C247.901 418.41 243.608 420.317 242.875 427.597C246.155 432.45 250.555 436.183 255.515 439.237C255.195 440.01 255.421 440.957 256.128 441.477L255.088 443.29C251.821 441.397 248.715 439.263 245.848 436.757C243.035 434.117 236.808 428.957 239.648 424.81C239.728 418.903 245.541 415.37 250.941 415.237C259.875 415.503 267.701 419.543 275.541 423.597C280.395 426.103 285.261 428.623 290.394 430.223C301.261 434.29 312.928 434.637 324.194 432.103C337.754 429.57 370.848 411.263 374.555 434.103Z" fill="#473025"/>
<path d="M356.609 451.49C355.502 452.157 354.355 452.77 353.195 453.33C350.875 448.703 348.022 444.33 346.435 439.357C345.609 436.45 344.302 433.623 343.662 430.69C343.649 430.463 343.662 430.237 343.716 430.01C344.569 429.73 345.422 429.477 346.289 429.21C349.262 432.263 349.849 440.05 352.529 444.037C352.982 445.65 355.569 448.877 356.609 451.49Z" fill="#473025"/>
<path d="M356.048 455.05C355.728 455.197 355.395 455.237 355.075 455.197C354.928 455.17 354.781 455.143 354.648 455.09C354.168 454.917 353.755 454.57 353.555 454.077C353.435 453.823 353.314 453.583 353.194 453.33C354.354 452.77 355.501 452.157 356.608 451.49C357.248 453.063 357.315 454.41 356.048 455.05Z" fill="#473025"/>
<path d="M355.742 456.183C355.048 456.57 354.355 456.943 353.689 457.303C345.302 461.397 336.075 462.437 326.835 462.303L326.875 460.663C327.955 460.703 329.089 459.917 328.889 458.557C333.582 458.543 338.235 458.13 342.875 457.01C346.448 456.183 349.915 454.93 353.195 453.33C353.315 453.583 353.435 453.823 353.555 454.077C353.755 454.57 354.169 454.917 354.649 455.09C354.782 455.143 354.928 455.17 355.075 455.197L355.742 456.183Z" fill="#473025"/>
<path d="M345.928 428.89C346.048 428.983 346.168 429.103 346.288 429.21C345.422 429.477 344.568 429.73 343.715 430.01C343.942 428.983 344.848 428.13 345.928 428.89Z" fill="#473025"/>
<path d="M328.889 458.53C328.889 458.543 328.889 458.543 328.889 458.557C327.622 458.557 326.342 458.53 325.062 458.477C324.262 452.57 323.795 446.597 323.195 440.703C323.168 439.25 322.742 437.583 323.195 436.183C324.235 435.997 325.275 435.77 326.315 435.543C327.168 436.957 326.702 438.983 326.982 440.477C327.595 446.557 328.035 452.517 328.889 458.53Z" fill="#473025"/>
<path d="M326.689 460.65C326.542 460.637 326.408 460.597 326.275 460.557C325.715 460.343 325.262 459.89 325.142 459.117C325.115 458.903 325.075 458.69 325.062 458.477C326.342 458.53 327.622 458.557 328.889 458.557C329.089 459.917 327.955 460.703 326.875 460.663C326.822 460.663 326.755 460.663 326.689 460.65Z" fill="#473025"/>
<path d="M326.115 435.25C326.195 435.343 326.261 435.437 326.315 435.543C325.275 435.77 324.234 435.997 323.194 436.183C323.328 435.783 323.528 435.41 323.848 435.063C324.488 434.21 325.595 434.397 326.115 435.25Z" fill="#473025"/>
<path d="M316.155 484.383C317.182 484.383 318.062 485.223 318.075 486.263C317.595 489.61 312.822 487.73 310.475 488.09C304.982 487.73 299.462 487.677 293.982 486.997C293.542 486.943 293.101 486.89 292.661 486.823C289.048 485.81 284.088 486.263 281.435 483.397C280.635 480.263 284.542 481.17 287.555 481.957C288.728 482.263 289.768 482.557 290.342 482.597C293.595 483.21 296.875 483.61 300.182 483.757C305.515 484.01 310.822 484.45 316.155 484.383Z" fill="#473025"/>
<path d="M315.408 395.45C316.728 399.33 304.955 400.663 300.635 400.13C300.168 400.077 299.781 399.997 299.515 399.903C279.408 394.397 296.128 368.277 310.661 368.637C317.541 372.383 295.608 372.89 294.022 388.277C293.302 393.81 299.168 397.01 304.035 396.53C305.275 396.69 307.155 396.103 309.035 395.517C311.875 394.637 314.741 393.757 315.408 395.45Z" fill="#473025"/>
<path d="M308.821 437.41C310.035 440.943 307.114 452.61 306.994 454.277C306.821 455.09 306.781 456.197 306.488 457.063C305.275 456.903 304.035 456.743 302.821 456.557C302.821 456.49 302.834 456.423 302.834 456.357C303.501 451.89 304.541 447.476 305.021 442.983C305.408 441.116 304.994 438.917 306.061 437.303C306.981 437.357 307.901 437.397 308.821 437.41Z" fill="#473025"/>
<path d="M306.315 436.957C307.675 435.997 308.449 436.317 308.822 437.41C307.902 437.397 306.982 437.357 306.062 437.303C306.142 437.183 306.222 437.063 306.315 436.957Z" fill="#473025"/>
<path d="M306.488 457.063C306.195 457.917 305.661 458.543 304.515 458.45C304.368 458.437 304.235 458.397 304.101 458.357C303.355 458.09 302.808 457.357 302.822 456.557C304.035 456.743 305.275 456.903 306.488 457.063Z" fill="#473025"/>
<path d="M290.328 434.33C290.595 438.397 285.475 446.303 284.555 448.943C284.169 449.583 283.848 450.583 283.462 451.49C283.368 451.45 283.262 451.423 283.168 451.383C282.075 450.943 280.968 450.503 279.835 450.077C280.768 447.21 283.382 443.41 283.808 441.823C285.128 440.143 285.808 435.357 287.395 433.277C288.355 433.65 289.342 433.997 290.328 434.33Z" fill="#473025"/>
<path d="M289.248 432.29C289.942 432.717 290.261 433.423 290.328 434.33C289.341 433.997 288.355 433.65 287.395 433.277C287.888 432.597 288.502 432.197 289.248 432.29Z" fill="#473025"/>
<path d="M283.168 451.383C283.262 451.423 283.368 451.45 283.462 451.49C282.928 452.677 282.275 453.717 281.062 453.557C280.902 453.543 280.729 453.503 280.555 453.45C280.475 453.41 280.382 453.383 280.302 453.343C279.302 452.837 279.328 451.583 279.835 450.077C280.968 450.503 282.075 450.943 283.168 451.383Z" fill="#473025"/>
<path d="M281.901 455.023C281.328 454.823 280.768 454.623 280.208 454.41L280.555 453.45C280.728 453.503 280.901 453.543 281.061 453.557C282.274 453.717 282.928 452.677 283.461 451.49C289.768 453.97 296.235 455.53 302.822 456.557C302.808 457.357 303.355 458.09 304.101 458.357C304.235 458.397 304.368 458.437 304.515 458.45C305.661 458.543 306.195 457.917 306.488 457.063C311.275 457.663 316.088 458.01 320.928 458.263C322.314 458.357 323.688 458.437 325.061 458.477C325.074 458.69 325.115 458.903 325.141 459.117C325.261 459.89 325.715 460.343 326.275 460.557C326.408 460.597 326.542 460.637 326.688 460.65C326.755 460.663 326.821 460.663 326.875 460.663L326.835 462.303C322.888 462.25 318.941 461.983 315.061 461.637C312.194 461.517 309.341 461.29 306.515 460.93C298.115 459.903 289.888 457.877 281.901 455.023Z" fill="#473025"/>
<path d="M280.302 453.343C280.382 453.383 280.476 453.41 280.556 453.45L280.209 454.41C279.289 454.077 278.382 453.73 277.475 453.357C269.942 450.33 262.156 447.383 255.089 443.29L256.128 441.477C256.275 441.57 256.422 441.637 256.556 441.69C256.716 441.743 256.862 441.77 257.009 441.797C257.662 441.877 258.235 441.597 258.769 441.117C265.475 444.743 272.902 447.397 279.835 450.077C279.329 451.583 279.302 452.837 280.302 453.343Z" fill="#473025"/>
<path d="M282.649 344.13C282.649 346.557 281.635 350.903 278.622 350.53C278.435 350.503 278.235 350.463 278.035 350.397C275.808 349.303 275.155 346.557 273.728 344.69C270.222 339.703 265.648 335.543 260.262 332.783C256.942 330.637 252.235 331.543 249.289 329.117C247.702 324.317 257.915 327.837 259.995 328.557C267.995 331.837 274.488 338.183 278.702 345.597C278.888 344.223 278.862 342.277 280.728 342.25C281.742 342.237 282.675 343.09 282.649 344.13Z" fill="#473025"/>
<path d="M263.062 353.53C266.062 354.517 279.715 360.89 276.849 364.677C276.422 365.117 275.822 365.29 275.262 365.223C274.848 365.17 274.462 364.997 274.168 364.69C264.568 354.903 250.155 354.103 237.328 355.797C233.955 356.197 232.862 352.703 236.582 352.063C245.409 351.157 254.542 350.57 263.062 353.53Z" fill="#473025"/>
<path d="M268.074 422.183C268.661 422.73 268.835 423.49 268.715 424.397C267.755 423.93 266.781 423.477 265.821 423.05C266.568 422.25 267.328 421.863 268.074 422.183Z" fill="#473025"/>
<path d="M265.821 423.05C266.781 423.477 267.755 423.93 268.715 424.397C268.248 427.903 263.448 433.517 262.394 435.757C261.288 436.903 260.234 439.783 258.768 441.117C257.661 440.517 256.581 439.903 255.515 439.237C255.581 439.09 255.648 438.957 255.741 438.837C257.235 436.823 258.728 434.463 260.021 432.503C261.581 430.917 263.661 425.33 265.821 423.05Z" fill="#473025"/>
<path d="M256.128 441.477C255.422 440.957 255.195 440.01 255.515 439.237C256.582 439.903 257.662 440.517 258.768 441.117C258.235 441.597 257.662 441.877 257.009 441.797C256.862 441.77 256.715 441.743 256.555 441.69C256.422 441.637 256.275 441.57 256.128 441.477Z" fill="#473025"/>
<path d="M225.675 438.69C226.542 440.93 225.236 442.21 223.822 441.717C223.316 441.53 222.796 441.117 222.356 440.423C221.716 438.85 221.435 437.25 221.569 435.663C221.849 434.997 222.622 434.877 223.235 435.143C223.955 435.477 224.435 436.023 224.795 436.663C224.955 437.077 225.129 437.49 225.302 437.903C225.435 438.13 225.542 438.343 225.622 438.557C225.636 438.61 225.662 438.65 225.675 438.69Z" fill="#473025"/>
<path d="M225.622 438.557C225.542 438.343 225.435 438.13 225.302 437.903C225.128 437.49 224.955 437.077 224.795 436.663C225.128 437.237 225.382 437.903 225.622 438.557Z" fill="#473025"/>
<path d="M181.635 202.317C181.635 203.25 195.982 207.477 200.822 214.783C207.048 224.17 208.061 247.197 210.501 247.197C212.955 247.197 213.955 224.263 220.128 214.877C224.968 207.53 239.382 204.743 239.382 202.317C239.382 199.89 224.635 197.223 219.755 189.97C213.808 181.143 212.368 159.303 210.501 159.303C208.648 159.303 207.488 180.117 202.022 188.81C197.075 196.663 181.635 201.383 181.635 202.317Z" fill="#EDE7CB"/>
<path d="M184.822 202.316C185.035 202.41 185.262 202.503 185.475 202.61C190.329 204.783 198.475 208.423 202.115 213.916C205.875 219.583 207.782 229.783 209.182 237.237C209.595 239.423 210.062 241.943 210.502 243.73C210.942 241.943 211.422 239.423 211.822 237.237C213.209 229.823 215.115 219.677 218.822 214.023C221.955 209.263 228.489 206.397 233.249 204.303C234.715 203.663 236.462 202.89 237.368 202.33C236.435 201.783 234.635 201.023 233.115 200.383C228.262 198.33 221.622 195.53 218.462 190.837C214.715 185.277 212.755 175.183 211.315 167.81C211.062 166.476 210.782 165.063 210.515 163.837C210.262 165.063 210.009 166.463 209.755 167.797C208.475 174.743 206.729 184.25 203.342 189.637C199.582 195.61 190.435 199.77 185.528 201.997C185.302 202.103 185.062 202.21 184.822 202.316ZM210.502 248.743C208.182 248.743 207.622 245.77 206.128 237.81C204.768 230.623 202.928 220.77 199.528 215.637C196.382 210.89 188.462 207.356 184.195 205.45C180.955 203.996 180.075 203.61 180.075 202.316C180.075 201.05 180.955 200.65 184.235 199.157C188.848 197.063 197.435 193.17 200.702 187.983C203.768 183.103 205.462 173.93 206.702 167.237C208.008 160.143 208.448 157.743 210.502 157.743C212.528 157.743 212.955 159.943 214.368 167.21C215.755 174.33 217.649 184.063 221.049 189.103C223.689 193.023 229.835 195.61 234.328 197.516C238.595 199.303 240.942 200.303 240.942 202.316C240.942 204.316 238.648 205.33 234.502 207.157C230.088 209.09 224.062 211.743 221.435 215.743C218.062 220.863 216.222 230.65 214.889 237.81C213.395 245.77 212.848 248.743 210.502 248.743Z" fill="#473025"/>
<path d="M58.2485 204.65C58.2485 205.157 66.0882 207.463 68.7282 211.45C72.1282 216.583 72.6886 229.143 74.022 229.143C75.3553 229.143 75.9018 216.623 79.2751 211.503C81.9151 207.49 89.7819 205.97 89.7819 204.65C89.7819 203.317 81.7282 201.863 79.0616 197.903C75.8216 193.09 75.0353 181.157 74.022 181.157C73.0086 181.157 72.3685 192.517 69.3819 197.263C66.6885 201.557 58.2485 204.143 58.2485 204.65Z" fill="#EDE7CB"/>
<path d="M61.7017 204.637C64.435 205.89 68.182 207.797 70.022 210.583C72.1553 213.797 73.1682 219.223 73.9949 223.583C73.9949 223.623 74.0086 223.677 74.022 223.717C74.022 223.677 74.0352 223.623 74.0485 223.583C74.8485 219.25 75.8617 213.85 77.9683 210.65C79.795 207.877 83.4618 206.263 86.1418 205.077C86.4351 204.957 86.7686 204.81 87.0886 204.663C86.7553 204.517 86.3953 204.37 86.0886 204.237C83.3553 203.09 79.6219 201.503 77.7819 198.77C75.8885 195.957 74.8083 191.223 74.035 187.343C73.355 190.983 72.395 195.397 70.7017 198.09C68.7817 201.143 64.555 203.317 61.7017 204.637ZM74.022 230.703C72.1553 230.703 71.7949 228.783 70.9282 224.157C70.2082 220.29 69.2083 214.997 67.435 212.317C65.8217 209.89 61.6217 208.01 59.3683 206.997C57.5283 206.183 56.7017 205.81 56.7017 204.65C56.7017 203.49 57.4885 203.143 59.3819 202.277C61.8352 201.157 66.3949 199.09 68.0616 196.437C69.6616 193.89 70.5819 188.957 71.2485 185.357C72.0219 181.17 72.302 179.597 74.022 179.597C75.702 179.597 75.982 181.05 76.822 185.343C77.5286 188.943 78.582 194.397 80.3553 197.037C81.6886 198.997 84.9283 200.37 87.3017 201.37C89.8217 202.437 91.3418 203.077 91.3418 204.65C91.3418 206.197 89.8618 206.85 87.4084 207.93C85.0751 208.957 81.8883 210.357 80.5683 212.357C78.8083 215.037 77.8217 220.303 77.1017 224.157C76.235 228.783 75.8753 230.703 74.022 230.703Z" fill="#473025"/>
<path d="M560.102 614.41C560.102 614.917 567.942 617.223 570.582 621.21C573.982 626.343 574.542 638.903 575.875 638.903C577.208 638.903 577.741 626.383 581.128 621.263C583.768 617.25 591.635 615.73 591.635 614.41C591.635 613.077 583.582 611.623 580.915 607.663C577.675 602.85 576.888 590.917 575.875 590.917C574.848 590.917 574.222 602.277 571.235 607.023C568.542 611.317 560.102 613.903 560.102 614.41Z" fill="#EDE7CB"/>
<path d="M563.556 614.397C566.289 615.65 570.035 617.557 571.875 620.357C574.009 623.557 575.022 628.983 575.835 633.343C575.849 633.383 575.862 633.437 575.862 633.477C575.875 633.437 575.889 633.383 575.889 633.343C576.702 629.01 577.716 623.61 579.822 620.41C581.649 617.637 585.315 616.023 587.995 614.837C588.288 614.717 588.622 614.57 588.942 614.423C588.609 614.277 588.249 614.13 587.942 613.997C585.209 612.85 581.476 611.263 579.622 608.53C577.729 605.73 576.662 600.997 575.889 597.103C575.209 600.743 574.249 605.157 572.556 607.85C570.636 610.903 566.409 613.077 563.556 614.397ZM575.875 640.463C574.009 640.463 573.649 638.543 572.782 633.917C572.049 630.05 571.062 624.757 569.289 622.077C567.676 619.65 563.476 617.77 561.222 616.757C559.382 615.943 558.542 615.57 558.542 614.41C558.542 613.25 559.329 612.903 561.235 612.037C563.689 610.917 568.249 608.85 569.915 606.197C571.515 603.65 572.436 598.717 573.089 595.117C573.862 590.93 574.155 589.357 575.875 589.357C577.555 589.357 577.835 590.81 578.675 595.103C579.382 598.703 580.435 604.157 582.209 606.797C583.529 608.757 586.782 610.13 589.156 611.13C591.676 612.197 593.195 612.837 593.195 614.41C593.195 615.957 591.715 616.61 589.249 617.69C586.929 618.717 583.742 620.117 582.422 622.117C580.662 624.797 579.676 630.063 578.956 633.917C578.089 638.543 577.729 640.463 575.875 640.463Z" fill="#473025"/>
</svg>
