<svg width="1878" height="697" viewBox="0 0 1878 697" fill="none" xmlns="http://www.w3.org/2000/svg">
<path d="M11.3504 430.73C7.71175 409.37 4.03841 387.637 1.77974 366.37C-0.52959 344.61 -0.841594 322.583 2.34241 300.97C6.11841 275.343 12.2597 248.93 18.5824 223.477C25.0224 197.57 32.1864 170.957 43.3144 147.263C51.1024 130.69 61.1477 113.797 76.5837 102.343C90.3691 92.1035 108.122 85.9435 125.254 85.6101C133.022 85.4635 142.298 86.89 152.709 89.8367C162.841 92.69 173.902 98.8901 182.089 105.343C191.033 112.397 199.821 122.463 205.886 132.197C213.473 144.383 217.056 158.877 218.422 173.063C219.549 184.757 218.84 194.397 215.57 201.663C212.301 208.93 207.441 215.157 200.937 220.317C194.428 225.49 186.804 229.863 178.134 233.423C169.466 236.983 160.588 241.023 151.561 245.357C142.504 249.703 133.361 255.317 125.23 261.077C116.854 267.01 108.504 275.77 102.489 284.01C96.1171 292.73 89.1877 304.237 86.6771 314.25C83.2211 328.037 83.5371 340.717 85.4771 355.37C86.4984 363.077 88.5517 370.623 90.9491 377.423C93.3491 384.223 96.4051 389.997 100.076 394.743C103.749 399.49 108.052 402.917 113.021 405.063C117.986 407.21 123.853 407.57 130.745 406.157C137.897 404.703 144.872 401.957 151.724 397.997C158.57 394.023 165.473 389.81 172.441 385.37C179.402 380.93 186.648 376.73 194.157 372.784C201.661 368.824 209.702 366.063 218.196 364.437C228.806 362.423 237.702 362.623 244.649 364.997C251.594 367.37 257.037 371.29 260.952 376.77C264.865 382.263 267.712 389.077 269.576 397.21C271.442 405.357 273.056 414.437 274.066 424.063C278.444 465.743 277.326 508.53 273.214 550.37C269.653 586.61 250.382 623.85 217.573 639.263C197.397 648.743 177.254 652.89 155.634 647.903C133.65 642.837 115.168 625.13 99.3598 608.677C76.0744 584.423 57.1038 554.623 41.4278 525.21C25.2571 494.863 17.1677 464.877 11.3504 430.73Z" fill="#473025"/>
<path d="M484.084 365.517C486.297 349.784 472.525 338.517 457.707 341.09C447.301 342.89 438.835 347.237 432.84 354.063C426.844 360.89 423.665 369.757 423.341 380.61C423.131 387.65 424.045 394.49 426.057 401.077C428.069 407.663 430.372 414.117 432.967 420.397C435.565 426.677 437.881 433.17 439.984 439.837C442.091 446.517 443.223 453.663 443.575 461.25C444.045 471.37 443.959 481.677 444.076 491.663C444.191 501.423 443.175 512.357 441.152 521.89C439.18 531.197 434.752 541.77 429.345 549.73C423.308 558.61 412.435 566.69 402.668 570.93C392.233 575.477 379.844 577.53 368.791 574.677C357.156 571.663 347.099 564.85 338.26 557.557C328.425 549.45 319.499 538.223 312.904 527.037C306.307 515.837 301.421 504.957 297.159 492.41C296.837 491.13 296.681 490.49 296.381 489.237C293.719 479.09 293.681 466.477 295.675 456.25C298.029 444.157 300.589 432.183 303.735 420.33C307.071 407.757 310.899 394.797 313.789 382.37C316.8 369.423 318.092 356.97 318.096 343.543C318.1 332.943 315.56 320.21 311.128 310.49C305.665 298.517 300.096 286.343 294.171 274.503C287.405 260.97 280.657 246.997 275.147 233.13C269.112 217.943 264.089 201.73 261.748 185.61C260.081 174.13 259.031 162.143 260.753 150.357C262.215 140.343 266.055 131.93 271.981 124.37C277.901 116.823 285.868 110.61 295.301 106.197C306.067 101.157 318.183 99.1433 330.012 98.77C340.865 98.4366 348.924 102.05 354.211 109.384C359.497 116.704 361.539 126.37 361.489 137.61C361.447 147.49 361.108 157.557 361.895 167.45C362.764 178.357 364.908 189.623 367.403 200.197C369.985 211.13 373.552 222.41 377.337 232.943C380.613 242.063 385.075 251.85 390.376 260.09C395.156 267.517 400.584 273.05 406.752 276.703C412.916 280.357 420.215 281.344 428.435 279.85C437.708 278.184 443.679 273.784 446.247 266.584C448.815 259.37 447.677 250.597 443.361 239.957C441.339 234.97 438.772 229.77 435.76 224.357C432.748 218.93 429.641 213.05 426.64 206.73C423.641 200.423 420.832 193.557 418.627 186.263C416.425 178.97 415.097 171.023 416.259 162.263C419.239 139.797 429.549 120.21 443.46 103.663C453.501 91.7168 470.137 79.9967 487.063 79.4101C501.693 78.8901 519.119 86.9835 520.752 103.33C523.001 125.837 515.625 150.463 512.309 172.997C511.271 180.05 510.245 187.623 510.436 195.797C510.627 203.983 511.883 212.37 513.791 220.877C515.7 229.383 518.381 237.69 521.319 245.73C524.259 253.77 527.295 261.024 530.241 267.184C535.137 277.424 540.427 287.743 546.808 297.303C552.259 305.463 557.539 314.05 562.137 322.823C565.925 330.037 569.712 337.117 573.439 343.97C577.168 350.823 579.796 358.117 582.317 365.81C584.84 373.503 586.765 381.53 588.193 389.85C589.623 398.17 589.717 407.277 588.769 417.13C587.703 428.21 585.275 439.957 582.199 450.57C579.249 460.757 574.961 471.597 570.141 481.023C565.721 489.663 559.575 498.917 552.901 506.077C546.233 513.25 538.457 518.61 528.747 522.09C518.389 525.797 509.519 526.917 501.933 525.17C494.341 523.423 487.7 519.81 482.269 514.397C476.837 508.997 472.359 502.237 469.507 493.823C466.655 485.397 465.015 476.383 464.605 466.85C464.553 465.637 464.529 465.037 464.488 463.823C464.191 455.13 464.992 446.397 466.815 437.677C468.637 428.97 470.808 420.383 473.208 411.957C475.607 403.543 477.959 395.437 480.151 387.65C482.34 379.877 483.18 371.944 484.084 365.517Z" fill="#473025"/>
<path d="M657.907 218.81C658.209 222.33 658.861 226.703 659.929 231.93C660.999 237.157 662.572 242.103 664.531 246.703C666.491 251.317 668.955 255.197 671.828 258.317C674.703 261.45 678.053 262.837 681.935 262.45C684.896 262.143 687.637 260.397 690.256 257.183C692.871 253.957 695.243 250.077 697.427 245.543C699.605 241.023 701.401 236.263 702.824 231.317C704.244 226.397 704.976 222.05 704.92 218.29C704.86 214.25 704.208 210.49 702.935 206.997C701.663 203.503 700.113 200.397 698.024 197.73C695.937 195.063 693.433 192.943 690.459 191.423C687.479 189.917 684.295 189.263 680.889 189.503C674.064 189.997 667.993 193.45 663.347 199.663C658.696 205.877 657.324 212.05 657.907 218.81ZM738.44 292.223C738.624 295.637 740.943 299.81 745.168 304.783C749.397 309.757 754.497 315.357 760.275 321.597C766.051 327.837 772.119 334.743 778.321 342.223C784.525 349.69 789.847 357.543 794.375 365.53C798.903 373.53 802.293 381.65 804.717 389.57C807.14 397.49 807.471 405.237 806.876 411.783C806.316 417.957 804.575 423.303 801.609 428.09C798.644 432.877 795.001 436.903 790.631 440.41C786.257 443.917 781.415 446.703 776.059 448.89C770.703 451.063 765.403 452.303 760.152 452.49C756.825 452.61 753.441 452.543 749.996 452.277C746.552 452.01 743.272 451.343 740.188 450.25C737.099 449.157 734.285 447.57 731.777 445.45C729.268 443.343 727.233 440.41 725.628 436.863C724.261 433.85 723.107 429.25 722.408 423.023C721.708 416.783 721.129 409.863 720.645 402.117C720.16 394.383 719.863 386.25 718.861 377.303C717.859 368.37 716.165 359.517 714.016 351.317C711.865 343.103 709.239 336.063 706.36 330.583C703.484 325.103 700.224 322.397 696.813 322.637C693.4 322.863 690.741 324.797 688.837 328.29C686.933 331.797 686.332 335.85 686.901 340.383C687.839 347.85 689.737 354.477 692.596 360.41C695.456 366.343 698.26 371.93 701.041 377.17C703.825 382.41 705.953 387.89 707.997 393.357C710.043 398.81 710.781 404.703 710.237 411.05C709.604 418.463 707.448 425.29 703.735 431.89C700.023 438.49 695.408 444.41 689.844 449.823C684.279 455.237 678.051 460.01 671.1 464.157C664.148 468.29 657.125 471.25 650.332 472.983C637.669 476.237 622.653 476.997 611.585 469.943C599.437 462.197 596.489 445.503 597.881 431.637C597.991 430.397 598.047 429.783 598.16 428.557C598.936 420.077 601.005 411.57 604.215 403.17C607.425 394.757 610.817 386.503 614.279 378.383C617.736 370.263 621.327 362.103 623.087 354.357C624.848 346.61 624.767 338.063 622.653 329.597C619.581 317.277 615.169 305.717 609.527 294.33C603.591 282.343 596.464 270.277 589.673 258.41C582.723 246.277 575.447 233.77 570.317 221.423C564.836 208.237 562.257 197.037 563.392 183.01C564.735 166.41 574.265 150.423 583.767 136.41C593.683 121.783 606.248 107.357 619.981 95.6899C632.051 85.4366 644.592 75.5168 658.735 68.1834C669.956 62.3568 682.952 58.0368 695.64 58.3834C710.785 58.7834 725.919 62.5568 739.708 69.2501C753.316 75.8501 765.188 86.85 772.719 99.3433C780.821 112.797 786.375 127.503 788.715 143.597C791.307 161.437 790.945 180.183 787.896 197.957C785.595 211.37 783.157 222.917 777.681 234.917C773.605 243.837 767.311 253.463 760.728 261.303C754.76 268.41 749.54 274.303 744.929 278.863C740.316 283.423 738.207 287.89 738.44 292.223Z" fill="#473025"/>
<path d="M902.597 75.0767C914.253 77.0367 925.856 85.2234 931.762 95.4634C938.512 107.17 940.944 121.69 939.298 135.37C938.382 142.983 936.6 151.33 933.926 160.29C931.25 169.263 928.449 178.69 925.661 188.53C922.798 198.65 920.33 209.103 918.453 219.463C916.161 232.103 913.738 244.823 911.69 257.463C909.245 272.557 908.085 288.13 908.589 303.45C909.062 317.824 909.705 332.277 910.452 346.677C911.168 360.49 911.912 374.543 912.037 388.143C912.156 401.103 911.124 413.877 909.572 426.984C909.458 427.704 909.402 428.063 909.294 428.77C905.189 461.997 890.448 485.424 853.452 475.184C840.826 471.69 828.558 465.157 819.961 455.263C813.026 447.29 808.497 433.477 809.792 422.823C809.87 421.97 809.909 421.53 809.988 420.65C810.713 412.61 812.952 404.45 816.277 396.263C819.602 388.077 823.329 378.69 827.085 368.877C831.417 357.57 835.377 345.837 838.704 334.45C843.298 318.73 846.041 302.143 848.364 285.637C850.458 270.743 851.248 255.477 850.305 240.45C849.649 229.997 848.309 218.583 845.949 208.597C843.837 199.663 842.772 189.997 841.96 180.57C841.061 170.143 842.412 158.397 844.682 148.25C849.154 128.277 856.356 109.277 867.034 92.3567C874.377 80.7167 888.654 72.7301 902.597 75.0767Z" fill="#473025"/>
<path d="M1060.79 123.357C1065.67 124.783 1071.27 126.703 1077.63 129.117C1083.99 131.53 1090.64 134.49 1097.54 137.957C1104.43 141.41 1111.2 145.477 1117.8 150.05C1124.4 154.637 1130.23 159.837 1135.24 165.597C1140.26 171.357 1144.15 177.703 1146.94 184.663C1149.72 191.637 1150.82 199.21 1150.32 207.517C1149.62 219.37 1147.54 227.757 1143.82 232.65C1140.1 237.557 1133.24 238.81 1123.15 236.383C1118.48 235.263 1114.12 233.303 1110.1 230.49C1106.07 227.677 1102.1 224.69 1098.22 221.557C1094.34 218.41 1090.42 215.437 1086.47 212.65C1082.51 209.85 1078.26 207.917 1073.67 206.85C1069.28 205.823 1065.27 206.437 1061.63 208.73C1057.98 211.023 1056.04 214.903 1055.86 220.41C1055.71 225.17 1058.4 230.33 1064 235.89C1069.62 241.437 1076.78 247.583 1084.92 254.877C1093.83 262.863 1102.66 271.53 1110.39 280.157C1119.48 290.29 1126.86 301.29 1133.35 313.397C1140.19 326.157 1144.46 341.223 1146.83 355.677C1149.47 371.73 1148.87 389.463 1145.3 405.517C1140.9 425.237 1137.3 445.903 1129.02 464.383C1123.7 476.25 1115.31 487.157 1104.08 493.89C1091.95 501.183 1077.31 504.557 1063.4 504.943C1045.12 505.45 1026.2 503.97 1008.45 500.97C995.791 498.81 983.094 495.263 971.437 490.29C960.624 485.663 949.612 479.143 940.629 470.797C931.524 462.343 924.722 451.517 921.13 440.73C916.297 426.223 919.22 408.303 921.941 392.437C923.305 384.49 926.36 375.317 929.972 366.01C933.584 356.703 937.878 348.023 942.792 340.223C947.7 332.437 953.07 326.237 958.842 321.837C964.612 317.423 970.477 315.757 976.373 316.917C982.076 318.037 986.993 321.423 991.057 327.103C995.121 332.783 998.977 338.97 1002.76 345.503C1006.54 352.037 1010.64 358.09 1015.05 363.623C1019.46 369.157 1024.71 372.45 1030.74 373.61C1039.67 375.343 1045.23 371.597 1047.47 362.05C1049.06 355.33 1048.02 348.517 1044.38 341.663C1040.74 334.797 1035.91 327.223 1029.94 318.997C1023.45 310.05 1016.88 300.89 1010.77 291.903C1003.87 281.783 997.282 270.877 991.64 260.077C985.876 249.05 979.936 236.703 975.757 225.423C970.978 212.53 969.514 200.703 970.201 186.677C970.604 178.49 973.036 170.437 976.472 163.463C979.908 156.503 984.196 150.29 989.269 144.93C994.337 139.583 999.952 135.077 1006.12 131.557C1012.29 128.023 1018.52 125.397 1024.84 123.73C1031.16 122.063 1037.34 121.197 1043.58 121.13C1049.8 121.063 1055.55 121.823 1060.79 123.357Z" fill="#473025"/>
<path d="M1283.88 188.743C1289.36 190.583 1295.42 192.743 1302 195.21C1308.59 197.663 1315.15 200.397 1321.64 203.37C1328.14 206.343 1334.32 209.69 1340.18 213.383C1346.03 217.063 1351.18 221.077 1355.4 225.437C1360.66 230.837 1364.12 236.237 1365.96 241.477C1367.82 246.703 1368.19 253.05 1367.44 260.69C1366.62 269.343 1365.12 276.103 1361.98 281.277C1358.83 286.45 1353.03 288.237 1344.82 285.917C1340.98 284.823 1337.64 283.17 1334.79 280.997C1331.92 278.823 1329.3 276.557 1326.9 274.25C1324.48 271.957 1322.11 269.863 1319.86 267.93C1317.62 265.997 1315.23 264.663 1312.68 263.93C1310.5 263.317 1308.68 263.73 1307.28 265.21C1305.88 266.677 1304.79 268.65 1303.96 271.197C1303.12 273.757 1302.5 276.757 1302 280.29C1301.52 283.81 1301 287.357 1300.74 290.61C1299.32 307.263 1298.1 324.077 1297.8 340.637C1297.5 357.797 1297.78 375.343 1298.22 392.623C1298.62 408.197 1299.24 423.957 1300.55 439.45C1301.66 452.57 1302.4 465.757 1302.9 478.983C1303.27 488.89 1302.56 500.103 1299.88 509.717C1297.43 518.463 1293.92 525.543 1289.1 530.663C1284.27 535.797 1278.42 538.997 1271.42 540.317C1264.43 541.637 1256.88 541.357 1248.8 539.61C1240.7 537.863 1232.47 534.757 1224.15 530.463C1215.83 526.157 1208.1 520.703 1201.08 514.197C1194.06 507.69 1188.12 500.263 1183.51 491.903C1178.9 483.557 1176.2 474.357 1176 464.263C1176 463.757 1176 463.503 1176 463.01C1175.98 448.85 1180.22 434.797 1185.66 421.89C1192.54 405.557 1199.82 389.383 1207.34 373.317C1215.2 356.503 1223.23 339.303 1229.82 322.37C1235.82 306.957 1240.47 290.703 1241.83 273.783C1242.16 269.517 1242.19 265.397 1242.23 261.717C1242.26 258.037 1242.04 254.623 1241.52 251.477C1241 248.343 1239.9 245.663 1238.15 243.463C1236.4 241.25 1233.64 239.61 1229.84 238.557C1226.79 237.703 1223.88 237.61 1221.15 238.25C1218.42 238.903 1215.63 239.73 1212.8 240.717C1209.96 241.703 1207.08 242.53 1204.18 243.17C1201.26 243.81 1198.07 243.677 1194.59 242.77C1186.48 240.637 1180.12 236.197 1175.7 229.437C1171.27 222.677 1169.35 214.103 1170.07 203.783C1170.7 194.877 1173.36 188.05 1178 183.37C1182.63 178.703 1188.36 175.503 1195.18 173.85C1201.99 172.183 1209.63 171.743 1218.07 172.503C1226.5 173.263 1234.83 174.597 1243.02 176.437C1251.22 178.29 1258.95 180.437 1266.22 182.837C1273.47 185.25 1279.35 187.223 1283.88 188.743Z" fill="#473025"/>
<path d="M1441.67 246.397C1448.03 248.397 1452.8 251.73 1456.06 256.37C1459.31 261.023 1461.63 266.237 1463.23 272.157C1464.82 278.09 1466.23 284.157 1466.99 291.117C1467.76 298.063 1467.94 305.17 1467.82 312.063C1467.68 318.983 1467.51 325.157 1467.58 330.33C1467.66 335.503 1468.67 338.583 1470.84 339.356C1472.5 339.956 1474.84 338.156 1477.82 334.103C1480.78 330.063 1484.15 324.917 1487.74 319.01C1491.32 313.117 1495.1 307.076 1498.91 301.236C1502.71 295.396 1506.39 290.743 1510.68 286.37C1514.98 282.01 1519.68 278.836 1524.56 276.703C1529.44 274.583 1534.46 274.33 1539.46 275.81C1544.31 277.237 1547.83 279.53 1550.14 282.81C1552.44 286.077 1553.75 290.543 1554.19 295.223C1554.62 299.89 1553.96 305.97 1552.04 314.01C1549.62 324.077 1546.38 334.17 1542.95 343.89C1539.35 354.103 1536.87 364.823 1534.47 375.33C1531.27 389.37 1528.16 403.636 1525.04 417.77C1521.75 432.65 1518.35 447.596 1515.02 462.423C1512.23 474.743 1508.86 487.196 1506.22 499.423C1502.71 515.69 1501.23 533.13 1498.23 549.397C1496.16 560.65 1493.79 572.583 1489.18 583.343C1485.68 591.45 1481.68 596.623 1477.42 598.89C1473.15 601.17 1468.7 601.397 1464.1 599.583C1459.39 597.73 1455.3 594.13 1451.68 588.623C1448.07 583.116 1445.1 576.197 1442.68 567.81C1440.27 559.423 1438.5 549.676 1437.32 539.036C1436.12 528.236 1435.7 516.463 1436.8 505.743C1437.92 494.957 1439.03 483.41 1443.51 473.21C1446.54 466.303 1450.07 459.517 1453.7 453.343C1457.31 447.17 1460.98 440.797 1464.58 434.33C1468.16 427.877 1471.87 419.463 1475.68 409.023C1477.82 403.17 1479.08 398.343 1479.43 394.597C1479.79 390.863 1479.27 388.676 1477.88 388.036C1476.6 387.463 1474.74 389.157 1472.3 393.117C1469.86 397.09 1467.11 402.17 1464.1 408.33C1461.1 414.49 1457.92 421.157 1454.71 428.197C1451.48 435.223 1448.39 441.423 1445.44 446.823C1442.5 452.236 1439.74 456.37 1437.07 459.423C1434.4 462.49 1431.92 463.543 1429.48 462.703C1427.04 461.863 1425.44 459.45 1424.79 455.143C1424.14 450.823 1424.03 445.503 1424.58 439.01C1425.11 432.517 1426.07 425.49 1427.51 417.743C1428.94 410.01 1430.32 402.69 1431.58 395.943C1432.83 389.197 1433.76 383.516 1434.34 378.956C1434.92 374.396 1434.66 372.01 1433.58 371.77C1432.23 371.476 1430.75 372.383 1429.16 374.503C1427.58 376.636 1426.03 379.356 1424.54 382.623C1423.04 385.903 1421.64 389.49 1420.34 393.356C1419.03 397.223 1417.95 400.583 1417.11 403.423C1414.04 413.756 1412.32 423.13 1411.9 431.41C1411.47 439.69 1411.46 447.53 1411.88 454.797C1412.31 462.063 1412.72 468.463 1413.24 475.663C1413.75 482.863 1413.63 491.69 1413.14 502.023C1412.64 512.463 1411.96 522.97 1410.95 533.383C1409.92 543.783 1408.31 552.89 1405.86 560.29C1403.4 567.69 1399.99 573.156 1395.31 576.636C1390.64 580.103 1384.46 580.596 1376.07 578.17C1370.7 576.623 1365.63 572.423 1360.95 565.623C1356.28 558.836 1352.11 550.85 1348.63 541.756C1345.16 532.676 1342.28 523.157 1340.26 513.41C1338.23 503.677 1336.92 494.757 1336.94 487.197C1336.98 470.917 1338.99 455.45 1343.35 439.903C1348.16 422.823 1354.68 405.476 1360.91 388.423C1367.59 370.103 1374.58 351.543 1380.38 333.236C1385.82 316.103 1390.07 298.437 1391.27 280.623C1391.74 273.69 1393.14 267.237 1395.84 261.943C1398.55 256.65 1402.23 252.477 1406.74 249.383C1411.23 246.277 1416.51 244.49 1422.44 243.93C1428.36 243.357 1434.82 244.237 1441.67 246.397Z" fill="#473025"/>
<path d="M1603.4 457.263C1602.28 461.25 1601.78 464.877 1601.87 468.17C1601.95 471.463 1602.5 474.263 1603.46 476.623C1604.43 478.997 1605.64 481.037 1607.07 482.757C1608.5 484.49 1610 485.757 1611.55 486.57C1612.98 487.33 1614.64 487.81 1616.55 488.01C1618.46 488.21 1620.36 487.863 1622.26 486.957C1624.16 486.05 1625.88 484.61 1627.43 482.597C1628.98 480.597 1630.2 477.65 1631.15 473.703C1632.02 470.01 1632.58 465.89 1632.83 461.343C1633.08 456.797 1633.02 452.29 1632.64 447.863C1632.26 443.45 1631.51 439.557 1630.39 436.277C1629.27 432.983 1627.78 430.797 1625.92 429.717C1623.95 428.57 1621.9 428.703 1619.75 430.09C1617.6 431.49 1615.46 433.623 1613.34 436.463C1611.2 439.317 1609.27 442.583 1607.55 446.21C1605.83 449.85 1604.43 453.543 1603.4 457.263ZM1505.04 551.717C1505.67 542.343 1507.22 533.57 1510.07 526.13C1512.92 518.703 1516.38 512.143 1520.48 506.557C1524.58 500.97 1529.07 496.13 1533.84 492.77C1538.6 489.41 1543 485.61 1546.96 481.503C1553.34 475.077 1559.03 467.25 1564.02 458.303C1569.16 449.063 1573.79 439.117 1577.74 429.343C1581.78 419.33 1585.62 408.997 1589.02 398.703C1592.15 389.223 1595.35 379.717 1598.58 370.25C1601.56 361.463 1604.44 353.703 1607.2 346.957C1609.96 340.223 1612.95 334.783 1616.16 330.463C1619.82 325.557 1623.43 321.89 1627.07 319.29C1630.7 316.69 1634.3 314.877 1637.88 313.743C1641.47 312.61 1644.95 312.13 1648.34 312.277C1651.72 312.423 1654.92 313.05 1657.94 314.197C1662.36 315.863 1666.1 318.663 1669.14 322.85C1672.19 327.037 1674.07 333.81 1674.7 344.05C1675.06 349.05 1674.76 355.957 1673.82 365.117C1672.78 375.21 1671.68 385.303 1670.56 395.37C1669.32 406.49 1668.2 417.637 1667.24 428.77C1666.27 439.957 1665.86 449.637 1666.02 457.703C1666.18 467.877 1667.06 478.45 1668.83 488.463C1670.39 497.277 1672.19 505.41 1674.28 512.69C1676.38 519.983 1678.59 526.65 1680.95 532.557C1683.31 538.477 1685.51 543.783 1687.72 550.17C1689.92 556.57 1692 563.903 1694.02 572.237C1696.35 581.877 1697.94 592.023 1699.02 601.837C1700.14 612.023 1700.6 621.69 1700.03 630.397C1699.44 639.103 1697.75 646.29 1694.88 651.837C1692.03 657.37 1687.96 661.29 1682.8 663.557C1677.64 665.823 1671.39 665.997 1664.23 664.037C1655.2 661.57 1647.67 656.783 1641.62 649.637C1635.56 642.49 1630.62 634.103 1626.63 624.677C1622.62 615.17 1619.28 604.797 1616.9 594.757C1614.44 584.437 1612.22 574.85 1610.47 566.277C1608.71 557.717 1607.16 550.703 1605.7 545.103C1604.24 539.49 1602.38 536.277 1599.87 535.117C1599.35 534.877 1598.78 534.73 1598.16 534.663C1597.56 534.61 1597.03 534.81 1596.58 535.277C1592.67 537.983 1589.8 542.797 1588.18 550.077C1586.54 557.37 1585.44 565.783 1584.84 575.223C1584.24 584.65 1583.72 594.463 1583.11 604.357C1582.5 614.237 1580.87 622.623 1578.15 629.437C1575.44 636.25 1571.3 640.997 1565.91 643.863C1560.52 646.717 1552.36 645.877 1544.06 642.93C1530.48 638.117 1518.83 626.01 1513.14 612.757C1505.22 594.277 1503.7 571.983 1505.04 551.717Z" fill="#473025"/>
<path d="M1795.18 329.41C1798.71 328.623 1802.76 327.877 1807.43 327.064C1812.08 326.264 1816.96 325.677 1822.11 325.264C1827.26 324.85 1832.36 324.93 1837.42 325.53C1842.47 326.13 1846.98 327.717 1850.87 330.517C1854.76 333.33 1857.79 337.624 1859.88 343.797C1861.96 349.97 1862.54 358.584 1861.6 370.05C1860.5 383.757 1858.56 397.824 1853.83 410.717C1850.11 420.917 1843.62 428.637 1834.99 432.69C1831.02 434.57 1827.44 434.85 1824.26 433.637C1821.08 432.423 1818.02 430.837 1815.06 428.903C1812.11 426.957 1809.15 425.21 1806.18 423.65C1803.22 422.09 1799.95 421.81 1796.38 422.717C1792.96 423.597 1789.71 426.397 1786.59 431.143C1783.47 435.89 1781.54 441.903 1780.8 449.29C1780.16 455.663 1781.71 461.37 1785.6 466.264C1789.48 471.157 1794.58 475.97 1801.04 480.357C1807.52 484.743 1814.72 489.17 1822.76 493.397C1830.79 497.61 1838.47 503.05 1845.71 509.384C1852.95 515.73 1859.78 525.09 1863.94 533.757C1868.99 544.277 1871.03 556.224 1871.14 567.864C1871.26 582.104 1869.56 596.81 1867.16 610.65C1864.74 624.717 1860.75 639.357 1854.12 652.103C1847.84 664.157 1838.92 675.437 1827.54 683.157C1815.6 691.237 1801.14 695.37 1786.95 696.33C1777.5 696.984 1765.38 693.73 1757.24 689.237C1746.74 683.423 1737.74 674.77 1730.16 665.77C1721.31 655.223 1714.48 642.01 1709.11 628.903C1703.42 615.01 1699.56 600.264 1698.12 585.33C1697.55 579.224 1697.64 573.29 1698.47 567.69C1699.3 562.09 1700.88 557.503 1703.16 553.823C1705.44 550.13 1708.5 547.73 1711.94 546.237C1715.44 544.703 1719.43 544.143 1723.82 545.103C1728.06 546.023 1732.06 548.037 1735.91 551.01C1739.76 553.97 1743.66 556.85 1747.63 559.943C1751.6 563.037 1755.8 565.93 1760.18 568.543C1764.55 571.17 1769.11 572.637 1773.82 572.89C1780.8 573.29 1784.15 570.943 1784.06 566.69C1783.99 563.717 1782 560.304 1778.08 557.064C1774.16 553.81 1769.28 550.117 1763.59 545.797C1757.87 541.49 1751.91 536.37 1745.8 530.237C1739.7 524.117 1734.39 516.437 1729.88 507.184C1724.68 496.477 1722.32 484.624 1720.74 473.197C1718.58 457.824 1720.36 441.65 1722.59 426.184C1724.08 415.784 1726.68 406.09 1729.88 397.464C1733.07 388.837 1736.71 381.17 1740.82 374.37C1744.91 367.583 1749.31 361.69 1754.06 356.557C1758.8 351.41 1763.56 347.077 1768.36 343.423C1773.16 339.783 1777.87 336.77 1782.51 334.343C1787.15 331.917 1791.38 330.263 1795.18 329.41Z" fill="#473025"/>
<path d="M1391.31 32.7698C1392.59 32.3165 1393.78 32.0501 1394.88 31.9834C1397.1 31.8234 1398.74 32.21 1399.78 32.93C1400.92 33.73 1401.96 36.6234 1402.62 41.7834C1404.14 53.8767 1404.98 66.17 1405.94 78.3433C1407.74 101.37 1407.99 124.637 1407.87 147.663C1407.78 162.637 1407.82 170.81 1408 172.717C1408.44 177.53 1408.55 180.357 1408.51 180.997C1408.42 182.797 1407.88 184.037 1406.9 184.717C1405.91 185.41 1404.5 185.423 1402.64 184.77C1401.4 184.33 1400.4 183.663 1399.67 182.77C1395.79 171.01 1397.26 157.343 1397.36 145.183C1397.6 114.917 1396.04 84.3832 1393.5 54.0899C1392.88 47.5699 1392.35 44.3298 1391.9 44.1032C1391.8 44.0232 1391.76 43.9967 1391.67 43.93C1381.9 50.6767 1375.3 62.2766 1368.31 71.6899C1361.88 80.3832 1358.27 84.7565 1357.46 85.3032C1355.99 86.4365 1354.46 86.9434 1352.9 86.8501C1350.39 86.7167 1348 85.1832 1345.82 82.3566C1344.19 80.2499 1341 76.7299 1336.2 72.2232C1331.42 67.7166 1328.12 64.7566 1326.32 62.9433C1323.34 60.05 1320.79 57.7833 1318.68 56.01C1318.15 55.5033 1317.88 55.2632 1317.34 54.7566C1315.48 60.0766 1313.19 69.2766 1310.46 82.21C1308.67 95.13 1308.07 108.263 1307.22 121.223C1306.14 137.423 1305.52 146.903 1305.22 149.797C1304.9 152.69 1304.34 154.29 1303.55 154.543C1302.46 154.89 1300.42 154.81 1297.66 154.303C1293.2 153.503 1290.23 152.25 1288.9 150.69C1287.44 148.997 1286.6 146.49 1286.47 143.17C1286.34 139.85 1286.5 132.13 1287.22 120.277C1288.59 97.9433 1289.39 72.4367 1299.83 51.8633C1301.56 48.7833 1303.32 46.7033 1305.1 45.6766C1306.71 44.7566 1308.24 44.1966 1309.67 44.0099C1310.78 43.8499 1311.72 43.7832 1312.51 43.7698C1315.34 43.5965 1317.64 43.9566 1319.4 44.8766C1321.15 45.7833 1323.94 47.8898 1327.64 51.4365C1331.52 55.1432 1336.63 59.8632 1342.9 65.9698C1349.18 72.0898 1352.54 75.5433 1353.02 75.5433C1353.64 75.5566 1355.64 73.1966 1359.04 68.3433C1364.98 60.05 1371.07 52.3567 1377.34 45.3967C1383.59 38.4367 1388.24 34.1832 1391.31 32.7698Z" fill="#473025"/>
<path d="M1446.52 26.5435C1447.67 25.8235 1450.28 25.3567 1454.38 25.17C1459.26 24.9434 1464.02 24.8634 1468.54 24.77C1478.55 24.5567 1488.87 24.2901 1498.91 24.5568C1503.58 24.6901 1506.9 24.7835 1508.79 24.7435C1509.58 24.7168 1510.4 24.6634 1511.27 24.57C1512.14 24.4767 1512.64 24.4368 1512.8 24.4234C1513.19 24.4234 1513.38 24.4101 1513.75 24.4101C1516.74 24.3301 1518.15 25.6234 1518 28.3034C1517.94 29.5034 1517.4 30.7169 1516.39 31.9302C1515.79 32.6635 1515.48 33.0367 1514.88 33.77C1504.8 33.7834 1499.76 33.7968 1489.71 33.8768C1486.43 33.9301 1484.78 33.9702 1481.47 34.0635C1470.15 34.3569 1464.39 34.73 1464.22 35.17C1461.7 46.81 1461.84 59.1301 1461.22 70.9567C1460.67 81.6234 1460.36 89.8369 1460.24 95.2502C1459.86 107.01 1459.66 112.97 1459.26 124.784C1464.04 125.25 1466.44 125.477 1471.23 125.85C1477.8 126.33 1486.1 126.077 1496.35 125.184C1499.71 124.997 1502.19 125.37 1503.5 126.37C1504.87 127.437 1505.55 128.89 1505.48 130.423C1505.36 133.157 1503.76 134.863 1500.68 135.57C1490.68 137.53 1480.34 137.117 1470.26 136.05C1465.47 135.584 1463.08 135.317 1458.3 134.743C1457.86 137.837 1457.64 139.384 1457.2 142.45C1456.72 145.85 1456.34 150.37 1456.06 155.93C1455.99 157.317 1455.92 159.45 1455.86 162.29C1455.8 165.143 1455.74 167.237 1455.66 168.597C1455.3 175.93 1455.11 179.543 1454.75 186.557C1458.2 187.357 1459.92 187.743 1463.38 188.477C1468.8 189.77 1474.18 190.517 1479.54 190.584C1492.44 190.757 1500.66 190.997 1503.42 191.45C1503.8 191.517 1504 191.557 1504.39 191.61C1505.99 192.357 1506.74 194.063 1506.59 196.69C1506.55 197.623 1506.43 198.223 1506.26 198.503C1505.14 200.943 1501.67 201.877 1496.04 201.277C1493.95 201.05 1489.04 200.943 1481.62 200.81C1474.82 200.69 1466.9 199.49 1457.74 197.064C1449.67 194.93 1444.64 192.93 1442.68 191.557C1440.18 189.797 1438.39 187.104 1437.56 183.397C1436.74 179.69 1436.26 172.797 1436.16 162.29C1436.08 160.65 1435.92 151.357 1435.92 134.064C1435.92 116.384 1436.98 98.5035 1437.87 80.8101C1438.6 66.2768 1438.66 51.09 1440.79 37.1034C1441.32 33.61 1442.12 31.1436 1442.82 29.9169C1443.51 28.6769 1444.75 27.5568 1446.52 26.5435Z" fill="#473025"/>
<path d="M1580.86 38.3967C1575.39 37.4234 1570.8 36.89 1567.18 36.8767C1565.75 36.8767 1564.96 36.9701 1564.8 37.1301C1563.1 52.6501 1563.28 68.5568 1562.94 84.1168C1562.46 106.17 1558.86 131.957 1562.22 150.557C1562.36 151.383 1563.52 152.05 1565.19 152.237C1567.68 152.503 1571.99 151.85 1577.96 150.37C1587.14 148.09 1597.47 142.357 1604.59 136.397C1613.59 128.877 1622.02 118.957 1624.86 107.09C1625.47 104.837 1625.76 102.197 1625.72 99.1566C1625.68 94.7833 1624.66 89.1301 1622.71 82.3168C1619.16 70.0101 1613.63 56.9701 1603.83 48.5835C1597.6 43.2368 1589.74 39.9701 1580.86 38.3967ZM1553.2 27.1301C1555.55 26.3034 1559 25.8899 1563.42 25.8366C1574.27 25.6899 1583.96 27.0634 1592.3 29.6634C1601.14 32.4234 1611.47 38.9833 1617.28 46.3566C1624.74 55.8366 1629.51 67.4766 1632.74 79.09C1635.02 86.5166 1636.22 93.5567 1636.32 100.077C1636.43 107.17 1634.88 114.543 1631.84 121.957C1629.64 127.303 1625 133.69 1617.68 140.757C1610.38 147.823 1602.68 153.45 1594.66 157.703C1593.99 157.81 1593.66 158.33 1593.66 159.25C1593.64 160.717 1596.4 166.837 1602.11 177.023C1612.06 194.783 1622.02 213.13 1631.56 231.397C1632.98 234.237 1633.66 236.157 1633.62 237.17C1633.59 237.837 1633.15 238.877 1632.24 239.957C1631.28 241.09 1629.72 241.49 1627.87 241.143C1626.36 240.85 1625.04 240.023 1623.92 238.65C1622.79 237.263 1618.58 229.597 1610.95 215.197C1608.52 210.637 1605.2 204.397 1601.02 196.437C1596.82 188.463 1594.3 183.677 1593.47 182.13C1588.86 173.263 1586.22 168.037 1585.56 166.503C1584.59 164.037 1583.84 162.49 1583.35 161.89C1581.51 162.037 1579.58 162.357 1577.56 162.837C1572.86 163.903 1569.23 164.357 1566.72 164.237C1564.71 164.21 1563.7 164.183 1561.7 164.157C1561.6 172.77 1561.55 177.037 1561.42 185.397C1561.07 197.597 1561.26 206.89 1561.71 213.383C1561.95 216.917 1561.98 218.903 1561.95 219.223C1561.91 220.33 1561.51 221.37 1560.78 222.357C1558.94 224.703 1555.27 225.357 1549.84 224.357C1549.34 224.263 1549.08 224.21 1548.56 224.117C1544.5 223.37 1542 221.543 1541.06 218.583C1540.1 215.637 1539.47 208.237 1539.2 195.757C1538.72 172.397 1539.86 148.757 1540.52 125.33C1541.27 99.2367 1540.88 72.2633 1544.26 46.81C1545.39 38.29 1546.64 33.1567 1547.44 31.41C1548.23 29.6767 1550.18 28.1967 1553.2 27.1301Z" fill="#473025"/>
<path d="M1698.63 38.0502C1693.19 37.0502 1688.62 36.5034 1685 36.5434C1683.59 36.5568 1682.8 36.65 1682.64 36.8367C1681.22 54.4233 1681.99 72.37 1682.32 89.9033C1682.79 114.53 1680.56 142.823 1684.72 164.197C1684.91 165.143 1686.02 165.837 1687.58 166.01C1689.94 166.25 1693.92 165.437 1699.52 163.503C1708.51 160.397 1718.14 153.21 1724.44 146.45C1733.14 137.17 1740.95 125.637 1743.43 112.703C1743.99 110.197 1744.22 107.277 1744.12 103.943C1743.99 99.1568 1742.87 93.0234 1740.82 85.6234C1736.36 72.3567 1731.98 58.5968 1721.59 48.9434C1715.36 43.1701 1707.47 39.6635 1698.63 38.0502ZM1670.98 25.5434C1673.3 24.5701 1676.75 24.0501 1681.14 23.9434C1691.96 23.6501 1701.64 25.0234 1709.98 27.8234C1719.02 30.8634 1729.34 38.1169 1734.96 45.9169C1742.52 56.3702 1747.36 68.9434 1750.72 81.4101C1753.1 89.4234 1754.42 97.0235 1754.63 104.13C1754.86 111.863 1753.47 120.01 1750.63 128.384C1748.58 134.437 1743.99 141.85 1737.22 150.237C1731.23 157.65 1723.54 165.277 1715.58 170.743C1714.95 170.917 1714.64 171.503 1714.67 172.53C1714.71 174.17 1717.5 180.783 1723.15 191.677C1732.91 210.477 1742.56 229.903 1751.71 249.29C1753.06 252.29 1753.7 254.37 1753.64 255.53C1753.62 256.29 1753.18 257.53 1752.27 258.917C1751.32 260.37 1749.79 261.05 1748.02 260.917C1746.56 260.81 1745.31 260.05 1744.24 258.623C1743.18 257.21 1739.3 249.023 1732.03 233.597C1729.71 228.717 1726.55 222.037 1722.48 213.477C1718.4 204.917 1715.92 199.743 1715.11 198.063C1710.56 188.477 1707.91 182.797 1707.24 181.13C1706.24 178.423 1705.5 176.743 1705.02 176.09C1703.28 176.357 1701.48 176.81 1699.6 177.437C1695.22 178.85 1691.86 179.477 1689.51 179.397C1687.63 179.423 1686.7 179.437 1684.82 179.437C1685.08 189.09 1685.2 193.89 1685.34 203.317C1685.43 213.89 1685.55 224.623 1686.18 235.063C1686.43 239.117 1686.46 241.37 1686.44 241.743C1686.39 243.01 1686.03 244.223 1685.35 245.37C1683.67 248.117 1680.35 248.93 1675.3 247.89C1674.82 247.783 1674.59 247.743 1674.11 247.637C1670.31 246.863 1667.95 244.81 1667.03 241.423C1666.1 238.05 1665.47 229.584 1664.82 215.384C1663.62 189.104 1663.4 162.623 1662.72 136.263C1661.98 107.023 1659.98 76.8368 1662.52 48.0635C1663.39 38.3568 1664.54 32.4901 1665.3 30.4901C1666.06 28.5034 1667.98 26.7834 1670.98 25.5434Z" fill="#473025"/>
<path d="M1776.79 8.89003C1778.08 8.38337 1779.59 8.04998 1781.32 7.90332C1783.22 7.72998 1784.54 8.10342 1785.27 9.01009C1785.86 9.74342 1788.98 16.37 1795.19 29.49C1799.74 39.41 1804.74 49.1567 1809.72 58.8234C1814.42 67.9434 1819.35 77.1035 1823.84 86.2502C1827.47 93.6369 1829.42 97.5167 1829.74 97.49C1830.54 97.45 1832.35 93.2367 1835.24 84.8234C1844.54 58.65 1854.19 32.5966 1866 7.43665C1868.06 2.87665 1870.23 0.396649 1872.46 0.036649C1873.4 -0.110018 1874.24 0.183524 1875 0.916857C1876.51 2.17019 1877.36 3.5967 1877.2 4.7567C1875.36 17.5567 1866.8 32.2634 1861.47 45.4768C1856.54 57.7168 1851.67 70.1835 1847.08 82.6502C1841.56 97.6369 1838.67 105.397 1838.22 106.063C1837.76 106.743 1837.83 113.917 1838.47 127.57C1839.74 154.77 1841.8 182.183 1842.94 209.17C1843.54 223.53 1843.82 238.143 1843.38 252.637C1843.31 254.517 1843.27 255.463 1843.2 257.33C1842.23 261.263 1839.56 263.13 1835.22 262.984C1834.74 262.97 1834.5 262.957 1834 262.943C1828.08 261.93 1824.4 259.277 1822.95 254.93C1821.4 232.517 1822.02 209.837 1821.19 187.37C1820.31 165.37 1819.18 143.397 1818.04 121.423C1815.02 115.877 1813.51 113.117 1810.51 107.597C1796.3 80.5435 1780.55 52.9968 1770.99 23.7968C1770.14 20.8901 1769.75 18.5569 1769.83 16.7835C1769.98 13.2369 1772.31 10.6367 1776.79 8.89003Z" fill="#473025"/>
</svg>
