<svg xmlns="http://www.w3.org/2000/svg" width="191" height="39" viewBox="0 0 191 39" fill="none">
<g clip-path="url(#clip0_1_1776)">
<path d="M4.90253 30.9505V35.9486C4.90253 36.1235 5.04578 36.2347 5.18904 36.2347H10.195C10.3701 36.2347 10.4816 36.0917 10.4816 35.9486C10.3383 33.1118 8.07008 30.8392 5.22883 30.7041C5.05374 30.6326 4.91049 30.7757 4.91049 30.9505H4.90253Z" fill="black"/>
<path d="M186.137 23.5764L184.291 25.4517V27.8594H183.336V18.7451H184.291V24.2439L189.615 18.7451H190.753L186.774 22.8612L191 27.8276H189.862L186.129 23.5764H186.137ZM173.889 26.9059C173.212 26.2304 172.894 25.2372 172.894 23.9658V18.7531H173.849V23.934C173.849 24.9988 174.096 25.7775 174.557 26.3099C175.727 27.335 177.542 27.335 178.712 26.3099C179.173 25.7775 179.42 24.9988 179.42 23.934V18.7531H180.343V23.9658C180.343 25.2769 180.025 26.2384 179.349 26.9059C178.672 27.5813 177.789 27.9389 176.579 27.9389C175.369 27.9389 174.557 27.5813 173.881 26.9059H173.889ZM169.734 27.7243C169.591 27.5813 169.52 27.4065 169.52 27.2317C169.52 26.8423 169.806 26.5245 170.196 26.5245H170.228C170.403 26.5245 170.586 26.596 170.729 26.739C170.873 26.882 170.944 27.0568 170.944 27.2317C170.944 27.4065 170.873 27.621 170.729 27.7243C170.586 27.8674 170.411 27.9389 170.228 27.9389C170.053 27.9071 169.87 27.8276 169.726 27.7243H169.734ZM165.612 26.588C166.177 26.2702 166.639 25.8093 166.997 25.2451C167.673 24.0373 167.673 22.5831 166.997 21.3833C166.678 20.8191 166.217 20.3582 165.612 20.0403C164.402 19.4046 162.914 19.4046 161.704 20.0403C161.139 20.3582 160.638 20.8191 160.319 21.3833C159.643 22.5911 159.643 24.0452 160.319 25.2451C160.638 25.8093 161.139 26.2702 161.704 26.588C162.914 27.2237 164.402 27.2237 165.612 26.588ZM161.211 27.335C160.502 26.9456 159.898 26.3814 159.508 25.6663C158.688 24.2121 158.688 22.4083 159.508 20.9542C159.929 20.2469 160.502 19.6748 161.211 19.2855C162.739 18.4749 164.585 18.4749 166.113 19.2855C166.822 19.6748 167.426 20.239 167.816 20.9542C168.668 22.4401 168.668 24.2121 167.816 25.706C167.426 26.4132 166.822 26.9853 166.113 27.3747C164.585 28.1534 162.739 28.1534 161.211 27.3429V27.335ZM152.01 27.335C151.302 26.9456 150.697 26.3814 150.307 25.6663C149.488 24.1803 149.488 22.4083 150.307 20.9144C150.697 20.2072 151.302 19.6351 152.01 19.2457C153.356 18.5703 154.923 18.467 156.34 18.9994C156.905 19.2139 157.406 19.5318 157.796 19.9529L157.192 20.5568C156.483 19.8496 155.488 19.4603 154.494 19.4921C153.817 19.4921 153.149 19.6669 152.544 19.9847C151.979 20.3026 151.477 20.7634 151.159 21.3276C150.482 22.5355 150.482 23.9896 151.159 25.1577C151.477 25.7219 151.979 26.1828 152.544 26.5006C153.149 26.8185 153.825 26.9933 154.533 26.9933C155.56 27.0251 156.523 26.6357 157.231 25.8967L157.836 26.5006C157.446 26.9218 156.913 27.2793 156.38 27.4939C155.775 27.7402 155.138 27.8515 154.502 27.8515C153.61 27.923 152.798 27.7084 152.018 27.3191L152.01 27.335ZM147.394 27.7243C147.251 27.5813 147.18 27.4065 147.18 27.2317C147.18 26.8423 147.466 26.5245 147.856 26.5245H147.888C148.063 26.5245 148.246 26.596 148.389 26.739C148.533 26.882 148.604 27.0568 148.604 27.2317C148.604 27.4065 148.533 27.621 148.389 27.7243C148.246 27.8674 148.071 27.9389 147.888 27.9389C147.713 27.9071 147.53 27.8276 147.387 27.7243H147.394ZM107.092 8.36736C104.147 8.54218 101.839 10.9578 101.799 13.8979C101.767 10.9578 99.4594 8.54218 96.5068 8.36736C96.3317 8.36736 96.2203 8.47861 96.1884 8.65342V27.5495C96.1884 27.6925 96.3317 27.8356 96.4749 27.8356H101.553C101.696 27.8356 101.839 27.6925 101.839 27.5495V13.9377H107.132C107.275 13.9377 107.418 13.7946 107.418 13.6516V8.65342C107.418 8.51039 107.275 8.36736 107.1 8.36736H107.092ZM83.375 22.6229C80.8521 22.6229 78.8306 20.6045 78.8306 18.0856C78.8306 15.5666 80.8521 13.5483 83.375 13.5483C84.5449 13.5483 85.683 14.0092 86.5346 14.8276V21.3833C85.6432 22.162 84.5449 22.6229 83.375 22.6229ZM83.0168 8.36736C77.6209 8.36736 73.2515 12.7298 73.2515 18.1174C73.2515 23.5049 77.6209 27.8674 83.0168 27.8674C84.1868 27.8674 85.3965 27.6528 86.4948 27.2317V27.5892C86.4948 27.7323 86.638 27.8753 86.7813 27.8753H91.7873C91.9305 27.8753 92.0738 27.7323 92.0738 27.5892V8.65342C92.0738 8.51039 91.9305 8.36736 91.7873 8.36736H91.7554C90.4423 8.43887 89.2007 8.97127 88.2377 9.89303C86.6778 8.89975 84.8632 8.36736 83.0168 8.36736ZM64.9427 13.5801C66.041 13.5086 67.1791 13.8661 68.0307 14.5336C68.1341 14.6369 68.3172 14.6051 68.4206 14.5018L71.5484 11.379C71.6519 11.2757 71.6519 11.0929 71.5484 10.9578C67.6089 7.27078 61.425 7.48533 57.7322 11.4187C54.0393 15.3521 54.2542 21.5263 58.1938 25.2054C61.9582 28.7176 67.784 28.7176 71.5086 25.2054C71.6121 25.1021 71.6121 24.9193 71.5086 24.816L68.349 21.6932C68.2456 21.5819 68.1023 21.5819 67.959 21.6614C65.9694 23.187 63.1281 22.8295 61.6001 20.8826C60.072 18.8961 60.4301 16.0593 62.38 14.5336C63.16 13.9694 64.0115 13.6436 64.9347 13.5801H64.9427ZM140.295 16.2738C136.531 15.6302 135.321 15.3521 135.321 14.4621C135.321 13.5721 136.563 13.2543 138.059 13.2543C139.404 13.2543 140.47 13.5403 141.433 14.3906C141.537 14.4939 141.72 14.4939 141.823 14.3906L144.84 11.379C144.943 11.2757 144.943 11.0929 144.84 10.9896C142.993 9.28912 140.542 8.36736 138.019 8.39914C135.393 8.39914 133.045 9.63875 132.05 10.632C131.023 11.6571 130.419 13.0397 130.419 14.4939C130.419 16.5122 131.557 18.3955 133.363 19.2775C134.358 19.8099 135.456 20.1277 136.563 20.3026C139.404 20.7634 140.86 20.7952 140.86 21.86C140.86 22.7103 139.619 22.9963 138.059 22.9963C136.316 22.9963 134.828 22.3606 133.371 21.4707C133.268 21.3991 133.125 21.4389 133.013 21.5024L129.925 24.5856C129.822 24.6968 129.822 24.8716 129.925 24.9749L129.957 25.0067C131.055 25.8967 134.43 27.8435 138.091 27.8435C139.261 27.8435 140.399 27.6687 141.465 27.2396C144.338 26.2463 145.763 24.1883 145.763 21.8839C145.763 19.7225 144.553 16.9572 140.295 16.25V16.2738ZM118.918 22.6546C116.395 22.6546 114.374 20.6363 114.374 18.1174C114.374 15.5984 116.395 13.5801 118.918 13.5801C120.088 13.5801 121.195 14.041 122.046 14.8197V21.3435C121.226 22.1938 120.096 22.6229 118.918 22.6546ZM122.078 5.56235V8.96332C117.032 7.04829 111.389 9.56724 109.471 14.5972C107.553 19.6351 110.076 25.2689 115.114 27.184C117.358 28.0342 119.834 28.0342 122.07 27.184V27.5416C122.07 27.6846 122.213 27.8276 122.357 27.8276H127.363C127.506 27.8276 127.649 27.6846 127.649 27.5416V0.286064C127.649 0.111247 127.506 0 127.363 0C124.378 0.174817 122.07 2.62225 122.07 5.56235H122.078ZM38.7746 5.95966C39.0213 5.71333 39.3795 5.57029 39.7297 5.57029H40.8279C40.9712 5.57029 41.1145 5.42726 41.1145 5.28423V0.286064C41.1145 0.143032 40.9712 0 40.8279 0H38.3448C35.2569 0 32.7658 2.47922 32.734 5.56235V8.39914H31.6357C31.4924 8.39914 31.3492 8.54218 31.3492 8.68521V10.8863C31.3492 11.0293 31.4924 11.1724 31.6357 11.1724H32.734V27.5892C32.734 27.7323 32.8772 27.8753 33.0205 27.8753H38.0265C38.1698 27.8753 38.313 27.7323 38.313 27.5892V11.1326H40.7961C40.9394 11.1326 41.0826 10.9896 41.0826 10.8466V8.61369C41.0826 8.47066 40.9394 8.32763 40.7961 8.32763H38.313V6.94499C38.3448 6.58741 38.5279 6.23777 38.7746 5.95171V5.95966ZM23.295 8.36736H28.301C28.4443 8.36736 28.5875 8.51039 28.5875 8.65342V27.5813C28.5875 27.7243 28.4443 27.8674 28.301 27.8674H23.295C23.1518 27.8674 23.0085 27.7243 23.0085 27.5813V8.65342C23.0085 8.47861 23.1518 8.36736 23.295 8.36736ZM23.8601 4.78362C24.9584 5.8802 26.7013 5.8802 27.7996 4.78362C28.8979 3.68704 28.8979 1.94682 27.7996 0.850245C26.7013 -0.246332 24.9584 -0.246332 23.8601 0.850245C22.7618 1.91504 22.7618 3.68704 23.8601 4.78362ZM50.633 27.8674C50.7763 27.8674 50.9195 27.7243 50.9195 27.5813V13.9297C50.9195 10.8466 48.4364 8.35941 45.3405 8.35941V27.5733C45.3405 27.7164 45.4838 27.8594 45.627 27.8594H50.633V27.8674ZM50.4181 0.492665L43.0325 7.86675C42.929 7.97799 42.929 8.15281 43.0325 8.25611C43.1041 8.32763 43.1758 8.32763 43.2474 8.32763H53.4345C53.5777 8.32763 53.721 8.1846 53.721 8.04156V5.84046C53.721 5.69743 53.5777 5.5544 53.4345 5.5544H50.9116V0.707213C50.9116 0.564181 50.8081 0.421149 50.6251 0.389364C50.5534 0.389364 50.4818 0.421149 50.4102 0.492665H50.4181ZM10.1234 22.6546C7.60052 22.6546 5.57902 20.6363 5.57902 18.1174C5.57902 15.5984 7.60052 13.5801 10.1234 13.5801C11.2933 13.5801 12.3996 14.041 13.2512 14.8197V21.3435C12.4314 22.1938 11.3013 22.6546 10.1234 22.6546ZM9.76528 8.36736C4.36931 8.36736 0 12.7298 0 18.1174C0 23.5049 4.36931 27.8674 9.76528 27.8674C10.975 27.8674 12.1449 27.6528 13.283 27.2317V35.9566C13.283 36.0996 13.4263 36.2427 13.5695 36.2427H13.6014C16.5461 36.0678 18.8939 33.6204 18.8939 30.6724V8.68521C18.8939 8.51039 18.7506 8.39914 18.6074 8.39914C17.2942 8.47066 16.0526 9.00306 15.0896 9.92482C13.4183 8.89975 11.6117 8.36736 9.76528 8.36736Z" fill="black"/>
<path d="M87.9512 34.5343H90.3627C90.2911 33.6841 89.8613 33.1914 89.153 33.1914C88.4446 33.1914 88.0149 33.6841 87.9433 34.5343H87.9512ZM91.2222 34.9237H87.9194C87.9512 35.8454 88.4208 36.3778 89.1291 36.3778C89.734 36.4494 90.2274 36.0203 90.3388 35.4243H91.1904C91.0471 36.4573 90.1637 37.1645 89.1291 37.0533C87.8159 37.0533 87.0678 36.203 87.0678 34.7807C87.0678 33.3583 87.8159 32.508 89.1291 32.508C90.4423 32.508 91.1904 33.3583 91.1904 34.7807V34.9237H91.2222ZM82.6985 35.5594H83.5501C83.5501 36.1236 83.94 36.4811 84.6165 36.4811C85.293 36.4811 85.683 36.2348 85.683 35.7739C85.683 35.2097 85.1179 35.1303 84.4733 35.027C83.7252 34.9157 82.8417 34.7409 82.8417 33.8192C82.8417 33.0404 83.5182 32.5398 84.6165 32.5398C85.7148 32.5398 86.3913 33.104 86.3913 33.994H85.5397C85.5716 33.5331 85.2214 33.1437 84.7598 33.104H84.5847C84.0196 33.104 83.6615 33.3503 83.6615 33.7397C83.6615 34.1291 84.1947 34.3039 84.7598 34.3754C85.5397 34.5184 86.4629 34.6615 86.4629 35.6865C86.4629 36.5368 85.7546 37.0294 84.5449 37.0294C83.4068 37.0294 82.6985 36.4652 82.6985 35.5435V35.5594ZM81.0272 36.9818V32.5875H81.9185V36.95H81.0272V36.9818ZM81.0272 31.6975V30.7042H81.9185V31.6975H81.0272ZM80.5019 32.6511L80.2154 33.4695C80.0403 33.3583 79.7936 33.3265 79.5787 33.3265C78.8306 33.3265 78.369 33.9304 78.369 34.9237V37.0135H77.4776V32.5796H78.369V34.28C78.369 33.1835 78.9022 32.4763 79.7538 32.4763C80.0403 32.508 80.287 32.5478 80.5019 32.6511ZM75.7745 34.7807C75.7745 33.7874 75.3129 33.2232 74.4931 33.2232C73.6734 33.2232 73.2118 33.8271 73.2118 34.7807C73.2118 35.7342 73.7132 36.3381 74.5249 36.3381C75.3367 36.3381 75.7665 35.7739 75.7665 34.7807H75.7745ZM76.6658 34.7807C76.6658 36.203 75.9893 37.0533 74.8513 37.0533C74.0713 37.1248 73.363 36.5606 73.2516 35.7739V35.5276V39.0001H72.3602V32.6193H73.2516V34.0734C73.1799 33.2947 73.7848 32.5875 74.5647 32.516H74.8831C75.9814 32.516 76.6579 33.3662 76.6579 34.7886L76.6658 34.7807ZM71.8349 32.6511L71.5882 33.4695C71.3733 33.3583 71.1664 33.3265 70.9515 33.3265C70.2034 33.3265 69.7418 33.9304 69.7418 34.9237V37.0135H68.8504V32.5796H69.7418V34.28C69.7418 33.1835 70.275 32.4763 71.1266 32.4763C71.3733 32.508 71.628 32.5478 71.8349 32.6511ZM66.8608 32.5796H67.7521V36.942H66.8608V35.4163C66.8608 36.4096 66.2957 37.0135 65.4362 37.0135C64.5766 37.0135 63.9081 36.3381 63.9081 35.2415V32.5796H64.7995V35.2415C64.7995 35.917 65.1576 36.3063 65.7545 36.3063C66.4628 36.3063 66.8528 35.8137 66.8528 34.9237V32.5796H66.8608ZM59.3319 35.5594H60.1834C60.1834 36.1236 60.5734 36.4811 61.2499 36.4811C61.9264 36.4811 62.3164 36.2348 62.3164 35.7739C62.3164 35.2097 61.7513 35.1303 61.1066 35.027C60.3585 34.9157 59.4751 34.7409 59.4751 33.8192C59.4751 33.0404 60.1516 32.5398 61.2499 32.5398C62.3482 32.5398 63.0247 33.104 63.0247 33.994H62.1731C62.2049 33.5331 61.8548 33.1437 61.3932 33.104H61.2181C60.653 33.104 60.2949 33.3503 60.2949 33.7397C60.2949 34.1291 60.8599 34.3039 61.3932 34.3754C62.1731 34.5184 63.0963 34.6615 63.0963 35.6865C63.0963 36.5368 62.388 37.0294 61.1783 37.0294C59.9686 37.0294 59.3319 36.4652 59.3319 35.5435V35.5594ZM56.029 34.7807C56.029 33.7874 55.5674 33.2232 54.7477 33.2232C53.9279 33.2232 53.4663 33.7874 53.4663 34.7807C53.4663 35.7739 53.9279 36.3381 54.7477 36.3381C55.5674 36.3381 56.029 35.7739 56.029 34.7807ZM52.5511 34.7807C52.5511 33.3583 53.3708 32.508 54.7556 32.508C56.1404 32.508 56.9602 33.3583 56.9602 34.7807C56.9602 36.203 56.1404 37.0533 54.7556 37.0533C53.3708 37.0533 52.5511 36.203 52.5511 34.7807ZM52.2009 33.2232H50.7445V35.5991C50.7126 35.9885 50.9912 36.3063 51.3811 36.3461H51.5244C51.7393 36.3461 51.9462 36.3143 52.1293 36.203V36.8785C51.8428 36.9818 51.5244 37.0533 51.2379 37.0533C50.5614 37.1248 49.9565 36.6242 49.8929 35.917V33.1835H49.2164V32.5478H49.9645V31.0618H50.8559V31.4194C50.8559 31.9518 50.4977 32.3729 50.0043 32.516H52.2407L52.2089 33.2232H52.2009ZM46.2717 32.5796H47.1949L45.2769 38.9604H44.3536L44.9585 36.942H44.2502L42.937 32.5796H43.892L45.1018 36.8705L46.2717 32.5796ZM41.6875 34.7807C41.6557 33.7874 41.1861 33.1835 40.3743 33.1835C39.5625 33.1835 39.0611 33.7874 39.0611 34.7409C39.0611 35.6945 39.5625 36.2984 40.3743 36.2984C41.1941 36.3302 41.6557 35.766 41.6875 34.7727V34.7807ZM42.5709 34.7807C42.5709 36.203 41.8944 37.0533 40.7563 37.0533C39.9764 37.1248 39.2681 36.5606 39.1566 35.7739V35.5276V39.0001H38.2334V32.6193H39.1248V34.0734C39.0532 33.2947 39.658 32.5875 40.4698 32.516H40.7165C41.8865 32.516 42.563 33.3662 42.563 34.7886L42.5709 34.7807ZM36.5064 34.7807C36.5064 33.7874 36.0448 33.2232 35.1932 33.2232C34.3417 33.2232 33.88 33.8271 33.88 34.7807C33.88 35.7342 34.3814 36.3381 35.1932 36.3381C36.005 36.3381 36.5064 35.7739 36.5064 34.7807ZM37.3898 34.7807C37.3898 36.203 36.7133 37.0533 35.5752 37.0533C34.7953 37.1248 34.087 36.5606 33.9755 35.7739V35.4879V38.9604H33.0842V32.5796H33.9755V34.0337C33.9039 33.255 34.5088 32.5478 35.2887 32.4763H35.5752C36.7133 32.508 37.3898 33.3583 37.3898 34.7807ZM31.1423 34.7807C31.1423 33.8271 30.6807 33.2232 29.8609 33.2232C29.0412 33.2232 28.5796 33.7874 28.5796 34.7807C28.5796 35.7739 29.0412 36.3381 29.8609 36.3381C30.6807 36.3381 31.1423 35.7342 31.1423 34.7807ZM31.0706 32.5796H31.962V36.942H31.0706V35.4879C31.1423 36.2666 30.5374 36.9738 29.7575 37.0453H29.4709C28.3727 37.0453 27.6564 36.1951 27.6564 34.7727C27.6564 33.3503 28.3329 32.5001 29.4709 32.5001C30.2509 32.4286 30.9592 32.9928 31.0706 33.7794V34.0655V32.5796ZM26.8446 34.28V36.9738H25.9532V34.3118C26.0248 33.7794 25.6667 33.2868 25.1733 33.2152H24.9584C24.2501 33.2152 23.8203 33.7159 23.8203 34.5979V36.9738H22.9289V30.5215H23.7805V34.1052C23.7805 33.0802 24.3456 32.508 25.2369 32.508C26.1283 32.508 26.8366 33.1437 26.8366 34.28H26.8446Z" fill="white"/>
</g>
<defs>
<clipPath id="clip0_1_1776">
<rect width="191" height="39" fill="white"/>
</clipPath>
</defs>
<script xmlns=""/></svg>
